<svg width="25" height="24" viewBox="0 0 25 24" fill="none" xmlns="http://www.w3.org/2000/svg">
<path d="M19.5 8.00009H18.5V5.00009C18.5 4.20444 18.1839 3.44138 17.6213 2.87877C17.0587 2.31616 16.2956 2.00009 15.5 2.00009H5.5C4.70435 2.00009 3.94129 2.31616 3.37868 2.87877C2.81607 3.44138 2.5 4.20444 2.5 5.00009V17.0001C2.50099 17.1975 2.56039 17.3902 2.67072 17.554C2.78105 17.7177 2.93738 17.8451 3.12 17.9201C3.23868 17.9761 3.36882 18.0035 3.5 18.0001C3.63161 18.0009 3.76207 17.9756 3.88391 17.9259C4.00574 17.8761 4.11656 17.8028 4.21 17.7101L7.02 14.8901H8.5V16.3301C8.5 17.1257 8.81607 17.8888 9.37868 18.4514C9.94129 19.014 10.7044 19.3301 11.5 19.3301H18.42L20.79 21.7101C20.8834 21.8028 20.9943 21.8761 21.1161 21.9259C21.2379 21.9756 21.3684 22.0009 21.5 22.0001C21.6312 22.0035 21.7613 21.9761 21.88 21.9201C22.0626 21.8451 22.2189 21.7177 22.3293 21.554C22.4396 21.3902 22.499 21.1975 22.5 21.0001V11.0001C22.5 10.2044 22.1839 9.44138 21.6213 8.87877C21.0587 8.31616 20.2956 8.00009 19.5 8.00009ZM8.5 11.0001V12.8901H6.61C6.47839 12.8893 6.34793 12.9146 6.22609 12.9643C6.10426 13.0141 5.99344 13.0874 5.9 13.1801L4.5 14.5901V5.00009C4.5 4.73487 4.60536 4.48052 4.79289 4.29298C4.98043 4.10545 5.23478 4.00009 5.5 4.00009H15.5C15.7652 4.00009 16.0196 4.10545 16.2071 4.29298C16.3946 4.48052 16.5 4.73487 16.5 5.00009V8.00009H11.5C10.7044 8.00009 9.94129 8.31616 9.37868 8.87877C8.81607 9.44138 8.5 10.2044 8.5 11.0001ZM20.5 18.5901L19.5 17.5901C19.4074 17.4956 19.2969 17.4204 19.1751 17.3689C19.0532 17.3174 18.9223 17.2906 18.79 17.2901H11.5C11.2348 17.2901 10.9804 17.1847 10.7929 16.9972C10.6054 16.8097 10.5 16.5553 10.5 16.2901V11.0001C10.5 10.7349 10.6054 10.4805 10.7929 10.293C10.9804 10.1054 11.2348 10.0001 11.5 10.0001H19.5C19.7652 10.0001 20.0196 10.1054 20.2071 10.293C20.3946 10.4805 20.5 10.7349 20.5 11.0001V18.5901Z" fill="#141414"/>
</svg>
