<svg width="140" height="144" viewBox="0 0 140 144" fill="none" xmlns="http://www.w3.org/2000/svg">
<g clip-path="url(#clip0_2184_8795)">
<rect width="140" height="143.307" rx="6.46154" fill="white"/>
<g clip-path="url(#clip1_2184_8795)">
<g clip-path="url(#clip2_2184_8795)">
<path d="M155.672 138.656H38.8997V146.355H155.672V138.656Z" fill="#A63125"/>
<path d="M153.932 76.2598H40.6392V80.1092H153.932V76.2598Z" fill="#A63125"/>
<path d="M155.672 72.4103H38.8997V76.2597H155.672V72.4103Z" fill="#A63125"/>
<path d="M125.375 59.9116H69.196V63.7611H125.375V59.9116Z" fill="#A63125"/>
<path d="M127.002 56.0622H67.5531V59.9116H127.002V56.0622Z" fill="#A63125"/>
<path d="M126.229 138.656H68.3263V146.355H126.229V138.656Z" fill="#E74C3C"/>
<path d="M152.95 80.1092H41.6217V138.656H152.95V80.1092Z" fill="#BAB08A"/>
<path d="M152.95 82.3641H41.6217V138.656H152.95V82.3641Z" fill="#E0D6AF"/>
<path d="M124.473 63.7611H70.098V138.656H124.473V63.7611Z" fill="#FFF4C7"/>
<path d="M64.7184 99.4531V83.3788H47.0657V99.4531H64.7184Z" fill="#ECF0F1"/>
<path d="M63.1078 84.9894H48.6763V97.8424H63.1078V84.9894Z" fill="#2980B9"/>
<path d="M63.1078 85.5693V84.9733H48.6763V97.1498C53.0251 92.7044 57.8893 88.8872 63.1078 85.5532V85.5693Z" fill="#3498DB"/>
<path d="M64.7184 120.086V104.011H47.0657V120.086H64.7184Z" fill="#ECF0F1"/>
<path d="M63.1078 105.622H48.6763V118.475H63.1078V105.622Z" fill="#2980B9"/>
<path d="M63.1078 106.218V105.622H48.6763V117.798C53.0251 113.353 57.8893 109.536 63.1078 106.202V106.218Z" fill="#3498DB"/>
<path d="M92.8887 120.086V104.011H75.2359V120.086H92.8887Z" fill="#ECF0F1"/>
<path d="M91.278 105.622H76.8466V118.475H91.278V105.622Z" fill="#2980B9"/>
<path d="M91.278 106.218V105.622H76.8466V117.798C81.1953 113.353 86.0595 109.536 91.278 106.202V106.218Z" fill="#3498DB"/>
<path d="M119.336 120.086V104.011H101.683V120.086H119.336Z" fill="#ECF0F1"/>
<path d="M117.725 105.622H103.293V118.475H117.725V105.622Z" fill="#2980B9"/>
<path d="M117.709 106.218V105.622H103.277V117.798C107.626 113.353 112.49 109.536 117.709 106.202V106.218Z" fill="#3498DB"/>
<path d="M92.8887 99.4531V68.1099H75.2359V99.4531H92.8887Z" fill="#ECF0F1"/>
<path d="M91.278 69.7205H76.8466V97.8425H91.278V69.7205Z" fill="#2980B9"/>
<path d="M91.278 85.5693V69.7205H76.8466V97.166C81.1953 92.7206 86.0595 88.9034 91.278 85.5693Z" fill="#3498DB"/>
<path d="M91.278 69.7205H76.8466V97.8425H91.278V69.7205Z" fill="#2980B9"/>
<path d="M91.278 85.5693V69.7205H76.8466V97.166C81.1953 92.7206 86.0595 88.9034 91.278 85.5693Z" fill="#3498DB"/>
<path d="M119.336 99.4692V68.126H101.683V99.4692H119.336Z" fill="#ECF0F1"/>
<path d="M117.725 69.7205H103.293V97.8425H117.725V69.7205Z" fill="#2980B9"/>
<path d="M117.709 85.5693V69.7205H103.277V97.166C107.626 92.7206 112.49 88.9034 117.709 85.5693Z" fill="#3498DB"/>
<path d="M147.796 99.4531V83.3788H130.143V99.4531H147.796Z" fill="#ECF0F1"/>
<path d="M146.185 84.9894H131.754V97.8424H146.185V84.9894Z" fill="#2980B9"/>
<path d="M146.185 85.5693V84.9733H131.754V97.1498C136.102 92.7044 140.967 88.8872 146.185 85.5532V85.5693Z" fill="#3498DB"/>
<path d="M147.796 120.086V104.011H130.143V120.086H147.796Z" fill="#ECF0F1"/>
<path d="M146.185 105.622H131.754V118.475H146.185V105.622Z" fill="#2980B9"/>
<path d="M146.185 106.218V105.622H131.754V117.798C136.102 113.353 140.967 109.536 146.185 106.202V106.218Z" fill="#3498DB"/>
<path d="M124.473 63.7611H70.098V66.5475H124.473V63.7611Z" fill="#E0D6AF"/>
<path d="M82.3389 124.338C82.3389 124.483 82.3228 124.628 82.3228 124.773V146.355H112.233V124.773C112.233 124.628 112.216 124.483 112.216 124.338H82.3389Z" fill="#ECF0F1"/>
<path d="M84.32 124.338C84.32 124.483 84.3039 124.628 84.3039 124.773V146.355H110.268V124.773C110.268 124.628 110.251 124.483 110.251 124.338H84.3361H84.32Z" fill="#2980B9"/>
<path d="M84.32 124.338C84.32 124.483 84.3039 124.628 84.3039 124.773V141.894C90.4244 135.789 96.8186 129.91 103.374 124.354H84.3361L84.32 124.338Z" fill="#3498DB"/>
<path d="M112.233 124.064H82.3228V126.013H112.233V124.064Z" fill="#ECF0F1"/>
<path d="M94.0805 138.254C94.0805 139.896 94.5637 141.233 95.1597 141.233C95.7556 141.233 96.2388 139.896 96.2388 138.254C96.2388 136.611 95.7556 135.274 95.1597 135.274C94.5637 135.274 94.0805 136.611 94.0805 138.254Z" fill="#F1C40F"/>
<path d="M98.3165 138.254C98.3165 139.896 98.7997 141.233 99.3957 141.233C99.9916 141.233 100.475 139.896 100.475 138.254C100.475 136.611 99.9916 135.274 99.3957 135.274C98.7997 135.274 98.3165 136.611 98.3165 138.254Z" fill="#F1C40F"/>
<path d="M49.0629 146.355C49.6427 145.389 49.9971 144.261 49.9971 143.053C49.9971 139.462 47.0979 136.562 43.5062 136.562C39.9144 136.562 37.0152 139.462 37.0152 143.053C37.0152 144.261 37.3696 145.389 37.9494 146.355H49.079H49.0629Z" fill="#27AE60"/>
<path d="M73.6092 146.355C74.3179 145.147 74.7527 143.762 74.7527 142.264C74.7527 137.835 71.161 134.227 66.7156 134.227C62.2702 134.227 58.6785 137.819 58.6785 142.264C58.6785 143.762 59.1133 145.147 59.822 146.355H73.5931H73.6092Z" fill="#27AE60"/>
<path d="M63.9775 146.355C64.8473 144.906 65.3627 143.231 65.3627 141.411C65.3627 136.047 61.0139 131.682 55.6343 131.682C50.2548 131.682 45.906 136.031 45.906 141.411C45.906 143.231 46.4375 144.906 47.2912 146.355H63.9614H63.9775Z" fill="#27AE60"/>
<path d="M132.156 146.355C132.736 145.389 133.09 144.261 133.09 143.053C133.09 139.462 130.191 136.562 126.6 136.562C123.008 136.562 120.109 139.462 120.109 143.053C120.109 144.261 120.463 145.389 121.043 146.355H132.172H132.156Z" fill="#27AE60"/>
<path d="M147.071 146.355C147.941 144.906 148.456 143.231 148.456 141.411C148.456 136.047 144.107 131.682 138.728 131.682C133.348 131.682 128.999 136.031 128.999 141.411C128.999 143.231 129.531 144.906 130.385 146.355H147.055H147.071Z" fill="#27AE60"/>
</g>
</g>
<g clip-path="url(#clip3_2184_8795)">
<path d="M87.0343 22.6929H-3.7825V143.962H87.0343V22.6929Z" fill="#BDC3C7"/>
<g style="mix-blend-mode:multiply">
<path d="M19.2289 94.2353V92.249H2.90039V94.2353H19.2289Z" fill="#95A5A6"/>
</g>
<path d="M18.5892 92.754V90.7676H2.26072V92.754H18.5892Z" fill="#ECF0F1"/>
<path d="M17.6465 91.744L17.6465 33.7694H3.18656L3.18656 91.744H17.6465Z" fill="#ECF0F1"/>
<path d="M16.3167 35.5874H4.49958V89.9428H16.3167V35.5874Z" fill="#2980B9"/>
<path d="M16.3167 36.2439V35.5874H4.49958V89.1853L16.3167 36.2439Z" fill="#3498DB"/>
<g style="mix-blend-mode:multiply">
<path d="M39.8331 94.2185V92.2322H23.5046V94.2185H39.8331Z" fill="#95A5A6"/>
</g>
<path d="M39.1766 92.7708V90.7845H22.8481V92.7708H39.1766Z" fill="#ECF0F1"/>
<path d="M38.2339 91.7608V33.7862H23.7739L23.7739 91.7608H38.2339Z" fill="#ECF0F1"/>
<path d="M36.9209 35.5874H25.1038V89.9428H36.9209V35.5874Z" fill="#2980B9"/>
<path d="M36.9209 36.2439V35.5874H25.1038V89.1853L36.9209 36.2439Z" fill="#3498DB"/>
<g style="mix-blend-mode:multiply">
<path d="M60.4205 94.2354V92.249H44.092V94.2354H60.4205Z" fill="#95A5A6"/>
</g>
<path d="M59.7808 92.754V90.7676H43.4523V92.754H59.7808Z" fill="#ECF0F1"/>
<path d="M58.8381 91.744V33.7694H44.3781V91.744H58.8381Z" fill="#ECF0F1"/>
<path d="M57.5083 35.5874H45.6912V89.9428H57.5083V35.5874Z" fill="#2980B9"/>
<path d="M57.5083 36.2439V35.5874H45.6912V89.1853L57.5083 36.2439Z" fill="#3498DB"/>
<g style="mix-blend-mode:multiply">
<path d="M81.0247 94.2185V92.2322H64.6962V94.2185H81.0247Z" fill="#95A5A6"/>
</g>
<path d="M80.3682 92.7708V90.7845H64.0397V92.7708H80.3682Z" fill="#ECF0F1"/>
<path d="M79.4255 91.7608V33.7862H64.9655V91.7608H79.4255Z" fill="#ECF0F1"/>
<path d="M78.1125 35.5874H66.2954V89.9428H78.1125V35.5874Z" fill="#2980B9"/>
<path d="M78.1125 36.2439V35.5874H66.2954V89.1853L78.1125 36.2439Z" fill="#3498DB"/>
<path d="M41.6175 100.733H41.6343C51.4314 100.733 59.3768 108.679 59.3768 118.476V144.079H23.8749V118.476C23.8749 108.679 31.8204 100.733 41.6175 100.733Z" fill="#ECF0F1"/>
<path d="M26.2316 144.079V118.476C26.2316 109.992 33.1334 103.09 41.6175 103.09C50.1015 103.09 57.0369 109.992 57.0369 118.476V144.079H26.2316Z" fill="#2980B9"/>
<path d="M53.8049 113.796C54.4278 113.274 55.0843 112.803 55.7239 112.298C53.3336 106.877 47.9132 103.09 41.6175 103.09C33.1334 103.09 26.2316 109.992 26.2316 118.476V138.777C35.0356 129.99 44.2772 121.59 53.8049 113.796Z" fill="#3498DB"/>
<path d="M59.3768 117.651H23.8749V119.957H59.3768V117.651Z" fill="#ECF0F1"/>
<path d="M42.8631 101.524H40.3886V118.795H42.8631V101.524Z" fill="#ECF0F1"/>
<path d="M30.2946 105.707L28.5458 107.458L40.7647 119.664L42.5136 117.913L30.2946 105.707Z" fill="#ECF0F1"/>
<path d="M40.7565 117.929L42.5063 119.679L54.7189 107.467L52.9691 105.717L40.7565 117.929Z" fill="#ECF0F1"/>
<path d="M37.8299 134.467C37.8299 136.42 38.4023 138.019 39.1093 138.019C39.8163 138.019 40.3886 136.437 40.3886 134.467C40.3886 132.498 39.8163 130.932 39.1093 130.932C38.4023 130.932 37.8299 132.515 37.8299 134.467Z" fill="#F1C40F"/>
<path d="M42.8631 134.467C42.8631 136.42 43.4355 138.019 44.1425 138.019C44.8495 138.019 45.4218 136.437 45.4218 134.467C45.4218 132.498 44.8495 130.932 44.1425 130.932C43.4355 130.932 42.8631 132.515 42.8631 134.467Z" fill="#F1C40F"/>
<path d="M16.485 126.741H4.33124V143.962H16.485V126.741Z" fill="#ECF0F1"/>
<path d="M15.1384 128.054H5.67793V143.961H15.1384V128.054Z" fill="#2980B9"/>
<path d="M15.1384 131.421V128.054H5.67793V140.746C8.33763 137.363 11.637 134.249 15.1384 131.421Z" fill="#3498DB"/>
<path d="M12.0915 137.699C12.0915 138.979 12.4618 140.006 12.9332 140.006C13.4045 140.006 13.7748 138.979 13.7748 137.699C13.7748 136.42 13.4045 135.393 12.9332 135.393C12.4618 135.393 12.0915 136.42 12.0915 137.699Z" fill="#F1C40F"/>
<path d="M78.9205 126.741H66.7667V143.962H78.9205V126.741Z" fill="#ECF0F1"/>
<path d="M77.5738 128.054H68.1134V143.961H77.5738V128.054Z" fill="#2980B9"/>
<path d="M77.5738 131.421V128.054H68.1134V140.746C70.7731 137.363 74.0725 134.249 77.5738 131.421Z" fill="#3498DB"/>
<path d="M74.527 137.699C74.527 138.979 74.8973 140.006 75.3686 140.006C75.84 140.006 76.2103 138.979 76.2103 137.699C76.2103 136.42 75.84 135.393 75.3686 135.393C74.8973 135.393 74.527 136.42 74.527 137.699Z" fill="#F1C40F"/>
<path d="M88.9365 22.6929H-5.68469V28.5847H88.9365V22.6929Z" fill="#C0392B"/>
<path d="M1.95772 112.214H0.442703V143.945H1.95772V112.214Z" fill="#34495E"/>
<path d="M21.0806 112.214H19.5656V143.945H21.0806V112.214Z" fill="#34495E"/>
<path d="M64.0565 112.214H62.5415V143.945H64.0565V112.214Z" fill="#34495E"/>
<path d="M83.4992 112.214H81.9842V143.945H83.4992V112.214Z" fill="#34495E"/>
</g>
</g>
<defs>
<clipPath id="clip0_2184_8795">
<rect width="140" height="143.307" rx="6.46154" fill="white"/>
</clipPath>
<clipPath id="clip1_2184_8795">
<rect width="161.025" height="182" fill="white" transform="translate(38 9.69293)"/>
</clipPath>
<clipPath id="clip2_2184_8795">
<rect width="120.831" height="90.293" fill="white" transform="translate(37.0152 56.0622)"/>
</clipPath>
<clipPath id="clip3_2184_8795">
<rect width="114.3" height="121.386" fill="white" transform="translate(-19 22.6929)"/>
</clipPath>
</defs>
</svg>
