<svg width="153" height="152" viewBox="0 0 153 152" fill="none" xmlns="http://www.w3.org/2000/svg">
<g clip-path="url(#clip0_644_48745)">
<path d="M102.104 8.8495C102.104 8.8495 76.8751 -0.617635 52.4038 13.6322C27.9293 27.8851 15.8462 56.6381 5.45144 79.6646C-4.94643 102.691 1.49289 126.326 20.4461 137.31C39.3962 148.291 51.9981 132.619 78.3906 132.185C104.783 131.751 111.93 135.707 133.647 120.707C155.367 105.706 158.882 69.6749 141.271 42.7557C123.661 15.8366 102.104 8.85267 102.104 8.85267V8.8495Z" fill="#F99F1B"/>
<path d="M102.104 8.8495C102.104 8.8495 76.8751 -0.617635 52.4038 13.6322C27.9293 27.8851 15.8462 56.6381 5.45144 79.6646C-4.94643 102.691 1.49289 126.326 20.4461 137.31C39.3962 148.291 51.9981 132.619 78.3906 132.185C104.783 131.751 111.93 135.707 133.647 120.707C155.367 105.706 158.882 69.6749 141.271 42.7557C123.661 15.8366 102.104 8.85267 102.104 8.85267V8.8495Z" fill="#FFCFCF"/>
<path d="M86.5846 71.4159C86.3444 71.1737 86.0587 70.9815 85.7439 70.8504C85.4291 70.7192 85.0914 70.6517 84.7504 70.6517C84.4094 70.6517 84.0717 70.7192 83.7569 70.8504C83.4421 70.9815 83.1564 71.1737 82.9162 71.4159L77.0004 77.3575L71.0846 71.4159C70.5981 70.9294 69.9383 70.6561 69.2504 70.6561C68.5624 70.6561 67.9027 70.9294 67.4162 71.4159C66.9298 71.9023 66.6565 72.5621 66.6565 73.25C66.6565 73.938 66.9298 74.5977 67.4162 75.0842L73.3579 81L67.4162 86.9159C67.1741 87.156 66.9819 87.4417 66.8508 87.7565C66.7196 88.0713 66.6521 88.409 66.6521 88.75C66.6521 89.0911 66.7196 89.4287 66.8508 89.7435C66.9819 90.0583 67.1741 90.344 67.4162 90.5842C67.6564 90.8263 67.9421 91.0185 68.2569 91.1497C68.5717 91.2808 68.9094 91.3483 69.2504 91.3483C69.5914 91.3483 69.9291 91.2808 70.2439 91.1497C70.5587 91.0185 70.8444 90.8263 71.0846 90.5842L77.0004 84.6425L82.9162 90.5842C83.1564 90.8263 83.4421 91.0185 83.7569 91.1497C84.0717 91.2808 84.4094 91.3483 84.7504 91.3483C85.0914 91.3483 85.4291 91.2808 85.7439 91.1497C86.0587 91.0185 86.3444 90.8263 86.5846 90.5842C86.8267 90.344 87.0189 90.0583 87.15 89.7435C87.2812 89.4287 87.3487 89.0911 87.3487 88.75C87.3487 88.409 87.2812 88.0713 87.15 87.7565C87.0189 87.4417 86.8267 87.156 86.5846 86.9159L80.6429 81L86.5846 75.0842C86.8267 74.844 87.0189 74.5583 87.15 74.2435C87.2812 73.9287 87.3487 73.5911 87.3487 73.25C87.3487 72.909 87.2812 72.5713 87.15 72.2565C87.0189 71.9417 86.8267 71.656 86.5846 71.4159ZM95.2646 62.7359C92.8815 60.2685 90.0309 58.3005 86.8792 56.9466C83.7274 55.5927 80.3376 54.88 76.9074 54.8502C73.4773 54.8204 70.0756 55.474 66.9007 56.773C63.7259 58.0719 60.8416 59.9901 58.416 62.4157C55.9905 64.8412 54.0723 67.7256 52.7733 70.9004C51.4744 74.0752 50.8208 77.4769 50.8506 80.9071C50.8804 84.3372 51.593 87.727 52.9469 90.8788C54.3008 94.0306 56.2689 96.8811 58.7362 99.2642C61.1193 101.732 63.9698 103.7 67.1216 105.053C70.2734 106.407 73.6632 107.12 77.0934 107.15C80.5235 107.18 83.9252 106.526 87.1 105.227C90.2749 103.928 93.1592 102.01 95.5848 99.5844C98.0103 97.1588 99.9285 94.2745 101.227 91.0997C102.526 87.9248 103.18 84.5231 103.15 81.093C103.12 77.6629 102.408 74.273 101.054 71.1212C99.6999 67.9695 97.7319 65.1189 95.2646 62.7359ZM91.6221 95.6217C88.2432 99.0043 83.7959 101.111 79.0381 101.582C74.2803 102.054 69.5062 100.861 65.5292 98.207C61.5522 95.5532 58.6183 91.6026 57.2275 87.0282C55.8367 82.4538 56.0749 77.5387 57.9016 73.1203C59.7283 68.7019 63.0304 65.0535 67.2454 62.7967C71.4605 60.54 76.3275 59.8144 81.0175 60.7438C85.7074 61.6731 89.9301 64.1998 92.966 67.8934C96.0019 71.587 97.6633 76.2189 97.6671 81C97.6763 83.7159 97.1468 86.4065 96.1091 88.9163C95.0715 91.4262 93.5464 93.7052 91.6221 95.6217Z" fill="#950F0F"/>
<g opacity="0.3">
<path d="M124.698 83.6021L120.405 87.9269L124.698 92.2516L128.992 87.9269L124.698 83.6021Z" stroke="#950F0F" stroke-width="0.687783" stroke-linecap="round" stroke-linejoin="round"/>
<path d="M32.0988 7.16085L27.8057 11.4856L32.0988 15.8103L36.392 11.4856L32.0988 7.16085Z" stroke="#950F0F" stroke-width="0.687783" stroke-linecap="round" stroke-linejoin="round"/>
<path d="M24.2933 97.3458L21.6387 100.02L24.2933 102.694L26.9479 100.02L24.2933 97.3458Z" stroke="#950F0F" stroke-width="0.687783" stroke-linecap="round" stroke-linejoin="round"/>
<path d="M9.29034 53.9433L6.63574 56.6174L9.29034 59.2916L11.9449 56.6174L9.29034 53.9433Z" stroke="#950F0F" stroke-width="0.687783" stroke-linecap="round" stroke-linejoin="round"/>
<path d="M117.83 22.9916L115.176 25.6658L117.83 28.3399L120.485 25.6658L117.83 22.9916Z" stroke="#950F0F" stroke-width="0.687783" stroke-linecap="round" stroke-linejoin="round"/>
<path d="M30.2507 100.319L26.4756 104.122L30.2507 107.925L34.0259 104.122L30.2507 100.319Z" stroke="#950F0F" stroke-width="0.687783" stroke-linecap="round" stroke-linejoin="round"/>
<path d="M105.538 96.2646L102.884 98.9387L105.538 101.613L108.193 98.9387L105.538 96.2646Z" stroke="#950F0F" stroke-width="0.687783" stroke-linecap="round" stroke-linejoin="round"/>
<path d="M125.901 17.5298L120.82 22.6473L125.901 27.7649L130.981 22.6473L125.901 17.5298Z" stroke="#950F0F" stroke-width="0.687783" stroke-linecap="round" stroke-linejoin="round"/>
<path d="M71.4554 138.372L68.8008 141.046L71.4554 143.72L74.11 141.046L71.4554 138.372Z" stroke="#950F0F" stroke-width="0.687783" stroke-linecap="round" stroke-linejoin="round"/>
<path d="M18.5923 57.6961C20.723 57.6961 22.4502 55.9561 22.4502 53.8098C22.4502 51.6634 20.723 49.9235 18.5923 49.9235C16.4616 49.9235 14.7344 51.6634 14.7344 53.8098C14.7344 55.9561 16.4616 57.6961 18.5923 57.6961Z" stroke="#950F0F" stroke-width="0.687783" stroke-linecap="round" stroke-linejoin="round"/>
<path d="M130.486 69.5736C132.499 69.5736 134.13 67.93 134.13 65.9026C134.13 63.8752 132.499 62.2317 130.486 62.2317C128.473 62.2317 126.842 63.8752 126.842 65.9026C126.842 67.93 128.473 69.5736 130.486 69.5736Z" stroke="#950F0F" stroke-width="0.687783" stroke-linecap="round" stroke-linejoin="round"/>
<path d="M143.561 42.7969C144.746 42.7969 145.706 41.8298 145.706 40.6368C145.706 39.4438 144.746 38.4767 143.561 38.4767C142.377 38.4767 141.417 39.4438 141.417 40.6368C141.417 41.8298 142.377 42.7969 143.561 42.7969Z" stroke="#950F0F" stroke-width="0.687783" stroke-linecap="round" stroke-linejoin="round"/>
<path d="M100.691 12.3526C100.691 11.6367 100.116 11.0571 99.4051 11.0571C98.6945 11.0571 98.1191 11.6367 98.1191 12.3526C98.1191 13.0684 98.6945 13.648 99.4051 13.648C100.116 13.648 100.691 13.0684 100.691 12.3526Z" stroke="#950F0F" stroke-width="0.687783" stroke-linecap="round" stroke-linejoin="round"/>
<path d="M46.6727 87.4943C47.3829 87.4943 47.9587 86.9143 47.9587 86.1989C47.9587 85.4834 47.3829 84.9034 46.6727 84.9034C45.9625 84.9034 45.3867 85.4834 45.3867 86.1989C45.3867 86.9143 45.9625 87.4943 46.6727 87.4943Z" stroke="#950F0F" stroke-width="0.687783" stroke-linecap="round" stroke-linejoin="round"/>
<path d="M16.2342 122.908C17.3005 122.908 18.1648 122.037 18.1648 120.963C18.1648 119.889 17.3005 119.019 16.2342 119.019C15.168 119.019 14.3037 119.889 14.3037 120.963C14.3037 122.037 15.168 122.908 16.2342 122.908Z" stroke="#950F0F" stroke-width="0.687783" stroke-linecap="round" stroke-linejoin="round"/>
<path d="M133.058 117.726C133.058 116.773 132.291 116 131.344 116C130.398 116 129.631 116.773 129.631 117.726C129.631 118.68 130.398 119.453 131.344 119.453C132.291 119.453 133.058 118.68 133.058 117.726Z" stroke="#950F0F" stroke-width="0.687783" stroke-linecap="round" stroke-linejoin="round"/>
<path d="M119.338 6.09082C119.338 5.13745 118.571 4.36462 117.625 4.36462C116.678 4.36462 115.911 5.13745 115.911 6.09082C115.911 7.04418 116.678 7.81701 117.625 7.81701C118.571 7.81701 119.338 7.04418 119.338 6.09082Z" stroke="#950F0F" stroke-width="0.687783" stroke-linecap="round" stroke-linejoin="round"/>
</g>
<path d="M53.151 102.905L40.9326 109.6" stroke="#950F0F" stroke-width="2.06335" stroke-linecap="round" stroke-linejoin="round"/>
<path d="M30 66.4138L43.0767 71.5956" stroke="#950F0F" stroke-width="2.06335" stroke-linecap="round" stroke-linejoin="round"/>
<path d="M45.6494 37.0464L54.0098 50.6501" stroke="#950F0F" stroke-width="2.06335" stroke-linecap="round" stroke-linejoin="round"/>
<path d="M74.1571 31L73.7295 41.7974" stroke="#950F0F" stroke-width="2.06335" stroke-linecap="round" stroke-linejoin="round"/>
<path d="M98.5938 56.6965L109.526 45.6837" stroke="#950F0F" stroke-width="2.06335" stroke-linecap="round" stroke-linejoin="round"/>
<path d="M113.812 78.9374L123.245 75.6973" stroke="#950F0F" stroke-width="2.06335" stroke-linecap="round" stroke-linejoin="round"/>
<path d="M104.811 103.12L112.743 107.656" stroke="#950F0F" stroke-width="2.06335" stroke-linecap="round" stroke-linejoin="round"/>
<path d="M42.8633 56.4812L49.2932 61.4476" stroke="#950F0F" stroke-width="2.06335" stroke-linecap="round" stroke-linejoin="round"/>
<path d="M112.099 65.7645L105.238 69.0047" stroke="#950F0F" stroke-width="2.06335" stroke-linecap="round" stroke-linejoin="round"/>
<path d="M45.2209 89.301L37.9326 91.4611" stroke="#950F0F" stroke-width="2.06335" stroke-linecap="round" stroke-linejoin="round"/>
<path d="M107.813 92.1072L111.241 92.9719" stroke="#950F0F" stroke-width="2.06335" stroke-linecap="round" stroke-linejoin="round"/>
</g>
<defs>
<clipPath id="clip0_644_48745">
<rect width="152" height="152" fill="white" transform="translate(0.5)"/>
</clipPath>
</defs>
</svg>
