<svg width="25" height="24" viewBox="0 0 25 24" fill="none" xmlns="http://www.w3.org/2000/svg">
<path fill-rule="evenodd" clip-rule="evenodd" d="M11.7474 4.34153C12.1458 3.88621 12.8542 3.88621 13.2526 4.34153L16.7526 8.34153C17.1163 8.75717 17.0741 9.38893 16.6585 9.75261C16.2429 10.1163 15.6111 10.0742 15.2474 9.65854L13.5 7.66149V15C13.5 15.5523 13.0523 16 12.5 16C11.9477 16 11.5 15.5523 11.5 15V7.66149L9.75258 9.65854C9.38889 10.0742 8.75713 10.1163 8.3415 9.75261C7.92586 9.38893 7.88374 8.75717 8.24742 8.34153L11.7474 4.34153ZM5.5 15C6.05228 15 6.5 15.4478 6.5 16V18H18.5V16C18.5 15.4478 18.9477 15 19.5 15C20.0523 15 20.5 15.4478 20.5 16V18C20.5 19.1046 19.6046 20 18.5 20H6.5C5.39543 20 4.5 19.1046 4.5 18V16C4.5 15.4478 4.94772 15 5.5 15Z" fill="#141414"/>
</svg>
