<svg width="107" height="179" viewBox="0 0 107 179" fill="none" xmlns="http://www.w3.org/2000/svg">
<path d="M92.7152 15.1689L38.4518 46.9231L38.0498 155.45L92.7152 123.696V15.1689Z" fill="#7B7B7B" stroke="black" stroke-width="0.803904"/>
<g opacity="0.2">
<path d="M30.0684 177.351C32.2008 178.581 35.6891 178.581 37.8174 177.351L105.401 138.333C107.533 137.103 107.533 135.088 105.401 133.858L97.299 129.182C95.1665 127.952 91.6824 127.952 89.55 129.182L21.9626 168.2C19.8302 169.43 19.8302 171.445 21.9626 172.675L30.0684 177.351Z" fill="black"/>
</g>
<path d="M73.1403 140.125C74.2569 139.478 75.1636 139.999 75.1678 141.279L75.1762 143.953C75.1762 145.237 74.2778 146.803 73.1612 147.445L58.0831 156.151C56.9623 156.798 56.0556 156.282 56.0514 154.993L56.043 152.319C56.043 151.034 56.9413 149.473 58.0621 148.826L73.1403 140.12V140.125Z" fill="white"/>
<path d="M73.14 139.475C74.5672 138.653 75.73 139.316 75.7384 140.953L75.7468 143.627C75.751 145.268 74.5966 147.275 73.1694 148.098L58.0912 156.804C56.6639 157.626 55.497 156.963 55.4928 155.322L55.4844 152.648C55.4802 151.011 56.6388 149.004 58.066 148.177L73.1442 139.471L73.14 139.475ZM75.1801 143.954L75.1717 141.28C75.1717 139.996 74.2608 139.48 73.1442 140.126L58.066 148.832C56.9452 149.479 56.0427 151.04 56.0469 152.325L56.0553 154.999C56.0553 156.287 56.9662 156.804 58.087 156.157L73.1652 147.451C74.2818 146.805 75.1843 145.243 75.1801 143.954Z" fill="#BCBEC0"/>
<path d="M74.9461 19.0964C75.496 18.7815 75.9452 19.0334 75.9452 19.6673C75.9452 20.2969 75.5002 21.0693 74.9503 21.3841L55.5821 32.5668C55.0322 32.8859 54.583 32.6298 54.583 32.0001C54.583 31.3663 55.0238 30.5981 55.5779 30.2791L74.9461 19.0964Z" fill="#454647"/>
<path d="M97.0587 7.70422C97.0503 4.71544 94.9305 3.5065 92.3321 5.00928L38.1731 36.2781C35.5664 37.7808 33.4633 41.4245 33.4717 44.4174L33.8243 169.169C33.8327 172.158 35.9526 173.367 38.5551 171.864L92.7141 140.595C95.3166 139.093 97.4197 135.449 97.4113 132.46L97.0587 7.70841V7.70422ZM79.3863 16.5362C79.9362 16.2172 80.3854 16.4732 80.3854 17.1071C80.3854 17.7368 79.9446 18.5049 79.3905 18.824C78.8406 19.1388 78.3957 18.8869 78.3915 18.2573C78.3915 17.6234 78.8322 16.8552 79.3821 16.5362M55.5727 30.2795L74.9409 19.0968C75.4908 18.782 75.94 19.0338 75.94 19.6677C75.94 20.2974 75.495 21.0697 74.9451 21.3846L55.5769 32.5673C55.027 32.8863 54.5778 32.6302 54.5778 32.0006C54.5778 31.3667 55.0186 30.5986 55.5727 30.2795ZM73.1569 148.101L58.0787 156.807C56.6515 157.63 55.4845 156.967 55.4803 155.325L55.4719 152.651C55.4677 151.014 56.6263 149.008 58.0535 148.181L73.1317 139.475C74.5589 138.652 75.7217 139.315 75.7301 140.952L75.7385 143.626C75.7427 145.268 74.5883 147.274 73.1569 148.097M38.022 155.258L37.7156 46.9319L92.8358 15.1132L93.1422 123.439L38.0262 155.262" fill="white"/>
<path d="M79.3865 16.5367C79.9364 16.2177 80.3855 16.4737 80.3855 17.1076C80.3855 17.7372 79.9448 18.5054 79.3907 18.8244C78.8408 19.1393 78.3958 18.8874 78.3916 18.2578C78.3916 17.6239 78.8324 16.8557 79.3823 16.5367H79.3865Z" fill="#454647"/>
<path d="M80.5858 120.82C80.7579 120.719 80.9174 120.74 80.9972 120.866C80.9972 120.87 81.0014 120.874 81.0056 120.878L81.3372 121.47C81.4883 121.739 81.2659 122.276 80.9174 122.478L79.57 123.254C79.2258 123.452 78.9991 123.17 79.1502 122.73L79.4776 121.756C79.4776 121.756 79.4818 121.743 79.486 121.735C79.5658 121.516 79.7211 121.311 79.8932 121.214L80.5774 120.82H80.5858Z" fill="#808285"/>
<path d="M80.2286 115.966C80.8792 115.589 81.4081 115.891 81.4123 116.642V118.674C81.4207 119.421 80.8918 120.336 80.2412 120.71C79.5905 121.088 79.0616 120.781 79.0616 120.034V118.002C79.0532 117.255 79.5779 116.344 80.2286 115.966Z" fill="#808285"/>
<path d="M53.6408 133.484C53.8255 133.379 53.985 133.459 53.985 133.686V135.47C53.9892 135.692 53.8297 135.961 53.645 136.066C53.6198 136.082 53.5904 136.091 53.5652 136.099L52.1842 136.41C51.9911 136.469 51.8525 136.347 51.8525 136.12V135.495C51.8525 135.264 51.9869 134.987 52.18 134.819L53.5568 133.539C53.5862 133.513 53.6114 133.493 53.6408 133.48V133.484Z" fill="#808285"/>
<path d="M51.0975 134.446C51.4082 134.266 51.6642 134.413 51.6642 134.77L51.6726 137.066C51.6726 137.427 51.4208 137.863 51.1101 138.044L48.327 139.652C48.0164 139.832 47.7603 139.689 47.7603 139.328L47.752 137.032C47.752 136.675 48.0038 136.235 48.3144 136.054L51.0975 134.446Z" fill="#808285"/>
<path d="M33.8236 169.166L27.5186 165.501L27.166 40.749L33.471 44.4136L33.8236 169.166Z" fill="#E6E7E8"/>
<path d="M38.1734 36.2791L31.8643 32.6145L86.0232 1.3457L92.3323 5.01031L38.1734 36.2791Z" fill="#E6E7E8"/>
<path d="M33.8245 169.166L27.5195 165.501C27.5195 166.987 28.0484 168.032 28.8922 168.523L35.1972 172.188C34.3492 171.697 33.8287 170.652 33.8245 169.166Z" fill="#D1D3D4"/>
<path d="M89.3764 1.01298C89.3764 1.01298 89.3596 1.00459 89.3513 0.996192C89.2757 0.954215 89.1959 0.916436 89.1162 0.878656C89.0994 0.870261 89.0868 0.870261 89.07 0.861866C89.0448 0.85347 89.0154 0.845075 88.9902 0.832482C88.9483 0.819888 88.9105 0.803098 88.8685 0.790504C88.8223 0.777911 88.7762 0.769516 88.7342 0.76112C88.7048 0.752725 88.6796 0.748527 88.6502 0.740132C88.6334 0.740132 88.6209 0.731736 88.6041 0.731736C88.5117 0.714946 88.4152 0.70655 88.3186 0.698155C88.3144 0.698155 88.306 0.698155 88.3018 0.698155C88.2808 0.698155 88.2556 0.698155 88.2347 0.698155C88.1591 0.698155 88.0835 0.693957 88.008 0.698155C87.9828 0.698155 87.9576 0.702352 87.9282 0.70655C87.8821 0.70655 87.8359 0.714946 87.7855 0.719143C87.7393 0.723341 87.6974 0.727539 87.6512 0.731736C87.6134 0.735934 87.5714 0.748527 87.5336 0.756923C87.4707 0.769516 87.4077 0.782109 87.3405 0.7989C87.307 0.807295 87.2734 0.811493 87.2356 0.819888C87.202 0.828284 87.1642 0.845075 87.1307 0.857668C87.0215 0.89125 86.9124 0.929029 86.799 0.971006C86.7613 0.987797 86.7235 0.996192 86.6815 1.01298C86.6437 1.02977 86.6017 1.05076 86.564 1.06755C86.5262 1.08434 86.4884 1.10114 86.4548 1.11793C86.3121 1.18509 86.1694 1.25645 86.0225 1.34041L92.3274 5.00501C92.4744 4.92106 92.6171 4.84969 92.7598 4.78253C92.7976 4.76574 92.8354 4.74895 92.8689 4.73216C92.9487 4.69858 93.0242 4.66919 93.104 4.63981C93.2173 4.59783 93.3265 4.56005 93.4356 4.52647C93.507 4.50548 93.5783 4.48449 93.6455 4.4677C93.7085 4.45091 93.7756 4.43832 93.8386 4.42573C93.9226 4.40893 94.0065 4.39634 94.0905 4.38795C94.1366 4.38375 94.187 4.37535 94.2332 4.37535C94.3381 4.36696 94.4389 4.36696 94.5354 4.37116C94.5564 4.37116 94.5816 4.37116 94.6026 4.37116C94.7201 4.37955 94.8377 4.39214 94.951 4.41313C94.9804 4.41733 95.0056 4.42573 95.035 4.43412C95.1231 4.45511 95.2113 4.4803 95.2952 4.50968C95.3204 4.51808 95.3498 4.52647 95.375 4.53906C95.4799 4.58104 95.5849 4.62722 95.6856 4.68598L89.3806 1.02138L89.3764 1.01298Z" fill="#D1D3D4"/>
<path d="M31.415 32.8987C31.3688 32.9323 31.3184 32.9659 31.2723 33.0037C31.1715 33.075 31.075 33.1506 30.9742 33.2261C30.9196 33.2681 30.8651 33.3143 30.8147 33.3605C30.7266 33.436 30.6342 33.5116 30.5461 33.5955C30.4915 33.6459 30.4411 33.6921 30.3865 33.7425C30.353 33.776 30.3194 33.8012 30.2858 33.8348C30.2522 33.8684 30.2186 33.9062 30.185 33.9398C30.0801 34.0489 29.9752 34.158 29.8702 34.2756C29.8366 34.3134 29.8031 34.3469 29.7695 34.3847C29.7443 34.4141 29.7191 34.4477 29.6897 34.4813C29.6268 34.5526 29.568 34.6282 29.505 34.7037C29.4672 34.7541 29.4253 34.8003 29.3833 34.8507C29.3497 34.8926 29.3203 34.9346 29.2909 34.9766C29.2448 35.0354 29.2028 35.0941 29.1608 35.1529C29.1314 35.1949 29.0978 35.2327 29.0685 35.2746C29.0181 35.346 28.9719 35.4174 28.9257 35.4887C28.8963 35.5349 28.8628 35.5811 28.8334 35.6272C28.8208 35.6482 28.8082 35.665 28.7956 35.686C28.7116 35.8161 28.6319 35.9505 28.5521 36.0848C28.5479 36.0932 28.5437 36.1016 28.5353 36.11C28.5186 36.1352 28.506 36.1645 28.4892 36.1897C28.4346 36.2863 28.38 36.3828 28.3255 36.4794C28.3003 36.5256 28.2793 36.5717 28.2583 36.6137C28.2331 36.6599 28.2121 36.7061 28.1869 36.7564C28.1659 36.7984 28.145 36.8404 28.124 36.8824C28.0694 36.9915 28.0232 37.1006 27.9729 37.214C27.9645 37.235 27.9519 37.256 27.9435 37.2769C27.9435 37.2811 27.9393 37.2895 27.9351 37.2937C27.8763 37.4323 27.8175 37.575 27.763 37.7177C27.7546 37.7429 27.7462 37.7681 27.7336 37.7933C27.7126 37.8436 27.6958 37.8982 27.679 37.9486C27.6538 38.0199 27.6244 38.0913 27.6035 38.1627C27.5867 38.2172 27.5699 38.2718 27.5531 38.3264C27.5321 38.3893 27.5111 38.4565 27.4943 38.5195C27.4817 38.5614 27.4691 38.5992 27.4565 38.6412C27.4355 38.7126 27.423 38.7839 27.402 38.8553C27.381 38.935 27.36 39.0148 27.3432 39.0946C27.339 39.1239 27.3264 39.1491 27.3222 39.1785C27.3096 39.2373 27.3054 39.296 27.2928 39.3506C27.2676 39.4765 27.2466 39.6025 27.2299 39.7242C27.2257 39.7578 27.2173 39.7956 27.2131 39.8292C27.2047 39.9089 27.1963 39.9845 27.1921 40.0642C27.1879 40.1188 27.1795 40.1734 27.1753 40.2279C27.1627 40.4042 27.1543 40.5763 27.1543 40.7485L33.4593 44.4131C33.4593 44.241 33.4677 44.0688 33.4803 43.8925C33.4803 43.838 33.4928 43.7792 33.497 43.7246C33.5096 43.6113 33.5222 43.498 33.539 43.3846C33.5558 43.2587 33.581 43.1328 33.602 43.011C33.6188 42.9271 33.6314 42.8389 33.6524 42.755C33.6692 42.6752 33.6901 42.5954 33.7111 42.5157C33.7405 42.4024 33.7699 42.2932 33.7993 42.1799C33.8161 42.1169 33.8371 42.0497 33.858 41.9868C33.8958 41.8608 33.9378 41.7349 33.984 41.609C34.0008 41.5586 34.0218 41.504 34.0386 41.4537C34.1015 41.2816 34.1729 41.1095 34.2484 40.9374C34.2568 40.9164 34.2694 40.8954 34.2778 40.8744C34.345 40.7233 34.4163 40.568 34.4919 40.421C34.5171 40.3749 34.5381 40.3287 34.5633 40.2783C34.6388 40.1356 34.7144 39.9929 34.7941 39.8543C34.8109 39.8292 34.8235 39.7998 34.8403 39.7746C34.9369 39.6109 35.0334 39.4514 35.1384 39.2918C35.1677 39.2457 35.2013 39.1995 35.2307 39.1533C35.3063 39.04 35.386 38.9266 35.4658 38.8175C35.5077 38.7587 35.5539 38.7 35.5959 38.6412C35.6631 38.5489 35.7344 38.4607 35.8058 38.3683C35.8646 38.2928 35.9275 38.2172 35.9905 38.1459C36.0493 38.0787 36.108 38.0115 36.171 37.9444C36.2759 37.831 36.3809 37.7177 36.4858 37.6086C36.553 37.5414 36.6159 37.4742 36.6873 37.4071C36.7419 37.3567 36.7923 37.3063 36.8468 37.256C36.935 37.1762 37.0231 37.1006 37.1113 37.0251C37.1658 36.9789 37.2162 36.9369 37.2708 36.8908C37.3673 36.811 37.4681 36.7396 37.5688 36.6683C37.615 36.6347 37.6612 36.5969 37.7116 36.5633C37.8585 36.4626 38.0096 36.366 38.1607 36.2779L31.8557 32.6133C31.7046 32.7014 31.5535 32.798 31.4066 32.8987H31.415Z" fill="#D1D3D4"/>
<path d="M29.0897 59.118C29.0897 59.118 29.0771 59.118 29.0687 59.118C28.9889 59.1138 28.9134 59.118 28.842 59.1306C28.842 59.1306 28.8336 59.1306 28.8294 59.1306C28.7581 59.1474 28.6909 59.1725 28.6279 59.2061L29.5724 58.6562C29.5724 58.6562 29.5766 58.6562 29.5808 58.652C29.6018 58.6394 29.627 58.6268 29.6522 58.6184C29.6774 58.61 29.7025 58.6017 29.7277 58.5933C29.7445 58.5891 29.7613 58.5849 29.7781 58.5807C29.7781 58.5807 29.7865 58.5807 29.7907 58.5807C29.7949 58.5807 29.8033 58.5807 29.8075 58.5807C29.8369 58.5765 29.8621 58.5723 29.8914 58.5723C29.9208 58.5723 29.9544 58.5723 29.9838 58.5723C29.9922 58.5723 30.0048 58.5723 30.0132 58.5723C30.0216 58.5723 30.0258 58.5723 30.0342 58.5723C30.051 58.5723 30.0677 58.5723 30.0845 58.5765C30.1265 58.5807 30.1643 58.5933 30.2063 58.6017C30.2231 58.6059 30.244 58.6142 30.2608 58.6184C30.2776 58.6226 30.2944 58.631 30.3112 58.6352C30.3322 58.6436 30.3532 58.6478 30.3742 58.6562C30.4371 58.6814 30.5043 58.715 30.5715 58.7528C30.6596 58.8031 30.7478 58.8661 30.8359 58.9333C30.8653 58.9543 30.8905 58.9794 30.9157 59.0046C30.9577 59.0424 30.9996 59.0718 31.0374 59.1138C31.0542 59.1306 31.071 59.1515 31.092 59.1683C31.1088 59.1851 31.1214 59.2019 31.1382 59.2187C31.155 59.2397 31.1759 59.2565 31.1927 59.2775C31.2305 59.3237 31.2683 59.3698 31.3061 59.416C31.3187 59.4328 31.3313 59.4496 31.3439 59.4664C31.3522 59.4748 31.3564 59.4832 31.3648 59.4916C31.3774 59.5084 31.39 59.5251 31.4026 59.5419C31.432 59.5797 31.4572 59.6217 31.4824 59.6637C31.5076 59.7015 31.5327 59.7434 31.5537 59.7812C31.5537 59.7812 31.5537 59.7854 31.5579 59.7896C31.5579 59.7896 31.5579 59.7938 31.5621 59.798C31.5831 59.8316 31.5999 59.8652 31.6167 59.8987C31.6377 59.9365 31.6587 59.9785 31.6755 60.0163C31.6923 60.0499 31.7091 60.0876 31.7258 60.1254C31.7258 60.1254 31.7258 60.1296 31.7258 60.1338C31.7258 60.1338 31.7258 60.138 31.7258 60.1422C31.7426 60.1842 31.7594 60.2262 31.7762 60.2681C31.793 60.3101 31.8098 60.3563 31.8224 60.3983C31.8308 60.4193 31.835 60.4403 31.8434 60.4654C31.8434 60.4738 31.8476 60.4864 31.8518 60.4948C31.856 60.5116 31.8602 60.5284 31.8686 60.5452C31.8854 60.5998 31.8979 60.6543 31.9063 60.7047C31.9147 60.7383 31.9189 60.7677 31.9231 60.8013C31.9231 60.818 31.9273 60.8348 31.9315 60.8516C31.9315 60.8684 31.9357 60.881 31.9399 60.8978C31.9525 60.9902 31.9567 61.0825 31.9567 61.1707L31.9147 84.2371C31.9147 84.6779 31.7552 84.9885 31.5076 85.1354L30.5631 85.6853C30.8149 85.5384 30.9703 85.2278 30.9703 84.787L31.0122 61.7206C31.0122 61.6156 31.0038 61.5065 30.987 61.4015C30.987 61.3847 30.9828 61.3679 30.9787 61.3512C30.9619 61.2504 30.9367 61.1497 30.9073 61.0447C30.9073 61.0363 30.9031 61.0237 30.8989 61.0153C30.8653 60.9062 30.8233 60.7929 30.7772 60.6837C30.7772 60.6837 30.7772 60.6795 30.7772 60.6753C30.7268 60.5662 30.6722 60.457 30.6134 60.3479C30.6134 60.3479 30.6134 60.3437 30.6093 60.3395C30.5505 60.2346 30.4833 60.138 30.412 60.0415C30.4036 60.0331 30.3994 60.0247 30.391 60.0163C30.328 59.9281 30.2566 59.8484 30.1853 59.7686C30.1685 59.7518 30.1559 59.735 30.1391 59.7182C30.0845 59.6595 30.0216 59.6049 29.9628 59.5545C29.9376 59.5293 29.9082 59.5042 29.883 59.4832C29.7991 59.416 29.7109 59.353 29.6186 59.3027C29.5304 59.2523 29.4423 59.2145 29.3583 59.1851C29.3415 59.1809 29.3247 59.1725 29.308 59.1683C29.2282 59.1432 29.1526 59.1264 29.0771 59.118H29.0897Z" fill="#D1D3D4"/>
<path d="M29.6315 59.3027C28.8591 58.8578 28.2295 59.2146 28.2295 60.1045L28.1875 83.1709C28.1875 84.0566 28.8088 85.1397 29.5811 85.5888C30.3535 86.0338 30.9832 85.6728 30.9874 84.787L31.0294 61.7206C31.0294 60.8307 30.4039 59.7477 29.6357 59.3027H29.6315Z" fill="white"/>
<g clip-path="url(#clip0_1393_124907)">
<path d="M6.424 72.3024L60.4203 41.1269C61.9302 40.2569 63.3035 40.2641 64.3101 40.9759L68.0488 43.1257L65.9781 44.3192C66.0141 44.6572 66.0428 45.0023 66.0428 45.3762C66.0428 49.5176 63.5264 54.3276 60.4203 56.1179L9.37905 85.5894L11.1765 86.6248L6.15797 89.5223L3.03754 87.7176C2.82903 87.6242 2.62772 87.5163 2.44077 87.3725C1.43419 86.596 0.815849 85.1005 0.815849 83.0442C0.815849 78.9028 3.33232 74.0927 6.43837 72.3024H6.424Z" fill="#D37C00"/>
<path d="M10.2708 89.5229L64.2671 58.3474C67.3732 56.5571 69.8896 51.7471 69.8896 47.6129C69.8896 43.4715 67.3732 41.5662 64.2671 43.3564L10.2708 74.532C7.16476 76.3222 4.64828 81.1323 4.64828 85.2737C4.64828 89.4151 7.16476 91.3132 10.2708 89.5229Z" fill="#FFE300"/>
<path d="M55.7322 55.7164L56.1996 53.7895L57.767 53.4659V51.5174L59.2841 50.6475V52.5384L60.9018 51.007L61.3691 52.3874L59.7945 53.8829L60.7939 54.8823L59.5717 56.6151L58.601 55.6445L57.6016 57.7942L56.3721 57.4779L57.3428 55.3856L55.7322 55.7164Z" fill="#002984"/>
<path d="M47.2557 60.605L47.723 58.6781L49.2976 58.3618V56.4133L50.8147 55.5361V57.4343L52.4252 55.8956L52.8926 57.2833L51.3252 58.7716L52.3246 59.771L51.0951 61.5038L50.1245 60.5331L49.1251 62.6829L47.9028 62.3666L48.8734 60.2743L47.2557 60.605Z" fill="#002984"/>
<path d="M38.786 65.5009L39.2533 63.574L40.8207 63.2504V61.302L42.3378 60.4248V62.3229L43.9555 60.7915L44.4229 62.172L42.8483 63.6675L43.8477 64.6669L42.6182 66.3996L41.6547 65.4218L40.6553 67.5788L39.4259 67.2624L40.3965 65.1702L38.786 65.5009Z" fill="#002984"/>
<path d="M30.3094 70.3902L30.7767 68.4633L32.3513 68.1397V66.1985L33.8684 65.3213V67.2122L35.4789 65.6808L35.9463 67.0684L34.3789 68.5568L35.3783 69.5562L34.1488 71.2889L33.1782 70.3183L32.1788 72.4681L30.9565 72.1517L31.9271 70.0594L30.3094 70.3902Z" fill="#002984"/>
<path d="M21.6453 75.396L22.1127 73.4691L23.6873 73.1456V71.1971L25.2043 70.3271V72.2181L26.8149 70.6866L27.2822 72.0671L25.7148 73.5626L26.7142 74.562L25.4847 76.2948L24.5141 75.3241L23.5147 77.4739L22.2924 77.1576L23.2631 75.0653L21.6453 75.396Z" fill="#002984"/>
<path d="M13.1756 80.2837L13.6429 78.3568L15.2103 78.0405V76.092L16.7274 75.2148V77.1058L18.3452 75.5743L18.8125 76.962L17.2379 78.4503L18.2373 79.4497L17.0078 81.1825L16.0372 80.2118L15.045 82.3616L13.8155 82.0453L14.7861 79.953L13.1756 80.2837Z" fill="#002984"/>
</g>
<defs>
<clipPath id="clip0_1393_124907">
<rect width="69.0808" height="49.7399" fill="white" transform="matrix(-1 0 0 1 69.8896 40.458)"/>
</clipPath>
</defs>
</svg>
