<svg width="119" height="179" viewBox="0 0 119 179" fill="none" xmlns="http://www.w3.org/2000/svg">
<path d="M87.715 15.1691L33.4515 46.9233L33.0496 155.45L87.715 123.696V15.1691Z" fill="#7B7B7B" stroke="black" stroke-width="0.803904"/>
<g opacity="0.2">
<path d="M25.0687 177.351C27.2011 178.581 30.6894 178.581 32.8177 177.351L100.401 138.333C102.533 137.103 102.533 135.088 100.401 133.858L92.2993 129.182C90.1669 127.952 86.6828 127.952 84.5503 129.182L16.9629 168.2C14.8305 169.43 14.8305 171.444 16.9629 172.674L25.0687 177.351Z" fill="black"/>
</g>
<path d="M68.1403 140.125C69.2569 139.478 70.1636 139.999 70.1678 141.279L70.1762 143.953C70.1762 145.238 69.2779 146.803 68.1613 147.446L53.0831 156.152C51.9623 156.798 51.0556 156.282 51.0514 154.993L51.043 152.319C51.043 151.035 51.9413 149.473 53.0621 148.827L68.1403 140.121V140.125Z" fill="white"/>
<path d="M68.1403 139.475C69.5675 138.652 70.7302 139.316 70.7386 140.953L70.747 143.627C70.7512 145.268 69.5969 147.274 68.1696 148.097L53.0914 156.803C51.6642 157.626 50.4973 156.963 50.4931 155.321L50.4847 152.647C50.4805 151.01 51.639 149.004 53.0663 148.177L68.1444 139.471L68.1403 139.475ZM70.1803 143.954L70.1719 141.28C70.1719 139.996 69.261 139.479 68.1444 140.126L53.0663 148.832C51.9455 149.478 51.043 151.04 51.0472 152.324L51.0556 154.998C51.0556 156.287 51.9665 156.803 53.0872 156.157L68.1654 147.451C69.282 146.804 70.1845 145.243 70.1803 143.954Z" fill="#BCBEC0"/>
<path d="M69.9462 19.0963C70.4961 18.7815 70.9453 19.0333 70.9453 19.6672C70.9453 20.2968 70.5003 21.0692 69.9504 21.384L50.5822 32.5667C50.0323 32.8858 49.5831 32.6297 49.5831 32.0001C49.5831 31.3662 50.0239 30.598 50.578 30.279L69.9462 19.0963Z" fill="#454647"/>
<path d="M92.0583 7.70473C92.0499 4.71596 89.9301 3.50702 87.3317 5.0098L33.1727 36.2786C30.566 37.7814 28.4629 41.425 28.4713 44.4179L28.8239 169.17C28.8323 172.159 30.9522 173.368 33.5547 171.865L87.7137 140.596C90.3162 139.093 92.4193 135.45 92.4109 132.461L92.0583 7.70893V7.70473ZM74.3859 16.5367C74.9358 16.2177 75.385 16.4738 75.385 17.1076C75.385 17.7373 74.9442 18.5055 74.3901 18.8245C73.8402 19.1393 73.3953 18.8874 73.3911 18.2578C73.3911 17.6239 73.8318 16.8558 74.3817 16.5367M50.5723 30.28L69.9405 19.0973C70.4904 18.7825 70.9396 19.0344 70.9396 19.6682C70.9396 20.2979 70.4946 21.0703 69.9447 21.3851L50.5765 32.5678C50.0266 32.8868 49.5774 32.6308 49.5774 32.0011C49.5774 31.3673 50.0182 30.5991 50.5723 30.28ZM68.1565 148.101L53.0783 156.808C51.6511 157.63 50.4841 156.967 50.4799 155.326L50.4715 152.652C50.4673 151.015 51.6259 149.008 53.0531 148.181L68.1313 139.475C69.5585 138.652 70.7213 139.316 70.7297 140.953L70.7381 143.627C70.7423 145.268 69.5879 147.275 68.1565 148.097M33.0216 155.259L32.7152 46.9324L87.8354 15.1137L88.1418 123.44L33.0258 155.263" fill="white"/>
<path d="M74.3861 16.5364C74.936 16.2173 75.3851 16.4734 75.3851 17.1072C75.3851 17.7369 74.9444 18.5051 74.3903 18.8241C73.8404 19.1389 73.3954 18.8871 73.3912 18.2574C73.3912 17.6236 73.832 16.8554 74.3819 16.5364H74.3861Z" fill="#454647"/>
<path d="M75.5859 120.82C75.758 120.719 75.9175 120.74 75.9973 120.866C75.9973 120.87 76.0015 120.875 76.0057 120.879L76.3373 121.471C76.4884 121.739 76.2659 122.277 75.9175 122.478L74.57 123.255C74.2258 123.452 73.9992 123.171 74.1503 122.73L74.4777 121.756C74.4777 121.756 74.4819 121.743 74.4861 121.735C74.5658 121.517 74.7212 121.311 74.8933 121.215L75.5775 120.82H75.5859Z" fill="#808285"/>
<path d="M75.2288 115.967C75.8795 115.589 76.4084 115.891 76.4126 116.643V118.675C76.421 119.422 75.8921 120.337 75.2414 120.71C74.5908 121.088 74.0619 120.782 74.0619 120.035V118.003C74.0535 117.256 74.5782 116.345 75.2288 115.967Z" fill="#808285"/>
<path d="M48.6408 133.484C48.8255 133.38 48.985 133.459 48.985 133.686V135.47C48.9892 135.692 48.8297 135.961 48.645 136.066C48.6198 136.083 48.5904 136.091 48.5652 136.1L47.1842 136.41C46.9911 136.469 46.8525 136.347 46.8525 136.121V135.495C46.8525 135.264 46.9869 134.987 47.18 134.819L48.5568 133.539C48.5862 133.514 48.6114 133.493 48.6408 133.48V133.484Z" fill="#808285"/>
<path d="M46.0976 134.446C46.4083 134.266 46.6643 134.413 46.6643 134.77L46.6727 137.066C46.6727 137.427 46.4208 137.863 46.1102 138.044L43.3271 139.652C43.0165 139.832 42.7604 139.689 42.7604 139.328L42.752 137.032C42.752 136.675 43.0039 136.235 43.3145 136.054L46.0976 134.446Z" fill="#808285"/>
<path d="M28.8237 169.165L22.5187 165.501L22.1661 40.7488L28.4711 44.4134L28.8237 169.165Z" fill="#E6E7E8"/>
<path d="M33.1731 36.2791L26.8639 32.6145L81.0228 1.3457L87.332 5.01031L33.1731 36.2791Z" fill="#E6E7E8"/>
<path d="M28.8245 169.165L22.5195 165.501C22.5195 166.987 23.0484 168.032 23.8922 168.523L30.1971 172.188C29.3492 171.697 28.8287 170.651 28.8245 169.165Z" fill="#D1D3D4"/>
<path d="M84.3767 1.01314C84.3767 1.01314 84.3599 1.00474 84.3515 0.996345C84.2759 0.954368 84.1962 0.916588 84.1164 0.878809C84.0996 0.870414 84.087 0.870414 84.0702 0.862018C84.0451 0.853623 84.0157 0.845227 83.9905 0.832634C83.9485 0.820041 83.9107 0.80325 83.8688 0.790657C83.8226 0.778064 83.7764 0.769668 83.7344 0.761273C83.705 0.752878 83.6799 0.74868 83.6505 0.740284C83.6337 0.740284 83.6211 0.731889 83.6043 0.731889C83.512 0.715098 83.4154 0.706703 83.3189 0.698307C83.3147 0.698307 83.3063 0.698307 83.3021 0.698307C83.2811 0.698307 83.2559 0.698307 83.2349 0.698307C83.1593 0.698307 83.0838 0.69411 83.0082 0.698307C82.983 0.698307 82.9579 0.702505 82.9285 0.706703C82.8823 0.706703 82.8361 0.715098 82.7857 0.719296C82.7396 0.723494 82.6976 0.727691 82.6514 0.731889C82.6136 0.736087 82.5717 0.74868 82.5339 0.757075C82.4709 0.769668 82.408 0.782262 82.3408 0.799052C82.3072 0.807448 82.2736 0.811646 82.2358 0.820041C82.2023 0.828436 82.1645 0.845227 82.1309 0.85782C82.0218 0.891402 81.9126 0.929182 81.7993 0.971159C81.7615 0.98795 81.7237 0.996345 81.6817 1.01314C81.644 1.02993 81.602 1.05092 81.5642 1.06771C81.5264 1.0845 81.4887 1.10129 81.4551 1.11808C81.3123 1.18524 81.1696 1.2566 81.0227 1.34056L87.3277 5.00516C87.4746 4.92121 87.6173 4.84985 87.76 4.78268C87.7978 4.76589 87.8356 4.7491 87.8692 4.73231C87.9489 4.69873 88.0245 4.66935 88.1042 4.63996C88.2176 4.59798 88.3267 4.5602 88.4359 4.52662C88.5072 4.50563 88.5786 4.48465 88.6458 4.46785C88.7087 4.45106 88.7759 4.43847 88.8388 4.42588C88.9228 4.40909 89.0068 4.39649 89.0907 4.3881C89.1369 4.3839 89.1873 4.37551 89.2334 4.37551C89.3384 4.36711 89.4391 4.36711 89.5357 4.37131C89.5567 4.37131 89.5818 4.37131 89.6028 4.37131C89.7204 4.3797 89.8379 4.3923 89.9512 4.41329C89.9806 4.41748 90.0058 4.42588 90.0352 4.43427C90.1234 4.45526 90.2115 4.48045 90.2955 4.50983C90.3206 4.51823 90.35 4.52662 90.3752 4.53922C90.4802 4.58119 90.5851 4.62737 90.6858 4.68614L84.3809 1.02153L84.3767 1.01314Z" fill="#D1D3D4"/>
<path d="M26.4147 32.8991C26.3686 32.9327 26.3182 32.9663 26.272 33.0041C26.1713 33.0754 26.0747 33.151 25.974 33.2266C25.9194 33.2685 25.8648 33.3147 25.8145 33.3609C25.7263 33.4364 25.634 33.512 25.5458 33.596C25.4912 33.6463 25.4409 33.6925 25.3863 33.7429C25.3527 33.7765 25.3191 33.8016 25.2855 33.8352C25.252 33.8688 25.2184 33.9066 25.1848 33.9402C25.0799 34.0493 24.9749 34.1585 24.87 34.276C24.8364 34.3138 24.8028 34.3474 24.7692 34.3851C24.744 34.4145 24.7189 34.4481 24.6895 34.4817C24.6265 34.553 24.5677 34.6286 24.5048 34.7042C24.467 34.7545 24.425 34.8007 24.383 34.8511C24.3495 34.8931 24.3201 34.935 24.2907 34.977C24.2445 35.0358 24.2025 35.0945 24.1606 35.1533C24.1312 35.1953 24.0976 35.2331 24.0682 35.275C24.0178 35.3464 23.9717 35.4178 23.9255 35.4891C23.8961 35.5353 23.8625 35.5815 23.8331 35.6277C23.8205 35.6486 23.808 35.6654 23.7954 35.6864C23.7114 35.8165 23.6316 35.9509 23.5519 36.0852C23.5477 36.0936 23.5435 36.102 23.5351 36.1104C23.5183 36.1356 23.5057 36.165 23.4889 36.1901C23.4344 36.2867 23.3798 36.3832 23.3252 36.4798C23.3 36.526 23.279 36.5721 23.2581 36.6141C23.2329 36.6603 23.2119 36.7065 23.1867 36.7568C23.1657 36.7988 23.1447 36.8408 23.1237 36.8828C23.0692 36.9919 23.023 37.1011 22.9726 37.2144C22.9642 37.2354 22.9516 37.2564 22.9432 37.2774C22.9432 37.2816 22.939 37.2899 22.9348 37.2941C22.8761 37.4327 22.8173 37.5754 22.7627 37.7181C22.7543 37.7433 22.7459 37.7685 22.7333 37.7937C22.7123 37.844 22.6956 37.8986 22.6788 37.949C22.6536 38.0203 22.6242 38.0917 22.6032 38.1631C22.5864 38.2176 22.5696 38.2722 22.5528 38.3268C22.5318 38.3897 22.5109 38.4569 22.4941 38.5199C22.4815 38.5619 22.4689 38.5996 22.4563 38.6416C22.4353 38.713 22.4227 38.7843 22.4017 38.8557C22.3807 38.9355 22.3597 39.0152 22.3429 39.095C22.3388 39.1244 22.3262 39.1495 22.322 39.1789C22.3094 39.2377 22.3052 39.2965 22.2926 39.351C22.2674 39.477 22.2464 39.6029 22.2296 39.7246C22.2254 39.7582 22.217 39.796 22.2128 39.8296C22.2044 39.9093 22.196 39.9849 22.1918 40.0646C22.1876 40.1192 22.1792 40.1738 22.175 40.2283C22.1624 40.4047 22.1541 40.5768 22.1541 40.7489L28.459 44.4135C28.459 44.2414 28.4674 44.0693 28.48 43.893C28.48 43.8384 28.4926 43.7796 28.4968 43.725C28.5094 43.6117 28.522 43.4984 28.5388 43.385C28.5556 43.2591 28.5808 43.1332 28.6017 43.0114C28.6185 42.9275 28.6311 42.8393 28.6521 42.7554C28.6689 42.6756 28.6899 42.5959 28.7109 42.5161C28.7403 42.4028 28.7697 42.2936 28.799 42.1803C28.8158 42.1173 28.8368 42.0502 28.8578 41.9872C28.8956 41.8613 28.9376 41.7353 28.9837 41.6094C29.0005 41.559 29.0215 41.5045 29.0383 41.4541C29.1013 41.282 29.1726 41.1099 29.2482 40.9378C29.2566 40.9168 29.2692 40.8958 29.2776 40.8748C29.3447 40.7237 29.4161 40.5684 29.4917 40.4214C29.5168 40.3753 29.5378 40.3291 29.563 40.2787C29.6386 40.136 29.7141 39.9933 29.7939 39.8548C29.8107 39.8296 29.8233 39.8002 29.8401 39.775C29.9366 39.6113 30.0332 39.4518 30.1381 39.2923C30.1675 39.2461 30.2011 39.1999 30.2305 39.1537C30.306 39.0404 30.3858 38.9271 30.4655 38.8179C30.5075 38.7591 30.5537 38.7004 30.5957 38.6416C30.6628 38.5493 30.7342 38.4611 30.8055 38.3688C30.8643 38.2932 30.9273 38.2176 30.9902 38.1463C31.049 38.0791 31.1078 38.012 31.1707 37.9448C31.2757 37.8315 31.3806 37.7181 31.4856 37.609C31.5527 37.5418 31.6157 37.4746 31.6871 37.4075C31.7416 37.3571 31.792 37.3067 31.8466 37.2564C31.9347 37.1766 32.0229 37.1011 32.111 37.0255C32.1656 36.9793 32.216 36.9373 32.2705 36.8912C32.3671 36.8114 32.4678 36.74 32.5686 36.6687C32.6148 36.6351 32.6609 36.5973 32.7113 36.5637C32.8582 36.463 33.0093 36.3665 33.1605 36.2783L26.8555 32.6137C26.7044 32.7018 26.5533 32.7984 26.4063 32.8991H26.4147Z" fill="#D1D3D4"/>
<path d="M24.0896 59.1177C24.0896 59.1177 24.077 59.1177 24.0686 59.1177C23.9889 59.1135 23.9133 59.1177 23.842 59.1303C23.842 59.1303 23.8336 59.1303 23.8294 59.1303C23.758 59.1471 23.6908 59.1723 23.6279 59.2059L24.5724 58.656C24.5724 58.656 24.5766 58.656 24.5807 58.6518C24.6017 58.6392 24.6269 58.6266 24.6521 58.6182C24.6773 58.6098 24.7025 58.6014 24.7277 58.593C24.7445 58.5888 24.7613 58.5846 24.778 58.5804C24.778 58.5804 24.7864 58.5804 24.7906 58.5804C24.7948 58.5804 24.8032 58.5804 24.8074 58.5804C24.8368 58.5762 24.862 58.572 24.8914 58.572C24.9208 58.572 24.9543 58.572 24.9837 58.572C24.9921 58.572 25.0047 58.572 25.0131 58.572C25.0215 58.572 25.0257 58.572 25.0341 58.572C25.0509 58.572 25.0677 58.572 25.0845 58.5762C25.1265 58.5804 25.1642 58.593 25.2062 58.6014C25.223 58.6056 25.244 58.614 25.2608 58.6182C25.2776 58.6224 25.2944 58.6308 25.3112 58.635C25.3321 58.6434 25.3531 58.6476 25.3741 58.656C25.4371 58.6812 25.5042 58.7147 25.5714 58.7525C25.6596 58.8029 25.7477 58.8658 25.8359 58.933C25.8653 58.954 25.8904 58.9792 25.9156 59.0044C25.9576 59.0421 25.9996 59.0715 26.0374 59.1135C26.0541 59.1303 26.0709 59.1513 26.0919 59.1681C26.1087 59.1849 26.1213 59.2017 26.1381 59.2185C26.1549 59.2394 26.1759 59.2562 26.1927 59.2772C26.2305 59.3234 26.2682 59.3696 26.306 59.4158C26.3186 59.4325 26.3312 59.4493 26.3438 59.4661C26.3522 59.4745 26.3564 59.4829 26.3648 59.4913C26.3774 59.5081 26.39 59.5249 26.4026 59.5417C26.4319 59.5795 26.4571 59.6214 26.4823 59.6634C26.5075 59.7012 26.5327 59.7432 26.5537 59.781C26.5537 59.781 26.5537 59.7851 26.5579 59.7893C26.5579 59.7893 26.5579 59.7935 26.5621 59.7977C26.5831 59.8313 26.5999 59.8649 26.6166 59.8985C26.6376 59.9363 26.6586 59.9782 26.6754 60.016C26.6922 60.0496 26.709 60.0874 26.7258 60.1252C26.7258 60.1252 26.7258 60.1294 26.7258 60.1336C26.7258 60.1336 26.7258 60.1378 26.7258 60.142C26.7426 60.1839 26.7594 60.2259 26.7762 60.2679C26.7929 60.3099 26.8097 60.356 26.8223 60.398C26.8307 60.419 26.8349 60.44 26.8433 60.4652C26.8433 60.4736 26.8475 60.4862 26.8517 60.4946C26.8559 60.5114 26.8601 60.5281 26.8685 60.5449C26.8853 60.5995 26.8979 60.6541 26.9063 60.7044C26.9147 60.738 26.9189 60.7674 26.9231 60.801C26.9231 60.8178 26.9273 60.8346 26.9315 60.8514C26.9315 60.8682 26.9357 60.8808 26.9399 60.8975C26.9525 60.9899 26.9567 61.0822 26.9567 61.1704L26.9147 84.2368C26.9147 84.6776 26.7552 84.9882 26.5075 85.1351L25.563 85.6851C25.8149 85.5381 25.9702 85.2275 25.9702 84.7867L26.0122 61.7203C26.0122 61.6153 26.0038 61.5062 25.987 61.4013C25.987 61.3845 25.9828 61.3677 25.9786 61.3509C25.9618 61.2502 25.9366 61.1494 25.9072 61.0445C25.9072 61.0361 25.903 61.0235 25.8988 61.0151C25.8653 60.9059 25.8233 60.7926 25.7771 60.6835C25.7771 60.6835 25.7771 60.6793 25.7771 60.6751C25.7267 60.5659 25.6722 60.4568 25.6134 60.3476C25.6134 60.3476 25.6134 60.3434 25.6092 60.3392C25.5504 60.2343 25.4833 60.1378 25.4119 60.0412C25.4035 60.0328 25.3993 60.0244 25.3909 60.016C25.3279 59.9279 25.2566 59.8481 25.1852 59.7684C25.1684 59.7516 25.1558 59.7348 25.139 59.718C25.0845 59.6592 25.0215 59.6046 24.9627 59.5543C24.9376 59.5291 24.9082 59.5039 24.883 59.4829C24.799 59.4157 24.7109 59.3528 24.6185 59.3024C24.5304 59.252 24.4422 59.2143 24.3583 59.1849C24.3415 59.1807 24.3247 59.1723 24.3079 59.1681C24.2281 59.1429 24.1526 59.1261 24.077 59.1177H24.0896Z" fill="#D1D3D4"/>
<path d="M24.6313 59.3023C23.859 58.8573 23.2293 59.2141 23.2293 60.104L23.1873 83.1705C23.1873 84.0562 23.8086 85.1392 24.581 85.5884C25.3533 86.0333 25.983 85.6723 25.9872 84.7866L26.0292 61.7202C26.0292 60.8302 25.4037 59.7472 24.6355 59.3023H24.6313Z" fill="white"/>
<g clip-path="url(#clip0_1449_169763)">
<path d="M3.27766 91.8483L72.9598 51.3629C75.5416 49.8631 81.5273 53.3078 81.5273 56.2938L78.7791 62.7824C78.7791 65.3243 77.427 67.6742 75.229 68.9507L5.78645 112.369C4.04711 113.379 -0.26046 110.92 -0.104195 108.186V97.7253C-0.104195 95.3032 1.18417 93.0645 3.27851 91.8474L3.27766 91.8483Z" fill="url(#paint0_linear_1449_169763)"/>
<path d="M6.49944 93.9181L76.1807 53.4336C78.7634 51.9329 82 53.7962 82 56.7823V64.8522C82 67.3941 80.6479 69.7441 78.45 71.0205L7.03534 112.511C5.29601 113.522 3.11589 112.267 3.11589 110.256V99.7952C3.11589 97.373 4.40426 95.1343 6.49859 93.9173L6.49944 93.9181Z" fill="url(#paint1_linear_1449_169763)"/>
<path d="M5.15365 99.7971V110.254C5.15365 110.422 5.2097 110.555 5.32181 110.661C5.43391 110.768 5.58678 110.829 5.72946 110.829C5.82629 110.829 5.91801 110.804 6.01397 110.748L20.7983 102.159L77.4278 69.2611C78.9905 68.3498 79.9629 66.6597 79.9629 64.8524V56.7834C79.9629 55.6428 79.0057 54.9404 78.1199 54.9404C77.804 54.9404 77.494 55.0271 77.2036 55.1952L20.7983 87.9674L7.52061 95.6806C6.05899 96.5307 5.15365 98.1087 5.15365 99.7996V99.7971Z" fill="#F6F6F6"/>
<path d="M76.3775 68.8486C77.9427 67.9399 78.9143 66.2506 78.9143 64.4408V56.3709C78.9143 55.7526 78.6281 55.2685 78.2281 54.9492C79.0833 55.0027 79.9648 55.6889 79.9648 56.782V64.8519C79.9648 66.6617 78.9933 68.3501 77.428 69.2597L6.01339 110.751C5.91911 110.805 5.82655 110.832 5.72972 110.832C5.5845 110.832 5.43163 110.769 5.32122 110.663C5.20826 110.554 5.15306 110.421 5.15306 110.256V110.23L76.3775 68.8486Z" fill="url(#paint2_linear_1449_169763)"/>
<path d="M5.15318 99.7971V110.254C5.15318 110.422 5.20923 110.555 5.32134 110.661C5.43344 110.768 5.58631 110.829 5.72899 110.829C5.82581 110.829 5.91753 110.804 6.0135 110.748L20.7979 102.159V87.9648L7.52014 95.678C6.05852 96.5282 5.15318 98.1062 5.15318 99.7971Z" fill="url(#paint3_linear_1449_169763)"/>
<path d="M55.9329 74.6611C55.4281 74.3057 55.5207 73.3051 56.1395 72.426C56.7584 71.5469 57.6693 71.1224 58.174 71.4777C58.6787 71.833 58.5862 72.8337 57.9673 73.7128C57.3485 74.5918 56.4376 75.0164 55.9329 74.6611Z" fill="url(#paint4_linear_1449_169763)"/>
<path d="M49.9544 78.2988C49.4496 77.9434 49.5422 76.9427 50.161 76.0637C50.7799 75.1846 51.6907 74.7601 52.1955 75.1154C52.7002 75.4707 52.6077 76.4714 51.9888 77.3505C51.37 78.2295 50.4591 78.6541 49.9544 78.2988Z" fill="url(#paint5_linear_1449_169763)"/>
<path d="M43.9778 81.9374C43.4731 81.5821 43.5656 80.5814 44.1845 79.7024C44.8033 78.8233 45.7142 78.3987 46.2189 78.7541C46.7236 79.1094 46.6311 80.1101 46.0123 80.9891C45.3934 81.8682 44.4825 82.2928 43.9778 81.9374Z" fill="url(#paint6_linear_1449_169763)"/>
<path d="M38.0003 85.5742C37.4955 85.2188 37.5881 84.2181 38.2069 83.3391C38.8258 82.46 39.7366 82.0355 40.2414 82.3908C40.7461 82.7461 40.6536 83.7468 40.0347 84.6259C39.4159 85.5049 38.505 85.9295 38.0003 85.5742Z" fill="url(#paint7_linear_1449_169763)"/>
<path d="M32.0237 89.2118C31.519 88.8565 31.6115 87.8558 32.2304 86.9768C32.8492 86.0977 33.7601 85.6731 34.2648 86.0285C34.7695 86.3838 34.677 87.3845 34.0582 88.2636C33.4393 89.1426 32.5284 89.5672 32.0237 89.2118Z" fill="url(#paint8_linear_1449_169763)"/>
<path d="M26.0462 92.8486C25.5414 92.4932 25.634 91.4926 26.2528 90.6135C26.8717 89.7344 27.7825 89.3099 28.2873 89.6652C28.792 90.0205 28.6995 91.0212 28.0806 91.9003C27.4617 92.7793 26.5509 93.2039 26.0462 92.8486Z" fill="url(#paint9_linear_1449_169763)"/>
<path d="M3.27766 120.743L72.9598 80.2587C75.5416 78.758 81.5273 82.2036 81.5273 85.1896L78.7791 91.6782C78.7791 94.2201 77.427 96.5701 75.229 97.8465L5.78645 141.265C4.04711 142.275 -0.26046 139.816 -0.104195 137.082V126.621C-0.104195 124.199 1.18417 121.96 3.27851 120.743H3.27766Z" fill="url(#paint10_linear_1449_169763)"/>
<path d="M6.49944 122.813L76.1807 82.3287C78.7625 80.8289 82 82.6914 82 85.6774V93.7473C82 96.2892 80.6479 98.6392 78.45 99.9157L7.03534 141.407C5.29601 142.417 3.11589 141.162 3.11589 139.151V128.69C3.11589 126.268 4.40426 124.029 6.49859 122.812L6.49944 122.813Z" fill="url(#paint11_linear_1449_169763)"/>
<path d="M5.15365 128.693V139.151C5.15365 139.319 5.2097 139.451 5.32181 139.558C5.43391 139.665 5.58678 139.726 5.72946 139.726C5.82629 139.726 5.91801 139.7 6.01397 139.644L20.7983 131.055L77.4278 98.1566C78.9905 97.2453 79.9629 95.5552 79.9629 93.7479V85.6789C79.9629 84.5383 79.0057 83.8359 78.1199 83.8359C77.804 83.8359 77.494 83.9226 77.2036 84.0907L20.7983 116.863L7.52061 124.576C6.05899 125.426 5.15365 127.004 5.15365 128.695V128.693Z" fill="#F6F6F6"/>
<path d="M76.3775 97.7451C77.9427 96.8364 78.9143 95.1471 78.9143 93.3373V85.2674C78.9143 84.6491 78.6281 84.165 78.2281 83.8457C79.0833 83.8992 79.9648 84.5854 79.9648 85.6785V93.7484C79.9648 95.5582 78.9933 97.2466 77.428 98.1561L6.01339 139.647C5.91911 139.701 5.82655 139.729 5.72972 139.729C5.5845 139.729 5.43163 139.666 5.32122 139.56C5.20826 139.451 5.15306 139.318 5.15306 139.153V139.126L76.3775 97.7451Z" fill="url(#paint12_linear_1449_169763)"/>
<path d="M5.15318 128.694V139.151C5.15318 139.319 5.20923 139.451 5.32134 139.558C5.43344 139.665 5.58631 139.726 5.72899 139.726C5.82581 139.726 5.91753 139.7 6.0135 139.644L20.7979 131.055V116.861L7.52014 124.575C6.05852 125.425 5.15318 127.003 5.15318 128.694Z" fill="url(#paint13_linear_1449_169763)"/>
<path d="M56.9475 103.541C56.4428 103.186 56.5353 102.185 57.1542 101.306C57.7731 100.427 58.6839 100.002 59.1886 100.358C59.6934 100.713 59.6008 101.714 58.982 102.593C58.3631 103.472 57.4523 103.896 56.9475 103.541Z" fill="url(#paint14_linear_1449_169763)"/>
<path d="M50.969 107.178C50.4643 106.822 50.5568 105.822 51.1757 104.943C51.7945 104.064 52.7054 103.639 53.2101 103.994C53.7149 104.35 53.6223 105.35 53.0035 106.229C52.3846 107.108 51.4737 107.533 50.969 107.178Z" fill="url(#paint15_linear_1449_169763)"/>
<path d="M44.9934 110.815C44.4887 110.46 44.5812 109.459 45.2001 108.58C45.819 107.701 46.7298 107.277 47.2345 107.632C47.7393 107.987 47.6467 108.988 47.0279 109.867C46.409 110.746 45.4982 111.171 44.9934 110.815Z" fill="url(#paint16_linear_1449_169763)"/>
<path d="M39.0159 114.452C38.5112 114.097 38.6037 113.096 39.2225 112.217C39.8414 111.338 40.7523 110.913 41.257 111.269C41.7617 111.624 41.6692 112.625 41.0503 113.504C40.4315 114.383 39.5206 114.807 39.0159 114.452Z" fill="url(#paint17_linear_1449_169763)"/>
<path d="M33.0383 118.091C32.5336 117.735 32.6261 116.735 33.245 115.856C33.8639 114.977 34.7747 114.552 35.2795 114.907C35.7842 115.263 35.6917 116.263 35.0728 117.142C34.4539 118.022 33.5431 118.446 33.0383 118.091Z" fill="url(#paint18_linear_1449_169763)"/>
<path d="M27.0608 121.728C26.5561 121.373 26.6486 120.372 27.2675 119.493C27.8863 118.614 28.7972 118.19 29.3019 118.545C29.8067 118.9 29.7141 119.901 29.0953 120.78C28.4764 121.659 27.5655 122.084 27.0608 121.728Z" fill="url(#paint19_linear_1449_169763)"/>
</g>
<g clip-path="url(#clip1_1449_169763)">
<g style="mix-blend-mode:multiply">
<path d="M103.72 163.428L94.3325 158.009C93.0946 157.291 93.2478 156.041 94.6793 155.214L103.289 150.246C104.72 149.42 106.885 149.331 108.127 150.045L117.515 155.464C118.753 156.182 118.6 157.432 117.168 158.259L108.559 163.227C107.127 164.053 104.962 164.142 103.72 163.428Z" fill="#F2F7F9"/>
</g>
<path d="M112.89 152.226V153.509H112.882C112.882 153.561 112.873 153.614 112.861 153.666C112.777 154.15 112.39 154.638 111.704 155.033L103.905 159.537L103.095 160.005C101.663 160.832 99.4979 160.92 98.2599 160.207L88.8684 154.787C88.2837 154.448 88.0135 153.989 88.0377 153.513H88.0296V152.38H88.6789C88.8321 152.242 89.0095 152.113 89.2152 151.997L97.8204 147.025C99.2519 146.198 101.417 146.109 102.655 146.823L112.035 152.238H112.882L112.89 152.226Z" fill="url(#paint20_linear_1449_169763)"/>
<path d="M98.2598 158.917L88.8723 153.497C87.6344 152.779 87.7876 151.529 89.2191 150.703L97.8284 145.735C99.2599 144.908 101.425 144.819 102.667 145.533L112.055 150.953C113.293 151.67 113.14 152.92 111.708 153.747L103.099 158.715C101.667 159.542 99.5018 159.63 98.2598 158.917Z" fill="#E3EBF8"/>
<path d="M99.6794 152.512L94.5179 149.512C94.4534 149.476 94.3969 149.436 94.3364 149.387L99.4979 152.387C99.5544 152.436 99.6149 152.476 99.6794 152.512Z" fill="#00B243"/>
<path d="M107.954 134.274L102.797 131.274L108.47 128L113.632 131L107.954 134.274Z" fill="url(#paint21_linear_1449_169763)"/>
<path d="M101.744 146.42L96.5865 143.42L102.796 131.274L107.954 134.274L101.744 146.42Z" fill="url(#paint22_linear_1449_169763)"/>
<path d="M93.1627 147.44L88.0012 144.44L93.6869 141.158L98.8444 144.158L93.1627 147.44Z" fill="url(#paint23_linear_1449_169763)"/>
<g style="mix-blend-mode:multiply">
<path d="M102.086 156.178L97.4209 153.484C96.8039 153.129 96.8805 152.508 97.5943 152.097L101.869 149.629C102.578 149.218 103.655 149.174 104.272 149.529L108.938 152.222C109.554 152.577 109.478 153.198 108.764 153.609L104.49 156.077C103.78 156.488 102.703 156.533 102.086 156.178Z" fill="#F2F7F9"/>
</g>
<path d="M99.4976 152.388L94.3402 149.392L88.0012 144.44L93.1627 147.44L99.4976 152.388Z" fill="url(#paint24_linear_1449_169763)"/>
<path d="M107.954 134.274L113.627 131L104.018 149.795C103.466 150.88 102.643 151.799 101.768 152.307C100.889 152.815 100.062 152.848 99.4977 152.392L93.1588 147.444L98.8445 144.162L101.744 146.424L107.954 134.278V134.274Z" fill="url(#paint25_linear_1449_169763)"/>
<g style="mix-blend-mode:screen">
<path d="M108.394 134.051C108.414 134.051 108.434 134.047 108.454 134.035L113.225 131.233C113.285 131.2 113.301 131.124 113.269 131.063C113.237 131.003 113.16 130.987 113.1 131.019L108.329 133.821C108.269 133.854 108.253 133.93 108.285 133.991C108.309 134.031 108.349 134.051 108.39 134.051H108.394Z" fill="url(#paint26_linear_1449_169763)"/>
</g>
<g style="mix-blend-mode:screen">
<path d="M101.921 145.916C101.921 145.916 101.953 145.888 101.965 145.868L107.643 134.855C107.675 134.794 107.651 134.722 107.59 134.69C107.53 134.657 107.457 134.682 107.425 134.742L101.747 145.755C101.715 145.815 101.739 145.888 101.8 145.92C101.84 145.94 101.884 145.936 101.921 145.916Z" fill="url(#paint27_linear_1449_169763)"/>
</g>
</g>
<defs>
<linearGradient id="paint0_linear_1449_169763" x1="81.5273" y1="81.8004" x2="-0.109291" y2="81.8004" gradientUnits="userSpaceOnUse">
<stop stop-color="#4C6FBF"/>
<stop offset="1" stop-color="#8CA3D8"/>
</linearGradient>
<linearGradient id="paint1_linear_1449_169763" x1="25.785" y1="124.612" x2="50.0185" y2="63.5621" gradientUnits="userSpaceOnUse">
<stop stop-color="#4C6FBF"/>
<stop offset="1" stop-color="#8CA3D8"/>
</linearGradient>
<linearGradient id="paint2_linear_1449_169763" x1="79.964" y1="82.8915" x2="5.15306" y2="82.8915" gradientUnits="userSpaceOnUse">
<stop stop-color="#4C6FBF"/>
<stop offset="1" stop-color="#8CA3D8"/>
</linearGradient>
<linearGradient id="paint3_linear_1449_169763" x1="20.7987" y1="99.3979" x2="5.15318" y2="99.3979" gradientUnits="userSpaceOnUse">
<stop stop-color="#4C6FBF"/>
<stop offset="1" stop-color="#8CA3D8"/>
</linearGradient>
<linearGradient id="paint4_linear_1449_169763" x1="165.181" y1="6.67049" x2="162.283" y2="8.43392" gradientUnits="userSpaceOnUse">
<stop stop-color="#4B4C4F"/>
<stop offset="1" stop-color="#50525B"/>
</linearGradient>
<linearGradient id="paint5_linear_1449_169763" x1="159.186" y1="10.3182" x2="156.288" y2="12.0822" gradientUnits="userSpaceOnUse">
<stop stop-color="#4B4C4F"/>
<stop offset="1" stop-color="#50525B"/>
</linearGradient>
<linearGradient id="paint6_linear_1449_169763" x1="153.193" y1="13.966" x2="150.295" y2="15.7299" gradientUnits="userSpaceOnUse">
<stop stop-color="#4B4C4F"/>
<stop offset="1" stop-color="#50525B"/>
</linearGradient>
<linearGradient id="paint7_linear_1449_169763" x1="147.199" y1="17.6132" x2="144.3" y2="19.3771" gradientUnits="userSpaceOnUse">
<stop stop-color="#4B4C4F"/>
<stop offset="1" stop-color="#50525B"/>
</linearGradient>
<linearGradient id="paint8_linear_1449_169763" x1="141.205" y1="21.2614" x2="138.307" y2="23.0254" gradientUnits="userSpaceOnUse">
<stop stop-color="#4B4C4F"/>
<stop offset="1" stop-color="#50525B"/>
</linearGradient>
<linearGradient id="paint9_linear_1449_169763" x1="135.211" y1="24.9086" x2="132.313" y2="26.6721" gradientUnits="userSpaceOnUse">
<stop stop-color="#4B4C4F"/>
<stop offset="1" stop-color="#50525B"/>
</linearGradient>
<linearGradient id="paint10_linear_1449_169763" x1="81.9995" y1="110.696" x2="81.9146" y2="110.696" gradientUnits="userSpaceOnUse">
<stop stop-color="#4C6FBF"/>
<stop offset="1" stop-color="#8CA3D8"/>
</linearGradient>
<linearGradient id="paint11_linear_1449_169763" x1="35.6936" y1="128.545" x2="59.9271" y2="67.4951" gradientUnits="userSpaceOnUse">
<stop stop-color="#4C6FBF"/>
<stop offset="1" stop-color="#8CA3D8"/>
</linearGradient>
<linearGradient id="paint12_linear_1449_169763" x1="79.964" y1="111.787" x2="5.15306" y2="111.787" gradientUnits="userSpaceOnUse">
<stop stop-color="#4C6FBF"/>
<stop offset="1" stop-color="#8CA3D8"/>
</linearGradient>
<linearGradient id="paint13_linear_1449_169763" x1="20.7987" y1="128.294" x2="5.15318" y2="128.294" gradientUnits="userSpaceOnUse">
<stop stop-color="#4C6FBF"/>
<stop offset="1" stop-color="#8CA3D8"/>
</linearGradient>
<linearGradient id="paint14_linear_1449_169763" x1="183.423" y1="24.9986" x2="183.34" y2="25.0494" gradientUnits="userSpaceOnUse">
<stop stop-color="#4B4C4F"/>
<stop offset="1" stop-color="#50525B"/>
</linearGradient>
<linearGradient id="paint15_linear_1449_169763" x1="172.255" y1="31.7937" x2="169.356" y2="33.5576" gradientUnits="userSpaceOnUse">
<stop stop-color="#4B4C4F"/>
<stop offset="1" stop-color="#50525B"/>
</linearGradient>
<linearGradient id="paint16_linear_1449_169763" x1="166.262" y1="35.442" x2="163.364" y2="37.206" gradientUnits="userSpaceOnUse">
<stop stop-color="#4B4C4F"/>
<stop offset="1" stop-color="#50525B"/>
</linearGradient>
<linearGradient id="paint17_linear_1449_169763" x1="160.268" y1="39.0893" x2="157.369" y2="40.8532" gradientUnits="userSpaceOnUse">
<stop stop-color="#4B4C4F"/>
<stop offset="1" stop-color="#50525B"/>
</linearGradient>
<linearGradient id="paint18_linear_1449_169763" x1="154.274" y1="42.7376" x2="151.375" y2="44.5015" gradientUnits="userSpaceOnUse">
<stop stop-color="#4B4C4F"/>
<stop offset="1" stop-color="#50525B"/>
</linearGradient>
<linearGradient id="paint19_linear_1449_169763" x1="148.279" y1="46.3852" x2="145.382" y2="48.1486" gradientUnits="userSpaceOnUse">
<stop stop-color="#4B4C4F"/>
<stop offset="1" stop-color="#50525B"/>
</linearGradient>
<linearGradient id="paint20_linear_1449_169763" x1="105.284" y1="147.198" x2="98.1148" y2="156.037" gradientUnits="userSpaceOnUse">
<stop stop-color="#AFC2DD"/>
<stop offset="1" stop-color="#AFC2DD"/>
</linearGradient>
<linearGradient id="paint21_linear_1449_169763" x1="102.797" y1="131.137" x2="113.632" y2="131.137" gradientUnits="userSpaceOnUse">
<stop stop-color="#90D87C"/>
<stop offset="1" stop-color="#A4EC90"/>
</linearGradient>
<linearGradient id="paint22_linear_1449_169763" x1="96.5865" y1="138.847" x2="107.954" y2="138.847" gradientUnits="userSpaceOnUse">
<stop stop-color="#90D87C"/>
<stop offset="1" stop-color="#A4EC90"/>
</linearGradient>
<linearGradient id="paint23_linear_1449_169763" x1="88.0012" y1="144.299" x2="98.8444" y2="144.299" gradientUnits="userSpaceOnUse">
<stop stop-color="#90D87C"/>
<stop offset="1" stop-color="#A4EC90"/>
</linearGradient>
<linearGradient id="paint24_linear_1449_169763" x1="88.0012" y1="148.416" x2="99.4976" y2="148.416" gradientUnits="userSpaceOnUse">
<stop stop-color="#5BA845"/>
<stop offset="1" stop-color="#6FBC59"/>
</linearGradient>
<linearGradient id="paint25_linear_1449_169763" x1="103.397" y1="149.489" x2="103.397" y2="141.666" gradientUnits="userSpaceOnUse">
<stop stop-color="#569B3F"/>
<stop offset="1" stop-color="#6AAF53"/>
</linearGradient>
<linearGradient id="paint26_linear_1449_169763" x1="113.289" y1="132.527" x2="108.273" y2="132.527" gradientUnits="userSpaceOnUse">
<stop/>
<stop offset="0.5" stop-color="white"/>
<stop offset="1"/>
</linearGradient>
<linearGradient id="paint27_linear_1449_169763" x1="109.308" y1="137.355" x2="100.07" y2="143.246" gradientUnits="userSpaceOnUse">
<stop/>
<stop offset="0.5" stop-color="white"/>
<stop offset="1"/>
</linearGradient>
<clipPath id="clip0_1449_169763">
<rect width="82" height="91" fill="white" transform="matrix(-1 0 0 1 82 51)"/>
</clipPath>
<clipPath id="clip1_1449_169763">
<rect width="30.3481" height="35.9129" fill="white" transform="translate(88 128)"/>
</clipPath>
</defs>
</svg>
