<svg width="69" height="69" viewBox="0 0 69 69" fill="none" xmlns="http://www.w3.org/2000/svg">
<g clip-path="url(#clip0_1816_12831)">
<rect width="68.8074" height="68.8074" rx="13.7615" fill="#4390C8"/>
<g clip-path="url(#clip1_1816_12831)">
<path d="M69.9355 0H33.8434V53.7839H69.9355V0Z" fill="#FFFBE9"/>
<path d="M65.7372 4.53696H38.0406V49.247H65.7372V4.53696Z" stroke="#F2DDAA" stroke-width="0.396168" stroke-linecap="round" stroke-linejoin="round"/>
<path d="M60.9891 50.0473L56.6991 57.0481L59.2416 56.5705L60.1859 58.5541L64.0499 51.3769L60.9891 50.0473Z" fill="#DD2C35"/>
<g style="mix-blend-mode:multiply" opacity="0.5">
<path d="M60.9885 50.0473L59.9736 51.7025L60.3888 52.484C60.595 52.8693 61.0672 53.024 61.4606 52.8313L62.2774 52.4325C62.5026 52.3239 62.7658 52.3239 62.9883 52.4325L63.3791 52.6224L64.0493 51.3769L60.9885 50.0473Z" fill="#DD2C35"/>
</g>
<path d="M64.2771 50.0473L68.5672 57.0481L66.0246 56.5705L65.0803 58.5541L61.2136 51.3769L64.2771 50.0473Z" fill="#FF5052"/>
<g style="mix-blend-mode:multiply" opacity="0.5">
<path d="M64.2772 50.0473L61.2164 51.3769L61.8867 52.6224L62.2774 52.4325C62.5026 52.3239 62.7658 52.3239 62.9883 52.4325L63.8051 52.8313C64.1985 53.024 64.6734 52.8693 64.8769 52.484L65.2921 51.7025L64.2772 50.0473Z" fill="#DD2C35"/>
</g>
<path d="M62.9451 42.9816L63.6615 42.6315C64.0061 42.4633 64.424 42.599 64.6031 42.9381L64.9775 43.6437C65.0807 43.8363 65.2679 43.972 65.4822 44.01L66.2664 44.1484C66.6436 44.2135 66.9014 44.5689 66.8471 44.9488L66.7359 45.7385C66.706 45.9555 66.7766 46.1753 66.9285 46.3327L67.4821 46.9053C67.748 47.182 67.748 47.6189 67.4821 47.8957L66.9285 48.4682C66.7766 48.6256 66.7033 48.8454 66.7359 49.0625L66.8471 49.8521C66.9014 50.232 66.6436 50.5875 66.2664 50.6526L65.4822 50.791C65.2652 50.829 65.0807 50.9646 64.9775 51.1573L64.6031 51.8628C64.424 52.202 64.0061 52.3376 63.6615 52.1694L62.9451 51.8194C62.7471 51.7217 62.5164 51.7217 62.321 51.8194L61.6047 52.1694C61.2601 52.3376 60.8422 52.202 60.6631 51.8628L60.2886 51.1573C60.1855 50.9646 59.9983 50.829 59.7839 50.791L58.9997 50.6526C58.6226 50.5875 58.3648 50.232 58.4191 49.8521L58.5303 49.0625C58.5602 48.8454 58.4896 48.6256 58.3376 48.4682L57.7841 47.8957C57.5182 47.6189 57.5182 47.182 57.7841 46.9053L58.3376 46.3327C58.4896 46.1753 58.5629 45.9555 58.5303 45.7385L58.4191 44.9488C58.3648 44.5689 58.6226 44.2135 58.9997 44.1484L59.7839 44.01C60.001 43.972 60.1855 43.8363 60.2886 43.6437L60.6631 42.9381C60.8422 42.599 61.2601 42.4633 61.6047 42.6315L62.321 42.9816C62.5191 43.0792 62.7498 43.0792 62.9451 42.9816Z" fill="#FF5052"/>
<path d="M62.8237 44.7045L63.2606 44.4901C63.4695 44.387 63.7246 44.4711 63.8331 44.6773L64.061 45.1061C64.1235 45.2255 64.2374 45.3069 64.3704 45.3313L64.848 45.4154C65.0786 45.4561 65.236 45.6705 65.2034 45.9038L65.1356 46.3841C65.1166 46.5171 65.16 46.65 65.2523 46.7477L65.5915 47.0978C65.7543 47.266 65.7543 47.5319 65.5915 47.7001L65.2523 48.0502C65.16 48.1452 65.1166 48.2808 65.1356 48.4138L65.2034 48.8941C65.236 49.1247 65.0786 49.3418 64.848 49.3825L64.3704 49.4666C64.2374 49.491 64.1262 49.5725 64.061 49.6918L63.8331 50.1206C63.7246 50.3268 63.4695 50.4109 63.2606 50.3078L62.8237 50.0934C62.7043 50.0337 62.5632 50.0337 62.4438 50.0934L62.0069 50.3078C61.798 50.4109 61.5429 50.3268 61.4344 50.1206L61.2065 49.6918C61.1441 49.5725 61.0301 49.491 60.8971 49.4666L60.4196 49.3825C60.1889 49.3418 60.0315 49.1274 60.0641 48.8941L60.1319 48.4138C60.1509 48.2808 60.1075 48.1479 60.0152 48.0502L59.6761 47.7001C59.5133 47.5319 59.5133 47.266 59.6761 47.0978L60.0152 46.7477C60.1075 46.6527 60.1509 46.5171 60.1319 46.3841L60.0641 45.9038C60.0315 45.6732 60.1889 45.4561 60.4196 45.4154L60.8971 45.3313C61.0301 45.3069 61.1413 45.2255 61.2065 45.1061L61.4344 44.6773C61.5429 44.4711 61.798 44.387 62.0069 44.4901L62.4438 44.7045C62.5632 44.7642 62.7043 44.7642 62.8237 44.7045Z" fill="#FFC753"/>
<path d="M63.089 46.813L64.0198 46.9731L63.4011 47.6867L63.5395 48.6174L62.6684 48.2511L61.8246 48.669L61.9032 47.7301L61.2466 47.0545L62.1637 46.8428L62.6033 46.0071L63.089 46.813Z" fill="white"/>
<path d="M61.4794 7.52716H42.4417V9.72779H61.4794V7.52716Z" stroke="#F2DDAA" stroke-width="0.396168" stroke-linecap="round" stroke-linejoin="round"/>
<path d="M58.7658 10.7943H45.1522V12.9949H58.7658V10.7943Z" stroke="#F2DDAA" stroke-width="0.396168" stroke-linecap="round" stroke-linejoin="round"/>
<path d="M41.6584 41.804H54.3738" stroke="#F2DDAA" stroke-width="0.396168" stroke-linecap="round" stroke-linejoin="round"/>
<path d="M41.6584 44.9163H48.0161" stroke="#F2DDAA" stroke-width="0.396168" stroke-linecap="round" stroke-linejoin="round"/>
<path d="M51.2828 18.5005C56.452 18.5005 59.9741 22.1447 59.9741 27.3627C59.9741 32.5807 56.4547 36.2982 51.2828 36.2982C46.1109 36.2982 42.5671 32.5807 42.5671 27.3627C42.5671 22.1447 46.1109 18.5005 51.2828 18.5005ZM51.2828 19.9766C46.8761 19.9766 44.168 22.8828 44.168 27.3627C44.168 31.8427 46.8761 34.7977 51.2828 34.7977C55.6895 34.7977 58.3975 31.8427 58.3975 27.3627C58.3975 22.8828 55.665 19.9766 51.2828 19.9766ZM51.3316 21.8978C48.108 21.8978 45.8178 24.0143 45.8178 27.3871C45.8178 30.76 48.108 32.8765 51.3316 32.8765C53.9664 32.8765 56.0829 31.2267 56.5252 28.6408H52.4631C52.2651 29.1835 51.9204 29.6746 51.158 29.6746C50.2218 29.6746 49.6303 28.9365 49.6303 27.3844C49.6303 25.8323 50.2218 25.0942 51.158 25.0942C51.8716 25.0942 52.2895 25.561 52.4631 26.1281H56.5252C56.0829 23.4933 53.9637 21.8951 51.3316 21.8951V21.8978Z" stroke="#F2DDAA" stroke-width="0.396168" stroke-miterlimit="10"/>
<path d="M32.299 0.208954H-3.79297V53.9929H32.299V0.208954Z" fill="#CDF4FF"/>
<path d="M28.1014 4.74588H0.404907V49.4559H28.1014V4.74588Z" stroke="#85C4D5" stroke-width="0.396168" stroke-linecap="round" stroke-linejoin="round"/>
<path d="M23.8416 7.73615H4.80383V9.93678H23.8416V7.73615Z" stroke="#85C4D5" stroke-width="0.396168" stroke-linecap="round" stroke-linejoin="round"/>
<path d="M21.13 11.0059H7.51648V13.2066H21.13V11.0059Z" stroke="#85C4D5" stroke-width="0.396168" stroke-linecap="round" stroke-linejoin="round"/>
<path d="M4.0213 42.0156H16.7367" stroke="#85C4D5" stroke-width="0.396168" stroke-linecap="round" stroke-linejoin="round"/>
<path d="M4.0213 45.1281H10.379" stroke="#85C4D5" stroke-width="0.396168" stroke-linecap="round" stroke-linejoin="round"/>
<path d="M20.8671 23.9004H8.13546C7.03098 23.9004 6.13562 24.7957 6.13562 25.9002V33.5984C6.13562 34.7029 7.03098 35.5982 8.13546 35.5982H20.8671C21.9716 35.5982 22.8669 34.7029 22.8669 33.5984V25.9002C22.8669 24.7957 21.9716 23.9004 20.8671 23.9004Z" stroke="#85C4D5" stroke-width="0.396168" stroke-linecap="round" stroke-linejoin="round"/>
<path d="M16.5692 31.5795L15.8555 29.3164C16.0346 29.0532 16.1377 28.7384 16.1377 28.3965C16.1377 27.493 15.4051 26.7603 14.5015 26.7603C13.5979 26.7603 12.8653 27.493 12.8653 28.3965C12.8653 28.7384 12.9711 29.0532 13.1475 29.3164L12.4338 31.5795H16.5665H16.5692Z" stroke="#85C4D5" stroke-width="0.396168" stroke-linecap="round" stroke-linejoin="round"/>
<path d="M19.7228 23.9003C19.7228 21.5369 17.8071 19.6239 15.4464 19.6239H13.5605C11.1971 19.6239 9.28406 21.5396 9.28406 23.9003" stroke="#85C4D5" stroke-width="0.396168" stroke-linecap="round" stroke-linejoin="round"/>
<path d="M2.37732 50.2563L-1.91541 57.2571L0.62984 56.7795L1.57413 58.763L5.43813 51.5859L2.37732 50.2563Z" fill="#DD2C35"/>
<g style="mix-blend-mode:multiply" opacity="0.5">
<path d="M2.37745 50.2563L1.36261 51.9115L1.77777 52.693C1.984 53.0783 2.45614 53.233 2.8496 53.0403L3.66636 52.6414C3.89157 52.5329 4.15478 52.5329 4.37729 52.6414L4.76803 52.8314L5.43826 51.5859L2.37745 50.2563Z" fill="#DD2C35"/>
</g>
<path d="M5.66612 50.2563L9.95613 57.2571L7.4136 56.7795L6.4666 58.763L2.6026 51.5859L5.66612 50.2563Z" fill="#FF5052"/>
<g style="mix-blend-mode:multiply" opacity="0.5">
<path d="M5.66695 50.2563L2.60614 51.5859L3.27637 52.8314L3.66711 52.6414C3.89233 52.5329 4.15554 52.5329 4.37804 52.6414L5.1948 53.0403C5.58826 53.233 6.06312 53.0783 6.26663 52.693L6.68179 51.9115L5.66695 50.2563Z" fill="#DD2C35"/>
</g>
<path d="M4.33412 43.1905L5.05047 42.8404C5.39509 42.6722 5.81296 42.8079 5.99205 43.1471L6.36651 43.8526C6.46963 44.0452 6.65686 44.1809 6.87122 44.2189L7.65542 44.3573C8.03259 44.4224 8.29037 44.7779 8.2361 45.1578L8.12485 45.9474C8.095 46.1645 8.16555 46.3843 8.31751 46.5416L8.87106 47.1142C9.13698 47.391 9.13698 47.8278 8.87106 48.1046L8.31751 48.6771C8.16555 48.8345 8.09229 49.0543 8.12485 49.2714L8.2361 50.061C8.29037 50.4409 8.03259 50.7964 7.65542 50.8615L6.87122 50.9999C6.65414 51.0379 6.46963 51.1736 6.36651 51.3662L5.99205 52.0717C5.81296 52.4109 5.39509 52.5466 5.05047 52.3783L4.33412 52.0283C4.13603 51.9306 3.90539 51.9306 3.71001 52.0283L2.99366 52.3783C2.64904 52.5466 2.23117 52.4109 2.05208 52.0717L1.67762 51.3662C1.5745 51.1736 1.38727 51.0379 1.17291 50.9999L0.388713 50.8615C0.0115394 50.7964 -0.246241 50.4409 -0.191972 50.061L-0.0807189 49.2714C-0.0508706 49.0543 -0.121421 48.8345 -0.273376 48.6771L-0.826926 48.1046C-1.09285 47.8278 -1.09285 47.391 -0.826926 47.1142L-0.273376 46.5416C-0.121421 46.3843 -0.0481571 46.1645 -0.0807189 45.9474L-0.191972 45.1578C-0.246241 44.7779 0.0115394 44.4224 0.388713 44.3573L1.17291 44.2189C1.38999 44.1809 1.5745 44.0452 1.67762 43.8526L2.05208 43.1471C2.23117 42.8079 2.64904 42.6722 2.99366 42.8404L3.71001 43.1905C3.9081 43.2882 4.13875 43.2882 4.33412 43.1905Z" fill="#FF5052"/>
<path d="M4.21201 44.9162L4.64888 44.7018C4.85781 44.5987 5.11288 44.6828 5.22142 44.8891L5.44935 45.3178C5.51176 45.4372 5.62573 45.5186 5.75869 45.543L6.23626 45.6271C6.46691 45.6678 6.62429 45.8822 6.59173 46.1156L6.52389 46.5958C6.5049 46.7288 6.54831 46.8618 6.64057 46.9594L6.97976 47.3095C7.14257 47.4777 7.14257 47.7436 6.97976 47.9119L6.64057 48.2619C6.54831 48.3569 6.5049 48.4926 6.52389 48.6255L6.59173 49.1058C6.62429 49.3365 6.46691 49.5535 6.23626 49.5942L5.75869 49.6784C5.62573 49.7028 5.51448 49.7842 5.44935 49.9036L5.22142 50.3323C5.11288 50.5385 4.85781 50.6226 4.64888 50.5195L4.21201 50.3052C4.09261 50.2455 3.95151 50.2455 3.83212 50.3052L3.39525 50.5195C3.18631 50.6226 2.93124 50.5385 2.8227 50.3323L2.59477 49.9036C2.53236 49.7842 2.41839 49.7028 2.28543 49.6784L1.80786 49.5942C1.57722 49.5535 1.41983 49.3392 1.4524 49.1058L1.52023 48.6255C1.53923 48.4926 1.49581 48.3596 1.40355 48.2619L1.06437 47.9119C0.901559 47.7436 0.901559 47.4777 1.06437 47.3095L1.40355 46.9594C1.49581 46.8645 1.53923 46.7288 1.52023 46.5958L1.4524 46.1156C1.41983 45.8849 1.57722 45.6678 1.80786 45.6271L2.28543 45.543C2.41839 45.5186 2.52965 45.4372 2.59477 45.3178L2.8227 44.8891C2.93124 44.6828 3.18631 44.5987 3.39525 44.7018L3.83212 44.9162C3.95151 44.9759 4.09261 44.9759 4.21201 44.9162Z" fill="#FFC753"/>
<path d="M4.47728 47.0247L5.408 47.1821L4.78933 47.8957L4.92772 48.8291L4.05669 48.4628L3.2128 48.8807L3.29149 47.9418L2.63483 47.2662L3.55198 47.0518L3.98885 46.2161L4.47728 47.0247Z" fill="white"/>
<path d="M54.3456 12.2133H18.2535V65.9972H54.3456V12.2133Z" fill="#002C56"/>
<path d="M52.5929 13.4399H49.3585V64.7708H52.5929V13.4399Z" fill="white"/>
<path d="M50.9756 13.4399H49.3122V64.7708H50.9756V13.4399Z" fill="#E5F3FF"/>
<path d="M50.1838 26.0088V41.6954" stroke="#CADFEC" stroke-width="0.396168" stroke-linecap="round" stroke-linejoin="round"/>
<path d="M50.1838 20.8558V23.9492" stroke="#CADFEC" stroke-width="0.396168" stroke-linecap="round" stroke-linejoin="round"/>
<path d="M50.1838 14.5769V18.6526" stroke="#CADFEC" stroke-width="0.396168" stroke-linecap="round" stroke-linejoin="round"/>
<path d="M51.7684 56.0767V61.8212" stroke="#CADFEC" stroke-width="0.396168" stroke-linecap="round" stroke-linejoin="round"/>
<path d="M51.7684 48.783V53.9793" stroke="#CADFEC" stroke-width="0.396168" stroke-linecap="round" stroke-linejoin="round"/>
<path d="M51.7684 28.1089V47.0952" stroke="#CADFEC" stroke-width="0.396168" stroke-linecap="round" stroke-linejoin="round"/>
<path d="M49.3588 12.2133H13.2668V65.9972H49.3588V12.2133Z" fill="#0B3E68"/>
<g style="mix-blend-mode:overlay" opacity="0.5">
<path d="M16.7101 15.3475V63.2595" stroke="white" stroke-width="0.396168" stroke-linecap="round" stroke-linejoin="round"/>
</g>
<path d="M39.0827 37.3811H26.9589V38.3688H39.0827V37.3811Z" fill="#929291"/>
<path d="M33.8082 39.001H32.1096V44.6152H33.8082V39.001Z" fill="#929291"/>
<path d="M38.7199 44.6151H27.326V45.2907H38.7199V44.6151Z" fill="#5E5E5D"/>
<path d="M39.0827 45.2908H26.9589V45.9664H39.0827V45.2908Z" fill="#6F6E6E"/>
<path d="M39.4596 45.9663H26.5841V46.642H39.4596V45.9663Z" fill="#7B7A7A"/>
<path d="M39.0827 37.3809H26.9589L33.0208 32.1276L39.0827 37.3809Z" fill="#A9A9A9"/>
<path d="M38.4345 37.3807H27.5887L33.0103 32.6403L38.4345 37.3807Z" fill="#C4C4C4"/>
<path d="M32.5597 44.1728C32.5597 44.2352 32.5081 44.2868 32.4484 44.2868C32.386 44.2868 32.3345 44.2352 32.3345 44.1728V39.4459C32.3345 39.3835 32.386 39.332 32.4484 39.332C32.5108 39.332 32.5597 39.3835 32.5597 39.4459V44.1728Z" fill="#7B7A7A"/>
<path d="M33.0731 44.1728C33.0731 44.2352 33.0215 44.2868 32.9591 44.2868C32.8967 44.2868 32.8452 44.2352 32.8452 44.1728V39.4459C32.8452 39.3835 32.8967 39.332 32.9591 39.332C33.0215 39.332 33.0731 39.3835 33.0731 39.4459V44.1728Z" fill="#7B7A7A"/>
<path d="M33.5824 44.1728C33.5824 44.2352 33.5309 44.2868 33.4685 44.2868C33.4061 44.2868 33.3545 44.2352 33.3545 44.1728V39.4459C33.3545 39.3835 33.4061 39.332 33.4685 39.332C33.5309 39.332 33.5824 39.3835 33.5824 39.4459V44.1728Z" fill="#7B7A7A"/>
<path d="M29.4772 39.001H27.7786V44.6152H29.4772V39.001Z" fill="#929291"/>
<path d="M28.2286 44.1728C28.2286 44.2352 28.177 44.2868 28.1146 44.2868C28.0522 44.2868 28.0007 44.2352 28.0007 44.1728V39.4459C28.0007 39.3835 28.0522 39.332 28.1146 39.332C28.177 39.332 28.2286 39.3835 28.2286 39.4459V44.1728Z" fill="#7B7A7A"/>
<path d="M28.7421 44.1728C28.7421 44.2352 28.6905 44.2868 28.6281 44.2868C28.5657 44.2868 28.5142 44.2352 28.5142 44.1728V39.4459C28.5142 39.3835 28.5657 39.332 28.6281 39.332C28.6905 39.332 28.7421 39.3835 28.7421 39.4459V44.1728Z" fill="#7B7A7A"/>
<path d="M29.2522 44.1728C29.2522 44.2352 29.2006 44.2868 29.1382 44.2868C29.0758 44.2868 29.0242 44.2352 29.0242 44.1728V39.4459C29.0242 39.3835 29.0758 39.332 29.1382 39.332C29.2006 39.332 29.2522 39.3835 29.2522 39.4459V44.1728Z" fill="#7B7A7A"/>
<path d="M38.1391 39.001H36.4405V44.6152H38.1391V39.001Z" fill="#929291"/>
<path d="M36.8927 44.1728C36.8927 44.2352 36.8411 44.2868 36.7787 44.2868C36.7163 44.2868 36.6675 44.2352 36.6675 44.1728V39.4459C36.6675 39.3835 36.719 39.332 36.7787 39.332C36.8411 39.332 36.8927 39.3835 36.8927 39.4459V44.1728Z" fill="#7B7A7A"/>
<path d="M37.4028 44.1728C37.4028 44.2352 37.3512 44.2868 37.2888 44.2868C37.2264 44.2868 37.1776 44.2352 37.1776 44.1728V39.4459C37.1776 39.3835 37.2291 39.332 37.2888 39.332C37.3512 39.332 37.4028 39.3835 37.4028 39.4459V44.1728Z" fill="#7B7A7A"/>
<path d="M37.9134 44.1728C37.9134 44.2352 37.8618 44.2868 37.7994 44.2868C37.737 44.2868 37.6854 44.2352 37.6854 44.1728V39.4459C37.6854 39.3835 37.737 39.332 37.7994 39.332C37.8618 39.332 37.9134 39.3835 37.9134 39.4459V44.1728Z" fill="#7B7A7A"/>
<path d="M38.7199 38.3687H27.326V39.0444H38.7199V38.3687Z" fill="#7B7A7A"/>
<path d="M33.5477 52.4814L34.6196 52.6659L33.9086 53.4854L34.066 54.5599L33.0647 54.1394L32.0906 54.6196L32.1828 53.537L31.4258 52.7609L32.4813 52.514L32.986 51.5534L33.5477 52.4814Z" fill="#FFFBE9"/>
<path d="M38.3881 51.6565L39.4599 51.8383L38.7489 52.6605L38.9063 53.735L37.9051 53.3117L36.9309 53.7947L37.0232 52.712L36.2661 51.936L37.3244 51.689L37.8264 50.7285L38.3881 51.6565Z" fill="#FFC753"/>
<path d="M42.1192 49.4152L43.1883 49.597L42.4773 50.4192L42.6347 51.4938L41.6362 51.0704L40.662 51.5534L40.7543 50.4708L39.9945 49.6947L41.0528 49.4478L41.5575 48.4845L42.1192 49.4152Z" fill="#FFFBE9"/>
<path d="M27.6532 51.6565L26.5841 51.8383L27.295 52.6605L27.1377 53.735L28.1362 53.3117L29.1104 53.7947L29.0181 52.712L29.7779 51.936L28.7196 51.689L28.2149 50.7285L27.6532 51.6565Z" fill="#FFC753"/>
<path d="M23.9247 49.4152L22.8528 49.597L23.5638 50.4192L23.4064 51.4938L24.4077 51.0704L25.3818 51.5534L25.2896 50.4708L26.0466 49.6947L24.9911 49.4478L24.4864 48.4845L23.9247 49.4152Z" fill="#FFFBE9"/>
<path d="M33.5477 26.7114L34.6196 26.8932L33.9086 27.7154L34.066 28.79L33.0647 28.3666L32.0906 28.8496L32.1828 27.767L31.4258 26.9909L32.4813 26.744L32.986 25.7807L33.5477 26.7114Z" fill="#FFC753"/>
<path d="M38.3881 27.7563L39.4599 27.9381L38.7489 28.7602L38.9063 29.8348L37.9051 29.4142L36.9309 29.8945L37.0232 28.8118L36.2661 28.0357L37.3244 27.7888L37.8264 26.8282L38.3881 27.7563Z" fill="#FFFBE9"/>
<path d="M42.1192 30.03L43.1883 30.2118L42.4773 31.034L42.6347 32.1085L41.6362 31.6852L40.662 32.1682L40.7543 31.0855L39.9945 30.3095L41.0528 30.0626L41.5575 29.102L42.1192 30.03Z" fill="#FFC753"/>
<path d="M27.6532 27.7563L26.5841 27.9381L27.295 28.7602L27.1377 29.8348L28.1362 29.4142L29.1104 29.8945L29.0181 28.8118L29.7779 28.0357L28.7196 27.7888L28.2149 26.8282L27.6532 27.7563Z" fill="#FFFBE9"/>
<path d="M23.9247 30.03L22.8528 30.2118L23.5638 31.034L23.4064 32.1085L24.4077 31.6852L25.3818 32.1682L25.2896 31.0855L26.0466 30.3095L24.9911 30.0626L24.4864 29.102L23.9247 30.03Z" fill="#FFC753"/>
<path d="M22.3296 47.551C20.9403 45.4942 20.129 43.0141 20.129 40.3413C20.129 37.6685 20.9729 35.0961 22.411 33.0149" stroke="#FFC753" stroke-width="0.396168" stroke-linecap="round" stroke-linejoin="round"/>
<path d="M43.7126 47.551C45.1019 45.4942 45.9133 43.0141 45.9133 40.3413C45.9133 37.6685 45.0694 35.0961 43.6312 33.0149" stroke="#FFC753" stroke-width="0.396168" stroke-linecap="round" stroke-linejoin="round"/>
<path d="M24.902 58.291H41.1422" stroke="white" stroke-width="0.396168" stroke-linecap="round" stroke-linejoin="round"/>
<path d="M22.1207 61.4033H43.9236" stroke="white" stroke-width="0.396168" stroke-linecap="round" stroke-linejoin="round"/>
<path d="M20.3111 21.7512H45.7337" stroke="white" stroke-width="0.396168" stroke-linecap="round" stroke-linejoin="round"/>
</g>
</g>
<defs>
<clipPath id="clip0_1816_12831">
<rect width="68.8074" height="68.8074" rx="13.7615" fill="white"/>
</clipPath>
<clipPath id="clip1_1816_12831">
<rect width="73.728" height="66" fill="white" transform="translate(-3.79321)"/>
</clipPath>
</defs>
</svg>
