<svg width="69" height="69" viewBox="0 0 69 69" fill="none" xmlns="http://www.w3.org/2000/svg">
<rect width="68.8074" height="68.8074" rx="13.7615" fill="#2736C2"/>
<g clip-path="url(#clip0_1483_125700)">
<path d="M54.333 11.5001H24.1458V49.8673H54.333V11.5001Z" fill="#0D68BE"/>
<path d="M24.146 11.5001H16.8012V49.8673H24.146V11.5001Z" fill="#0A4E8F"/>
<path d="M24.146 14.547H16.8012V16.4607H24.146V14.547Z" fill="#F0C419"/>
<path d="M24.146 45.7498H16.8012V47.6635H24.146V45.7498Z" fill="#F0C419"/>
<path d="M24.146 26.7269H16.8012V28.6406H24.146V26.7269Z" fill="#F0C419"/>
<path d="M24.146 32.7659H16.8012V34.6796H24.146V32.7659Z" fill="#F0C419"/>
<path d="M16.8013 11.5001H9.45645V49.8673H16.8013V11.5001Z" fill="#B5292A"/>
<path d="M16.8013 16.4568H9.45645V18.3704H16.8013V16.4568Z" fill="#F0C419"/>
<path d="M16.8013 43.6127H9.45645V45.5264H16.8013V43.6127Z" fill="#F0C419"/>
<path d="M16.8013 29.7465H9.45645V31.6602H16.8013V29.7465Z" fill="#F0C419"/>
<path d="M16.8013 35.7816H9.45645V37.6952H16.8013V35.7816Z" fill="#F0C419"/>
<path d="M16.8013 23.7075H9.45645V25.6212H16.8013V23.7075Z" fill="#F0C419"/>
<path d="M51.9378 44.146V17.2253C50.4594 17.2253 49.2594 16.0254 49.2594 14.547H29.2248C29.2248 16.0254 28.0249 17.2253 26.5465 17.2253V44.146C28.0249 44.146 29.2248 45.3459 29.2248 46.8243H49.2594C49.2594 45.3459 50.4594 44.146 51.9378 44.146Z" stroke="#F0C419" stroke-width="0.30195" stroke-miterlimit="10"/>
<path d="M35.8204 24.5037V21.2097H36.3381V24.0332H37.1898V24.5037H35.8204ZM38.5632 21.2097L39.0903 24.5037H38.5679L38.4785 23.9061H37.8433L37.7539 24.5037H37.2786L37.8056 21.2097H38.5632ZM38.1585 21.7932L37.9091 23.4591H38.408L38.1585 21.7932ZM40.6678 24.5037L40.4795 22.7485L40.2913 24.5037H39.5807L39.2137 21.2097H39.7172L39.9948 23.8073L40.2442 21.2097H40.7431L41.0019 23.8261L41.2701 21.2097H41.7218L41.3548 24.5037H40.6678Z" fill="#F0C419"/>
<path d="M37.1763 28.6055L37.7033 31.8995H37.181L37.0916 31.3019H36.4563L36.3669 31.8995H35.8916L36.4186 28.6055H37.1763ZM36.7716 29.189L36.5222 30.8549H37.021L36.7716 29.189ZM39.0502 31.8995L38.4055 29.5137V31.8995H37.9397V28.6055H38.589L39.1208 30.5772V28.6055H39.582V31.8995H39.0502ZM39.9526 31.8995V28.6055H40.7714C41.289 28.6055 41.5431 28.8926 41.5431 29.4196V31.0854C41.5431 31.6125 41.289 31.8995 40.7714 31.8995H39.9526ZM40.7619 29.0761H40.4702V31.429H40.7619C40.9267 31.429 41.0255 31.3443 41.0255 31.109V29.3961C41.0255 29.1608 40.9267 29.0761 40.7619 29.0761Z" fill="#F0C419"/>
<path d="M32.5379 39.2992V38.8286C32.5944 38.8333 32.6603 38.8333 32.7167 38.8333C32.8814 38.8333 33.0132 38.7722 33.0132 38.518V36.0052H33.5308V38.4804C33.5308 39.1392 33.1779 39.3086 32.7873 39.3086C32.6932 39.3086 32.6226 39.3086 32.5379 39.2992ZM33.8595 36.0052H34.3772V38.5463C34.3772 38.7816 34.4807 38.8663 34.6454 38.8663C34.8101 38.8663 34.9136 38.7816 34.9136 38.5463V36.0052H35.403V38.5133C35.403 39.0404 35.1395 39.3415 34.6313 39.3415C34.1231 39.3415 33.8595 39.0404 33.8595 38.5133V36.0052ZM35.6921 36.7958C35.6921 36.2687 35.9509 35.9675 36.4545 35.9675C36.958 35.9675 37.2168 36.2687 37.2168 36.7958V36.8993H36.7274V36.7628C36.7274 36.5275 36.6333 36.4381 36.4686 36.4381C36.3039 36.4381 36.2098 36.5275 36.2098 36.7628C36.2098 37.4404 37.2215 37.5675 37.2215 38.5086C37.2215 39.0357 36.958 39.3368 36.4497 39.3368C35.9415 39.3368 35.678 39.0357 35.678 38.5086V38.3063H36.1674V38.5416C36.1674 38.7769 36.2709 38.8616 36.4356 38.8616C36.6003 38.8616 36.7039 38.7769 36.7039 38.5416C36.7039 37.864 35.6921 37.7369 35.6921 36.7958ZM37.3675 36.4758V36.0052H38.9674V36.4758H38.4263V39.2992H37.9086V36.4758H37.3675ZM39.1954 39.2992V36.0052H39.713V39.2992H39.1954ZM41.1032 38.071H41.5926V38.5086C41.5926 39.0357 41.3291 39.3368 40.8209 39.3368C40.3127 39.3368 40.0491 39.0357 40.0491 38.5086V36.7958C40.0491 36.2687 40.3127 35.9675 40.8209 35.9675C41.3291 35.9675 41.5926 36.2687 41.5926 36.7958V37.1157H41.1032V36.7628C41.1032 36.5275 40.9997 36.4381 40.835 36.4381C40.6703 36.4381 40.5668 36.5275 40.5668 36.7628V38.5416C40.5668 38.7769 40.6703 38.8616 40.835 38.8616C40.9997 38.8616 41.1032 38.7769 41.1032 38.5416V38.071ZM42.4243 36.4758V37.3934H43.1349V37.864H42.4243V38.8286H43.3184V39.2992H41.9067V36.0052H43.3184V36.4758H42.4243Z" fill="#F0C419"/>
<path d="M5.5 53.5416C5.5 55.569 7.14308 57.216 9.17438 57.216H39.3341V49.8712H9.17438C7.147 49.8712 5.5 51.5142 5.5 53.5455V53.5416Z" fill="#00814C"/>
<path d="M10.5741 53.5417C10.5741 51.5143 12.2172 49.8673 14.2485 49.8673H12.7466C10.7192 49.8673 9.07224 51.5104 9.07224 53.5417C9.07224 55.5691 10.7153 57.2161 12.7466 57.2161H14.2485C12.2211 57.2161 10.5741 55.573 10.5741 53.5417Z" fill="#FFD800"/>
<path d="M19.9346 53.5417C19.9346 51.5143 21.5777 49.8673 23.609 49.8673H22.1071C20.0797 49.8673 18.4327 51.5104 18.4327 53.5417C18.4327 55.5691 20.0758 57.2161 22.1071 57.2161H23.609C21.5816 57.2161 19.9346 55.573 19.9346 53.5417Z" fill="#FFD800"/>
<path d="M29.287 53.5417C29.287 51.5143 30.9301 49.8673 32.9614 49.8673H31.4594C29.4321 49.8673 27.7851 51.5104 27.7851 53.5417C27.7851 55.5691 29.4281 57.2161 31.4594 57.2161H32.9614C30.934 57.2161 29.287 55.573 29.287 53.5417Z" fill="#FFD800"/>
<path d="M60.9996 50.7143V49.8673H38.3063C36.2789 49.8673 34.6319 51.5104 34.6319 53.5417C34.6319 55.5691 36.275 57.2161 38.3063 57.2161H60.9996V56.42H38.9298V50.7183H60.9996V50.7143Z" fill="#00AC65"/>
<path d="M60.3844 56.4161H38.5029C36.9264 56.4161 35.652 55.1416 35.652 53.5652C35.652 51.9888 36.9264 50.7144 38.5029 50.7144H60.3844V56.4161Z" fill="#D1D1D1"/>
<path d="M51.4313 51.7221H38.1494V52.326H51.4313V51.7221Z" fill="#C2C2C2"/>
<path d="M60.3879 54.4436H40.7807V55.0475H60.3879V54.4436Z" fill="#C2C2C2"/>
</g>
<defs>
<clipPath id="clip0_1483_125700">
<rect width="55.5" height="45.716" fill="white" transform="translate(5.5 11.5001)"/>
</clipPath>
</defs>
</svg>
