<svg width="168" height="173" viewBox="0 0 168 173" fill="none" xmlns="http://www.w3.org/2000/svg">
<g clip-path="url(#clip0_1597_127090)">
<path fill-rule="evenodd" clip-rule="evenodd" d="M168 0.976989L166.289 0L83.4453 47.6859L85.156 48.6628L168 0.976989Z" fill="#AFA9EE"/>
<path fill-rule="evenodd" clip-rule="evenodd" d="M85.156 48.6625L83.4453 47.6855V146.561L85.156 147.538V48.6625Z" fill="#C7C2ED"/>
<path fill-rule="evenodd" clip-rule="evenodd" d="M168 0.976562L85.1562 48.6624V147.54L168 99.8527V0.976562Z" fill="#EBE8F9"/>
<path fill-rule="evenodd" clip-rule="evenodd" d="M114.102 87.0348L162.246 59.3333C163.043 58.8741 163.697 59.3196 163.697 60.322V91.6472C163.697 92.6496 163.043 93.8464 162.246 94.3056L114.102 122.007C113.305 122.465 112.651 122.022 112.651 121.018V89.6932C112.651 88.6898 113.304 87.494 114.102 87.0358V87.0348Z" fill="white"/>
<path fill-rule="evenodd" clip-rule="evenodd" d="M118.736 112.526V114.382L157.612 92.0128V90.1566L118.736 112.525V112.526ZM127.945 103.514L157.612 86.444V88.3013L127.945 105.371V103.515V103.514ZM118.736 105.099L144.138 90.4819V92.3392L118.736 106.955V105.099ZM147.515 88.5396L157.613 82.7295V84.5867L147.515 90.3969V88.5406V88.5396ZM118.736 108.811L124.524 105.481V107.338L118.736 110.667V108.811Z" fill="#807C85"/>
<path fill-rule="evenodd" clip-rule="evenodd" d="M117.554 90.8546V101.219L137.475 89.7565V79.3926L117.554 90.8546Z" fill="#807C85"/>
<path fill-rule="evenodd" clip-rule="evenodd" d="M138.873 78.588V88.9519L158.794 77.4889V67.125L138.873 78.588Z" fill="#807C85"/>
<path fill-rule="evenodd" clip-rule="evenodd" d="M164.232 11.46L132.931 29.4766V69.6621L164.232 51.6445V11.46Z" fill="#655F6B"/>
<path fill-rule="evenodd" clip-rule="evenodd" d="M162.994 13.6182L134.171 30.2084V67.504L162.994 50.9128V13.6182Z" fill="white"/>
<path fill-rule="evenodd" clip-rule="evenodd" d="M93.6889 72.0585L90.5439 73.8689V77.4251L93.6889 75.6147V72.0585ZM128.299 52.1367L118.863 57.5678V61.124L128.299 55.693V52.1367ZM90.5449 81.7365L99.9807 76.3055V79.8617L90.5449 85.2928V81.7365ZM103.485 74.288C111.756 69.5271 120.028 64.7662 128.299 60.0044V63.5606C120.028 68.3215 111.756 73.0824 103.485 77.8442V74.288ZM90.5449 89.6042V93.1605L99.9807 87.7294V84.1732L90.5449 89.6042ZM103.485 82.1557V85.7119C109.541 82.227 115.595 78.7411 121.65 75.2562V71.6999C115.595 75.1849 109.541 78.6708 103.485 82.1557ZM125.155 69.6825V73.2387L128.299 71.4283V67.8721L125.155 69.6825ZM115.359 59.5853L104.324 65.9377V69.4939L115.359 63.1415V59.5853ZM100.82 67.9542L97.1943 70.041V73.5973L100.82 71.5104V67.9542Z" fill="#655F6B"/>
<path fill-rule="evenodd" clip-rule="evenodd" d="M90.5439 59.1511V64.4004C98.651 59.7343 106.758 55.0673 114.865 50.4012L115.358 50.1178V44.8685L114.865 45.1518C106.758 49.8189 98.651 54.485 90.5439 59.1511ZM118.862 42.851V48.1004L128.298 42.6693V37.4199L118.862 42.851Z" fill="#655F6B"/>
<path fill-rule="evenodd" clip-rule="evenodd" d="M149.461 23.8182C148.872 24.1572 148.291 24.4913 147.702 24.8303C144.389 26.7364 141.703 30.8056 141.703 33.9193C141.703 35.8146 139.639 45.4634 139.639 47.3578C139.639 50.4714 143.831 50.5828 145.637 49.5443C147.316 48.578 149.846 47.1223 151.526 46.1561C153.331 45.1175 157.524 40.1808 157.524 37.0671C157.524 35.1727 155.46 27.8991 155.46 26.0047C155.46 22.891 152.774 21.9121 149.461 23.8182Z" fill="#301E1E"/>
<path fill-rule="evenodd" clip-rule="evenodd" d="M148.582 42.7084C143.247 45.7781 138.922 51.2336 138.922 54.8934V58.2503C141.188 58.4643 144.673 57.4306 148.582 55.1816C152.492 52.9326 155.977 49.9547 158.243 47.1332V43.7762C158.243 40.1164 153.918 39.6387 148.582 42.7084Z" fill="#655F6B"/>
<path fill-rule="evenodd" clip-rule="evenodd" d="M142.44 54.4202C141.969 56.891 143.842 57.8817 149.991 54.0998C153.181 52.138 156.025 49.5949 157.875 47.2189V44.4794C157.875 38.4992 143.738 47.6331 142.44 54.4202Z" fill="#807C85"/>
<path fill-rule="evenodd" clip-rule="evenodd" d="M148.583 25.9783C145.469 27.7701 142.945 31.7454 142.945 34.8591V40.2716C142.945 43.3853 145.469 44.457 148.583 42.6652C151.696 40.8734 154.22 36.8981 154.22 33.7844V28.3719C154.22 25.2582 151.696 24.1865 148.583 25.9783Z" fill="#EBD1C4"/>
<path fill-rule="evenodd" clip-rule="evenodd" d="M154.219 32.9466C154.944 32.2823 155.437 31.5173 155.437 30.9624V29.5614C155.437 29.0045 154.94 28.8062 154.21 28.9801C154.215 29.0631 154.219 29.1481 154.219 29.236V32.9457V32.9466ZM142.954 35.4565C142.224 36.1228 141.727 36.8927 141.727 37.4496V38.8506C141.727 39.4055 142.219 39.6048 142.944 39.4338V35.7242C142.944 35.6363 142.947 35.5474 142.954 35.4565Z" fill="#D7B3A2"/>
<path fill-rule="evenodd" clip-rule="evenodd" d="M145.763 43.5327C145.716 47.9955 151.352 44.8096 151.4 40.2891C150.571 41.2455 149.608 42.074 148.582 42.6651C147.555 43.2562 146.592 43.5346 145.763 43.5327Z" fill="#D7B3A2"/>
<path fill-rule="evenodd" clip-rule="evenodd" d="M150.682 25.1405C149.359 27.3094 149.527 28.5639 147.963 30.9419C145.471 34.7306 143.701 35.4009 141.087 35.1654C141.087 35.1654 141.425 34.2558 141.865 32.9857C143.459 28.3812 146.901 23.5197 150.682 25.1395V25.1405Z" fill="#3F2626"/>
<path fill-rule="evenodd" clip-rule="evenodd" d="M150.671 25.1504C146.647 28.1058 148.42 33.0513 141.91 34.3028C143.456 30.1448 146.307 25.4552 150.671 25.1504Z" fill="#4B2D2D"/>
<path fill-rule="evenodd" clip-rule="evenodd" d="M150.682 25.1249C151.34 25.9554 151.257 26.862 152.036 27.7208C153.277 29.0886 154.158 28.7222 155.46 27.3701C155.46 27.3701 155.292 26.9226 155.072 26.2836C154.278 23.9662 152.564 22.3229 150.682 25.1259V25.1249Z" fill="#3F2626"/>
<path fill-rule="evenodd" clip-rule="evenodd" d="M150.688 25.1275C152.691 25.2418 151.808 29.3266 155.05 27.1763C154.28 25.1314 152.86 23.3318 150.688 25.1275Z" fill="#4B2D2D"/>
<path fill-rule="evenodd" clip-rule="evenodd" d="M109.072 93.3613L92.3203 103.003V124.51L109.072 114.867V93.3613Z" fill="#655F6B"/>
<path fill-rule="evenodd" clip-rule="evenodd" d="M71.4304 111.872C79.6147 131.783 54.3429 144.115 35.5955 147.047C30.52 147.84 26.5583 142.71 25.0108 136.652C23.4437 130.521 21.5933 124.022 24.6288 121.365C37.6442 109.967 64.0884 94.0103 71.4304 111.872Z" fill="#F99F1B"/>
<path fill-rule="evenodd" clip-rule="evenodd" d="M30.0459 139.443C27.9034 135.11 25.4629 129.22 25.8849 124.92C26.2474 121.229 32.9583 117.646 35.9421 115.484C42.6891 110.597 63.0359 101.421 69.6179 112.108C79.5949 128.307 52.0604 140.146 40.8651 142.839C36.4384 143.904 31.9765 143.344 30.0469 139.442L30.0459 139.443Z" fill="#FFC166"/>
<path fill-rule="evenodd" clip-rule="evenodd" d="M44.0532 54.6175C27.6007 61.1779 24.3835 112.66 23.8852 116.965C22.8819 123.009 33.5516 125.6 41.219 119.662C58.9767 105.912 44.018 53.1862 44.0522 54.6175H44.0532Z" fill="#392323"/>
<path d="M54.3362 91.5505C65.7801 91.5505 75.0571 82.6968 75.0571 71.7752C75.0571 60.8537 65.7801 52 54.3362 52C42.8923 52 33.6152 60.8537 33.6152 71.7752C33.6152 82.6968 42.8923 91.5505 54.3362 91.5505Z" fill="#392323"/>
<path fill-rule="evenodd" clip-rule="evenodd" d="M60.6415 117.976C58.4628 114.681 58.0945 110.492 59.7349 104.822C61.1769 105.355 64.8836 105.988 66.0179 105.88C70.5941 105.434 75.8513 90.0273 75.2436 85.2928C75.0218 83.5616 74.5841 81.9027 73.9755 80.698C72.5627 77.898 73.8035 75.6851 74.0048 73.1743C74.5949 65.8449 67.2196 65.5283 62.2594 65.4961C48.5493 69.5467 58.2274 76.5077 46.1567 84.0784C45.2667 84.6363 44.107 83.8303 43.5481 83.2714C42.4861 82.2114 41.2727 81.1992 40.0388 81.2354C38.8068 81.2735 37.5504 82.3609 37.8738 84.3295C37.9773 84.9509 38.5127 85.9005 39.0286 86.7798C40.581 89.4128 39.9665 93.5826 43.0557 91.8201C43.2902 95.7075 42.9629 102.508 42.5428 105.875C41.7026 112.604 38.1786 113.614 43.6253 116.808C50.0734 120.588 59.2249 121.47 60.6415 117.976Z" fill="#EAAD89"/>
<path fill-rule="evenodd" clip-rule="evenodd" d="M65.0218 105.858L65.0257 105.839L64.8245 105.841L65.0218 105.858ZM59.493 105.709C56.3862 105.707 53.5324 106.148 51.7475 108.661C49.9889 111.14 48.9845 115.197 48.6055 119.013C54.0297 120.759 59.5653 120.629 60.641 117.976C58.5776 114.855 58.1379 110.933 59.4921 105.709H59.493Z" fill="#EFC3A9"/>
<path fill-rule="evenodd" clip-rule="evenodd" d="M72.8447 72.0113C73.5667 75.7591 71.3723 77.7932 72.5584 80.1467C73.0948 81.2087 73.8812 82.9878 74.0766 84.5129C74.5896 88.5127 70.6093 103.991 66.7307 105.366C65.8182 105.689 64.0654 105.312 63.0855 105.17C58.8376 104.552 52.4373 100.89 50.2147 97.1991C44.4172 87.5943 55.1104 82.2463 55.041 81.6796C58.2211 67.9539 72.0689 67.9901 72.8437 72.0123L72.8447 72.0113Z" fill="#EFC3A9"/>
<path fill-rule="evenodd" clip-rule="evenodd" d="M52.442 101.118C49.8022 99.6547 45.182 95.5445 43.0669 92.0225V92.0254C43.2789 95.9431 42.9555 102.566 42.5422 105.875C41.702 112.604 38.178 113.614 43.6247 116.808C45.0834 117.663 46.6807 118.37 48.2957 118.911C45.2328 101.881 52.1695 103.069 52.442 101.118Z" fill="#EAAD89"/>
<path fill-rule="evenodd" clip-rule="evenodd" d="M64.793 65.9688C70.0296 57.6488 78.7688 61.3584 78.4562 72.966C75.9981 77.5461 70.865 76.152 68.7244 74.2097C65.3469 71.1459 65.7944 66.6859 64.793 65.9688Z" fill="#442A2A"/>
<path fill-rule="evenodd" clip-rule="evenodd" d="M66.8745 65.1794C61.4366 58.9248 49.3982 58.8485 45.8898 68.9877C44.268 73.6753 43.4581 79.5939 41.0977 81.4414C57.4065 91.4135 64.2327 67.3835 66.8745 65.1794Z" fill="#442A2A"/>
</g>
<defs>
<clipPath id="clip0_1597_127090">
<rect width="168" height="173" fill="white"/>
</clipPath>
</defs>
</svg>
