<svg width="69" height="69" viewBox="0 0 69 69" fill="none" xmlns="http://www.w3.org/2000/svg">
<g clip-path="url(#clip0_1486_125439)">
<rect width="68.8074" height="68.8074" rx="13.7615" fill="url(#paint0_radial_1486_125439)"/>
<path d="M39.5896 68.1718L45.9773 71.6683L49.2651 71.9606V72.4302L46.8018 73.8289L43.4097 73.5366L40.8316 70.9899L39.0364 69.7583L38.5145 68.3179V67.8482L39.5896 68.1718Z" fill="#575757"/>
<path d="M44.1507 66.46L45.9146 68.464L48.9624 70.5202L49.2651 71.9605L46.8018 73.3591L43.4097 73.0669L40.8316 70.5202L39.0364 69.299L38.5145 67.8482L38.8589 65.8024L44.1507 66.46Z" fill="black"/>
<path opacity="0.3" d="M36.009 53.6106H27.2207L21 57.2011V62.2737L41.019 73.8279H49.8073L56.0281 70.2374V65.1648L36.009 53.6106Z" fill="black"/>
<path d="M56.1124 21.5265L56.436 22.8103L58.1373 25.2109L58.2729 26.1085L57.7511 26.9853L57.7928 27.7263L59.515 28.3839L61.4251 27.8098L62.2287 25.691L61.1746 23.2174L58.4295 20.1383L57.1561 20.3157L56.1124 21.5265Z" fill="#F0C6B4"/>
<path d="M54.4519 19.2197L56.1115 21.5263H57.6353L58.4286 20.1382L57.4161 17.581L54.4519 19.2197Z" fill="white"/>
<path d="M45.6227 -6.39349L48.5661 -4.06594L53.4195 7.8745L58.2729 17.3099L56.8221 19.7836H53.8475L47.9607 10.5047L44.1093 -5.46456L45.6227 -6.39349Z" fill="#211A1A"/>
<path d="M28.4629 49.6869L33.6399 54.5194L36.4789 56.2833L36.2075 56.6069L34.9863 57.5985L32.4813 56.3147L29.8615 52.9329L27.1165 51.3569L26.3859 48.7371L26.6572 48.4135L28.4629 49.6869Z" fill="#575757"/>
<path d="M33.3892 50.1674L34.4329 52.0879L36.3326 53.6953L36.4787 56.2838L35.2471 57.2754L32.7421 55.9915L30.1223 52.6098L27.3772 51.0442L26.657 48.414L28.9533 46.5248L33.3892 50.1674Z" fill="black"/>
<path d="M48.0016 21.0358L45.3088 31.4732L41.7496 39.6979L34.2346 48.1522L33.3579 50.8347L29.6213 50.1353L28.3479 46.2839L32.8882 39.3535L35.9777 35.9091L39.589 22.0273L47.1353 18.5412L48.0016 21.0358Z" fill="#0A0808"/>
<path d="M32.0429 28.895L35.9778 46.8683L35.2785 53.423L38.2532 66.3655L40.6746 68.4634L44.9018 66.9813L42.6786 50.4588V44.9478L41.9793 28.5193L43.9416 25.6281L47.1354 19.5013L33.8172 20.8165L32.0429 28.895Z" fill="#211A1A"/>
<path d="M36.2705 -2.31307L41.6771 -4.06656L45.3615 -3.27331L47.5221 6.30826V18.6036L44.109 20.4093L40.2889 20.8163L35.9783 8.16613L36.2705 -2.31307Z" fill="white"/>
<path d="M40.6751 20.2218L44.2656 19.8043L47.0419 17.8839L47.1359 19.7521L44.3491 21.5474L40.7586 22.0275L40.6751 20.2218Z" fill="#944E39"/>
<path d="M42.7105 -3.96152L44.798 -0.757226L46.5098 6.34024L46.8646 28.8956L48.5659 26.1505V2.60363L47.3448 -2.41678L45.1112 -5.41233L42.6792 -6.79007L42.7105 -3.96152Z" fill="#362C29"/>
<path d="M35.3202 -4.79636L31.1974 -0.924062L30.1746 6.76833L31.6567 15.0452L30.1746 27.6224L32.5543 30.7118L41.781 31.4738L41.1756 8.68883L39.9649 1.22605L37.8461 -2.44793L35.3202 -4.79636Z" fill="#362C29"/>
<path d="M42.6582 -0.245315L44.777 7.13396L46.0191 21.4333L44.6205 24.9298L42.5852 23.0302L43.034 7.82283L41.9798 -0.0678779L42.0111 -0.621063L42.6582 -0.245315Z" fill="black"/>
<path opacity="0.3" d="M41.8749 -1.60272L41.1234 0.0777135L37.5956 -0.715533L35.2576 -2.8239L35.5185 -4.70264L36.4266 -2.9909L40.3302 -1.36265L41.8749 -1.60272Z" fill="black"/>
<path d="M31.0932 -1.5192L28.4003 -0.183203L27.4714 1.39285L26.9495 4.83721L30.7279 2.73928L31.0932 -1.5192Z" fill="#0A0808"/>
<path d="M25.7906 5.21233L26.9491 8.40619L30.4457 8.92806L36.3846 -1.0397L34.8085 -4.06656H32.1261L25.7906 5.21233Z" fill="#211A1A"/>
<path d="M59.8003 23.0479H61.5016L63.4325 26.3983L62.7854 31.8362L58.9444 28.9138L58.6417 24.6762L59.8003 23.0479Z" fill="#6B4414"/>
<path d="M63.4325 52.0731L64.518 67.5727L63.9752 73.6265L65.8748 87.7274L66.3967 90.0967L63.4325 92.2886H60.9483L57.3683 77.8641L57.9215 73.6265L53.2038 56.3212L58.6939 50.2361L62.8167 48.9315L63.4325 52.0731Z" fill="#F4EFE9"/>
<path d="M45.6784 55.7577L42.9647 69.295L40.1675 73.6266L39.1133 83.3751L40.0005 86.9552H44.4573L47.2545 76.2046L50.1352 71.7478L55.4583 58.3461L59.4454 55.7577L63.4325 49.276H49.175L45.6784 55.7577Z" fill="white"/>
<path d="M55.02 52.6894L59.4455 52.4598L62.3784 50.2366L62.3158 47.7943L55.1557 48.2535L55.02 52.6894Z" fill="#211A1A"/>
<path d="M51.8577 21.6274L51.3671 23.9027L51.6072 26.5747L57.5461 28.9127L58.9447 25.0926L55.5839 20.4897L51.8577 21.6274Z" fill="#C7A495"/>
<path d="M51.4914 25.4169L56.9189 28.0367L57.8791 25.062L59.3613 24.6758L62.3777 33.0571V48.1392L59.1734 50.7381L54.3826 51.1452L50.8339 29.9572L51.4914 25.4169Z" fill="#BAF3FF"/>
<path d="M57.3687 23.4855L58.6003 25.7609L61.1992 33.3906L61.3871 43.0348L62.076 55.7581L64.5183 53.107L64.1217 32.2738L62.6813 26.7629L60.4164 23.903L58.2246 22.8279L57.3687 23.4855Z" fill="#87511B"/>
<path d="M45.9396 28.5896L48.4342 26.3142L51.3671 23.9031L53.2041 26.8152L55.3229 35.447L56.3458 44.6841L56.899 58.5555L52.7657 59.3905L47.4009 58.3467L45.1881 55.7582L46.6911 44.277L46.2319 33.7561L45.9396 28.5896Z" fill="#87511B"/>
<path d="M60.0814 15.825L60.8329 18.1735L60.4572 19.0293L60.8329 19.5512L60.0814 25.2918L58.2966 26.3982L53.6833 23.6636L53.0779 22.2649L51.8567 21.6283L50.8339 19.9896L50.98 17.923L54.8001 15.2301L58.3593 15.3554L60.0814 15.825Z" fill="#F0C6B4"/>
<path d="M52.5564 12.3802L54.863 11.6809L57.5142 12.2132L60.635 14.426L60.0818 15.8246L57.7751 16.9936L55.5624 17.2232L55.0196 18.5905L53.9028 18.9141L53.6941 20.2501L53.287 20.4588L52.6399 18.9662L51.6274 18.8201L51.0743 20.0204L51.8571 21.6278L50.6359 20.0204L50.1349 16.6491L50.6881 14.1337L52.1493 13.5492L52.5564 12.3802Z" fill="#EDEDED"/>
<path d="M52.5564 13.9874L54.8004 16.4611L52.88 14.8224L52.5564 13.9874Z" fill="#DADADA"/>
<path d="M55.834 59.9019L57.8589 61.3423L59.4454 63.4402V64.1395L58.7252 63.9621L57.6397 63.0227L57.3474 63.0749L57.2639 64.4735L57.7649 65.7991L58.9861 66.895L59.1009 67.5734L56.8464 67.2708L54.3623 64.8597L53.2038 61.3423L54.0179 60.6012L55.834 59.9019Z" fill="#F0C6B4"/>
<path d="M52.1915 59.5987L53.2039 61.3418L54.5295 61.2374L55.8342 59.9014L55.02 57.887L52.1915 59.5987Z" fill="#BAF3FF"/>
<path d="M45.9394 28.59L44.0189 30.834L43.7997 34.4558L47.171 50.0702L51.6278 60.1215H53.9866L55.8341 57.8879L52.1496 47.1791L50.0622 31.836L48.6531 29.7381L45.9394 28.59Z" fill="#6B4414"/>
<path opacity="0.3" d="M6.79179 56.3277H-1.99654L-8.21725 59.9182V64.9908L11.8018 76.545H20.5901L26.8108 72.9545V67.8819L6.79179 56.3277Z" fill="black"/>
<path d="M6.92715 0.320822L13.9516 -1.67273L16.3417 1.709L16.1017 11.1236L14.5882 11.6454L7.82478 3.90087L6.92715 0.320822Z" fill="white"/>
<path d="M13.2949 -2.90494L16.6557 -2.86319L19.4112 -1.03663L22.5216 5.30933L26.3626 10.288L24.3586 11.6449L21.8432 11.4257L17.9291 7.82475L16.2696 1.07173L13.2949 -2.90494Z" fill="#211A1A"/>
<path d="M25.9026 66.87L28.4389 66.4316V66.7656V67.8929L25.4016 68.6339L21.7276 68.1643L18.7321 68.9157L16.9786 68.5713V68.2478L18.2102 67.1936L25.9026 66.87Z" fill="#575757"/>
<path d="M21.905 63.873L25.0258 65.3239L27.9692 65.8562L28.4388 66.4302L28.3136 67.5679L25.4015 68.2985L21.7276 67.8393L18.732 68.5908L16.9785 68.2463L16.6341 65.8562L16.9472 64.802L21.905 63.873Z" fill="black"/>
<path d="M10.3931 32.8961L14.0357 46.8822V53.0925L16.0502 65.0852L18.67 65.8575L22.6049 63.9266L20.9453 50.8172L20.8618 44.9409L19.5467 26.6858L10.8941 27.0407L10.3931 32.8961Z" fill="#211A1A"/>
<path d="M-6.5685 58.5924L-2.79014 65.8777L0.278469 66.41L0.132344 66.8171L-1.26627 67.6625L-4.90894 67.1093L-6.54762 63.8215L-6.77724 61.1078L-7.6853 58.7176L-7.10081 56.651L-6.94424 56.2335L-6.5685 58.5924Z" fill="#575757"/>
<path d="M-1.78766 59.5634L-1.3806 62.8512L0.0180144 64.8969L0.278951 66.4104L-1.11967 67.2558L-4.76234 66.7026L-6.39058 63.4044L-6.6202 60.6906L-7.52826 58.3005L-6.94376 56.2339L-5.72258 55.5345L-1.78766 59.5634Z" fill="black"/>
<path d="M1.26996 29.7855L-0.734027 44.2622L-3.60432 47.7587L-6.1615 55.1902L-5.58744 59.1251L-1.61077 60.1793L2.36589 51.3075L5.88331 47.1116L10.8933 32.3426L1.26996 29.7855Z" fill="#211A1A"/>
<path d="M13.1793 2.8773L15.653 10.8619L16.9264 24.7959L15.914 28.4282L13.6803 26.7582L13.9935 11.7387L12.5218 3.1278L12.4905 2.57462L13.1793 2.8773Z" fill="black"/>
<path d="M13.4612 1.86503L13.1794 2.87747L12.5218 3.12796L11.3528 2.68959L12.3548 1.57278L13.4612 1.86503Z" fill="#362C29"/>
<path d="M5.81102 -1.22451L2.5441 2.47034L0.665361 9.68262L2.52323 18.5858L0.258301 29.0754L3.23297 33.4591L14.5889 33.9392L15.3508 29.0754L16.3633 33.4278L20.5383 29.7851L19.1918 17.041L18.9831 4.50565L16.3946 -1.03663L13.2947 -2.90494L11.0193 -2.86319L13.7957 -0.807013L15.3717 1.6771L14.8185 10.2045L9.19275 3.73328L7.08439 -0.326887L5.81102 -1.22451Z" fill="#362C29"/>
<path d="M15.0484 12.5525L14.8187 10.2041L14.8813 12.563L15.2571 19.6291V26.7161L15.351 29.075L15.4345 26.7161V19.6291L15.0484 12.5525Z" fill="#0A0808"/>
<path d="M6.97992 -2.51925L6.30148 -0.964069L7.13648 0.413673L10.4451 2.12541L12.3552 1.57223L13.4511 -1.06845L12.7101 -3.10375L9.7354 -3.45862L6.97992 -2.51925Z" fill="#C7A495"/>
<path opacity="0.3" d="M12.3551 1.57263L13.9207 2.66856L14.3278 -0.827982L12.8144 -2.86328L13.4719 0.695888L12.3551 1.57263Z" fill="black"/>
<path d="M12.3551 1.57263L12.9813 -1.49598L12.8144 -2.86328L14.1399 -0.650544L13.7746 2.31369L12.3551 1.57263Z" fill="white"/>
<path opacity="0.3" d="M12.3555 1.57318L11.7397 3.43104L8.42055 2.82567L5.86338 0.978242L5.81119 -1.22406L7.01149 0.68599L10.8316 1.98024L12.3555 1.57318Z" fill="black"/>
<path d="M12.3555 1.57268L9.34948 0.862936L7.14718 -0.619184L6.70881 -2.5188L5.81119 -1.22455L6.23912 0.487187L8.61886 2.23024L11.6248 3.15917L12.3555 1.57268Z" fill="white"/>
<path d="M5.66455 -7.36139L5.90461 -4.13622L7.98166 0.832006L10.7789 1.07207L13.2943 -2.9046L13.7744 -5.09646L14.3485 -5.55571L14.5886 -7.36139L14.4216 -7.82064L13.2943 -9.61588L5.68543 -9.32363L5.66455 -7.36139Z" fill="#F0C6B4"/>
<path d="M-1.91287 -1.92394L-0.107194 -3.60437L1.55236 -2.70675L1.58367 -1.03676L0.320741 0.706296L-1.91287 -1.92394Z" fill="white"/>
<path d="M-2.00691 -2.5188L0.487638 -1.64205L1.05126 0.852496L-1.61029 3.64973L-0.211671 3.02349L2.54382 2.4703L4.90268 4.74566L3.94243 7.97083L0.665075 9.68257H-8.51988L-9 4.95441L-2.00691 -2.5188Z" fill="#211A1A"/>
<path d="M18.6694 15.0572L18.1475 18.1571L20.9134 19.4826L22.5208 17.0403L20.5377 14.2952L18.6694 15.0572Z" fill="#878787"/>
<path d="M18.4087 16.436H16.029L14.3485 16.8953L13.9728 17.9182L12.6472 18.5966L12.4072 19.9535L13.0543 21.3312L14.7034 22.3123L17.1875 21.3938L19.8908 19.3376L20.5379 17.8973L19.8073 16.5404L18.4087 16.436Z" fill="#F0C6B4"/>
<path d="M19.5255 14.8602L18.4087 16.4362L19.7029 17.6365L19.8908 19.3378L21.8426 17.7513L21.6025 15.9143L19.5255 14.8602Z" fill="white"/>
<path d="M18.6695 15.0583L21.1014 16.4361L20.9135 19.4838L26.3619 13.6597V10.2884L23.3872 9.28644L21.6024 11.2069L18.6695 15.0583Z" fill="#211A1A"/>
<path d="M12.9498 15.59L12.6575 15.8822V16.2893L12.9498 16.5815H13.3672L13.6595 16.2893V15.8822L13.3672 15.59H12.9498Z" fill="#0A0808"/>
<path d="M16.8955 14.8602L16.6033 15.1524V15.5699L16.8955 15.8622H17.3026L17.5948 15.5699V15.1524L17.3026 14.8602H16.8955Z" fill="#0A0808"/>
<path d="M13.0956 22.782L12.8033 23.0743V23.4918L13.0956 23.784H13.5131L13.8053 23.4918V23.0743L13.5131 22.782H13.0956Z" fill="#0A0808"/>
<path d="M17.0413 22.0614L16.7491 22.3537V22.7607L17.0413 23.053H17.4484L17.7406 22.7607V22.3537L17.4484 22.0614H17.0413Z" fill="#0A0808"/>
<g clip-path="url(#clip1_1486_125439)">
<path fill-rule="evenodd" clip-rule="evenodd" d="M44.3036 63.7179C44.6564 63.7336 45.0115 63.7382 45.3644 63.7314H45.8139C46.2184 63.7314 46.6185 63.7156 47.0141 63.6886L47.5535 69.7556C43.2585 71.51 30.6117 71.6496 23.9321 69.9831L23.5792 65.2245C24.685 65.2177 25.8065 65.1051 26.9302 64.8799L27.0966 64.8462C28.6541 64.5646 30.1397 64.076 31.5242 63.4116C31.9579 63.2314 32.3872 63.031 32.812 62.8126C36.3271 64.353 40.3547 64.7538 44.3013 63.7156" fill="black"/>
<path fill-rule="evenodd" clip-rule="evenodd" d="M52.1946 44.3141C50.1764 47.1878 45.07 49.5501 36.8778 51.4036C40.2064 51.8833 43.9485 52.5251 48.0997 53.3313C48.0997 53.3313 47.8412 56.4932 47.3243 62.817C47.2074 64.238 47.1287 65.1546 46.9399 65.7739C46.7961 66.2446 46.4814 66.5869 46.0791 66.8414C42.8944 68.8592 29.1104 68.3457 25.2828 67.1364C23.8534 66.686 23.3724 65.6906 22.2689 62.4746L18.9426 52.7683C15.8523 49.8744 11.7438 45.9964 13.362 40.7807C14.4588 37.2495 20.3136 33.8579 23.4781 32.5742C33.5222 32.9954 38.5454 33.207 38.5454 33.207C40.2895 33.7002 42.5348 34.1259 44.4811 34.8871C45.5532 35.306 46.5354 35.8262 47.2928 36.5176C48.9177 37.9949 50.5427 40.3978 52.1722 43.7264C52.1879 44.1182 52.1946 44.3164 52.1946 44.3164" fill="#404040"/>
<path fill-rule="evenodd" clip-rule="evenodd" d="M49.2571 44.7195C51.3136 45.3816 52.2935 45.2465 52.1969 44.3142C52.1969 44.3142 52.1901 44.1182 52.1744 43.7241C51.3518 42.0509 50.5584 40.6478 49.792 39.5106C48.9155 38.2382 48.1491 37.299 47.4928 36.6955C46.8073 35.9929 45.7465 35.3668 44.3126 34.8173C43.6608 34.5583 42.5843 34.2363 41.0852 33.8512C40.0895 33.6102 39.2444 33.394 38.55 33.2026C38.55 33.2026 38.6488 34.252 38.8511 36.3487C43.3776 37.7179 45.6409 38.4048 45.6409 38.4048C48.0525 42.6139 49.2594 44.7173 49.2594 44.7173" fill="#616161"/>
<path fill-rule="evenodd" clip-rule="evenodd" d="M30.5309 46.4942C41.5235 50.3316 46.2073 50.0659 44.5846 45.6969C44.5846 45.6969 44.5329 44.8029 44.4295 43.017C45.542 41.0465 45.9106 39.5691 45.5353 38.5895C41.0987 42.8819 35.0978 45.1587 28.9351 44.8817C29.1037 45.3952 29.1868 45.6496 29.1868 45.6496C29.5734 46.4086 30.0207 46.6878 30.5286 46.4897" fill="#141414"/>
<path fill-rule="evenodd" clip-rule="evenodd" d="M47.5872 56.6464C45.9398 50.6785 36.9407 49.7935 20.5855 53.9958C21.8239 55.4281 27.3281 62.4274 29.1868 63.3801C29.8565 63.7224 30.6297 63.8192 31.4523 63.7516C36.244 63.3598 42.5078 61.7158 47.4928 60.7992C47.6097 59.3692 47.6996 58.2589 47.7648 57.4707C47.8299 57.0991 47.7692 56.8266 47.5872 56.6487" fill="#141414"/>
<path d="M44.861 46.4041C44.8655 46.555 44.7464 46.6811 44.5958 46.6879C44.4452 46.6924 44.3194 46.573 44.3126 46.4221L44.198 42.8323C44.198 42.7806 44.2092 42.731 44.234 42.6882C44.5778 42.0531 44.861 41.3888 45.0768 40.7042C45.2948 40.0195 45.4476 39.3124 45.533 38.5917C45.551 38.4409 45.6881 38.3328 45.8387 38.3508C45.9893 38.3688 46.0972 38.5062 46.0792 38.6571C45.9893 39.407 45.8297 40.1479 45.6005 40.8708C45.3802 41.5667 45.0948 42.2446 44.7486 42.8909L44.861 46.4063V46.4041Z" fill="#141414"/>
<path fill-rule="evenodd" clip-rule="evenodd" d="M29.8544 31.4775C29.715 31.4077 29.5846 31.3221 29.47 31.2253L29.4453 31.2073C29.0115 31.1532 28.6227 30.9573 28.3238 30.6713C28.2361 30.6983 28.1485 30.7186 28.0586 30.7321C27.9642 30.7546 27.8698 30.7704 27.7776 30.7794C27.7417 30.8447 27.7012 30.9055 27.6585 30.964L27.663 30.9573L27.6563 30.973C27.1865 31.9121 25.5998 32.304 25.1256 31.9166C24.6648 31.9482 23.9389 32.1891 23.4826 32.5765C25.6268 36.3307 29.8251 39.2493 33.6302 39.6029C37.7184 39.9835 39.8805 37.0783 38.55 33.2093C38.341 33.1192 37.9567 33.0607 37.442 33.0359C37.3498 33.0314 37.2779 33.0021 37.1858 32.9503C36.8239 33.3917 36.2733 33.6732 35.6574 33.6732C34.6438 33.6732 33.81 32.9098 33.6931 31.9279C32.9784 32.2184 32.1581 32.063 31.5984 31.5338C31.0478 31.7815 30.3938 31.7635 29.8566 31.482" fill="black"/>
<path fill-rule="evenodd" clip-rule="evenodd" d="M36.4013 29.1331C33.2166 29.1398 30.0836 28.3111 27.3169 26.7256C27.3169 26.7256 27.3304 28.0611 27.3551 30.7343C27.3551 30.7343 26.6089 31.1171 25.1165 31.8828C26.6067 34.9997 30.2903 37.6571 33.5425 37.9589C36.7924 38.2606 38.4983 36.1054 37.4397 33.0291C36.8621 32.7769 36.5721 32.6485 36.5721 32.6485C36.4575 30.3019 36.4013 29.1286 36.4013 29.1286" fill="#FFBD95"/>
<path fill-rule="evenodd" clip-rule="evenodd" d="M36.4621 30.3762C30.7039 28.775 27.8226 27.9733 27.8226 27.9733C27.962 28.1805 28.1013 28.3854 28.2384 28.5858C28.0721 28.5453 27.9013 28.5048 27.726 28.4665C32.0098 34.815 34.1516 37.9904 34.1516 37.9904C34.5225 37.9971 34.8911 37.9566 35.2507 37.871C35.5069 37.8192 35.7541 37.7359 35.9879 37.6255C36.4126 37.4251 36.7925 37.1346 37.1004 36.772C37.6038 36.1167 37.8331 35.2924 37.7409 34.4704C37.7027 33.9795 37.6016 33.4975 37.4375 33.0336C36.8599 32.7814 36.57 32.653 36.57 32.653C36.4958 31.1351 36.4598 30.3762 36.4598 30.3762" fill="#E08853"/>
<path fill-rule="evenodd" clip-rule="evenodd" d="M39.2533 21.3547C39.7433 19.6228 39.6242 18.2401 38.896 17.2109C38.6488 16.7357 37.3767 16.4902 35.0842 16.4745C33.03 15.2403 30.4363 15.3665 28.5147 16.7988C26.5931 18.2288 25.721 20.6813 26.3099 23.0077C26.3234 24.8206 26.6088 26.3294 27.1662 27.5343C28.1371 29.6377 31.3915 32.0676 34.1537 32.0181C35.6191 31.9911 36.4911 31.2907 37.1092 30.311C37.8262 29.1738 38.8825 26.701 39.0668 24.8093C39.2039 23.4018 38.6533 22.9153 39.2556 21.3547" fill="#FFBD95"/>
<path fill-rule="evenodd" clip-rule="evenodd" d="M39.2535 21.3546C39.7435 19.6228 39.6243 18.24 38.8961 17.2108C38.6489 16.7356 37.3768 16.4902 35.0844 16.4744C34.6438 16.2109 34.1809 16.0082 33.7044 15.8686C35.9631 17.99 37.3768 21.0055 37.3768 24.3521C37.3768 27.2797 36.2958 29.9529 34.5135 31.9977C35.7654 31.8716 36.543 31.2073 37.1071 30.311C37.8241 29.1737 38.8804 26.7009 39.067 24.8092C39.2041 23.4017 38.6534 22.9152 39.2557 21.3546" fill="#FFD3B8"/>
<path fill-rule="evenodd" clip-rule="evenodd" d="M26.6269 19.1723C25.0537 21.1339 25.2447 23.0391 27.2023 24.8813C27.2225 26.827 28.3643 28.685 30.6253 30.4596C29.1509 28.6084 31.6187 27.9035 31.7648 26.0095C31.8839 24.4669 30.6118 23.8746 30.7129 22.6585C30.8635 20.8163 34.7899 20.2826 33.1357 16.6771C31.9603 16.024 30.5556 15.9249 29.3015 16.4068C28.0451 16.8887 27.0674 17.8999 26.6269 19.1723Z" fill="#ECA377"/>
<path fill-rule="evenodd" clip-rule="evenodd" d="M28.6788 18.9269C29.5014 18.3165 30.2903 17.8729 30.2026 16.1974C34.8213 18.249 37.5992 18.6251 38.5364 17.3211C39.395 18.1747 39.6422 19.4246 39.2759 21.0753C39.1725 21.5122 39.3613 21.4627 39.4849 21.0663C40.4356 17.7423 39.6445 14.2246 36.1743 12.7157C33.3492 11.4883 30.0543 12.5243 28.4361 15.1502C26.8718 15.0646 25.3974 15.8866 24.6445 17.2648C23.8939 18.6431 23.9995 20.3299 24.9165 21.6023C25.1704 21.5843 25.4042 21.5302 25.62 21.4379C25.7368 21.4784 25.847 21.5032 25.9436 21.5392C25.6739 22.5301 25.829 23.5976 26.3864 24.4736C27.0539 25.2348 28.1979 24.8475 28.3822 24.0345C28.5485 23.3003 27.573 22.2937 27.6472 20.9244C27.6877 20.1745 28.0023 19.4764 28.6766 18.9269" fill="#1A1A1A"/>
<path fill-rule="evenodd" clip-rule="evenodd" d="M28.6788 18.9268C28.7373 18.8841 28.7934 18.8413 28.8519 18.8007C27.8989 18.5102 27.2067 17.6252 27.2067 16.5757C27.2067 16.051 27.3798 15.5668 27.6742 15.1772C26.4066 15.3461 25.2716 16.1095 24.6445 17.2603C23.8939 18.6386 23.9995 20.3254 24.9165 21.5978C25.1704 21.5798 25.4042 21.5257 25.62 21.4334C25.7368 21.4739 25.847 21.4987 25.9436 21.5347C25.6739 22.5256 25.829 23.5931 26.3864 24.4691C27.0539 25.2303 28.1979 24.843 28.3822 24.03C28.5485 23.2958 27.573 22.2891 27.6472 20.9199C27.6877 20.17 28.0023 19.4718 28.6766 18.9223" fill="black"/>
<path d="M36.2708 20.4988C36.1765 20.5686 36.0461 20.5483 35.9764 20.456C35.9068 20.3614 35.927 20.2308 36.0191 20.161C36.2214 20.0124 36.4484 19.9065 36.6866 19.8457C36.9249 19.7871 37.1744 19.7736 37.4216 19.8119C37.6688 19.8502 37.9048 19.938 38.1138 20.0664C38.3228 20.1948 38.5094 20.3637 38.6555 20.5664C38.7229 20.6609 38.7027 20.7938 38.6083 20.8614C38.5139 20.9289 38.3813 20.9087 38.3138 20.8141C38.1992 20.6564 38.0554 20.5258 37.8936 20.4267C37.7317 20.3276 37.5497 20.2601 37.3586 20.2308C37.1654 20.2015 36.9721 20.2105 36.7878 20.2556C36.6035 20.3006 36.4259 20.3839 36.2708 20.4988Z" fill="#1A1A1A"/>
<path d="M31.2477 20.6249C31.1713 20.7105 31.0387 20.7173 30.9533 20.6407C30.8679 20.5641 30.8611 20.4313 30.9375 20.3457C31.1331 20.1272 31.3691 19.9538 31.6275 19.83C31.886 19.7061 32.1692 19.634 32.4636 19.6205C32.7558 19.607 33.0435 19.6498 33.3132 19.7489C33.5829 19.8457 33.8346 19.9966 34.0504 20.1948C34.1358 20.2736 34.1403 20.4042 34.0638 20.4898C33.9874 20.5754 33.8548 20.5799 33.7694 20.5033C33.5941 20.3434 33.3918 20.2218 33.1716 20.143C32.9536 20.0642 32.7176 20.0282 32.4816 20.0394C32.2456 20.0507 32.0163 20.1092 31.8051 20.2106C31.5938 20.3119 31.405 20.4515 31.2454 20.6295" fill="#1A1A1A"/>
<path fill-rule="evenodd" clip-rule="evenodd" d="M25.4693 21.01C26.3863 20.9087 27.2988 21.8027 27.5056 23.0053C27.7124 24.2079 27.137 25.2641 26.2178 25.3655C25.3008 25.4668 24.3883 24.5728 24.1815 23.3702C23.9747 22.1676 24.5501 21.1114 25.4693 21.01Z" fill="#FFBD95"/>
<path fill-rule="evenodd" clip-rule="evenodd" d="M25.4042 22.01C25.9796 21.9469 26.5505 22.5077 26.6786 23.2598C26.8089 24.0143 26.4471 24.6741 25.8717 24.7372C25.2964 24.8003 24.7255 24.2395 24.5974 23.4873C24.467 22.7329 24.8289 22.073 25.4042 22.01Z" fill="#ECA377"/>
<path fill-rule="evenodd" clip-rule="evenodd" d="M25.8267 22.2734C26.1886 22.2329 26.5482 22.5865 26.6313 23.0616C26.7123 23.5368 26.4853 23.9535 26.1234 23.994C25.7616 24.0345 25.4019 23.681 25.3188 23.2058C25.2379 22.7306 25.4649 22.314 25.8267 22.2734Z" fill="#B60000"/>
<path fill-rule="evenodd" clip-rule="evenodd" d="M36.853 18.0734C37.6441 18.0306 38.2038 17.7806 38.5342 17.3212C39.3927 18.1747 39.6399 19.4246 39.2736 21.0753C39.1702 21.5122 39.359 21.4627 39.4826 21.0663C40.4333 17.7423 39.6422 14.2246 36.172 12.7157C35.0707 12.2361 33.8975 12.1032 32.7805 12.2721C33.1311 12.3036 33.4817 12.3757 33.8301 12.4928C36.163 13.272 37.4666 15.7267 36.853 18.0756" fill="#4D4D4D"/>
<path fill-rule="evenodd" clip-rule="evenodd" d="M28.171 58.948C31.4209 59.9029 39.5412 56.5856 42.9911 55.5001C43.0136 55.4686 44.6026 56.2028 46.1781 56.8671C49.0684 58.0855 51.2148 58.5134 54.0534 56.4347C58.7462 52.9981 54.8423 47.7373 52.1947 44.3142C50.1517 43.0643 47.5041 43.472 45.9331 45.2826C45.2768 44.8457 44.5711 45.2015 43.816 46.3523L43.0361 47.5887C40.0379 46.787 36.3407 45.4267 33.3043 45.0867C32.3514 44.9808 31.4164 45.1497 29.542 46.0933C29.1756 45.6317 28.9913 45.3997 28.9913 45.3997C21.7543 45.5799 18.7202 50.0412 20.5878 53.9958C22.1184 55.0768 26.2538 58.385 28.1732 58.948" fill="#ECA377"/>
<path fill-rule="evenodd" clip-rule="evenodd" d="M36.8486 67.5103L42.2696 67.2085C42.5483 67.1927 42.7775 67.4089 42.7775 67.6904V70.7667C42.7775 71.0482 42.5483 71.2892 42.2696 71.305L36.8486 71.6068C36.5699 71.6225 36.3406 71.4063 36.3406 71.1248V68.0485C36.3406 67.767 36.5699 67.5261 36.8486 67.5103Z" fill="white"/>
<path fill-rule="evenodd" clip-rule="evenodd" d="M37.3094 67.9855L41.8066 67.7558C42.0157 67.7445 42.1887 67.9089 42.1887 68.1184V70.429C42.1887 70.6407 42.0179 70.8208 41.8066 70.8321L37.3094 71.0618C37.1003 71.0731 36.9273 70.9087 36.9273 70.6992V68.3886C36.9273 68.1769 37.0981 67.9968 37.3094 67.9855Z" fill="black"/>
<path fill-rule="evenodd" clip-rule="evenodd" d="M20.0574 51.3429C20.0215 51.8901 20.0732 52.4396 20.2125 52.9711C21.8375 54.0093 23.4197 55.1263 24.9638 56.1014C27.6765 57.8175 28.2721 58.4413 31.0433 58.1981C32.6727 58.054 35.363 57.3603 38.0128 56.4933C34.7562 57.6621 31.1624 56.0091 29.9263 52.7707C29.9263 52.7707 27.3461 51.0163 22.1858 47.5054C21.7768 47.8319 21.4082 48.2103 21.0913 48.6269C20.4889 49.4106 20.1271 50.3542 20.0574 51.3406" fill="#E08853"/>
<path fill-rule="evenodd" clip-rule="evenodd" d="M21.7228 46.9558C20.1 48.1697 19.2572 50.1673 19.5224 52.1806C16.7647 49.8407 13.5575 46.5122 13.7126 42.7873C13.7238 42.5035 13.7531 42.2175 13.798 41.9315C14.0452 42.4585 14.4992 42.8864 15.0926 43.0846C15.8635 43.3413 16.6748 43.1476 17.2434 42.6477L22.4038 46.5865C22.2172 46.6518 21.9902 46.7757 21.725 46.9581" fill="#141414"/>
<path fill-rule="evenodd" clip-rule="evenodd" d="M32.7379 49.3971C36.7699 50.3587 39.9681 52.2302 42.3348 55.0092C42.3348 55.0092 40.33 55.6803 36.3204 57.0203C37.1542 55.5655 37.2284 53.7908 36.5137 52.273C35.799 50.7528 34.3898 49.6809 32.7379 49.3971Z" fill="#E08853"/>
<path fill-rule="evenodd" clip-rule="evenodd" d="M52.1947 44.3142C51.4013 43.8277 50.4866 43.5778 49.5561 43.5935C51.444 46.4717 52.388 47.9085 52.388 47.9085C52.8352 47.6292 53.3791 47.5414 53.8893 47.672C54.4017 47.8004 54.84 48.1337 55.1007 48.5931C54.7703 47.9512 54.2557 47.1338 53.5567 46.1383C53.0645 45.4582 52.6105 44.8502 52.1902 44.3142" fill="#FFBD95"/>
<path fill-rule="evenodd" clip-rule="evenodd" d="M29.7846 45.9717C29.7734 45.9987 29.7734 46.0303 29.7914 46.055C29.8071 46.0798 29.8341 46.0956 29.8656 46.0956C29.8656 46.0956 35.8574 47.6855 47.839 50.8654C48.4907 52.568 50.1314 53.685 51.9519 53.667C53.7724 53.6489 55.3884 52.4982 56.0065 50.7821C55.4558 51.0298 54.8153 50.9848 54.3051 50.6605C53.7949 50.3362 53.4802 49.7754 53.469 49.1696C52.6127 47.7441 50.3652 47.4536 46.7264 48.2981C44.0901 47.7756 42.7731 47.5121 42.7731 47.5121C41.202 47.0572 39.5973 46.5843 37.9566 46.0933C36.898 45.7871 35.8552 45.5281 34.8303 45.3209C34.192 45.1835 33.5043 45.0934 32.7649 45.0551C32.5536 45.0484 32.2165 45.0957 31.749 45.197C31.3354 45.3074 30.9331 45.4492 30.5466 45.6181C30.3263 45.7127 30.0723 45.8276 29.7891 45.9672" fill="#FFBD95"/>
<path fill-rule="evenodd" clip-rule="evenodd" d="M31.5444 48.726C30.0947 46.8275 29.3688 45.8794 29.3688 45.8794C29.3688 45.8794 29.2968 45.7915 29.1553 45.6181C29.1553 45.6181 28.9867 45.5506 28.6518 45.4132C27.5797 45.4537 26.5167 45.6136 25.4806 45.8906C28.7574 48.5818 30.3981 49.9286 30.3981 49.9286C30.742 51.005 31.6343 51.818 32.7378 52.0567C33.8413 52.2977 34.9876 51.9284 35.7472 51.0929C34.7696 49.7169 33.2278 48.8476 31.5466 48.726" fill="#FFBD95"/>
<path fill-rule="evenodd" clip-rule="evenodd" d="M24.8063 39.693C27.3685 43.5057 28.6496 45.4132 28.6496 45.4132C27.5528 45.456 26.4942 45.6159 25.4783 45.8906C25.4783 45.8906 24.4849 44.8547 22.4959 42.7828C21.0934 43.4336 19.437 43.1837 18.2863 42.1477C17.1355 41.1118 16.713 39.4881 17.2097 38.022C19.8326 36.8396 22.9184 37.5198 24.8041 39.6952" fill="#616161"/>
<path d="M29.2048 45.233C29.2969 45.3524 29.2744 45.5258 29.1553 45.6181C29.0362 45.7105 28.8631 45.6879 28.771 45.5686L25.0379 40.7132C25.0266 40.6997 25.0176 40.6839 25.0109 40.6681C24.6603 40.024 24.186 39.4633 23.6242 39.0106C23.06 38.558 22.4083 38.2156 21.7025 38.0107C20.9968 37.8058 20.2619 37.7495 19.5427 37.8328C18.8257 37.9161 18.1245 38.1413 17.4817 38.5017C17.3491 38.576 17.1828 38.5287 17.1086 38.3958C17.0344 38.2629 17.0816 38.0963 17.2142 38.022C17.92 37.6256 18.6909 37.3779 19.482 37.2878C20.2686 37.1977 21.0755 37.2608 21.8554 37.486C22.6353 37.7112 23.3522 38.0873 23.9703 38.585C24.5839 39.0782 25.1008 39.6907 25.4874 40.3956L29.2093 45.2353L29.2048 45.233Z" fill="#141414"/>
<path fill-rule="evenodd" clip-rule="evenodd" d="M42.3573 54.507C38.9411 51.6964 35.2215 49.7101 31.1939 48.5458C31.1939 48.5458 31.0096 48.2125 30.6388 47.5436C30.6388 47.5436 36.2643 49.271 47.5131 52.7279C48.1334 54.0971 49.3628 55.0948 50.8282 55.4213C52.2936 55.7456 53.8287 55.3605 54.9682 54.3809C53.6826 56.0271 52.0958 56.8806 50.2079 56.9459C47.7177 57.0315 44.6206 55.4371 42.3573 54.5047" fill="#E08853"/>
<path d="M45.7938 45.1137C45.8882 45.0371 46.0253 45.0506 46.1017 45.143C46.1781 45.2376 46.1646 45.3749 46.0725 45.4515L44.4183 46.814C44.3239 46.8906 44.1868 46.877 44.1104 46.7847C44.034 46.6901 44.0475 46.5528 44.1396 46.4762L45.7938 45.1137ZM47.8323 47.6833C47.8368 47.618 47.8727 47.5572 47.9334 47.5234L49.1224 46.8861C49.1224 46.8861 49.1381 46.877 49.1471 46.8748C49.6797 46.6541 50.1023 46.5595 50.4169 46.5888C50.4596 46.5933 50.5023 46.6 50.5428 46.6068C50.5428 46.6 50.5428 46.5933 50.5428 46.5843C50.5428 46.546 50.5428 46.51 50.5383 46.4717C50.5203 46.3276 50.4529 46.2149 50.3293 46.1406C50.1809 46.0483 49.9562 45.9965 49.6595 45.9852C49.473 45.9785 49.2595 45.9897 49.0167 46.0168L47.1962 47.073C47.0906 47.1338 46.958 47.0978 46.8973 46.9919C46.8366 46.8861 46.8726 46.7532 46.9782 46.6924L48.8392 45.6137C48.8661 45.5979 48.8954 45.5889 48.9223 45.5866C49.201 45.5528 49.4527 45.5416 49.6753 45.5483C49.8056 45.5528 49.9247 45.5641 50.0371 45.5821C49.9966 45.4875 49.9112 45.4065 49.7854 45.3389C49.5966 45.2353 49.3201 45.1632 48.9583 45.1182L48.0391 45.2173L46.322 46.3906C46.2208 46.4582 46.086 46.4334 46.0163 46.3321C45.9489 46.2307 45.9736 46.0956 46.0747 46.0258L47.8368 44.8209C47.8682 44.7984 47.9042 44.7872 47.9402 44.7826L48.3605 44.7376C48.2009 44.607 48.0458 44.5214 47.8952 44.4809C47.6884 44.4268 47.4839 44.4629 47.2816 44.589C47.1783 44.652 47.0434 44.6205 46.9805 44.5192C46.9175 44.4156 46.949 44.2804 47.0501 44.2174C47.3603 44.0237 47.6772 43.9719 48.0076 44.0575C48.3155 44.1386 48.6257 44.3435 48.9336 44.6745H48.9381C48.9538 44.6745 48.9695 44.6745 48.9853 44.6745C49.4145 44.7241 49.7517 44.8164 49.9966 44.9493C50.2776 45.1024 50.4417 45.3074 50.4934 45.5664C50.5023 45.6182 50.4933 45.6677 50.4731 45.7105C50.5068 45.7263 50.5383 45.7443 50.5675 45.7623C50.808 45.9132 50.9473 46.1316 50.9811 46.4154C50.9878 46.4694 50.9901 46.5302 50.9878 46.5933C50.9878 46.6631 50.9518 46.7239 50.9002 46.7622C51.0238 46.8658 51.1047 47.0144 51.1474 47.2081C51.1721 47.3275 51.0979 47.4378 50.9788 47.4536C50.8597 47.4693 50.7428 47.3838 50.7159 47.2621C50.6844 47.1158 50.5877 47.0347 50.4237 47.0189C50.1809 46.9964 49.8258 47.0797 49.3561 47.2734L48.7875 47.5797C49.5809 47.5189 50.2911 47.5211 50.9159 47.5842C52.1565 47.7103 53.0735 48.0819 53.6713 48.699C53.777 48.8071 53.7747 48.9805 53.6668 49.0863C53.559 49.1922 53.3859 49.1899 53.2803 49.0818C52.7746 48.5593 51.97 48.2418 50.8619 48.1314C49.718 48.0143 48.2661 48.1179 46.504 48.4422C46.468 48.4512 46.4298 48.4535 46.3916 48.4467L42.9934 47.8522C42.845 47.8274 42.7439 47.6855 42.7686 47.5346C42.7934 47.386 42.9349 47.2847 43.0855 47.3094L46.4388 47.895C46.9288 47.8049 47.394 47.7328 47.839 47.6765L47.8323 47.6833ZM43.1844 55.3065C43.2901 55.4146 43.2901 55.588 43.1844 55.6938C43.0765 55.7997 42.9035 55.7997 42.7978 55.6938C41.1774 54.0566 39.3546 52.6513 37.3791 51.5073C35.4058 50.3632 33.2796 49.4804 31.0568 48.8881C30.9826 48.8679 30.9242 48.8206 30.8905 48.7598L29.306 46.2375C29.2251 46.1091 29.2633 45.9402 29.3914 45.8591C29.5195 45.7781 29.6881 45.8163 29.769 45.9447L31.3018 48.3837C33.5336 48.9872 35.6687 49.879 37.6533 51.0298C39.6671 52.1986 41.5302 53.6332 43.1844 55.3042V55.3065Z" fill="#BF5E23"/>
<path fill-rule="evenodd" clip-rule="evenodd" d="M50.2865 67.2716C50.5045 67.2716 50.682 67.4495 50.682 67.668C50.682 67.8864 50.5045 68.0643 50.2865 68.0643C50.0685 68.0643 49.8909 67.8864 49.8909 67.668C49.8909 67.4495 50.0685 67.2716 50.2865 67.2716Z" fill="white"/>
<path d="M32.9986 21.5167C33.2907 21.787 33.5469 22.4648 33.4863 22.8454L33.3784 22.8747C33.3627 22.4446 33.311 21.9424 32.9963 21.5167H32.9986Z" fill="#DA634D"/>
<path style="mix-blend-mode:multiply" d="M33.3784 22.5954C33.0031 21.0663 31.1467 20.9402 30.578 22.2216L33.3784 22.5954Z" fill="url(#paint1_linear_1486_125439)"/>
<path d="M30.5376 22.332C30.578 22.4513 30.6432 22.5617 30.7241 22.6608C31.2118 23.2508 32.3513 23.4513 33.2616 22.9783C33.3223 22.9468 33.3829 22.9108 33.4414 22.8725C33.4549 22.8635 33.4706 22.8545 33.4841 22.8432C33.4616 22.7734 33.4324 22.7081 33.4009 22.6473C32.8997 21.6789 31.4006 21.5573 30.5353 22.3297L30.5376 22.332Z" fill="#F0EDFE"/>
<mask id="mask0_1486_125439" style="mask-type:luminance" maskUnits="userSpaceOnUse" x="30" y="21" width="4" height="3">
<path d="M30.5376 22.3319C30.8208 23.1629 32.1985 23.53 33.2638 22.9783C33.3402 22.9377 33.4144 22.8949 33.4886 22.8454C33.4661 22.7756 33.4369 22.7103 33.4054 22.6495C32.9042 21.6811 31.4051 21.5595 30.5398 22.3319H30.5376Z" fill="white"/>
</mask>
<g mask="url(#mask0_1486_125439)">
<path d="M32.0523 23.1246C32.4507 23.1246 32.7737 22.8009 32.7737 22.4017C32.7737 22.0024 32.4507 21.6788 32.0523 21.6788C31.6538 21.6788 31.3308 22.0024 31.3308 22.4017C31.3308 22.8009 31.6538 23.1246 32.0523 23.1246Z" fill="#573127"/>
<path d="M31.7463 22.4017C31.7463 22.5706 31.8834 22.708 32.052 22.708C32.2205 22.708 32.3576 22.5706 32.3576 22.4017C32.3576 22.2328 32.2205 22.0955 32.052 22.0955C31.8834 22.0955 31.7463 22.2328 31.7463 22.4017Z" fill="#23031B"/>
</g>
<path d="M33.2614 22.9805C33.3378 22.94 33.412 22.8972 33.4862 22.8477C33.4637 22.7778 33.4345 22.7125 33.403 22.6517C33.2659 22.7441 33.2075 22.8499 33.2637 22.9828L33.2614 22.9805Z" fill="#DA634D"/>
<path d="M32.2659 22.5842C32.3018 22.3725 32.4636 22.3882 32.4299 22.5414C32.3962 22.6968 32.2366 22.7508 32.2659 22.5842Z" fill="white"/>
<g style="mix-blend-mode:multiply" opacity="0.15">
<path d="M30.5376 22.3319C30.578 22.4513 30.6432 22.5616 30.7241 22.6607C31.4456 21.7689 32.902 22.0527 33.4436 22.8747C33.4571 22.8657 33.4728 22.8567 33.4863 22.8454C33.4638 22.7756 33.4346 22.7103 33.4032 22.6495C32.902 21.6811 31.4029 21.5595 30.5376 22.3319Z" fill="#23031B"/>
</g>
<path d="M33.4863 22.8454C33.0751 21.6226 31.4726 21.2285 30.4117 22.2914L30.5646 22.4018C31.8816 21.2037 33.3021 22.1878 33.4436 22.8747L33.4863 22.8454Z" fill="#23031B"/>
<path d="M33.4863 22.8454C33.2593 23.0008 33.0053 23.1202 32.7379 23.1945C32.4704 23.2688 32.1872 23.2936 31.9108 23.2666C31.6343 23.235 31.3601 23.154 31.1219 23.0076L31.0342 22.9513L30.9511 22.886C30.8949 22.8454 30.8477 22.7936 30.7982 22.7441L30.7623 22.7058L30.6701 22.5797C30.6297 22.5234 30.6005 22.4603 30.569 22.3995C30.7106 22.6383 30.9151 22.8274 31.1511 22.9603C31.3871 23.0932 31.6523 23.172 31.922 23.1968C32.1917 23.2283 32.4659 23.2035 32.7289 23.1405C32.9941 23.0797 33.248 22.9738 33.4908 22.8432L33.4863 22.8454Z" fill="#DA634D"/>
<path d="M34.2573 20.3704L33.9336 21.5798C33.9336 21.5798 33.8077 21.5167 33.574 21.4266C33.0661 21.2307 32.0502 20.9019 30.7444 20.8231C30.7444 20.8231 30.6275 20.8794 30.4612 20.9807C30.2612 21.1023 29.987 21.2893 29.751 21.5257C29.9757 20.5821 31.1557 19.5552 31.1557 19.5552C31.1557 19.5552 31.6254 19.8885 32.6885 20.1385C32.9897 20.2083 33.3403 20.2736 33.7426 20.3209C33.7538 20.3209 33.765 20.3254 33.7763 20.3299C33.837 20.3501 33.8819 20.4087 33.8819 20.4763V20.9942L34.1359 20.3592C34.2033 20.3659 34.1898 20.3637 34.2595 20.3704H34.2573Z" fill="#23031B"/>
<path d="M33.574 21.4244C33.0661 21.2284 32.0502 20.8996 30.7444 20.8208C30.7444 20.8208 30.6275 20.8771 30.4612 20.9785C30.8276 20.2781 31.3625 20.0033 31.3894 19.9898C31.376 20.0078 31.1445 20.2983 31.0793 20.5641C31.331 20.3772 31.9154 20.1925 32.6885 20.1362C32.9897 20.206 33.3403 20.2713 33.7426 20.3186C33.7538 20.3186 33.7651 20.3231 33.7763 20.3276C33.6662 20.501 33.5448 20.8321 33.5763 21.4244H33.574Z" fill="#401437"/>
<path d="M36.2485 21.4446C35.9563 21.7149 35.7001 22.3928 35.7608 22.7733L35.8687 22.8026C35.8844 22.3725 35.9361 21.8703 36.2507 21.4446H36.2485Z" fill="#DA634D"/>
<path style="mix-blend-mode:multiply" d="M35.8686 22.5234C36.2439 20.9942 38.1004 20.8681 38.669 22.1495L35.8686 22.5234Z" fill="url(#paint2_linear_1486_125439)"/>
<path d="M38.7095 22.2599C38.669 22.3793 38.6039 22.4896 38.523 22.5887C38.0352 23.1787 36.8957 23.3792 35.9855 22.9062C35.9248 22.8747 35.8641 22.8387 35.8057 22.8004C35.7922 22.7914 35.7765 22.7824 35.763 22.7711C35.7855 22.7013 35.8147 22.636 35.8462 22.5752C36.3474 21.6068 37.8465 21.4852 38.7117 22.2577L38.7095 22.2599Z" fill="#F0EDFE"/>
<mask id="mask1_1486_125439" style="mask-type:luminance" maskUnits="userSpaceOnUse" x="35" y="21" width="4" height="3">
<path d="M38.7096 22.2599C38.4264 23.0909 37.0487 23.458 35.9834 22.9062C35.907 22.8657 35.8328 22.8229 35.7586 22.7734C35.7811 22.7036 35.8103 22.6383 35.8418 22.5774C36.343 21.6091 37.8421 21.4875 38.7074 22.2599H38.7096Z" fill="white"/>
</mask>
<g mask="url(#mask1_1486_125439)">
<path d="M37.1951 23.0548C37.5936 23.0548 37.9166 22.7311 37.9166 22.3319C37.9166 21.9326 37.5936 21.6089 37.1951 21.6089C36.7967 21.6089 36.4737 21.9326 36.4737 22.3319C36.4737 22.7311 36.7967 23.0548 37.1951 23.0548Z" fill="#573127"/>
<path d="M37.5005 22.3319C37.5005 22.5008 37.3634 22.6382 37.1949 22.6382C37.0263 22.6382 36.8892 22.5008 36.8892 22.3319C36.8892 22.163 37.0263 22.0256 37.1949 22.0256C37.3634 22.0256 37.5005 22.163 37.5005 22.3319Z" fill="#23031B"/>
</g>
<path d="M35.9834 22.9084C35.907 22.8679 35.8328 22.8251 35.7586 22.7756C35.7811 22.7058 35.8103 22.6405 35.8418 22.5797C35.9789 22.672 36.0373 22.7778 35.9811 22.9107L35.9834 22.9084Z" fill="#DA634D"/>
<path d="M36.9811 22.5121C36.9452 22.3004 36.7833 22.3162 36.8171 22.4693C36.8508 22.6247 37.0103 22.6787 36.9811 22.5121Z" fill="white"/>
<g style="mix-blend-mode:multiply" opacity="0.15">
<path d="M38.7095 22.2599C38.6691 22.3793 38.6039 22.4896 38.523 22.5887C37.8016 21.6969 36.3452 21.9807 35.8035 22.8027C35.79 22.7936 35.7743 22.7846 35.7608 22.7734C35.7833 22.7036 35.8125 22.6383 35.844 22.5774C36.3452 21.6091 37.8443 21.4875 38.7095 22.2599Z" fill="#23031B"/>
</g>
<path d="M35.7608 22.7756C36.1721 21.5527 37.7746 21.1586 38.8354 22.2216L38.6826 22.332C37.3655 21.1339 35.9451 22.118 35.8035 22.8049L35.7608 22.7756Z" fill="#23031B"/>
<path d="M35.7607 22.7756C35.9877 22.931 36.2417 23.0504 36.5091 23.1247C36.7766 23.199 37.0598 23.2238 37.3362 23.1967C37.6126 23.1652 37.8868 23.0841 38.1251 22.9378L38.2127 22.8815L38.2959 22.8162C38.3521 22.7756 38.3993 22.7238 38.4487 22.6743L38.4847 22.636L38.5768 22.5099C38.6173 22.4536 38.6465 22.3905 38.678 22.3297C38.5364 22.5684 38.3319 22.7576 38.0959 22.8905C37.8599 23.0233 37.5947 23.1022 37.325 23.1269C37.0553 23.1585 36.7811 23.1337 36.5181 23.0706C36.2529 23.0098 35.9989 22.904 35.7562 22.7734L35.7607 22.7756Z" fill="#DA634D"/>
<path d="M34.9899 20.2984L35.3135 21.5077C35.3135 21.5077 35.4394 21.4447 35.6731 21.3546C36.1811 21.1587 37.197 20.8299 38.5028 20.7511C38.5028 20.7511 38.6196 20.8074 38.7859 20.9087C38.986 21.0303 39.2602 21.2172 39.4962 21.4537C39.2714 20.5101 38.0915 19.4832 38.0915 19.4832C38.0915 19.4832 37.6217 19.8165 36.5587 20.0664C36.2575 20.1362 35.9069 20.2016 35.5046 20.2489C35.4933 20.2489 35.4821 20.2534 35.4709 20.2579C35.4102 20.2781 35.3652 20.3367 35.3652 20.4042V20.9222L35.1113 20.2871C35.0438 20.2939 35.0573 20.2916 34.9876 20.2984H34.9899Z" fill="#23031B"/>
<path d="M35.6732 21.3545C36.1811 21.1586 37.197 20.8298 38.5028 20.751C38.5028 20.751 38.6197 20.8073 38.786 20.9086C38.4197 20.2082 37.8848 19.9335 37.8578 19.92C37.8713 19.938 38.1028 20.2285 38.1679 20.4943C37.9162 20.3073 37.3319 20.1227 36.5587 20.0664C36.2575 20.1362 35.9069 20.2015 35.5046 20.2488C35.4934 20.2488 35.4822 20.2533 35.4709 20.2578C35.581 20.4312 35.7024 20.7622 35.6709 21.3545H35.6732Z" fill="#401437"/>
<path d="M31.6771 10.797C28.589 13.0918 29.6858 20.7601 29.6858 20.7601C26.6314 20.4718 24.276 19.9313 24.276 19.9313C23.7276 19.3908 23.6759 10.9839 31.6771 10.797Z" fill="#2D2D2D"/>
<path d="M29.6834 20.7871C26.6605 20.5011 24.2939 19.9628 24.2714 19.9583H24.2646L24.2601 19.9516C23.9635 19.6588 23.8646 17.454 24.6849 15.3822C25.494 13.335 27.3662 10.8713 31.6814 10.7722H31.7669L31.6994 10.8218C30.1149 11.9996 29.6587 14.6322 29.5575 16.6343C29.4452 18.8165 29.7149 20.742 29.7194 20.76L29.7239 20.7938H29.6901L29.6834 20.7871ZM24.7321 15.4002C23.8848 17.5441 24.0444 19.6363 24.2916 19.9065C24.4422 19.9403 26.7392 20.4515 29.6564 20.7308C29.5598 20.125 28.7215 13.0806 31.5983 10.8263C27.3707 10.9546 25.5322 13.3823 24.7344 15.4002H24.7321Z" fill="#5A5A5A"/>
<g style="mix-blend-mode:multiply" opacity="0.5">
<path d="M29.6116 11.0582C29.2475 11.4073 28.9553 11.8374 28.735 12.2901C28.299 13.1932 28.0765 14.2426 28.1709 15.2448C28.2608 16.1974 28.7036 17.1996 29.4969 17.7333C29.4969 19.4403 29.6857 20.76 29.6857 20.76C26.6313 20.4718 24.2759 19.9313 24.2759 19.9313C23.7815 19.4426 23.6916 12.5085 29.6116 11.0582Z" fill="#767676"/>
</g>
<path d="M31.677 10.797C31.9489 10.7903 32.2276 10.7925 32.5176 10.806C40.9255 11.1889 39.8557 19.8593 39.8557 19.8593C37.0081 21.0889 32.9468 21.0686 29.6834 20.7601C29.6834 20.7601 28.5889 13.0919 31.6747 10.797H31.677Z" fill="#2D2D2D"/>
<path d="M29.6836 20.787H29.6679L29.6611 20.7713C29.6566 20.7645 29.3847 18.821 29.497 16.6365C29.6836 12.9837 30.7781 11.432 31.6614 10.7744L31.6681 10.7699H31.6771C31.9513 10.7632 32.239 10.7654 32.52 10.7789C34.9563 10.8893 36.8329 11.709 38.1005 13.2111C40.3458 15.8753 39.8896 19.8232 39.8828 19.8637V19.8795L39.8671 19.8862C38.2084 20.6024 35.9744 20.9649 33.2257 20.9649C32.1176 20.9649 30.9265 20.9041 29.6836 20.787ZM38.0601 13.2472C36.8037 11.7563 34.9383 10.9433 32.5177 10.833C32.239 10.8195 31.9581 10.8172 31.6861 10.824C30.1084 12.004 29.6521 14.6322 29.551 16.6298C29.4453 18.6904 29.6791 20.5213 29.7083 20.7352C30.9422 20.8501 32.1266 20.9109 33.2257 20.9109C35.9587 20.9109 38.1815 20.5506 39.8311 19.8434C39.8603 19.5709 40.2177 15.81 38.0578 13.2472H38.0601Z" fill="#5A5A5A"/>
<g style="mix-blend-mode:multiply" opacity="0.5">
<path d="M30.3218 18.0756C31.05 18.2175 31.785 18.0644 32.475 17.8211C33.2683 17.5419 34.0302 17.2153 34.8641 17.0689C35.3091 16.9901 35.7586 16.9383 36.2103 16.9338C36.6531 16.9293 37.0846 16.9901 37.5206 17.0667C38.1297 17.1748 38.9343 17.4158 39.3928 16.8595C39.5097 16.7176 39.5749 16.5532 39.6041 16.3798C40.0536 18.2468 39.8536 19.8615 39.8536 19.8615C37.0059 21.0911 32.9447 21.0708 29.6813 20.7623C29.6813 20.7623 29.4925 19.4426 29.4925 17.7356C29.7352 17.8977 30.0094 18.0171 30.3173 18.0779L30.3218 18.0756Z" fill="#767676"/>
</g>
<g style="mix-blend-mode:multiply" opacity="0.5">
<path d="M28.072 11.6145C27.6652 11.923 27.2831 12.2698 26.9505 12.6549C26.5706 13.0963 26.2807 13.5918 26.0582 14.1188C25.9166 14.3868 25.7907 14.6638 25.6828 14.9475C25.3929 15.711 25.1861 16.515 25.0446 17.3189C24.9142 18.0711 24.858 18.8233 24.8131 19.5845C24.8041 19.7354 24.7928 19.8863 24.7883 20.0394C24.458 19.9718 24.2737 19.9313 24.2737 19.9313C23.8264 19.4899 23.7095 13.7765 28.0697 11.6145H28.072Z" fill="#767676"/>
</g>
<path d="M43.3371 20.5033C42.9977 20.3141 42.6448 20.1632 42.2493 20.0754C41.5211 19.911 40.6917 20.0529 39.9995 20.3006C39.3814 20.5213 38.7858 20.8613 38.2487 21.2352C38.2487 21.2352 36.0776 23.0481 33.4772 22.431C31.2387 21.8995 29.6856 20.76 29.6856 20.76C29.6856 20.76 32.286 17.8413 36.5316 17.6342C36.5316 17.6342 38.3678 17.4608 39.9006 18.2602C41.4357 19.0597 44.3619 20.492 44.2226 20.7172C44.1462 20.8388 44.0383 20.9492 43.9304 20.8771C43.7304 20.742 43.5348 20.6181 43.3348 20.5055L43.3371 20.5033Z" fill="#505050"/>
<path d="M33.4704 22.4559C31.2521 21.9289 29.6856 20.7938 29.6699 20.7826L29.6452 20.7646L29.6654 20.742C29.6924 20.7128 32.3197 17.8144 36.5293 17.6072C36.5293 17.6072 36.7024 17.5914 36.9788 17.5914C37.6126 17.5914 38.8398 17.6748 39.9163 18.2355C40.1883 18.3774 40.5052 18.5395 40.8423 18.7107C42.7347 19.6791 44.1889 20.438 44.254 20.6767C44.2608 20.7015 44.254 20.7195 44.2495 20.7285C44.1956 20.8186 44.108 20.9245 44.0068 20.9245C43.9776 20.9245 43.9484 20.9155 43.9192 20.8974C43.6922 20.7443 43.5034 20.6272 43.3258 20.5281C42.9505 20.3187 42.6066 20.1835 42.2448 20.1025C42.0402 20.0574 41.8155 20.0326 41.5817 20.0326C40.9614 20.0326 40.3838 20.1925 40.0107 20.3277C39.4578 20.5258 38.8712 20.8389 38.2667 21.2578C38.2509 21.2713 36.6484 22.5887 34.5807 22.5887C34.2054 22.5887 33.8323 22.5459 33.4727 22.4604L33.4704 22.4559ZM42.256 20.0484C42.6223 20.1295 42.9707 20.2669 43.3505 20.4808C43.5303 20.5799 43.7191 20.6993 43.9484 20.8524C43.9664 20.8659 43.9866 20.8704 44.0046 20.8704C44.0653 20.8704 44.1349 20.8096 44.2024 20.7015C44.2024 20.7015 44.2024 20.6948 44.2024 20.6925C44.1372 20.456 42.2178 19.4764 40.8176 18.7602C40.4827 18.5891 40.1658 18.4269 39.8916 18.2851C38.824 17.7288 37.6104 17.6477 36.9788 17.6477C36.7069 17.6477 36.5361 17.6635 36.5338 17.6635C32.5445 17.8594 29.9801 20.4876 29.7261 20.7578C29.9329 20.9042 31.4252 21.9154 33.4817 22.4063C33.8368 22.4919 34.2076 22.5347 34.5785 22.5347C36.6282 22.5347 38.215 21.2307 38.2329 21.215C38.842 20.7938 39.4331 20.4786 39.9905 20.2781C40.3703 20.143 40.9524 19.9809 41.5795 19.9809C41.8177 19.9809 42.0447 20.0056 42.2538 20.0507L42.256 20.0484Z" fill="#5A5A5A"/>
<path d="M43.3775 20.3299C43.3775 20.3299 41.4716 18.7783 38.2487 21.0123C38.2487 21.0123 36.0776 22.8252 33.4772 22.2081C31.2387 21.6766 29.6856 20.7601 29.6856 20.7601C29.6856 20.7601 32.286 17.6207 36.5316 17.4135C36.5316 17.4135 38.3678 17.2401 39.9006 18.0396C41.4357 18.8391 44.3957 20.438 44.2563 20.6632C44.117 20.8884 44.1731 20.8501 43.3753 20.3322L43.3775 20.3299Z" fill="#2D2D2D"/>
<path d="M33.4704 22.2351C31.2544 21.7081 29.6879 20.7938 29.6721 20.7848L29.6452 20.769L29.6654 20.7442C29.6654 20.7442 30.3307 19.947 31.5016 19.143C32.5804 18.4021 34.3312 17.4945 36.5293 17.3864C36.5293 17.3864 36.7024 17.3707 36.9788 17.3707C37.6126 17.3707 38.8375 17.454 39.9141 18.0148C40.9142 18.535 44.1866 20.2623 44.2855 20.6226C44.2923 20.6474 44.2855 20.6654 44.2788 20.6744L44.2675 20.6924C44.2203 20.769 44.1911 20.8186 44.1282 20.8186C44.0608 20.8186 43.9664 20.7555 43.7371 20.6024C43.6382 20.537 43.5169 20.4537 43.3595 20.3524C43.3528 20.3479 42.7078 19.8344 41.5593 19.8344C40.5232 19.8344 39.4129 20.2398 38.2644 21.0347C38.2487 21.0483 36.6462 22.3657 34.5785 22.3657C34.2031 22.3657 33.8301 22.3229 33.4704 22.2373V22.2351ZM43.3932 20.3073C43.5483 20.4087 43.6719 20.4898 43.7708 20.5573C43.9776 20.6947 44.081 20.7645 44.1327 20.7645C44.1641 20.7645 44.1821 20.7352 44.2248 20.6654L44.2361 20.6474V20.6384C44.1619 20.3681 41.8492 19.0822 39.8916 18.0643C38.824 17.5103 37.6104 17.427 36.9811 17.427C36.7091 17.427 36.5383 17.4427 36.5361 17.4427C32.549 17.6387 29.9868 20.4627 29.7306 20.7555C29.9508 20.8794 31.4387 21.6968 33.4862 22.1855C33.8413 22.2711 34.2121 22.3139 34.583 22.3139C36.6327 22.3139 38.2195 21.01 38.2374 20.9942C39.3972 20.1902 40.5164 19.7826 41.566 19.7826C42.7347 19.7826 43.3932 20.3073 43.3977 20.3118L43.3932 20.3073Z" fill="#5A5A5A"/>
<g style="mix-blend-mode:multiply" opacity="0.5">
<path d="M34.7156 17.6882C34.5223 17.7445 34.3313 17.8143 34.1537 17.9089C33.9627 18.0103 33.7559 18.1521 33.6705 18.3593C33.5266 18.7039 33.8053 19.0282 34.0548 19.2354C34.4122 19.5349 34.8347 19.7534 35.255 19.947C35.718 20.1565 36.2079 20.3682 36.7069 20.4605C37.0867 20.5303 37.4553 20.5123 37.8239 20.3952C38.224 20.2691 38.6173 20.1272 39.0151 19.9943C39.6534 19.7826 40.2804 19.6407 40.9547 19.6385C42.0874 19.6362 43.3685 19.92 44.1686 20.778C44.0877 20.8298 43.9641 20.7082 43.3775 20.3276C43.3775 20.3276 41.4716 18.776 38.2487 21.01C38.2487 21.01 36.0776 22.8229 33.4772 22.2058C31.2387 21.6743 29.6856 20.7578 29.6856 20.7578C29.6856 20.7578 31.5556 18.499 34.7156 17.686V17.6882Z" fill="#767676"/>
</g>
<g style="mix-blend-mode:multiply" opacity="0.5">
<path d="M30.7128 19.7714C30.6161 19.9313 30.5577 20.1047 30.5869 20.2826C30.6588 20.7217 31.2185 20.9424 31.5713 21.1023C32.1377 21.3546 32.7108 21.6045 33.3154 21.7577C34.0616 21.9446 34.8415 21.9896 35.5966 21.8072C36.3563 21.6225 37.0463 21.2555 37.7408 20.9086C38.4263 20.5663 39.1275 20.2691 39.8826 20.1362C39.3837 20.3231 38.8376 20.6069 38.2465 21.0167C38.2465 21.0167 36.0754 22.8296 33.475 22.2126C31.2364 21.6811 29.6834 20.7645 29.6834 20.7645C29.6834 20.7645 30.043 20.3321 30.7105 19.7759L30.7128 19.7714Z" fill="#767676"/>
</g>
<g style="mix-blend-mode:screen" opacity="0.7">
<path d="M42.5954 19.7196C41.8649 19.4899 41.0828 19.4584 40.3614 19.1949C39.6759 18.9449 39.1365 18.4427 38.5027 18.0981C37.8913 17.7648 37.1856 17.614 36.4911 17.5712C36.3877 17.5644 36.2844 17.5622 36.181 17.5599C36.2619 17.5531 36.345 17.5486 36.4282 17.5441C36.4282 17.5441 38.1947 17.3797 39.6714 18.1342C40.494 18.5553 41.7436 19.2084 42.6651 19.7421C42.6426 19.7354 42.6201 19.7264 42.5976 19.7196H42.5954Z" fill="#767676"/>
</g>
<g style="mix-blend-mode:screen" opacity="0.7">
<path d="M39.422 16.2447C39.422 16.2447 38.3657 11.029 32.3131 10.9591C32.3131 10.9591 37.0846 10.7722 39.422 16.2447Z" fill="#767676"/>
</g>
<path fill-rule="evenodd" clip-rule="evenodd" d="M32.6726 27.8044C32.603 27.7324 32.603 27.6198 32.6726 27.5477C32.7446 27.4779 32.8569 27.4779 32.9289 27.5477C33.1424 27.7661 33.3963 27.9373 33.675 28.0544C33.9515 28.1715 34.2527 28.2323 34.5583 28.2323C34.864 28.2323 35.1651 28.1715 35.4416 28.0544C35.7203 27.9373 35.9743 27.7661 36.1878 27.5477C36.2574 27.4756 36.3721 27.4756 36.444 27.5477C36.5159 27.6175 36.5159 27.7324 36.444 27.8044C36.1945 28.0589 35.9001 28.2571 35.5809 28.3922C35.2595 28.5273 34.9134 28.5994 34.5583 28.5994C34.2032 28.5994 33.8571 28.5273 33.5357 28.3922C33.2165 28.2571 32.9221 28.0589 32.6726 27.8044Z" fill="#BF5E23"/>
<path fill-rule="evenodd" clip-rule="evenodd" d="M33.6774 28.8921C33.6437 28.8583 33.6459 28.8043 33.6774 28.7728C33.7111 28.739 33.765 28.7412 33.7965 28.7728C33.8976 28.8741 34.0145 28.9552 34.1449 29.0092C34.2752 29.0633 34.4146 29.0926 34.5584 29.0926C34.7022 29.0926 34.8416 29.0633 34.9719 29.0092C35.1023 28.9552 35.2192 28.8741 35.3203 28.7728C35.354 28.739 35.4057 28.739 35.4394 28.7728C35.4731 28.8066 35.4731 28.8583 35.4394 28.8921C35.3226 29.0115 35.1855 29.1038 35.0371 29.1669C34.8865 29.2299 34.7247 29.2637 34.5584 29.2637C34.3921 29.2637 34.2303 29.2299 34.0797 29.1669C33.9291 29.1038 33.792 29.0115 33.6774 28.8921Z" fill="#BF5E23"/>
<path fill-rule="evenodd" clip-rule="evenodd" d="M34.6733 23.85C34.6733 23.85 34.6733 23.8501 34.7853 23.7238C34.8972 23.5975 34.8972 23.5975 34.8973 23.5975L34.8977 23.5979L34.899 23.599L34.9034 23.6031C34.9073 23.6066 34.9129 23.6116 34.9202 23.6182C34.9346 23.6314 34.9555 23.6507 34.9818 23.6752C35.0342 23.7244 35.1079 23.7949 35.1938 23.8813C35.3651 24.0535 35.5872 24.2907 35.7855 24.5473C35.9814 24.8007 36.1651 25.0869 36.2457 25.3559C36.2864 25.4917 36.3043 25.6346 36.2745 25.7717C36.2436 25.9136 36.1641 26.0367 36.0334 26.1294L35.986 26.163L35.9281 26.1603L35.9278 26.1603L35.9262 26.1602L35.9195 26.1599C35.9134 26.1597 35.9043 26.1594 35.8925 26.1591C35.869 26.1584 35.8351 26.1578 35.7941 26.1578C35.7117 26.1577 35.6029 26.1603 35.4942 26.1702C35.3832 26.1803 35.2824 26.1973 35.2113 26.2223C35.1756 26.2348 35.1565 26.2462 35.1483 26.2528C35.1468 26.254 35.1461 26.2546 35.1461 26.2546C35.1461 26.2546 35.1534 26.2471 35.156 26.2313L34.8236 26.1753C34.8377 26.0913 34.8864 26.0303 34.9371 25.9894C34.9865 25.9497 35.0449 25.9227 35.1 25.9034C35.2103 25.8648 35.3434 25.8448 35.4636 25.8338C35.5861 25.8226 35.7059 25.8199 35.7942 25.82C35.8266 25.82 35.8551 25.8204 35.8782 25.8208C35.9156 25.7841 35.9356 25.7437 35.9451 25.6997C35.9587 25.6374 35.9536 25.5557 35.9228 25.453C35.8605 25.2451 35.708 24.9988 35.519 24.7542C35.3324 24.5128 35.121 24.2866 34.955 24.1198C34.8723 24.0366 34.8015 23.9688 34.7515 23.9219C34.7265 23.8985 34.7067 23.8803 34.6933 23.8681C34.6866 23.862 34.6815 23.8574 34.6781 23.8543L34.6744 23.851L34.6735 23.8502L34.6733 23.85Z" fill="#BF5E23"/>
<path d="M35.217 12.1797C35.217 12.1797 35.5285 12.5342 36.087 12.6529C36.8171 12.8078 37.2003 12.3917 37.2003 12.3917C37.2003 12.3917 37.2576 13.1371 37.0011 14.2347C36.7134 15.4662 36.0205 16.0534 35.2165 16.5698C34.4125 16.0534 33.7196 15.4662 33.4319 14.2347C33.1758 13.1371 33.2332 12.3917 33.2332 12.3917C33.2332 12.3917 33.6168 12.8078 34.3464 12.6529C34.9054 12.5342 35.217 12.1797 35.217 12.1797Z" fill="#1F2020"/>
<path style="mix-blend-mode:screen" d="M35.217 12.1797C35.217 12.1797 35.5285 12.5342 36.087 12.6529C36.8171 12.8078 37.2003 12.3917 37.2003 12.3917C37.2003 12.3917 37.2576 13.1371 37.0011 14.2347C36.7134 15.4662 36.0205 16.0534 35.2165 16.5698C34.4125 16.0534 33.7196 15.4662 33.4319 14.2347C33.1758 13.1371 33.2332 12.3917 33.2332 12.3917C33.2332 12.3917 33.6168 12.8078 34.3464 12.6529C34.9054 12.5342 35.217 12.1797 35.217 12.1797Z" fill="url(#paint3_linear_1486_125439)"/>
<path style="mix-blend-mode:multiply" d="M35.217 12.1797C35.217 12.1797 35.5285 12.5342 36.087 12.6529C36.8171 12.8078 37.2003 12.3917 37.2003 12.3917C37.2003 12.3917 37.2576 13.1371 37.0011 14.2347C36.7134 15.4662 36.0205 16.0534 35.2165 16.5698C34.4125 16.0534 33.7196 15.4662 33.4319 14.2347C33.1758 13.1371 33.2332 12.3917 33.2332 12.3917C33.2332 12.3917 33.6168 12.8078 34.3464 12.6529C34.9054 12.5342 35.217 12.1797 35.217 12.1797Z" fill="url(#paint4_linear_1486_125439)"/>
<g style="mix-blend-mode:overlay">
<path d="M35.2171 12.4358C35.3736 12.565 35.6563 12.7531 36.0482 12.8363C36.1689 12.8621 36.2891 12.875 36.4052 12.875C36.6594 12.875 36.8636 12.8133 37.0155 12.7412C37.0063 13.0538 36.965 13.5647 36.8187 14.1915C36.5713 15.2505 36.022 15.8124 35.2167 16.3449C34.4113 15.8124 33.862 15.2505 33.6147 14.1915C33.4683 13.5647 33.427 13.0534 33.4178 12.7412C33.5697 12.8133 33.7739 12.875 34.0281 12.875C34.1442 12.875 34.2645 12.8621 34.3852 12.8363C34.7775 12.7531 35.0602 12.5646 35.2162 12.4358M35.2162 12.1797C35.2162 12.1797 34.9046 12.5342 34.3462 12.6529C34.2314 12.6772 34.1254 12.6874 34.0281 12.6874C33.5059 12.6874 33.2334 12.3917 33.2334 12.3917C33.2334 12.3917 33.176 13.1371 33.4325 14.2347C33.7202 15.4662 34.4132 16.0534 35.2171 16.5698C36.0211 16.0534 36.714 15.4662 37.0017 14.2347C37.2583 13.1371 37.2009 12.3917 37.2009 12.3917C37.2009 12.3917 36.9283 12.6874 36.4057 12.6874C36.3084 12.6874 36.2024 12.6772 36.0876 12.6529C35.5287 12.5342 35.2171 12.1797 35.2171 12.1797H35.2162Z" fill="#5E5F5F"/>
</g>
<path style="mix-blend-mode:screen" opacity="0.11" d="M35.2277 12.4372C35.3842 12.5664 35.6669 12.7545 36.0588 12.8377C36.1794 12.8635 36.2997 12.8763 36.4158 12.8763C36.67 12.8763 36.8742 12.8147 37.0261 12.7425C37.0169 13.0552 36.9756 13.5661 36.8292 14.1929C36.5819 15.2519 36.0326 15.8138 35.2273 16.3463C34.4219 15.8138 33.8726 15.2519 33.6253 14.1929C33.4789 13.5661 33.4376 13.0548 33.4284 12.7425C33.5803 12.8147 33.7845 12.8763 34.0387 12.8763C34.1548 12.8763 34.2751 12.8635 34.3957 12.8377C34.7881 12.7545 35.0708 12.566 35.2268 12.4372" fill="url(#paint5_linear_1486_125439)"/>
<path d="M35.2149 13.1665L34.5394 13.59L34.834 13.7859L35.0534 13.6498V13.9137L35.3723 14.1092V13.6378L35.5999 13.7896L35.9147 13.5942L35.2149 13.1665Z" fill="url(#paint6_linear_1486_125439)"/>
<path d="M35.0654 14.5129V14.9084L35.3646 15.0841V14.7006L35.0654 14.5129Z" fill="url(#paint7_linear_1486_125439)"/>
<path d="M35.8391 13.9293L35.6955 13.8332L35.9828 13.6373L36.1581 13.7371V14.8876L36.0186 14.9796C36.0186 14.9796 35.941 14.9736 35.9148 14.9474C35.8887 14.9212 34.5992 14.1243 34.5992 14.1243V14.6917L35.528 15.2629L35.215 15.4666L34.2762 14.8872V13.7403L34.4478 13.6364L35.8355 14.4876L35.8396 13.9284L35.8391 13.9293Z" fill="url(#paint8_linear_1486_125439)"/>
<rect x="24.8253" y="22.1364" width="1.68933" height="1.68182" rx="0.840909" fill="#CAC9C1"/>
<path d="M25.4359 28.1089L24.7936 27.8809C24.7063 27.8499 24.6086 27.8945 24.5768 27.9797L24.5678 28.0041C24.536 28.0893 24.5817 28.1848 24.6689 28.2158L25.3112 28.4439C25.3985 28.4749 25.4963 28.4303 25.528 28.3451L25.5371 28.3207C25.5688 28.2354 25.5232 28.1399 25.4359 28.1089Z" fill="#B1B0A6"/>
<path d="M25.2855 29.0474L24.6433 28.8195C24.556 28.7885 24.4582 28.8331 24.4265 28.9184L24.4174 28.9427C24.3857 29.028 24.4313 29.1235 24.5186 29.1545L25.1609 29.3824C25.2482 29.4134 25.346 29.3688 25.3777 29.2835L25.3868 29.2592C25.4185 29.1739 25.3728 29.0784 25.2855 29.0474Z" fill="#B1B0A6"/>
<path d="M25.5789 27.1802L24.9366 26.9522C24.8493 26.9213 24.7515 26.9659 24.7198 27.0511L24.7108 27.0755C24.679 27.1607 24.7247 27.2562 24.812 27.2872L25.4543 27.5152C25.5416 27.5462 25.6393 27.5016 25.6711 27.4163L25.6801 27.3919C25.7119 27.3067 25.6662 27.2112 25.5789 27.1802Z" fill="#B1B0A6"/>
<path d="M25.1415 29.9743L24.4992 29.7463C24.4119 29.7153 24.3142 29.7599 24.2824 29.8452L24.2734 29.8695C24.2417 29.9548 24.2873 30.0503 24.3746 30.0813L25.0169 30.3092C25.1042 30.3402 25.202 30.2956 25.2337 30.2104L25.2428 30.186C25.2745 30.1007 25.2288 30.0052 25.1415 29.9743Z" fill="#B1B0A6"/>
<path d="M25.0121 30.8816L24.3698 30.6535C24.2825 30.6225 24.1848 30.6671 24.153 30.7524L24.144 30.7767C24.1122 30.862 24.1579 30.9575 24.2451 30.9885L24.8874 31.2165C24.9747 31.2475 25.0725 31.203 25.1042 31.1177L25.1133 31.0933C25.145 31.0081 25.0994 30.9126 25.0121 30.8816Z" fill="#B1B0A6"/>
<path d="M25.6154 27.4947L24.9121 28.1816C24.8325 28.2593 24.6998 28.2593 24.6202 28.1816C24.5405 28.1038 24.5405 27.9742 24.6202 27.8964L25.3234 27.2096C25.4031 27.1318 25.5358 27.1318 25.6154 27.2096C25.695 27.2873 25.695 27.4169 25.6154 27.4947Z" fill="#D5D4CD"/>
<path d="M24.862 31.8294L24.2197 31.6015C24.1324 31.5705 24.0347 31.6151 24.0029 31.7004L23.9939 31.7247C23.9622 31.81 24.0078 31.9055 24.0951 31.9365L24.7374 32.1644C24.8247 32.1954 24.9225 32.1508 24.9542 32.0655L24.9632 32.0412C24.995 31.9559 24.9493 31.8604 24.862 31.8294Z" fill="#B1B0A6"/>
<path d="M25.4758 28.4213L24.7725 29.1081C24.6929 29.1859 24.5602 29.1859 24.4806 29.1081C24.401 29.0304 24.401 28.9008 24.4806 28.823L25.1839 28.1361C25.2635 28.0584 25.3962 28.0584 25.4758 28.1361C25.5554 28.2139 25.5554 28.3435 25.4758 28.4213Z" fill="#D5D4CD"/>
<path d="M25.3233 29.3576L24.62 30.0445C24.5404 30.1222 24.4077 30.1222 24.328 30.0445C24.2484 29.9667 24.2484 29.8371 24.328 29.7594L25.0313 29.0725C25.1109 28.9947 25.2436 28.9947 25.3233 29.0725C25.4029 29.1502 25.4029 29.2798 25.3233 29.3576Z" fill="#D5D4CD"/>
<path d="M25.1773 30.2875L24.4741 30.9744C24.3945 31.0521 24.2618 31.0521 24.1821 30.9744C24.1025 30.8966 24.1025 30.767 24.1821 30.6892L24.8854 30.0024C24.965 29.9246 25.0977 29.9246 25.1773 30.0024C25.257 30.0801 25.257 30.2097 25.1773 30.2875Z" fill="#D5D4CD"/>
<path d="M25.0513 31.1947L24.3481 31.8816C24.2684 31.9593 24.1358 31.9593 24.0561 31.8816C23.9765 31.8038 23.9765 31.6742 24.0561 31.5965L24.7594 30.9096C24.839 30.8318 24.9717 30.8318 25.0513 30.9096C25.131 30.9873 25.131 31.1169 25.0513 31.1947Z" fill="#D5D4CD"/>
<path d="M25.4589 26.5647C25.5784 26.5647 25.6746 26.4707 25.6746 26.3541V23.5482C25.6746 23.4316 25.5784 23.3376 25.4589 23.3376C25.3395 23.3376 25.2433 23.4316 25.2433 23.5482V26.3541C25.2433 26.4707 25.3395 26.5647 25.4589 26.5647Z" fill="#CAC9C1"/>
<path d="M25.7576 26.5809L25.0543 27.2677C24.9747 27.3455 24.842 27.3455 24.7624 27.2677C24.6828 27.19 24.6828 27.0604 24.7624 26.9826L25.4657 26.2957C25.5453 26.218 25.678 26.218 25.7576 26.2957C25.8372 26.3735 25.8372 26.5031 25.7576 26.5809Z" fill="#D5D4CD"/>
</g>
</g>
<defs>
<radialGradient id="paint0_radial_1486_125439" cx="0" cy="0" r="1" gradientUnits="userSpaceOnUse" gradientTransform="translate(39 62.25) rotate(-102.529) scale(62.2319)">
<stop stop-color="#8A0404"/>
<stop offset="0.760417" stop-color="#E04A4A"/>
</radialGradient>
<linearGradient id="paint1_linear_1486_125439" x1="31.9805" y1="22.5954" x2="31.9805" y2="21.3455" gradientUnits="userSpaceOnUse">
<stop stop-color="#FFC596"/>
<stop offset="0.5" stop-color="#FDC091"/>
<stop offset="1" stop-color="#FDAE91"/>
</linearGradient>
<linearGradient id="paint2_linear_1486_125439" x1="37.2665" y1="22.5234" x2="37.2665" y2="21.2735" gradientUnits="userSpaceOnUse">
<stop stop-color="#FFC596"/>
<stop offset="0.5" stop-color="#FDC091"/>
<stop offset="1" stop-color="#FDAE91"/>
</linearGradient>
<linearGradient id="paint3_linear_1486_125439" x1="33.2277" y1="14.3745" x2="37.2058" y2="14.3745" gradientUnits="userSpaceOnUse">
<stop offset="0.5" stop-color="#333333"/>
<stop offset="0.78" stop-color="#141414"/>
<stop offset="1" stop-color="#010101"/>
</linearGradient>
<linearGradient id="paint4_linear_1486_125439" x1="35.217" y1="12.9099" x2="35.217" y2="15.7269" gradientUnits="userSpaceOnUse">
<stop stop-color="white"/>
<stop offset="0.23" stop-color="#BABABA"/>
<stop offset="0.51" stop-color="#6B6B6B"/>
<stop offset="0.74" stop-color="#323232"/>
<stop offset="0.91" stop-color="#0E0E0E"/>
<stop offset="1" stop-color="#010101"/>
</linearGradient>
<linearGradient id="paint5_linear_1486_125439" x1="33.4289" y1="14.392" x2="37.0266" y2="14.392" gradientUnits="userSpaceOnUse">
<stop stop-color="#D2D3D4"/>
<stop offset="0.24" stop-color="#D0D1D2"/>
<stop offset="0.32" stop-color="#C9CACB"/>
<stop offset="0.38" stop-color="#BDBEC0"/>
<stop offset="0.43" stop-color="#ACADAF"/>
<stop offset="0.47" stop-color="#96979A"/>
<stop offset="0.5" stop-color="#818285"/>
<stop offset="0.68" stop-color="#A3A4A6"/>
<stop offset="0.89" stop-color="#C5C6C7"/>
<stop offset="1" stop-color="#D2D3D4"/>
</linearGradient>
<linearGradient id="paint6_linear_1486_125439" x1="34.5394" y1="13.6378" x2="35.9147" y2="13.6378" gradientUnits="userSpaceOnUse">
<stop stop-color="#F7E57D"/>
<stop offset="0.14" stop-color="#D4B259"/>
<stop offset="0.27" stop-color="#BA8C3E"/>
<stop offset="0.36" stop-color="#AA762E"/>
<stop offset="0.43" stop-color="#A56E29"/>
<stop offset="0.48" stop-color="#A8722C"/>
<stop offset="0.53" stop-color="#B17F35"/>
<stop offset="0.58" stop-color="#BF9444"/>
<stop offset="0.64" stop-color="#D4B359"/>
<stop offset="0.69" stop-color="#EFD975"/>
<stop offset="0.71" stop-color="#F8E67E"/>
<stop offset="0.9" stop-color="#D6B650"/>
<stop offset="1" stop-color="#C9A33E"/>
</linearGradient>
<linearGradient id="paint7_linear_1486_125439" x1="35.0654" y1="14.7985" x2="35.3646" y2="14.7985" gradientUnits="userSpaceOnUse">
<stop stop-color="#F7E57D"/>
<stop offset="0.14" stop-color="#D4B259"/>
<stop offset="0.27" stop-color="#BA8C3E"/>
<stop offset="0.36" stop-color="#AA762E"/>
<stop offset="0.43" stop-color="#A56E29"/>
<stop offset="0.58" stop-color="#A7722A"/>
<stop offset="0.74" stop-color="#B07F2F"/>
<stop offset="0.91" stop-color="#BF9438"/>
<stop offset="1" stop-color="#C9A33E"/>
</linearGradient>
<linearGradient id="paint8_linear_1486_125439" x1="34.2762" y1="14.5529" x2="36.1581" y2="14.5529" gradientUnits="userSpaceOnUse">
<stop stop-color="#F7E57D"/>
<stop offset="0.14" stop-color="#D4B259"/>
<stop offset="0.27" stop-color="#BA8C3E"/>
<stop offset="0.36" stop-color="#AA762E"/>
<stop offset="0.43" stop-color="#A56E29"/>
<stop offset="0.48" stop-color="#A8722C"/>
<stop offset="0.53" stop-color="#B17F35"/>
<stop offset="0.58" stop-color="#BF9444"/>
<stop offset="0.64" stop-color="#D4B359"/>
<stop offset="0.69" stop-color="#EFD975"/>
<stop offset="0.71" stop-color="#F8E67E"/>
<stop offset="0.9" stop-color="#D6B650"/>
<stop offset="1" stop-color="#C9A33E"/>
</linearGradient>
<clipPath id="clip0_1486_125439">
<rect width="68.8074" height="68.8074" rx="13.7615" fill="white"/>
</clipPath>
<clipPath id="clip1_1486_125439">
<rect width="43.2468" height="74" fill="white" transform="translate(13 7)"/>
</clipPath>
</defs>
</svg>
