<svg width="33" height="32" viewBox="0 0 33 32" fill="none" xmlns="http://www.w3.org/2000/svg">
<path d="M31.3156 16.0071C30.9714 35.8445 1.00815 35.8445 0.678253 16.0071C1.02249 -3.83036 30.9857 -3.83036 31.3156 16.0071Z" fill="#F5EB3A"/>
<path d="M27.2848 5.80264C24.3014 15.6642 16.3408 23.5105 6.88858 28.1412C21.5905 38.7745 39.6344 19.2372 27.2848 5.80264Z" fill="#FAD00A"/>
<path d="M25.8067 16.0071C25.5915 28.6985 6.41446 28.6985 6.19931 16.0071C6.41446 3.30143 25.5915 3.30143 25.8067 16.0071Z" fill="#F8F29E"/>
<path d="M15.9962 26.2402C2.34129 25.9972 2.34129 6.00256 15.9962 5.7596C29.651 6.00256 29.651 25.9972 15.9962 26.2402ZM15.9962 6.91726C3.87603 7.14593 3.89037 24.8681 15.9962 25.0825C28.1163 24.8681 28.1163 7.13164 15.9962 6.91726Z" fill="#2C130E"/>
<path d="M11.2061 8.20361C11.12 13.0629 3.79056 13.0629 3.7045 8.20361C3.77622 3.3443 11.12 3.3443 11.2061 8.20361Z" fill="#FBF9D3"/>
<path d="M15.9964 32C-5.33214 31.6284 -5.33214 0.371594 15.9964 0C37.3393 0.385887 37.3393 31.6284 15.9964 32ZM15.9964 1.8151C-2.9368 2.15811 -2.9368 29.8419 15.9964 30.1849C34.944 29.8419 34.9296 2.15811 15.9964 1.8151Z" fill="#8C8C8C"/>
<path d="M13.1991 18.2224L12.1233 16.6789H12.0659H10.9472V18.2224H9.65625V12.6914H12.0659C13.5433 12.6914 14.4756 13.4632 14.4756 14.6923C14.4756 15.5212 14.0597 16.1358 13.3281 16.4359L14.576 18.2082H13.1991V18.2224ZM11.9942 13.7347H10.9472V15.6642H11.9942C12.7831 15.6642 13.1704 15.3069 13.1704 14.7066C13.1847 14.092 12.7831 13.7347 11.9942 13.7347Z" fill="#2C130E"/>
<path d="M20.0549 16.0929C20.0549 17.4221 19.1225 18.2796 17.9321 18.2796C17.4013 18.2796 16.971 18.1081 16.6412 17.7651V19.7517H15.4076V13.9777H16.5838V14.4636C16.8993 14.092 17.3583 13.9062 17.9177 13.9062C19.1225 13.9063 20.0549 14.7638 20.0549 16.0929ZM18.807 16.0929C18.807 15.364 18.3337 14.921 17.7169 14.921C17.1001 14.921 16.6268 15.364 16.6268 16.0929C16.6268 16.8218 17.1001 17.2649 17.7169 17.2649C18.3337 17.2649 18.807 16.8361 18.807 16.0929Z" fill="#2C130E"/>
<path d="M20.5285 17.5078C20.5285 17.0505 20.8728 16.7503 21.3031 16.7503C21.7334 16.7503 22.0776 17.0505 22.0776 17.5078C22.0776 17.9652 21.7334 18.2796 21.3031 18.2796C20.8728 18.2796 20.5285 17.9652 20.5285 17.5078Z" fill="#2C130E"/>
</svg>
