<svg width="27" height="30" viewBox="0 0 27 30" fill="none" xmlns="http://www.w3.org/2000/svg">
<g clip-path="url(#clip0_1565_131647)">
<path d="M26.9631 1.4487C26.9631 1.4487 24.3609 4.29087 19.4059 3.23196C15.6142 2.42264 13.4994 0 13.4994 0C13.4994 0 11.3846 2.42264 7.5939 3.23196C2.63897 4.29087 0.036762 1.4487 0.036762 1.4487C0.036762 1.4487 -0.351674 6.54252 1.38839 14.0441C3.34005 22.4591 8.04444 26.4717 13.5004 30C18.9554 26.4728 23.6598 22.4602 25.6125 14.0441C27.3515 6.54252 26.9631 1.4487 26.9631 1.4487ZM24.3714 13.6426C22.6934 20.8787 18.9649 24.7203 13.5004 28.358C8.03602 24.7203 4.30746 20.8787 2.62949 13.6426C1.63577 9.3592 1.35576 5.86596 1.2926 3.73115C2.32317 4.22396 3.71059 4.64561 5.43592 4.64561C6.22332 4.64561 7.03809 4.5564 7.85917 4.38115C10.5214 3.81187 12.4404 2.52461 13.5004 1.64306C14.5615 2.52461 16.4795 3.81293 19.1417 4.38115C19.9617 4.5564 20.7776 4.64561 21.565 4.64561C23.2903 4.64561 24.6777 4.22396 25.7083 3.73115C25.6441 5.86596 25.3641 9.3592 24.3714 13.6426Z" fill="#D3A55F"/>
<path d="M13.3405 7.05887L8.75299 9.95308L10.7562 11.2903L12.2437 10.362V12.1644L14.409 13.5016V10.2802L15.9512 11.3179L18.0891 9.97964L13.3405 7.05887Z" fill="#D3A55F"/>
<path d="M12.3257 16.2598V18.9618L14.3553 20.1641V17.5428L12.3257 16.2598Z" fill="#D3A55F"/>
<path d="M17.5754 12.2738L16.6017 11.6185L18.5502 10.2802L19.7408 10.9631V18.8258L18.7934 19.4535C18.7934 19.4535 18.266 19.4121 18.0902 19.2348C17.9144 19.0574 9.16037 13.6109 9.16037 13.6109V17.4876L15.4648 21.3919L13.3405 22.7843L6.96765 18.8258V10.9897L8.13085 10.2802L17.5481 16.0952L17.5754 12.2738Z" fill="#D3A55F"/>
</g>
<defs>
<clipPath id="clip0_1565_131647">
<rect width="27" height="30" fill="white"/>
</clipPath>
</defs>
</svg>
