<svg width="52" height="52" viewBox="0 0 52 52" fill="none" xmlns="http://www.w3.org/2000/svg">
<rect width="51.6055" height="51.6055" rx="10.3211" fill="#2736C2"/>
<g clip-path="url(#clip0_1554_129891)">
<path d="M41.2498 9.12498H18.6094V37.9004H41.2498V9.12498Z" fill="#0D68BE"/>
<path d="M18.6095 9.12498H13.1009V37.9004H18.6095V9.12498Z" fill="#0A4E8F"/>
<path d="M18.6095 11.4102H13.1009V12.8455H18.6095V11.4102Z" fill="#F0C419"/>
<path d="M18.6095 34.8123H13.1009V36.2476H18.6095V34.8123Z" fill="#F0C419"/>
<path d="M18.6095 20.5451H13.1009V21.9804H18.6095V20.5451Z" fill="#F0C419"/>
<path d="M18.6095 25.0744H13.1009V26.5096H18.6095V25.0744Z" fill="#F0C419"/>
<path d="M13.101 9.12498H7.59234V37.9004H13.101V9.12498Z" fill="#B5292A"/>
<path d="M13.101 12.8425H7.59234V14.2778H13.101V12.8425Z" fill="#F0C419"/>
<path d="M13.101 33.2095H7.59234V34.6447H13.101V33.2095Z" fill="#F0C419"/>
<path d="M13.101 22.8098H7.59234V24.2451H13.101V22.8098Z" fill="#F0C419"/>
<path d="M13.101 27.3362H7.59234V28.7714H13.101V27.3362Z" fill="#F0C419"/>
<path d="M13.101 18.2805H7.59234V19.7158H13.101V18.2805Z" fill="#F0C419"/>
<path d="M39.4533 33.6095V13.419C38.3446 13.419 37.4446 12.519 37.4446 11.4102H22.4187C22.4187 12.519 21.5187 13.419 20.4099 13.419V33.6095C21.5187 33.6095 22.4187 34.5094 22.4187 35.6182H37.4446C37.4446 34.5094 38.3446 33.6095 39.4533 33.6095Z" stroke="#F0C419" stroke-width="0.226463" stroke-miterlimit="10"/>
<path d="M27.3653 18.8777V16.4072H27.7535V18.5248H28.3923V18.8777H27.3653ZM29.4224 16.4072L29.8177 18.8777H29.4259L29.3589 18.4295H28.8824L28.8154 18.8777H28.4589L28.8542 16.4072H29.4224ZM29.1189 16.8449L28.9318 18.0942H29.3059L29.1189 16.8449ZM31.0008 18.8777L30.8596 17.5613L30.7185 18.8777H30.1855L29.9103 16.4072H30.2879L30.4961 18.3554L30.6832 16.4072H31.0573L31.2514 18.3695L31.4526 16.4072H31.7914L31.5161 18.8777H31.0008Z" fill="#F0C419"/>
<path d="M28.3822 21.9541L28.7775 24.4246H28.3857L28.3187 23.9763H27.8422L27.7752 24.4246H27.4187L27.814 21.9541H28.3822ZM28.0787 22.3917L27.8916 23.6411H28.2657L28.0787 22.3917ZM29.7877 24.4246L29.3041 22.6352V24.4246H28.9547V21.9541H29.4418L29.8406 23.4328V21.9541H30.1865V24.4246H29.7877ZM30.4644 24.4246V21.9541H31.0785C31.4667 21.9541 31.6573 22.1693 31.6573 22.5646V23.814C31.6573 24.2093 31.4667 24.4246 31.0785 24.4246H30.4644ZM31.0715 22.307H30.8526V24.0716H31.0715C31.195 24.0716 31.2691 24.0081 31.2691 23.8316V22.547C31.2691 22.3705 31.195 22.307 31.0715 22.307Z" fill="#F0C419"/>
<path d="M24.9034 29.9743V29.6214C24.9458 29.6249 24.9952 29.6249 25.0375 29.6249C25.161 29.6249 25.2599 29.579 25.2599 29.3885V27.5038H25.6481V29.3602C25.6481 29.8543 25.3834 29.9814 25.0905 29.9814C25.0199 29.9814 24.9669 29.9814 24.9034 29.9743ZM25.8946 27.5038H26.2829V29.4096C26.2829 29.5861 26.3605 29.6496 26.484 29.6496C26.6076 29.6496 26.6852 29.5861 26.6852 29.4096V27.5038H27.0523V29.3849C27.0523 29.7802 26.8546 30.0061 26.4734 30.0061C26.0923 30.0061 25.8946 29.7802 25.8946 29.3849V27.5038ZM27.2691 28.0967C27.2691 27.7015 27.4632 27.4756 27.8408 27.4756C28.2185 27.4756 28.4126 27.7015 28.4126 28.0967V28.1744H28.0455V28.072C28.0455 27.8956 27.9749 27.8285 27.8514 27.8285C27.7279 27.8285 27.6573 27.8956 27.6573 28.072C27.6573 28.5803 28.4161 28.6755 28.4161 29.3814C28.4161 29.7767 28.2185 30.0026 27.8373 30.0026C27.4561 30.0026 27.2585 29.7767 27.2585 29.3814V29.2296H27.6255V29.4061C27.6255 29.5826 27.7032 29.6461 27.8267 29.6461C27.9502 29.6461 28.0279 29.5826 28.0279 29.4061C28.0279 28.8979 27.2691 28.8026 27.2691 28.0967ZM28.5256 27.8567V27.5038H29.7255V27.8567H29.3197V29.9743H28.9315V27.8567H28.5256ZM29.8965 29.9743V27.5038H30.2847V29.9743H29.8965ZM31.3274 29.0532H31.6944V29.3814C31.6944 29.7767 31.4968 30.0026 31.1156 30.0026C30.7345 30.0026 30.5368 29.7767 30.5368 29.3814V28.0967C30.5368 27.7015 30.7345 27.4756 31.1156 27.4756C31.4968 27.4756 31.6944 27.7015 31.6944 28.0967V28.3367H31.3274V28.072C31.3274 27.8956 31.2498 27.8285 31.1262 27.8285C31.0027 27.8285 30.9251 27.8956 30.9251 28.072V29.4061C30.9251 29.5826 31.0027 29.6461 31.1262 29.6461C31.2498 29.6461 31.3274 29.5826 31.3274 29.4061V29.0532ZM32.3182 27.8567V28.545H32.8511V28.8979H32.3182V29.6214H32.9888V29.9743H31.93V27.5038H32.9888V27.8567H32.3182Z" fill="#F0C419"/>
<path d="M4.625 40.6562C4.625 42.1767 5.85731 43.412 7.38078 43.412H30.0006V37.9034H7.38078C5.86025 37.9034 4.625 39.1357 4.625 40.6591V40.6562Z" fill="#00814C"/>
<path d="M8.43061 40.6562C8.43061 39.1357 9.66292 37.9004 11.1864 37.9004H10.06C8.53943 37.9004 7.30418 39.1327 7.30418 40.6562C7.30418 42.1768 8.53649 43.412 10.06 43.412H11.1864C9.66586 43.412 8.43061 42.1797 8.43061 40.6562Z" fill="#FFD800"/>
<path d="M15.451 40.6562C15.451 39.1357 16.6833 37.9004 18.2068 37.9004H17.0803C15.5598 37.9004 14.3245 39.1327 14.3245 40.6562C14.3245 42.1768 15.5568 43.412 17.0803 43.412H18.2068C16.6862 43.412 15.451 42.1797 15.451 40.6562Z" fill="#FFD800"/>
<path d="M22.4652 40.6562C22.4652 39.1357 23.6976 37.9004 25.221 37.9004H24.0946C22.5741 37.9004 21.3388 39.1327 21.3388 40.6562C21.3388 42.1768 22.5711 43.412 24.0946 43.412H25.221C23.7005 43.412 22.4652 42.1797 22.4652 40.6562Z" fill="#FFD800"/>
<path d="M46.2497 38.5357V37.9004H29.2297C27.7092 37.9004 26.474 39.1327 26.474 40.6562C26.474 42.1768 27.7063 43.412 29.2297 43.412H46.2497V42.815H29.6974V38.5387H46.2497V38.5357Z" fill="#00AC65"/>
<path d="M45.7883 42.8121H29.3772C28.1948 42.8121 27.239 41.8562 27.239 40.6739C27.239 39.4916 28.1948 38.5357 29.3772 38.5357H45.7883V42.8121Z" fill="#D1D1D1"/>
<path d="M39.0735 39.2915H29.112V39.7445H39.0735V39.2915Z" fill="#C2C2C2"/>
<path d="M45.7909 41.3326H31.0855V41.7855H45.7909V41.3326Z" fill="#C2C2C2"/>
</g>
<defs>
<clipPath id="clip0_1554_129891">
<rect width="41.625" height="34.287" fill="white" transform="translate(4.625 9.12498)"/>
</clipPath>
</defs>
</svg>
