<svg width="140" height="145" viewBox="0 0 140 145" fill="none" xmlns="http://www.w3.org/2000/svg">
<g clip-path="url(#clip0_2184_8660)">
<rect y="0.921143" width="140" height="143.307" rx="6.46154" fill="white"/>
<g clip-path="url(#clip1_2184_8660)">
<path d="M123.981 23.6625L120.433 23.2277L121.047 18.1616C121.342 15.7295 119.609 13.5197 117.177 13.2246L30.5713 2.72524C28.1392 2.43013 25.9294 4.16304 25.6343 6.59509L11.0323 127.043C10.7372 129.475 12.4701 131.685 14.9013 131.98L101.507 142.48C103.939 142.775 106.149 141.042 106.444 138.61L114.835 69.3935L118.327 69.8213C120.835 70.1287 123.117 68.344 123.425 65.8355L127.965 28.7602C128.272 26.2517 126.487 23.9699 123.979 23.6625H123.981Z" fill="#F99F1B"/>
<path d="M90.4662 139.223L124.032 30.7462L47.6827 6.72437L14.1171 115.201L90.4662 139.223Z" fill="#D6E5ED"/>
<path d="M99.3503 135.425L117.808 23.378L38.7845 10.6047L20.3268 122.651L99.3503 135.425Z" fill="#F2FBFF"/>
<path d="M27.8159 12.3802L25.0211 124.337L105.052 126.335L107.847 14.378L27.8159 12.3802Z" fill="white"/>
<path d="M34.3938 115.108C37.0973 115.179 39.8007 115.25 42.5051 115.322C46.7921 115.434 51.08 115.546 55.3671 115.66C56.3517 115.685 57.3363 115.712 58.3208 115.737C58.5176 115.742 58.5255 115.437 58.3287 115.431C55.6253 115.36 52.9219 115.289 50.2175 115.218C45.9305 115.106 41.6426 114.993 37.3555 114.88C36.3709 114.854 35.3863 114.828 34.4018 114.803C34.205 114.797 34.1971 115.103 34.3938 115.108Z" fill="#091A44"/>
<path d="M53.383 35.0034C53.6614 35.0104 53.9407 35.0183 54.2191 35.0253C54.9771 35.0455 55.736 35.0649 56.4939 35.0851C57.6155 35.1149 58.738 35.1439 59.8596 35.1738C61.2289 35.2098 62.5973 35.2458 63.9666 35.2818C65.4738 35.3213 66.981 35.3609 68.4882 35.4004C70.0024 35.4399 71.5166 35.4803 73.0308 35.5198C74.4423 35.5567 75.8546 35.5936 77.266 35.6314C78.4597 35.663 79.6524 35.6937 80.846 35.7254C81.7041 35.7482 82.5623 35.7701 83.4213 35.793C83.8279 35.8035 84.2355 35.8193 84.6421 35.8255C84.6597 35.8255 84.6772 35.8264 84.6948 35.8272C85.5248 35.8492 86.3372 35.2124 86.3188 34.4395C86.3004 33.664 85.6592 32.992 84.7695 32.9683C84.491 32.9613 84.2117 32.9534 83.9333 32.9464C83.1753 32.9262 82.4165 32.9068 81.6585 32.8866C80.5369 32.8568 79.4144 32.8278 78.2928 32.7979C76.9235 32.7619 75.5551 32.7259 74.1858 32.6899C72.6786 32.6504 71.1714 32.6109 69.6642 32.5713C68.15 32.5318 66.6358 32.4914 65.1216 32.4519C63.7102 32.415 62.2978 32.3781 60.8864 32.3403C59.6928 32.3087 58.5 32.278 57.3064 32.2464C56.4483 32.2235 55.5902 32.2016 54.7312 32.1787C54.3245 32.1682 53.917 32.1524 53.5103 32.1462C53.4928 32.1462 53.4752 32.1454 53.4576 32.1445C52.6276 32.1225 51.8152 32.7593 51.8336 33.5322C51.8521 34.3078 52.4932 34.9797 53.383 35.0034Z" fill="#8ACADF"/>
<path d="M53.253 39.9694C53.6623 39.98 54.0707 39.9905 54.48 40.0019C55.5831 40.0309 56.6854 40.0599 57.7886 40.0889C59.424 40.1319 61.0585 40.175 62.694 40.218C64.6886 40.2707 66.6841 40.3225 68.6788 40.3752C70.8561 40.4323 73.0335 40.4894 75.2108 40.5465C77.4233 40.6045 79.6366 40.6624 81.8491 40.7213C83.8982 40.7748 85.9473 40.8293 87.9964 40.8829C89.7346 40.9285 91.4719 40.9742 93.21 41.0199C94.4599 41.0524 95.7088 41.0858 96.9587 41.1183C97.5489 41.1341 98.14 41.156 98.7302 41.1648C98.7557 41.1648 98.7821 41.1666 98.8075 41.1666C99.3609 41.1815 99.9028 40.7564 99.8905 40.2417C99.8782 39.7244 99.4505 39.2764 98.8576 39.2606C98.4483 39.2501 98.0399 39.2396 97.6306 39.2281C96.5274 39.1992 95.4252 39.1702 94.322 39.1412C92.6866 39.0981 91.052 39.0551 89.4166 39.0121C87.422 38.9594 85.4264 38.9076 83.4318 38.8549C81.2545 38.7978 79.0771 38.7407 76.8998 38.6836C74.6873 38.6256 72.474 38.5676 70.2615 38.5088C68.2124 38.4552 66.1633 38.4008 64.1142 38.3472C62.376 38.3015 60.6387 38.2558 58.9005 38.2102C57.6507 38.1777 56.4017 38.1443 55.1519 38.1118C54.5617 38.096 53.9706 38.074 53.3803 38.0653C53.3549 38.0653 53.3285 38.0635 53.303 38.0635C52.7497 38.0486 52.2078 38.4737 52.2201 38.9884C52.2324 39.5057 52.6601 39.9536 53.253 39.9694Z" fill="#DFEFF7"/>
<path d="M53.1098 45.4105C53.5191 45.421 53.9275 45.4316 54.3368 45.443C55.44 45.472 56.5423 45.5009 57.6454 45.5299C59.2808 45.573 60.9154 45.616 62.5508 45.659C64.5454 45.7117 66.541 45.7636 68.5356 45.8163C70.7129 45.8733 72.8903 45.9304 75.0676 45.9875C77.2801 46.0455 79.4934 46.1035 81.7059 46.1623C83.755 46.2159 85.8041 46.2703 87.8532 46.3239C89.5914 46.3696 91.3287 46.4153 93.0669 46.4609C94.3167 46.4934 95.5657 46.5268 96.8155 46.5593C97.4057 46.5751 97.9968 46.5971 98.5871 46.6059C98.6125 46.6059 98.6389 46.6076 98.6644 46.6076C99.2177 46.6225 99.7596 46.1974 99.7473 45.6827C99.735 45.1654 99.3073 44.7175 98.7144 44.7017C98.3051 44.6911 97.8967 44.6806 97.4874 44.6692C96.3843 44.6402 95.282 44.6112 94.1788 44.5822C92.5434 44.5392 90.9089 44.4961 89.2734 44.4531C87.2788 44.4004 85.2833 44.3486 83.2886 44.2959C81.1113 44.2388 78.9339 44.1817 76.7566 44.1246C74.5441 44.0667 72.3308 44.0087 70.1183 43.9498C68.0692 43.8963 66.0201 43.8418 63.971 43.7882C62.2328 43.7426 60.4955 43.6969 58.7574 43.6512C57.5075 43.6187 56.2586 43.5853 55.0087 43.5528C54.4185 43.537 53.8274 43.5151 53.2372 43.5063C53.2117 43.5063 53.1853 43.5045 53.1599 43.5045C52.6065 43.4896 52.0646 43.9147 52.0769 44.4294C52.0892 44.9467 52.5169 45.3947 53.1098 45.4105Z" fill="#DFEFF7"/>
<path d="M45.8216 33.3108C45.8339 32.7662 45.6143 32.2112 45.1936 31.8563C44.8388 31.5568 44.4242 31.3987 43.9587 31.3864C43.5204 31.375 43.0821 31.3636 42.6439 31.3522C41.8727 31.332 41.1007 31.3118 40.3295 31.2916C39.5557 31.2714 38.7819 31.2512 38.0072 31.231C37.5611 31.2195 37.1158 31.2072 36.6696 31.1958C36.2796 31.1853 35.88 31.2687 35.5541 31.4909C35.0403 31.8414 34.7197 32.3877 34.7013 33.0148C34.6899 33.3881 34.6819 33.7614 34.6723 34.1347C34.653 34.883 34.6328 35.6313 34.6134 36.3787C34.5924 37.1727 34.5713 37.9676 34.5511 38.7616C34.5379 39.264 34.5247 39.7655 34.5116 40.2679C34.5054 40.513 34.5116 40.7606 34.5888 40.996C34.833 41.7356 35.4707 42.2494 36.2506 42.31C36.5747 42.3355 36.905 42.3293 37.2299 42.3372C37.9528 42.3565 38.6756 42.375 39.3985 42.3943C40.2021 42.4154 41.0067 42.4365 41.8103 42.4575C42.3663 42.4725 42.9214 42.4865 43.4774 42.5015C43.5591 42.5032 43.6399 42.5059 43.7215 42.5076C44.079 42.5138 44.4549 42.4233 44.7553 42.2248C45.0952 41.9999 45.3385 41.7048 45.4975 41.3298C45.5994 41.0891 45.6248 40.8292 45.6319 40.5709C45.645 40.0756 45.6582 39.5811 45.6705 39.0857C45.6916 38.2961 45.7118 37.5074 45.7329 36.7178C45.7531 35.9633 45.7724 35.2088 45.7926 34.4544C45.8023 34.0732 45.8137 33.6911 45.8225 33.3099L45.8216 33.3108ZM44.5296 32.8163C44.5173 32.8005 44.5068 32.7865 44.5076 32.7865C44.5111 32.7865 44.5208 32.8023 44.5296 32.8163ZM36.1303 32.4869C36.1145 32.4992 36.1004 32.5098 36.1004 32.5089C36.1004 32.5054 36.1162 32.4957 36.1303 32.4869ZM35.8009 40.8862C35.8132 40.9021 35.8238 40.9161 35.8229 40.9161C35.8194 40.9161 35.8097 40.9003 35.8009 40.8862ZM44.2002 41.2156C44.216 41.2033 44.2301 41.1928 44.2301 41.1937C44.2301 41.1972 44.2143 41.2068 44.2002 41.2156ZM44.6517 33.9537C44.6359 34.5492 44.6201 35.1456 44.6051 35.7411C44.5858 36.4692 44.5665 37.1973 44.548 37.9255C44.5313 38.5526 44.5147 39.1806 44.4988 39.8077C44.4909 40.0931 44.4857 40.3786 44.476 40.664C44.4751 40.6965 44.4725 40.729 44.4699 40.7615C44.4558 40.823 44.4374 40.8827 44.4154 40.9416C44.3908 40.9881 44.3636 41.0329 44.3337 41.0768C44.3293 41.0839 44.3241 41.09 44.3188 41.097C44.2986 41.119 44.2784 41.141 44.2564 41.1612C44.2327 41.1831 44.209 41.2033 44.1844 41.2244C44.1818 41.2262 44.18 41.227 44.1791 41.227C44.1308 41.2578 44.0808 41.2841 44.0298 41.3078C43.9701 41.3272 43.9086 41.3421 43.8463 41.3526C43.8146 41.3544 43.7839 41.3544 43.7523 41.3544C43.5011 41.3474 43.2499 41.3412 42.9978 41.3342L41.1938 41.2868C40.4744 41.2674 39.7551 41.249 39.0357 41.2297C38.42 41.2139 37.8052 41.1972 37.1895 41.1814C36.9102 41.1743 36.6309 41.1691 36.3516 41.1594C36.3191 41.1585 36.2866 41.1559 36.2541 41.1533C36.1926 41.1392 36.1329 41.1208 36.0741 41.0988C36.0275 41.0742 35.9827 41.047 35.9388 41.0171C35.9318 41.0127 35.9256 41.0075 35.9186 41.0022C35.8967 40.982 35.8747 40.9618 35.8545 40.9398C35.8325 40.9161 35.8123 40.8924 35.7913 40.8678C35.7895 40.8652 35.7886 40.8634 35.7886 40.8625C35.7579 40.8142 35.7315 40.7642 35.7078 40.7132C35.6876 40.6517 35.6727 40.5885 35.6621 40.5244C35.6463 40.2679 35.6736 40.0018 35.6797 39.748C35.6955 39.1525 35.7113 38.5561 35.7263 37.9606C35.7456 37.2325 35.7649 36.5043 35.7834 35.7762L35.8325 33.894C35.8404 33.6085 35.8457 33.3231 35.8554 33.0376C35.8563 33.0051 35.8589 32.9727 35.8615 32.9402C35.8756 32.8787 35.894 32.8189 35.916 32.7601C35.9406 32.7135 35.9678 32.6688 35.9977 32.6248C36.0021 32.6178 36.0073 32.6117 36.0126 32.6046C36.0328 32.5827 36.053 32.5616 36.075 32.5405C36.0987 32.5186 36.1224 32.4984 36.147 32.4773C36.1496 32.4755 36.1514 32.4746 36.1522 32.4746C36.2006 32.4439 36.2506 32.4176 36.3016 32.3938C36.363 32.3736 36.4263 32.3587 36.4904 32.3482C36.7469 32.3324 37.013 32.3596 37.2668 32.3657C37.8623 32.3815 38.4587 32.3974 39.0542 32.4123C39.7823 32.4316 40.5104 32.4509 41.2386 32.4694C41.8657 32.4861 42.4937 32.5028 43.1208 32.5186C43.4062 32.5265 43.6917 32.5317 43.9771 32.5414C44.0096 32.5423 44.0421 32.5449 44.0746 32.5475C44.1361 32.5616 44.1958 32.58 44.2547 32.602C44.3012 32.6266 44.346 32.6538 44.3899 32.6837C44.397 32.6881 44.4031 32.6933 44.4101 32.6986C44.4321 32.7188 44.4541 32.739 44.4743 32.761C44.4962 32.7847 44.5164 32.8084 44.5375 32.833C44.5392 32.8356 44.5401 32.8374 44.5401 32.8383C44.5709 32.8866 44.5972 32.9366 44.6209 32.9876C44.6411 33.0491 44.6561 33.1123 44.6666 33.1764C44.6824 33.4329 44.6552 33.699 44.649 33.9528L44.6517 33.9537Z" fill="#DFEFF7"/>
<path d="M43.4598 35.0332C43.6416 35.1852 43.653 35.461 43.4835 35.627L40.441 38.6194L39.3493 39.6927L38.1855 38.7722L36.9032 37.7578C36.7179 37.6111 36.6985 37.3379 36.861 37.1667L37.5531 36.4359C37.706 36.2752 37.9598 36.2681 38.1205 36.421L39.2316 37.7701L41.82 34.1988C41.9605 34.0223 42.2187 33.996 42.3918 34.1409L43.4598 35.0341V35.0332Z" fill="#FDA228"/>
<path d="M52.7681 58.42C53.0466 58.427 53.3259 58.4349 53.6043 58.442C54.3623 58.4622 55.1211 58.4815 55.8791 58.5017C57.0007 58.5315 58.1232 58.5605 59.2448 58.5904C60.6141 58.6264 61.9825 58.6624 63.3518 58.6984C64.859 58.738 66.3662 58.7775 67.8734 58.817C69.3876 58.8565 70.9018 58.8969 72.416 58.9365C73.8274 58.9733 75.2398 59.0102 76.6512 59.048C77.8448 59.0796 79.0376 59.1104 80.2312 59.142C81.0893 59.1648 81.9474 59.1868 82.8064 59.2096C83.2131 59.2201 83.6206 59.236 84.0273 59.2421C84.0449 59.2421 84.0624 59.243 84.08 59.2439C84.91 59.2658 85.7224 58.629 85.704 57.8561C85.6855 57.0806 85.0444 56.4087 84.1546 56.385C83.8762 56.3779 83.5969 56.37 83.3185 56.363C82.5605 56.3428 81.8016 56.3235 81.0437 56.3033C79.9221 56.2734 78.7996 56.2444 77.678 56.2146C76.3087 56.1786 74.9403 56.1425 73.571 56.1065C72.0638 56.067 70.5566 56.0275 69.0494 55.988C67.5352 55.9484 66.021 55.908 64.5068 55.8685C63.0953 55.8316 61.683 55.7947 60.2716 55.757C59.0779 55.7253 57.8852 55.6946 56.6916 55.663C55.8334 55.6401 54.9753 55.6182 54.1164 55.5954C53.7097 55.5848 53.3022 55.569 52.8955 55.5629C52.8779 55.5629 52.8604 55.562 52.8428 55.5611C52.0128 55.5391 51.2004 56.1759 51.2188 56.9488C51.2372 57.7244 51.8784 58.3963 52.7681 58.42Z" fill="#8ACADF"/>
<path d="M52.3518 74.2683C52.6628 74.2762 52.9737 74.2849 53.2855 74.2929C54.1322 74.3148 54.9789 74.3376 55.8256 74.3596C57.078 74.3921 58.3296 74.4255 59.5821 74.458C61.1095 74.4984 62.6377 74.5379 64.1651 74.5783C65.8383 74.6222 67.5115 74.6661 69.1856 74.7101C70.8746 74.7548 72.5636 74.7988 74.2525 74.8436C75.8274 74.8848 77.4022 74.9261 78.977 74.9674C80.3076 75.0025 81.6383 75.0377 82.9689 75.0719C83.9254 75.0974 84.8819 75.122 85.8384 75.1475C86.2898 75.1597 86.7413 75.1782 87.1927 75.1835C87.2129 75.1835 87.2323 75.1843 87.2525 75.1852C87.8058 75.2001 88.3477 74.775 88.3354 74.2604C88.3231 73.743 87.8954 73.2951 87.3025 73.2793C86.9916 73.2714 86.6807 73.2626 86.3689 73.2547C85.5222 73.2327 84.6755 73.2099 83.8288 73.1879C82.5763 73.1554 81.3247 73.1221 80.0722 73.0896C78.5449 73.0492 77.0166 73.0096 75.4892 72.9692C73.816 72.9253 72.1428 72.8814 70.4688 72.8375C68.7798 72.7927 67.0908 72.7488 65.4018 72.704C63.827 72.6627 62.2522 72.6214 60.6773 72.5801C59.3467 72.545 58.0161 72.5099 56.6854 72.4756C55.7289 72.4502 54.7725 72.4256 53.816 72.4001C53.3645 72.3878 52.9131 72.3693 52.4616 72.3641C52.4414 72.3641 52.4221 72.3632 52.4019 72.3623C51.8486 72.3474 51.3066 72.7725 51.3189 73.2872C51.3312 73.8045 51.759 74.2524 52.3518 74.2683Z" fill="#DFEFF7"/>
<path d="M52.495 68.8262C52.8823 68.8368 53.2697 68.8464 53.657 68.857C54.7013 68.8842 55.7456 68.9114 56.7899 68.9395C58.3445 68.9808 59.8992 69.0212 61.4538 69.0625C63.3369 69.1117 65.2208 69.1618 67.104 69.2109C69.1741 69.2654 71.2434 69.3199 73.3136 69.3743C75.4031 69.4288 77.4926 69.4841 79.5821 69.5394L85.4273 69.6931C87.0741 69.7362 88.721 69.7801 90.3669 69.8231C91.5509 69.8539 92.7357 69.8855 93.9197 69.9162C94.481 69.9312 95.0422 69.9522 95.6026 69.9601C95.6263 69.9601 95.6509 69.961 95.6746 69.9619C96.2279 69.9768 96.7698 69.5517 96.7575 69.037C96.7452 68.5197 96.3175 68.0718 95.7246 68.056C95.3373 68.0454 94.95 68.0358 94.5626 68.0252C93.5183 67.998 92.474 67.9708 91.4297 67.9427C89.8751 67.9014 88.3205 67.861 86.7659 67.8197C84.8828 67.7705 82.9988 67.7204 81.1157 67.6713C79.0455 67.6168 76.9762 67.5624 74.906 67.5079C72.8165 67.4534 70.727 67.3981 68.6375 67.3428C66.6894 67.2918 64.7404 67.24 62.7923 67.1891C61.1455 67.146 59.4986 67.1021 57.8527 67.0591C56.6687 67.0283 55.4839 66.9967 54.2999 66.966C53.7387 66.951 53.1774 66.93 52.6171 66.9221C52.5933 66.9221 52.5688 66.9212 52.545 66.9203C51.9917 66.9054 51.4498 67.3305 51.4621 67.8452C51.4744 68.3625 51.9021 68.8104 52.495 68.8262Z" fill="#DFEFF7"/>
<path d="M52.6382 63.3851C53.0255 63.3956 53.4128 63.4053 53.8002 63.4158C54.8445 63.443 55.8888 63.4703 56.9331 63.4984C58.4877 63.5397 60.0423 63.5801 61.5969 63.6213C63.48 63.6705 65.364 63.7206 67.2471 63.7698C69.3173 63.8242 71.3866 63.8787 73.4568 63.9331C75.5463 63.9876 77.6358 64.0429 79.7253 64.0983C81.6734 64.1492 83.6224 64.201 85.5705 64.252C87.2173 64.295 88.8642 64.3389 90.5101 64.382C91.6941 64.4127 92.8789 64.4443 94.0629 64.4751C94.6241 64.49 95.1854 64.5111 95.7457 64.519C95.7695 64.519 95.794 64.5199 95.8178 64.5207C96.3711 64.5357 96.913 64.1106 96.9007 63.5959C96.8884 63.0785 96.4607 62.6306 95.8678 62.6148C95.4805 62.6043 95.0932 62.5946 94.7058 62.5841C93.6615 62.5568 92.6172 62.5296 91.5729 62.5015C90.0183 62.4602 88.4637 62.4198 86.909 62.3785C85.0251 62.3293 83.142 62.2793 81.2589 62.2301C79.1887 62.1756 77.1194 62.1212 75.0492 62.0667C72.9597 62.0123 70.8702 61.9569 68.7807 61.9016C66.8326 61.8507 64.8836 61.7988 62.9355 61.7479C61.2887 61.7049 59.6418 61.661 57.9959 61.6179C56.8119 61.5872 55.6271 61.5556 54.4431 61.5248C53.8818 61.5099 53.3206 61.4888 52.7602 61.4809C52.7365 61.4809 52.7119 61.48 52.6882 61.4791C52.1349 61.4642 51.593 61.8893 51.6053 62.404C51.6176 62.9213 52.0453 63.3693 52.6382 63.3851Z" fill="#DFEFF7"/>
<path d="M45.2068 56.7267C45.2191 56.1821 44.9995 55.627 44.5788 55.2722C44.2239 54.9727 43.8094 54.8146 43.3439 54.8023C42.9056 54.7909 42.4673 54.7795 42.029 54.7681C41.2579 54.7479 40.4858 54.7277 39.7147 54.7075C38.9409 54.6873 38.1671 54.6671 37.3924 54.6469C36.9462 54.6354 36.5009 54.6231 36.0547 54.6117C35.6648 54.6012 35.2651 54.6846 34.9393 54.9068C34.4255 55.2573 34.1049 55.8036 34.0864 56.4307C34.075 56.804 34.0671 57.1773 34.0575 57.5506C34.0381 58.2989 34.0179 59.0472 33.9986 59.7946C33.9775 60.5886 33.9565 61.3835 33.9363 62.1775C33.9231 62.6799 33.9099 63.1814 33.8967 63.6838C33.8906 63.9289 33.8967 64.1765 33.974 64.4119C34.2182 65.1515 34.8558 65.6653 35.6358 65.7259C35.9599 65.7514 36.2901 65.7452 36.6151 65.7531C37.338 65.7724 38.0608 65.7909 38.7837 65.8102C39.5873 65.8313 40.3918 65.8524 41.1955 65.8734C41.7515 65.8884 42.3066 65.9024 42.8625 65.9174C42.9442 65.9191 43.025 65.9217 43.1067 65.9235C43.4642 65.9297 43.8401 65.8392 44.1405 65.6407C44.4804 65.4158 44.7237 65.1207 44.8827 64.7457C44.9845 64.505 45.01 64.245 45.017 63.9868C45.0302 63.4915 45.0434 62.997 45.0557 62.5016C45.0768 61.712 45.097 60.9233 45.118 60.1337L45.1778 57.8703C45.1874 57.4891 45.1988 57.107 45.2076 56.7258L45.2068 56.7267ZM43.9148 56.2322C43.9025 56.2164 43.8919 56.2023 43.8928 56.2023C43.8963 56.2023 43.906 56.2182 43.9148 56.2322ZM35.5155 55.9028C35.4996 55.9151 35.4856 55.9257 35.4856 55.9248C35.4856 55.9213 35.5014 55.9116 35.5155 55.9028ZM35.1861 64.3021C35.1984 64.318 35.2089 64.332 35.208 64.332C35.2045 64.332 35.1949 64.3162 35.1861 64.3021ZM43.5854 64.6315C43.6012 64.6192 43.6153 64.6087 43.6153 64.6095C43.6153 64.6131 43.5994 64.6227 43.5854 64.6315ZM44.0368 57.3696C44.021 57.9651 44.0052 58.5615 43.9903 59.157C43.971 59.8851 43.9516 60.6132 43.9332 61.3413C43.9165 61.9685 43.8998 62.5965 43.884 63.2236C43.8761 63.509 43.8708 63.7945 43.8612 64.0799C43.8603 64.1124 43.8577 64.1449 43.855 64.1774C43.841 64.2389 43.8225 64.2986 43.8006 64.3575C43.776 64.404 43.7488 64.4488 43.7189 64.4927C43.7145 64.4998 43.7092 64.5059 43.704 64.5129C43.6838 64.5349 43.6636 64.5569 43.6416 64.5771C43.6179 64.599 43.5942 64.6192 43.5696 64.6403C43.5669 64.642 43.5652 64.6429 43.5643 64.6429C43.516 64.6737 43.4659 64.7 43.415 64.7237C43.3553 64.7431 43.2938 64.758 43.2314 64.7685C43.1998 64.7703 43.1691 64.7703 43.1375 64.7703C42.8863 64.7633 42.6351 64.7571 42.383 64.7501C41.7813 64.7343 41.1806 64.7185 40.5789 64.7027C39.8596 64.6833 39.1403 64.6649 38.4209 64.6456C37.8052 64.6297 37.1904 64.6131 36.5747 64.5973C36.2954 64.5902 36.0161 64.585 35.7368 64.5753C35.7043 64.5744 35.6718 64.5718 35.6393 64.5691C35.5778 64.5551 35.5181 64.5366 35.4592 64.5147C35.4127 64.4901 35.3679 64.4629 35.324 64.433C35.317 64.4286 35.3108 64.4233 35.3038 64.4181C35.2818 64.3979 35.2599 64.3777 35.2397 64.3557C35.2177 64.332 35.1975 64.3074 35.1764 64.2837C35.1747 64.2811 35.1738 64.2793 35.1738 64.2784C35.1431 64.2301 35.1167 64.1801 35.093 64.1291C35.0728 64.0676 35.0579 64.0044 35.0473 63.9403C35.0315 63.6838 35.0587 63.4177 35.0649 63.1638C35.0807 62.5683 35.0965 61.972 35.1114 61.3765C35.1308 60.6484 35.1501 59.9202 35.1685 59.1921L35.2177 57.309C35.2256 57.0236 35.2309 56.7381 35.2405 56.4527C35.2414 56.4202 35.2441 56.3877 35.2467 56.3552C35.2607 56.2937 35.2792 56.234 35.3011 56.1751C35.3257 56.1286 35.353 56.0838 35.3828 56.0399C35.3872 56.0328 35.3925 56.0267 35.3978 56.0197C35.418 55.9977 35.4382 55.9757 35.4601 55.9555C35.4838 55.9336 35.5076 55.9134 35.5321 55.8923C35.5348 55.8905 35.5365 55.8897 35.5374 55.8897C35.5857 55.8589 35.6358 55.8326 35.6867 55.8089C35.7482 55.7887 35.8114 55.7737 35.8756 55.7632C36.132 55.7474 36.3982 55.7746 36.652 55.7808C37.2475 55.7966 37.8439 55.8124 38.4394 55.8273C39.1675 55.8466 39.8956 55.8659 40.6237 55.8844L42.5059 55.9336C42.7914 55.9415 43.0768 55.9468 43.3623 55.9564C43.3948 55.9573 43.4273 55.9599 43.4598 55.9626C43.5213 55.9766 43.581 55.9951 43.6398 56.017C43.6864 56.0416 43.7312 56.0688 43.7751 56.0987C43.7821 56.1031 43.7883 56.1084 43.7953 56.1136C43.8173 56.1338 43.8392 56.154 43.8594 56.176C43.8814 56.1997 43.9016 56.2243 43.9227 56.248C43.9244 56.2506 43.9253 56.2524 43.9253 56.2533C43.956 56.3016 43.9824 56.3517 44.0061 56.4026C44.0263 56.4641 44.0412 56.5273 44.0518 56.5914C44.0676 56.8479 44.0404 57.114 44.0342 57.3679L44.0368 57.3696Z" fill="#DFEFF7"/>
<path d="M42.845 58.4455C43.0268 58.5974 43.0382 58.8732 42.8687 59.0392L39.8262 62.0316L38.7345 63.1049L37.5698 62.1844L36.2875 61.17C36.1022 61.0233 36.0828 60.7502 36.2453 60.5789L36.9374 59.8481C37.0903 59.6874 37.3441 59.6804 37.5048 59.8332L38.6159 61.1823L41.2043 57.6111C41.3448 57.4345 41.603 57.4082 41.7761 57.5531L42.8441 58.4464L42.845 58.4455Z" fill="#FDA228"/>
<path d="M52.0102 87.2779C52.2886 87.2849 52.5679 87.2928 52.8463 87.2999C53.6043 87.3201 54.3632 87.3394 55.1211 87.3596C56.2427 87.3895 57.3652 87.4184 58.4868 87.4483C59.8561 87.4843 61.2245 87.5203 62.5938 87.5563C64.101 87.5959 65.6082 87.6354 67.1154 87.6749C68.6296 87.7144 70.1438 87.7548 71.658 87.7944C73.0695 87.8313 74.4818 87.8681 75.8932 87.9059C77.0869 87.9375 78.2796 87.9683 79.4732 87.9999C80.3313 88.0227 81.1895 88.0447 82.0484 88.0675C82.4551 88.0781 82.8626 88.0939 83.2693 88.1C83.2869 88.1 83.3044 88.1009 83.322 88.1018C84.152 88.1237 84.9644 87.487 84.946 86.714C84.9276 85.9385 84.2864 85.2666 83.3967 85.2429C83.1182 85.2358 82.8389 85.2279 82.5605 85.2209C81.8025 85.2007 81.0437 85.1814 80.2857 85.1612C79.1641 85.1313 78.0416 85.1023 76.92 85.0725C75.5507 85.0365 74.1823 85.0005 72.813 84.9644C71.3058 84.9249 69.7986 84.8854 68.2914 84.8459C66.7772 84.8063 65.263 84.7659 63.7488 84.7264C62.3374 84.6895 60.925 84.6526 59.5136 84.6149C58.32 84.5833 57.1272 84.5525 55.9336 84.5209C55.0755 84.4981 54.2174 84.4761 53.3584 84.4533C52.9517 84.4427 52.5442 84.4269 52.1375 84.4208C52.12 84.4208 52.1024 84.4199 52.0848 84.419C51.2548 84.3971 50.4424 85.0338 50.4608 85.8067C50.4793 86.5823 51.1204 87.2542 52.0102 87.2779Z" fill="#8ACADF"/>
<path d="M51.8793 92.243C52.2886 92.2535 52.697 92.2641 53.1063 92.2755C54.2095 92.3045 55.3117 92.3335 56.4149 92.3624C58.0503 92.4055 59.6849 92.4485 61.3203 92.4916C63.3149 92.5443 65.3105 92.5961 67.3051 92.6488C69.4824 92.7059 71.6598 92.763 73.8371 92.82C76.0496 92.878 78.2629 92.936 80.4754 92.9948C82.5245 93.0484 84.5736 93.1029 86.6227 93.1564C88.3609 93.2021 90.0982 93.2478 91.8364 93.2935C93.0862 93.326 94.3352 93.3593 95.585 93.3918C96.1752 93.4076 96.7663 93.4296 97.3566 93.4384C97.382 93.4384 97.4084 93.4401 97.4339 93.4401C97.9872 93.4551 98.5291 93.03 98.5168 92.5153C98.5045 91.9979 98.0768 91.55 97.4839 91.5342C97.0746 91.5237 96.6662 91.5131 96.2569 91.5017C95.1538 91.4727 94.0515 91.4437 92.9483 91.4147C91.3129 91.3717 89.6784 91.3287 88.0429 91.2856C86.0483 91.2329 84.0528 91.1811 82.0581 91.1284C79.8808 91.0713 77.7034 91.0142 75.5261 90.9571C73.3136 90.8992 71.1003 90.8412 68.8878 90.7824C66.8387 90.7288 64.7896 90.6743 62.7405 90.6207C61.0023 90.5751 59.265 90.5294 57.5268 90.4837C56.277 90.4512 55.028 90.4179 53.7782 90.3854C53.188 90.3695 52.5969 90.3476 52.0067 90.3388C51.9812 90.3388 51.9548 90.3371 51.9294 90.3371C51.376 90.3221 50.8341 90.7472 50.8464 91.2619C50.8587 91.7792 51.2864 92.2272 51.8793 92.243Z" fill="#DFEFF7"/>
<path d="M51.737 97.6849C52.1463 97.6954 52.5547 97.706 52.964 97.7174C54.0672 97.7464 55.1695 97.7754 56.2726 97.8043C57.908 97.8474 59.5426 97.8904 61.178 97.9334C63.1726 97.9861 65.1682 98.038 67.1628 98.0907C69.3401 98.1478 71.5175 98.2048 73.6948 98.2619C75.9073 98.3199 78.1206 98.3779 80.3331 98.4367C82.3822 98.4903 84.4313 98.5448 86.4804 98.5983C88.2186 98.644 89.9559 98.6897 91.6941 98.7353C92.9439 98.7678 94.1929 98.8012 95.4427 98.8337C96.0329 98.8495 96.624 98.8715 97.2143 98.8803C97.2397 98.8803 97.2661 98.882 97.2916 98.882C97.8449 98.897 98.3868 98.4719 98.3745 97.9572C98.3622 97.4398 97.9345 96.9919 97.3416 96.9761C96.9323 96.9655 96.5239 96.955 96.1146 96.9436C95.0115 96.9146 93.9092 96.8856 92.806 96.8566C91.1706 96.8136 89.5361 96.7706 87.9006 96.7275C85.906 96.6748 83.9105 96.623 81.9158 96.5703C79.7385 96.5132 77.5611 96.4561 75.3838 96.399C73.1713 96.3411 70.958 96.2831 68.7455 96.2243C66.6964 96.1707 64.6473 96.1162 62.5982 96.0627C60.86 96.017 59.1227 95.9713 57.3846 95.9256C56.1347 95.8931 54.8858 95.8598 53.6359 95.8273C53.0457 95.8114 52.4546 95.7895 51.8644 95.7807C51.8389 95.7807 51.8125 95.7789 51.7871 95.7789C51.2337 95.764 50.6918 96.1891 50.7041 96.7038C50.7164 97.2211 51.1441 97.6691 51.737 97.6849Z" fill="#DFEFF7"/>
<path d="M44.4488 85.5845C44.4611 85.0399 44.2415 84.4848 43.8208 84.13C43.4659 83.8305 43.0514 83.6724 42.5859 83.6601C42.1476 83.6487 41.7093 83.6373 41.271 83.6258C40.4999 83.6056 39.7278 83.5854 38.9567 83.5652C38.1829 83.545 37.4091 83.5248 36.6344 83.5046C36.1882 83.4932 35.7429 83.4809 35.2968 83.4695C34.9068 83.459 34.5072 83.5424 34.1813 83.7646C33.6675 84.1151 33.3469 84.6614 33.3285 85.2885C33.317 85.6618 33.3091 86.0351 33.2995 86.4083C33.2802 87.1567 33.26 87.905 33.2406 88.6524C33.2196 89.4464 33.1985 90.2413 33.1783 91.0353C33.1651 91.5377 33.1519 92.0392 33.1387 92.5416C33.1326 92.7866 33.1387 93.0343 33.216 93.2697C33.4602 94.0093 34.0979 94.5231 34.8778 94.5837C35.2019 94.6091 35.5321 94.603 35.8571 94.6109C36.58 94.6302 37.3028 94.6487 38.0257 94.668C38.8293 94.6891 39.6339 94.7102 40.4375 94.7312C40.9935 94.7462 41.5486 94.7602 42.1046 94.7751L42.3487 94.7813C42.7062 94.7874 43.0821 94.697 43.3825 94.4985C43.7224 94.2736 43.9657 93.9785 44.1247 93.6035C44.2266 93.3628 44.252 93.1028 44.2591 92.8446C44.2722 92.3492 44.2854 91.8548 44.2977 91.3594C44.3188 90.5698 44.339 89.7811 44.3601 88.9915C44.3803 88.237 44.3996 87.4825 44.4198 86.728C44.4295 86.3469 44.4409 85.9648 44.4497 85.5836L44.4488 85.5845ZM43.1568 85.09C43.1445 85.0742 43.1339 85.0601 43.1348 85.0601C43.1383 85.0601 43.148 85.0759 43.1568 85.09ZM34.7575 84.7606C34.7417 84.7729 34.7276 84.7835 34.7276 84.7826C34.7276 84.7791 34.7434 84.7694 34.7575 84.7606ZM34.4281 93.1599C34.4404 93.1757 34.4509 93.1898 34.4501 93.1898C34.4466 93.1898 34.4369 93.174 34.4281 93.1599ZM42.8274 93.4893C42.8432 93.477 42.8573 93.4665 42.8573 93.4673C42.8573 93.4709 42.8415 93.4805 42.8274 93.4893ZM43.2789 86.2274C43.2631 86.8229 43.2472 87.4193 43.2323 88.0148C43.213 88.7429 43.1937 89.471 43.1752 90.1991C43.1585 90.8271 43.1418 91.4542 43.126 92.0814C43.1181 92.3668 43.1129 92.6523 43.1032 92.9377C43.1023 92.9702 43.0997 93.0027 43.0971 93.0352C43.083 93.0967 43.0646 93.1564 43.0426 93.2153C43.018 93.2618 42.9908 93.3066 42.9609 93.3505C42.9565 93.3576 42.9513 93.3637 42.946 93.3707C42.9258 93.3927 42.9056 93.4146 42.8836 93.4348C42.8599 93.4568 42.8362 93.477 42.8116 93.4981C42.809 93.4998 42.8072 93.5007 42.8063 93.5007C42.758 93.5315 42.708 93.5578 42.657 93.5815C42.5973 93.6008 42.5358 93.6158 42.4734 93.6263C42.4418 93.6281 42.4111 93.6281 42.3795 93.6281C42.1283 93.621 41.8771 93.6149 41.625 93.6079C41.0234 93.5921 40.4226 93.5762 39.8209 93.5604C39.1016 93.5411 38.3823 93.5227 37.6629 93.5034C37.0472 93.4875 36.4324 93.4708 35.8167 93.455C35.5374 93.448 35.2581 93.4427 34.9788 93.4331C34.9463 93.4322 34.9138 93.4296 34.8813 93.4269C34.8198 93.4129 34.7601 93.3944 34.7013 93.3725C34.6547 93.3479 34.6099 93.3207 34.566 93.2908C34.559 93.2864 34.5528 93.2811 34.5458 93.2759C34.5238 93.2557 34.5019 93.2355 34.4817 93.2135C34.4597 93.1898 34.4395 93.1652 34.4184 93.1415C34.4167 93.1389 34.4158 93.1371 34.4158 93.1362C34.3851 93.0879 34.3587 93.0378 34.335 92.9869C34.3148 92.9254 34.2999 92.8622 34.2893 92.7981C34.2735 92.5416 34.3008 92.2755 34.3069 92.0216C34.3227 91.4261 34.3385 90.8298 34.3535 90.2343C34.3728 89.5061 34.3921 88.778 34.4105 88.0499C34.4272 87.4219 34.4439 86.7948 34.4597 86.1668C34.4676 85.8814 34.4729 85.5959 34.4826 85.3105C34.4834 85.278 34.4861 85.2455 34.4887 85.213C34.5028 85.1515 34.5212 85.0917 34.5432 85.0329C34.5678 84.9864 34.595 84.9416 34.6249 84.8976C34.6292 84.8906 34.6345 84.8845 34.6398 84.8774C34.66 84.8555 34.6802 84.8335 34.7021 84.8133C34.7259 84.7914 34.7496 84.7712 34.7742 84.7501C34.7768 84.7483 34.7786 84.7475 34.7794 84.7475C34.8277 84.7167 34.8778 84.6904 34.9287 84.6666C34.9902 84.6464 35.0535 84.6315 35.1176 84.621C35.3741 84.6052 35.6402 84.6324 35.894 84.6385C36.4895 84.6543 37.0859 84.6702 37.6814 84.6851C38.4095 84.7044 39.1376 84.7237 39.8657 84.7422C40.4929 84.7589 41.1208 84.7756 41.748 84.7914C42.0334 84.7993 42.3189 84.8045 42.6043 84.8142C42.6368 84.8151 42.6693 84.8177 42.7018 84.8204C42.7633 84.8344 42.823 84.8528 42.8819 84.8748C42.9284 84.8994 42.9732 84.9266 43.0171 84.9565C43.0242 84.9609 43.0303 84.9662 43.0373 84.9714C43.0593 84.9916 43.0812 85.0118 43.1014 85.0338C43.1234 85.0575 43.1436 85.0821 43.1647 85.1058C43.1664 85.1084 43.1673 85.1102 43.1673 85.1111C43.1981 85.1594 43.2244 85.2094 43.2481 85.2604C43.2683 85.3219 43.2833 85.3851 43.2938 85.4492C43.3096 85.7057 43.2824 85.9718 43.2762 86.2257L43.2789 86.2274Z" fill="#DFEFF7"/>
<path d="M42.0861 87.3069C42.2679 87.4589 42.2793 87.7347 42.1098 87.9007L39.0674 90.8931L37.9756 91.9664L36.8118 91.0459L35.5295 90.0314C35.3442 89.8848 35.3249 89.6116 35.4874 89.4403L36.1795 88.7096C36.3323 88.5489 36.5861 88.5418 36.7469 88.6947L37.8579 90.0437L40.4463 86.4725C40.5868 86.296 40.8451 86.2696 41.0181 86.4146L42.0861 87.3078V87.3069Z" fill="#FDA228"/>
<path d="M87.5195 106.226C84.8898 106.156 82.7019 108.233 82.6334 110.862C82.564 113.492 84.6404 115.68 87.27 115.748C89.8997 115.818 92.0876 113.741 92.1561 111.112C92.2255 108.482 90.1491 106.294 87.5195 106.226ZM87.3271 113.563C85.9043 113.525 84.7818 112.342 84.8187 110.919C84.8564 109.497 86.0395 108.374 87.4624 108.411C88.8853 108.449 90.0077 109.632 89.9708 111.055C89.9331 112.478 88.75 113.6 87.3271 113.563Z" fill="#75BED5"/>
<path d="M87.4913 107.285C89.5211 107.354 91.1328 109.054 91.0959 111.085C91.0942 111.17 91.2277 111.174 91.2294 111.088C91.2672 108.985 89.5966 107.224 87.4948 107.152C87.4088 107.15 87.4053 107.282 87.4913 107.286V107.285Z" fill="white"/>
<path d="M87.2972 114.689C85.2674 114.62 83.6557 112.92 83.6926 110.89C83.6944 110.804 83.5609 110.8 83.5591 110.886C83.5205 112.989 85.1919 114.75 87.2937 114.822C87.3798 114.824 87.3833 114.692 87.2972 114.688V114.689Z" fill="white"/>
<path d="M81.9123 110.843C81.9624 109.25 82.6931 107.753 83.9245 106.739C85.1999 105.69 86.9433 105.27 88.5568 105.626C89.5932 105.854 90.5356 106.374 91.2866 107.123C91.529 107.366 91.9163 106.999 91.673 106.757C90.2449 105.332 88.1844 104.694 86.202 105.089C84.5192 105.425 83.0216 106.51 82.1714 108C81.6787 108.863 81.4117 109.836 81.3801 110.83C81.3695 111.172 81.9018 111.186 81.9123 110.844V110.843Z" fill="#17427D"/>
<path d="M92.8763 111.131C92.8271 112.694 92.1236 114.166 90.9308 115.178C89.7038 116.22 88.0297 116.671 86.4453 116.39C85.4247 116.21 84.4726 115.74 83.7049 115.045C83.452 114.816 83.0638 115.181 83.3185 115.411C84.78 116.734 86.8054 117.291 88.7341 116.853C90.3766 116.481 91.8267 115.394 92.647 113.923C93.1213 113.072 93.3787 112.118 93.4094 111.144C93.4199 110.802 92.8877 110.788 92.8772 111.13L92.8763 111.131Z" fill="#17427D"/>
</g>
</g>
<defs>
<clipPath id="clip0_2184_8660">
<rect y="0.921143" width="140" height="143.307" rx="6.46154" fill="white"/>
</clipPath>
<clipPath id="clip1_2184_8660">
<rect width="117" height="139.819" fill="white" transform="translate(11 2.69287)"/>
</clipPath>
</defs>
</svg>
