<svg width="52" height="52" viewBox="0 0 52 52" fill="none" xmlns="http://www.w3.org/2000/svg">
<g clip-path="url(#clip0_1554_130349)">
<rect width="51.6055" height="51.6055" rx="10.3211" fill="#4390C8"/>
<g clip-path="url(#clip1_1554_130349)">
<path d="M52.4516 0H25.3826V40.3379H52.4516V0Z" fill="#FFFBE9"/>
<path d="M49.3028 3.4027H28.5305V36.9352H49.3028V3.4027Z" stroke="#F2DDAA" stroke-width="0.297126" stroke-linecap="round" stroke-linejoin="round"/>
<path d="M45.7418 37.5355L42.5243 42.7861L44.4312 42.4279L45.1394 43.9156L48.0374 38.5327L45.7418 37.5355Z" fill="#DD2C35"/>
<g style="mix-blend-mode:multiply" opacity="0.5">
<path d="M45.7413 37.5355L44.9802 38.7769L45.2916 39.363C45.4462 39.652 45.8003 39.768 46.0954 39.6235L46.708 39.3244C46.8769 39.243 47.0743 39.243 47.2412 39.3244L47.5343 39.4668L48.0369 38.5327L45.7413 37.5355Z" fill="#DD2C35"/>
</g>
<path d="M48.2078 37.5355L51.4254 42.7861L49.5185 42.4279L48.8102 43.9156L45.9102 38.5327L48.2078 37.5355Z" fill="#FF5052"/>
<g style="mix-blend-mode:multiply" opacity="0.5">
<path d="M48.2079 37.5355L45.9123 38.5327L46.415 39.4668L46.708 39.3244C46.877 39.243 47.0744 39.243 47.2412 39.3244L47.8538 39.6235C48.1489 39.768 48.505 39.652 48.6577 39.363L48.969 38.7769L48.2079 37.5355Z" fill="#DD2C35"/>
</g>
<path d="M47.2088 32.2362L47.7461 31.9736C48.0046 31.8475 48.318 31.9492 48.4523 32.2036L48.7331 32.7327C48.8105 32.8772 48.9509 32.979 49.1117 33.0075L49.6998 33.1113C49.9827 33.1601 50.176 33.4267 50.1353 33.7116L50.0519 34.3038C50.0295 34.4667 50.0824 34.6315 50.1964 34.7495L50.6115 35.1789C50.811 35.3865 50.811 35.7142 50.6115 35.9218L50.1964 36.3512C50.0824 36.4692 50.0275 36.634 50.0519 36.7969L50.1353 37.3891C50.176 37.674 49.9827 37.9406 49.6998 37.9894L49.1117 38.0932C48.9488 38.1217 48.8105 38.2235 48.7331 38.368L48.4523 38.8971C48.318 39.1515 48.0046 39.2532 47.7461 39.1271L47.2088 38.8645C47.0603 38.7913 46.8873 38.7913 46.7407 38.8645L46.2035 39.1271C45.945 39.2532 45.6316 39.1515 45.4973 38.8971L45.2165 38.368C45.1391 38.2235 44.9987 38.1217 44.8379 38.0932L44.2498 37.9894C43.9669 37.9406 43.7736 37.674 43.8143 37.3891L43.8977 36.7969C43.9201 36.634 43.8672 36.4692 43.7532 36.3512L43.338 35.9218C43.1386 35.7142 43.1386 35.3865 43.338 35.1789L43.7532 34.7495C43.8672 34.6315 43.9221 34.4667 43.8977 34.3038L43.8143 33.7116C43.7736 33.4267 43.9669 33.1601 44.2498 33.1113L44.8379 33.0075C45.0007 32.979 45.1391 32.8772 45.2165 32.7327L45.4973 32.2036C45.6316 31.9492 45.945 31.8475 46.2035 31.9736L46.7407 32.2362C46.8893 32.3094 47.0623 32.3094 47.2088 32.2362Z" fill="#FF5052"/>
<path d="M47.1178 33.5284L47.4454 33.3676C47.6021 33.2902 47.7934 33.3533 47.8748 33.508L48.0458 33.8295C48.0926 33.9191 48.1781 33.9801 48.2778 33.9985L48.636 34.0615C48.8089 34.0921 48.927 34.2528 48.9026 34.4279L48.8517 34.7881C48.8374 34.8878 48.87 34.9875 48.9392 35.0608L49.1936 35.3233C49.3157 35.4495 49.3157 35.6489 49.1936 35.7751L48.9392 36.0376C48.87 36.1089 48.8374 36.2106 48.8517 36.3103L48.9026 36.6706C48.927 36.8435 48.8089 37.0064 48.636 37.0369L48.2778 37.1C48.1781 37.1183 48.0946 37.1793 48.0458 37.2689L47.8748 37.5904C47.7934 37.7451 47.6021 37.8082 47.4454 37.7309L47.1178 37.5701C47.0282 37.5253 46.9224 37.5253 46.8329 37.5701L46.5052 37.7309C46.3485 37.8082 46.1572 37.7451 46.0758 37.5904L45.9048 37.2689C45.858 37.1793 45.7726 37.1183 45.6728 37.1L45.3147 37.0369C45.1417 37.0064 45.0236 36.8456 45.0481 36.6706L45.0989 36.3103C45.1132 36.2106 45.0806 36.1109 45.0114 36.0376L44.757 35.7751C44.6349 35.6489 44.6349 35.4495 44.757 35.3233L45.0114 35.0608C45.0806 34.9896 45.1132 34.8878 45.0989 34.7881L45.0481 34.4279C45.0236 34.2549 45.1417 34.0921 45.3147 34.0615L45.6728 33.9985C45.7726 33.9801 45.856 33.9191 45.9048 33.8295L46.0758 33.508C46.1572 33.3533 46.3485 33.2902 46.5052 33.3676L46.8329 33.5284C46.9224 33.5731 47.0282 33.5731 47.1178 33.5284Z" fill="#FFC753"/>
<path d="M47.3168 35.1098L48.0148 35.2298L47.5508 35.7651L47.6546 36.4631L47.0013 36.1884L46.3684 36.5018L46.4274 35.7976L45.9349 35.2909L46.6228 35.1321L46.9525 34.5053L47.3168 35.1098Z" fill="white"/>
<path d="M46.1096 5.64539H31.8312V7.29586H46.1096V5.64539Z" stroke="#F2DDAA" stroke-width="0.297126" stroke-linecap="round" stroke-linejoin="round"/>
<path d="M44.0743 8.09574H33.8641V9.74622H44.0743V8.09574Z" stroke="#F2DDAA" stroke-width="0.297126" stroke-linecap="round" stroke-linejoin="round"/>
<path d="M31.2438 31.353H40.7803" stroke="#F2DDAA" stroke-width="0.297126" stroke-linecap="round" stroke-linejoin="round"/>
<path d="M31.2438 33.6872H36.0121" stroke="#F2DDAA" stroke-width="0.297126" stroke-linecap="round" stroke-linejoin="round"/>
<path d="M38.4621 13.8754C42.3389 13.8754 44.9805 16.6085 44.9805 20.5221C44.9805 24.4356 42.341 27.2237 38.4621 27.2237C34.5831 27.2237 31.9253 24.4356 31.9253 20.5221C31.9253 16.6085 34.5831 13.8754 38.4621 13.8754ZM38.4621 14.9825C35.157 14.9825 33.126 17.1621 33.126 20.5221C33.126 23.882 35.157 26.0983 38.4621 26.0983C41.7671 26.0983 43.7981 23.882 43.7981 20.5221C43.7981 17.1621 41.7488 14.9825 38.4621 14.9825ZM38.4987 16.4233C36.081 16.4233 34.3633 18.0107 34.3633 20.5404C34.3633 23.07 36.081 24.6574 38.4987 24.6574C40.4748 24.6574 42.0622 23.4201 42.3939 21.4806H39.3473C39.1988 21.8876 38.9403 22.256 38.3684 22.256C37.6663 22.256 37.2227 21.7024 37.2227 20.5383C37.2227 19.3742 37.6663 18.8207 38.3684 18.8207C38.9037 18.8207 39.2171 19.1707 39.3473 19.5961H42.3939C42.0622 17.62 40.4727 16.4213 38.4987 16.4213V16.4233Z" stroke="#F2DDAA" stroke-width="0.297126" stroke-miterlimit="10"/>
<path d="M24.2243 0.156712H-2.84473V40.4947H24.2243V0.156712Z" fill="#CDF4FF"/>
<path d="M21.076 3.55942H0.303661V37.0919H21.076V3.55942Z" stroke="#85C4D5" stroke-width="0.297126" stroke-linecap="round" stroke-linejoin="round"/>
<path d="M17.8812 5.8021H3.60286V7.45257H17.8812V5.8021Z" stroke="#85C4D5" stroke-width="0.297126" stroke-linecap="round" stroke-linejoin="round"/>
<path d="M15.8475 8.25443H5.63734V9.9049H15.8475V8.25443Z" stroke="#85C4D5" stroke-width="0.297126" stroke-linecap="round" stroke-linejoin="round"/>
<path d="M3.01595 31.5117H12.5525" stroke="#85C4D5" stroke-width="0.297126" stroke-linecap="round" stroke-linejoin="round"/>
<path d="M3.01595 33.846H7.78422" stroke="#85C4D5" stroke-width="0.297126" stroke-linecap="round" stroke-linejoin="round"/>
<path d="M15.6503 17.9253H6.10158C5.27323 17.9253 4.60171 18.5968 4.60171 19.4252V25.1988C4.60171 26.0271 5.27323 26.6986 6.10158 26.6986H15.6503C16.4787 26.6986 17.1502 26.0271 17.1502 25.1988V19.4252C17.1502 18.5968 16.4787 17.9253 15.6503 17.9253Z" stroke="#85C4D5" stroke-width="0.297126" stroke-linecap="round" stroke-linejoin="round"/>
<path d="M12.4269 23.6846L11.8916 21.9873C12.0259 21.7899 12.1033 21.5538 12.1033 21.2974C12.1033 20.6197 11.5538 20.0702 10.8761 20.0702C10.1984 20.0702 9.64893 20.6197 9.64893 21.2974C9.64893 21.5538 9.7283 21.7899 9.86059 21.9873L9.32535 23.6846H12.4248H12.4269Z" stroke="#85C4D5" stroke-width="0.297126" stroke-linecap="round" stroke-linejoin="round"/>
<path d="M14.7921 17.9252C14.7921 16.1527 13.3553 14.7179 11.5847 14.7179H10.1703C8.39776 14.7179 6.96301 16.1547 6.96301 17.9252" stroke="#85C4D5" stroke-width="0.297126" stroke-linecap="round" stroke-linejoin="round"/>
<path d="M1.78297 37.6922L-1.43657 42.9428L0.472361 42.5846L1.18058 44.0723L4.07858 38.6894L1.78297 37.6922Z" fill="#DD2C35"/>
<g style="mix-blend-mode:multiply" opacity="0.5">
<path d="M1.78306 37.6922L1.02193 38.9336L1.3333 39.5197C1.48797 39.8087 1.84208 39.9247 2.13717 39.7802L2.74974 39.4811C2.91865 39.3997 3.11606 39.3997 3.28294 39.4811L3.576 39.6235L4.07867 38.6894L1.78306 37.6922Z" fill="#DD2C35"/>
</g>
<path d="M4.24959 37.6922L7.4671 42.9428L5.5602 42.5846L4.84995 44.0723L1.95195 38.6894L4.24959 37.6922Z" fill="#FF5052"/>
<g style="mix-blend-mode:multiply" opacity="0.5">
<path d="M4.25018 37.6922L1.95457 38.6894L2.45724 39.6235L2.7503 39.4811C2.91921 39.3997 3.11662 39.3997 3.2835 39.4811L3.89607 39.7802C4.19116 39.9247 4.5473 39.8087 4.69994 39.5197L5.01131 38.9336L4.25018 37.6922Z" fill="#DD2C35"/>
</g>
<path d="M3.25056 32.3929L3.78783 32.1304C4.04629 32.0042 4.3597 32.1059 4.49402 32.3603L4.77486 32.8895C4.8522 33.0339 4.99262 33.1357 5.15339 33.1642L5.74154 33.268C6.02442 33.3168 6.21776 33.5834 6.17705 33.8683L6.09361 34.4606C6.07123 34.6234 6.12414 34.7882 6.23811 34.9062L6.65327 35.3357C6.85271 35.5432 6.85271 35.8709 6.65327 36.0785L6.23811 36.5079C6.12414 36.6259 6.06919 36.7908 6.09361 36.9536L6.17705 37.5458C6.21776 37.8307 6.02442 38.0973 5.74154 38.1461L5.15339 38.2499C4.99058 38.2784 4.8522 38.3802 4.77486 38.5247L4.49402 39.0538C4.3597 39.3082 4.04629 39.4099 3.78783 39.2838L3.25056 39.0212C3.102 38.948 2.92902 38.948 2.78249 39.0212L2.24522 39.2838C1.98676 39.4099 1.67335 39.3082 1.53904 39.0538L1.25819 38.5247C1.18086 38.3802 1.04043 38.2784 0.879659 38.2499L0.291512 38.1461C0.00863177 38.0973 -0.184704 37.8307 -0.144001 37.5458L-0.060562 36.9536C-0.0381757 36.7908 -0.0910887 36.6259 -0.205055 36.5079L-0.620218 36.0785C-0.819659 35.8709 -0.819659 35.5432 -0.620218 35.3357L-0.205055 34.9062C-0.0910887 34.7882 -0.0361406 34.6234 -0.060562 34.4606L-0.144001 33.8683C-0.184704 33.5834 0.00863177 33.3168 0.291512 33.268L0.879659 33.1642C1.04247 33.1357 1.18086 33.0339 1.25819 32.8895L1.53904 32.3603C1.67335 32.1059 1.98676 32.0042 2.24522 32.1304L2.78249 32.3929C2.93105 32.4661 3.10404 32.4661 3.25056 32.3929Z" fill="#FF5052"/>
<path d="M3.15898 33.6872L3.48663 33.5264C3.64333 33.4491 3.83464 33.5121 3.91604 33.6668L4.08699 33.9884C4.1338 34.0779 4.21927 34.139 4.31899 34.1573L4.67717 34.2204C4.85016 34.2509 4.96819 34.4117 4.94377 34.5867L4.89289 34.9469C4.87865 35.0466 4.91121 35.1463 4.9804 35.2196L5.23479 35.4821C5.3569 35.6083 5.3569 35.8078 5.23479 35.9339L4.9804 36.1965C4.91121 36.2677 4.87865 36.3694 4.89289 36.4692L4.94377 36.8294C4.96819 37.0024 4.85016 37.1652 4.67717 37.1957L4.31899 37.2588C4.21927 37.2771 4.13583 37.3382 4.08699 37.4277L3.91604 37.7492C3.83464 37.9039 3.64333 37.967 3.48663 37.8897L3.15898 37.7289C3.06943 37.6841 2.96361 37.6841 2.87406 37.7289L2.54641 37.8897C2.38971 37.967 2.19841 37.9039 2.117 37.7492L1.94605 37.4277C1.89924 37.3382 1.81377 37.2771 1.71405 37.2588L1.35587 37.1957C1.18288 37.1652 1.06485 37.0044 1.08927 36.8294L1.14015 36.4692C1.15439 36.3694 1.12183 36.2697 1.05264 36.1965L0.798249 35.9339C0.676142 35.8078 0.676142 35.6083 0.798249 35.4821L1.05264 35.2196C1.12183 35.1484 1.15439 35.0466 1.14015 34.9469L1.08927 34.5867C1.06485 34.4137 1.18288 34.2509 1.35587 34.2204L1.71405 34.1573C1.81377 34.139 1.89721 34.0779 1.94605 33.9884L2.117 33.6668C2.19841 33.5121 2.38971 33.4491 2.54641 33.5264L2.87406 33.6872C2.96361 33.7319 3.06943 33.7319 3.15898 33.6872Z" fill="#FFC753"/>
<path d="M3.35796 35.2685L4.056 35.3865L3.59199 35.9218L3.69579 36.6219L3.04251 36.3471L2.40959 36.6605L2.46861 35.9564L1.97612 35.4496L2.66398 35.2889L2.99164 34.662L3.35796 35.2685Z" fill="white"/>
<path d="M40.7591 9.16001H13.6901V49.498H40.7591V9.16001Z" fill="#002C56"/>
<path d="M39.4447 10.0799H37.0188V48.5781H39.4447V10.0799Z" fill="white"/>
<path d="M38.2317 10.0799H36.9841V48.5781H38.2317V10.0799Z" fill="#E5F3FF"/>
<path d="M37.6378 19.5066V31.2716" stroke="#CADFEC" stroke-width="0.297126" stroke-linecap="round" stroke-linejoin="round"/>
<path d="M37.6378 15.6419V17.9619" stroke="#CADFEC" stroke-width="0.297126" stroke-linecap="round" stroke-linejoin="round"/>
<path d="M37.6378 10.9327V13.9894" stroke="#CADFEC" stroke-width="0.297126" stroke-linecap="round" stroke-linejoin="round"/>
<path d="M38.8263 42.0575V46.3658" stroke="#CADFEC" stroke-width="0.297126" stroke-linecap="round" stroke-linejoin="round"/>
<path d="M38.8263 36.5872V40.4845" stroke="#CADFEC" stroke-width="0.297126" stroke-linecap="round" stroke-linejoin="round"/>
<path d="M38.8263 21.0817V35.3214" stroke="#CADFEC" stroke-width="0.297126" stroke-linecap="round" stroke-linejoin="round"/>
<path d="M37.0191 9.16001H9.95009V49.498H37.0191V9.16001Z" fill="#0B3E68"/>
<g style="mix-blend-mode:overlay" opacity="0.5">
<path d="M12.5326 11.5107V47.4446" stroke="white" stroke-width="0.297126" stroke-linecap="round" stroke-linejoin="round"/>
</g>
<path d="M29.312 28.0358H20.2192V28.7766H29.312V28.0358Z" fill="#929291"/>
<path d="M25.3561 29.2507H24.0821V33.4614H25.3561V29.2507Z" fill="#929291"/>
<path d="M29.0399 33.4613H20.4945V33.968H29.0399V33.4613Z" fill="#5E5E5D"/>
<path d="M29.312 33.9681H20.2192V34.4748H29.312V33.9681Z" fill="#6F6E6E"/>
<path d="M29.5947 34.4747H19.938V34.9815H29.5947V34.4747Z" fill="#7B7A7A"/>
<path d="M29.312 28.0357H20.2192L24.7656 24.0957L29.312 28.0357Z" fill="#A9A9A9"/>
<path d="M28.8259 28.0355H20.6915L24.7577 24.4802L28.8259 28.0355Z" fill="#C4C4C4"/>
<path d="M24.4197 33.1296C24.4197 33.1764 24.3811 33.2151 24.3363 33.2151C24.2895 33.2151 24.2508 33.1764 24.2508 33.1296V29.5845C24.2508 29.5377 24.2895 29.499 24.3363 29.499C24.3831 29.499 24.4197 29.5377 24.4197 29.5845V33.1296Z" fill="#7B7A7A"/>
<path d="M24.8048 33.1296C24.8048 33.1764 24.7661 33.2151 24.7193 33.2151C24.6725 33.2151 24.6339 33.1764 24.6339 33.1296V29.5845C24.6339 29.5377 24.6725 29.499 24.7193 29.499C24.7661 29.499 24.8048 29.5377 24.8048 29.5845V33.1296Z" fill="#7B7A7A"/>
<path d="M25.1868 33.1296C25.1868 33.1764 25.1481 33.2151 25.1013 33.2151C25.0545 33.2151 25.0158 33.1764 25.0158 33.1296V29.5845C25.0158 29.5377 25.0545 29.499 25.1013 29.499C25.1481 29.499 25.1868 29.5377 25.1868 29.5845V33.1296Z" fill="#7B7A7A"/>
<path d="M22.1079 29.2507H20.8339V33.4614H22.1079V29.2507Z" fill="#929291"/>
<path d="M21.1714 33.1296C21.1714 33.1764 21.1328 33.2151 21.0859 33.2151C21.0391 33.2151 21.0005 33.1764 21.0005 33.1296V29.5845C21.0005 29.5377 21.0391 29.499 21.0859 29.499C21.1328 29.499 21.1714 29.5377 21.1714 29.5845V33.1296Z" fill="#7B7A7A"/>
<path d="M21.5566 33.1296C21.5566 33.1764 21.5179 33.2151 21.4711 33.2151C21.4243 33.2151 21.3856 33.1764 21.3856 33.1296V29.5845C21.3856 29.5377 21.4243 29.499 21.4711 29.499C21.5179 29.499 21.5566 29.5377 21.5566 29.5845V33.1296Z" fill="#7B7A7A"/>
<path d="M21.9391 33.1296C21.9391 33.1764 21.9004 33.2151 21.8536 33.2151C21.8068 33.2151 21.7681 33.1764 21.7681 33.1296V29.5845C21.7681 29.5377 21.8068 29.499 21.8536 29.499C21.9004 29.499 21.9391 29.5377 21.9391 29.5845V33.1296Z" fill="#7B7A7A"/>
<path d="M28.6043 29.2507H27.3304V33.4614H28.6043V29.2507Z" fill="#929291"/>
<path d="M27.6695 33.1296C27.6695 33.1764 27.6309 33.2151 27.584 33.2151C27.5372 33.2151 27.5006 33.1764 27.5006 33.1296V29.5845C27.5006 29.5377 27.5393 29.499 27.584 29.499C27.6309 29.499 27.6695 29.5377 27.6695 29.5845V33.1296Z" fill="#7B7A7A"/>
<path d="M28.052 33.1296C28.052 33.1764 28.0134 33.2151 27.9666 33.2151C27.9198 33.2151 27.8831 33.1764 27.8831 33.1296V29.5845C27.8831 29.5377 27.9218 29.499 27.9666 29.499C28.0134 29.499 28.052 29.5377 28.052 29.5845V33.1296Z" fill="#7B7A7A"/>
<path d="M28.435 33.1296C28.435 33.1764 28.3963 33.2151 28.3495 33.2151C28.3027 33.2151 28.2641 33.1764 28.2641 33.1296V29.5845C28.2641 29.5377 28.3027 29.499 28.3495 29.499C28.3963 29.499 28.435 29.5377 28.435 29.5845V33.1296Z" fill="#7B7A7A"/>
<path d="M29.0399 28.7765H20.4945V29.2833H29.0399V28.7765Z" fill="#7B7A7A"/>
<path d="M25.1608 39.3611L25.9646 39.4994L25.4314 40.114L25.5495 40.92L24.7985 40.6045L24.0679 40.9647L24.1371 40.1527L23.5693 39.5707L24.361 39.3855L24.7395 38.6651L25.1608 39.3611Z" fill="#FFFBE9"/>
<path d="M28.791 38.7424L29.5949 38.8787L29.0617 39.4954L29.1797 40.3013L28.4287 39.9838L27.6981 40.346L27.7673 39.534L27.1995 38.952L27.9932 38.7668L28.3697 38.0464L28.791 38.7424Z" fill="#FFC753"/>
<path d="M31.5894 37.0614L32.3912 37.1978L31.858 37.8144L31.9761 38.6203L31.2271 38.3029L30.4965 38.6651L30.5657 37.8531L29.9959 37.2711L30.7896 37.0859L31.1681 36.3634L31.5894 37.0614Z" fill="#FFFBE9"/>
<path d="M20.7399 38.7424L19.938 38.8787L20.4712 39.4954L20.3532 40.3013L21.1021 39.9838L21.8327 40.346L21.7635 39.534L22.3334 38.952L21.5397 38.7668L21.1612 38.0464L20.7399 38.7424Z" fill="#FFC753"/>
<path d="M17.9435 37.0614L17.1396 37.1978L17.6728 37.8144L17.5548 38.6203L18.3057 38.3029L19.0363 38.6651L18.9671 37.8531L19.5349 37.2711L18.7433 37.0859L18.3647 36.3634L17.9435 37.0614Z" fill="#FFFBE9"/>
<path d="M25.1608 20.0336L25.9646 20.1699L25.4314 20.7866L25.5495 21.5925L24.7985 21.275L24.0679 21.6373L24.1371 20.8252L23.5693 20.2432L24.361 20.058L24.7395 19.3355L25.1608 20.0336Z" fill="#FFC753"/>
<path d="M28.791 20.8172L29.5949 20.9536L29.0617 21.5702L29.1797 22.3761L28.4287 22.0607L27.6981 22.4209L27.7673 21.6089L27.1995 21.0268L27.9932 20.8416L28.3697 20.1212L28.791 20.8172Z" fill="#FFFBE9"/>
<path d="M31.5894 22.5225L32.3912 22.6589L31.858 23.2755L31.9761 24.0814L31.2271 23.7639L30.4965 24.1262L30.5657 23.3142L29.9959 22.7321L30.7896 22.5469L31.1681 21.8265L31.5894 22.5225Z" fill="#FFC753"/>
<path d="M20.7399 20.8172L19.938 20.9536L20.4712 21.5702L20.3532 22.3761L21.1021 22.0607L21.8327 22.4209L21.7635 21.6089L22.3334 21.0268L21.5397 20.8416L21.1612 20.1212L20.7399 20.8172Z" fill="#FFFBE9"/>
<path d="M17.9435 22.5225L17.1396 22.6589L17.6728 23.2755L17.5548 24.0814L18.3057 23.7639L19.0363 24.1262L18.9671 23.3142L19.5349 22.7321L18.7433 22.5469L18.3647 21.8265L17.9435 22.5225Z" fill="#FFC753"/>
<path d="M16.7472 35.6633C15.7052 34.1206 15.0967 32.2606 15.0967 30.256C15.0967 28.2514 15.7296 26.3221 16.8082 24.7612" stroke="#FFC753" stroke-width="0.297126" stroke-linecap="round" stroke-linejoin="round"/>
<path d="M32.7845 35.6633C33.8264 34.1206 34.4349 32.2606 34.4349 30.256C34.4349 28.2514 33.802 26.3221 32.7234 24.7612" stroke="#FFC753" stroke-width="0.297126" stroke-linecap="round" stroke-linejoin="round"/>
<path d="M18.6765 43.7183H30.8566" stroke="white" stroke-width="0.297126" stroke-linecap="round" stroke-linejoin="round"/>
<path d="M16.5905 46.0525H32.9426" stroke="white" stroke-width="0.297126" stroke-linecap="round" stroke-linejoin="round"/>
<path d="M15.2333 16.3134H34.3003" stroke="white" stroke-width="0.297126" stroke-linecap="round" stroke-linejoin="round"/>
</g>
</g>
<defs>
<clipPath id="clip0_1554_130349">
<rect width="51.6055" height="51.6055" rx="10.3211" fill="white"/>
</clipPath>
<clipPath id="clip1_1554_130349">
<rect width="55.296" height="49.5" fill="white" transform="translate(-2.84491)"/>
</clipPath>
</defs>
</svg>
