<svg width="14" height="16" viewBox="0 0 14 16" fill="none" xmlns="http://www.w3.org/2000/svg">
<path d="M13.3448 6.22224C13.2395 5.12643 12.8522 4.07656 12.2207 3.17486C11.5891 2.27316 10.7349 1.55037 9.74103 1.07686C8.74721 0.60336 7.6477 0.395284 6.54957 0.472896C5.45145 0.550508 4.39214 0.911164 3.47479 1.51974C2.68669 2.04673 2.02508 2.74172 1.5375 3.55479C1.04991 4.36786 0.74846 5.27882 0.654789 6.22224C0.5629 7.15949 0.680794 8.10543 0.999916 8.99145C1.31904 9.87747 1.83139 10.6813 2.49979 11.3447L6.47479 15.3272C6.54451 15.3975 6.62746 15.4533 6.71886 15.4914C6.81025 15.5295 6.90828 15.5491 7.00729 15.5491C7.1063 15.5491 7.20433 15.5295 7.29572 15.4914C7.38712 15.4533 7.47007 15.3975 7.53979 15.3272L11.4998 11.3447C12.1682 10.6813 12.6805 9.87747 12.9997 8.99145C13.3188 8.10543 13.4367 7.15949 13.3448 6.22224ZM10.4498 10.2872L6.99979 13.7372L3.54979 10.2872C3.04136 9.77878 2.65189 9.16399 2.40939 8.48706C2.16689 7.81014 2.07738 7.08789 2.14729 6.37224C2.21765 5.64557 2.44861 4.94361 2.82347 4.31713C3.19832 3.69064 3.70771 3.15527 4.31479 2.74974C5.1105 2.22117 6.04452 1.93921 6.99979 1.93921C7.95506 1.93921 8.88908 2.22117 9.68479 2.74974C10.29 3.15371 10.7983 3.6867 11.1731 4.31045C11.5478 4.93419 11.7798 5.63319 11.8523 6.35724C11.9245 7.07531 11.8361 7.80045 11.5935 8.48015C11.351 9.15986 10.9603 9.77712 10.4498 10.2872ZM6.99979 3.49974C6.33228 3.49974 5.67976 3.69768 5.12474 4.06853C4.56972 4.43938 4.13714 4.96649 3.8817 5.58319C3.62625 6.19989 3.55941 6.87849 3.68964 7.53317C3.81986 8.18786 4.1413 8.78923 4.6133 9.26123C5.08531 9.73323 5.68667 10.0547 6.34136 10.1849C6.99604 10.3151 7.67464 10.2483 8.29135 9.99284C8.90805 9.73739 9.43515 9.30481 9.806 8.74979C10.1768 8.19478 10.3748 7.54226 10.3748 6.87474C10.3728 5.98025 10.0166 5.12295 9.38409 4.49045C8.75158 3.85794 7.89429 3.50172 6.99979 3.49974ZM6.99979 8.74974C6.62895 8.74974 6.26644 8.63978 5.95809 8.43375C5.64975 8.22772 5.40943 7.93489 5.26751 7.59228C5.1256 7.24966 5.08847 6.87266 5.16082 6.50895C5.23316 6.14523 5.41174 5.81114 5.67396 5.54892C5.93619 5.2867 6.27028 5.10812 6.63399 5.03577C6.99771 4.96342 7.37471 5.00056 7.71732 5.14247C8.05993 5.28438 8.35277 5.52471 8.55879 5.83305C8.76482 6.14139 8.87479 6.5039 8.87479 6.87474C8.87479 7.37202 8.67724 7.84894 8.32561 8.20057C7.97398 8.5522 7.49707 8.74974 6.99979 8.74974Z" fill="#F99F1B"/>
</svg>
