<svg width="101" height="38" viewBox="0 0 101 38" fill="none" xmlns="http://www.w3.org/2000/svg">
<path d="M16.9323 0C16.9323 0 19.5844 3.01169 24.338 4.01949C30.5524 5.33588 33.8139 1.80076 33.8139 1.80076C33.8139 1.80076 34.3022 8.13273 32.1187 17.4569C29.6697 27.9177 23.7716 32.9059 16.9284 37.2926C10.0851 32.9059 4.18708 27.9177 1.73803 17.4569C-0.441506 8.13273 0.0467409 1.80076 0.0467409 1.80076C0.0467409 1.80076 3.31214 5.33588 9.52264 4.01949C14.2801 3.01169 16.9323 0 16.9323 0Z" fill="#1F2020"/>
<path style="mix-blend-mode:screen" d="M16.9323 0C16.9323 0 19.5844 3.01169 24.338 4.01949C30.5524 5.33588 33.8139 1.80076 33.8139 1.80076C33.8139 1.80076 34.3022 8.13273 32.1187 17.4569C29.6697 27.9177 23.7716 32.9059 16.9284 37.2926C10.0851 32.9059 4.18708 27.9177 1.73803 17.4569C-0.441506 8.13273 0.0467409 1.80076 0.0467409 1.80076C0.0467409 1.80076 3.31214 5.33588 9.52264 4.01949C14.2801 3.01169 16.9323 0 16.9323 0Z" fill="url(#paint0_linear_1356_123653)"/>
<path style="mix-blend-mode:multiply" d="M16.9323 0C16.9323 0 19.5844 3.01169 24.338 4.01949C30.5524 5.33588 33.8139 1.80076 33.8139 1.80076C33.8139 1.80076 34.3022 8.13273 32.1187 17.4569C29.6697 27.9177 23.7716 32.9059 16.9284 37.2926C10.0851 32.9059 4.18708 27.9177 1.73803 17.4569C-0.441506 8.13273 0.0467409 1.80076 0.0467409 1.80076C0.0467409 1.80076 3.31214 5.33588 9.52264 4.01949C14.2801 3.01169 16.9323 0 16.9323 0Z" fill="url(#paint1_linear_1356_123653)"/>
<g style="mix-blend-mode:overlay">
<path d="M16.9321 2.17576C18.2641 3.2734 20.6701 4.87104 24.0058 5.57807C25.0331 5.79681 26.0565 5.90619 27.0447 5.90619C29.2086 5.90619 30.9468 5.38276 32.2396 4.76948C32.1615 7.4257 31.81 11.7655 30.564 17.0897C28.4587 26.0857 23.7832 30.8591 16.9282 35.3824C10.0732 30.8591 5.39778 26.0857 3.29245 17.0897C2.04645 11.7655 1.69491 7.4218 1.61679 4.76948C2.90967 5.38276 4.64783 5.90619 6.81174 5.90619C7.79995 5.90619 8.82332 5.79681 9.85059 5.57807C13.1902 4.87104 15.5963 3.2695 16.9243 2.17576M16.9243 0C16.9243 0 14.2722 3.01169 9.51858 4.01949C8.54209 4.22652 7.63981 4.31246 6.81174 4.31246C2.36674 4.31246 0.0465873 1.80076 0.0465873 1.80076C0.0465873 1.80076 -0.44166 8.13273 1.74178 17.4569C4.19083 27.9177 10.0889 32.9059 16.9321 37.2926C23.7754 32.9059 29.6734 27.9177 32.1225 17.4569C34.3059 8.13273 33.8177 1.80076 33.8177 1.80076C33.8177 1.80076 31.4975 4.31246 27.0486 4.31246C26.2205 4.31246 25.3183 4.22652 24.3418 4.01949C19.5843 3.01169 16.9321 0 16.9321 0H16.9243Z" fill="#5E5F5F"/>
</g>
<path style="mix-blend-mode:screen" opacity="0.11" d="M17.0224 2.1875C18.3543 3.28515 20.7604 4.88279 24.0961 5.58981C25.1234 5.80856 26.1467 5.91793 27.1349 5.91793C29.2989 5.91793 31.037 5.3945 32.3299 4.78122C32.2518 7.43745 31.9002 11.7772 30.6542 17.1014C28.5489 26.0974 23.8734 30.8708 17.0185 35.3942C10.1635 30.8708 5.48802 26.0974 3.3827 17.1014C2.13669 11.7772 1.78515 7.43354 1.70703 4.78122C2.99991 5.3945 4.73807 5.91793 6.90198 5.91793C7.89019 5.91793 8.91356 5.80856 9.94083 5.58981C13.2804 4.88279 15.6865 3.28124 17.0146 2.1875" fill="url(#paint2_linear_1356_123653)"/>
<path d="M16.9127 8.38281L11.1631 11.9804L13.6707 13.6445L15.5378 12.4882V14.7304L18.2524 16.3905V12.3867L20.1898 13.6757L22.8693 12.0156L16.9127 8.38281Z" fill="url(#paint3_linear_1356_123653)"/>
<path d="M15.6396 19.8193V23.1787L18.1863 24.6708V21.4131L15.6396 19.8193Z" fill="url(#paint4_linear_1356_123653)"/>
<path d="M22.2247 14.8623L21.0021 14.0459L23.4472 12.3818L24.9393 13.2295V23.0028L23.7519 23.7841C23.7519 23.7841 23.0918 23.7333 22.8691 23.5106C22.6465 23.288 11.6707 16.5185 11.6707 16.5185V21.3388L19.5764 26.1903L16.9125 27.9207L8.9209 22.9989V13.2568L10.3817 12.374L22.1934 19.6044L22.2286 14.8545L22.2247 14.8623Z" fill="url(#paint5_linear_1356_123653)"/>
<path d="M45.8831 25.948H41.4459V12.6395H37.7782V8.88177H49.5469V12.6395H45.8792V25.948H45.8831Z" fill="#231F20"/>
<path d="M50.5467 8.88177H54.9839L63.1084 19.3153H63.1552V8.88177H67.5924V25.948H63.1552L55.0308 15.4911H54.9839V25.948H50.5467V8.88177Z" fill="#231F20"/>
<path d="M78.3644 8.88177C80.8252 8.8974 83.0125 9.72161 84.9265 11.3583C86.8404 12.995 87.8013 15.1044 87.8013 17.6825C87.8013 20.4442 86.9146 22.698 85.1413 24.448C83.368 26.198 81.1103 27.073 78.3644 27.073C75.6185 27.073 73.3765 26.198 71.5993 24.448C69.8182 22.698 68.9276 20.4402 68.9276 17.6825C68.9276 15.1005 69.8846 12.995 71.8024 11.3583C73.7163 9.72161 75.9076 8.90131 78.3644 8.90131V8.87787V8.88177ZM74.9584 14.5731C74.0171 15.4872 73.5445 16.5301 73.5445 17.7059C73.5445 19.1707 74.0171 20.3856 74.9584 21.3504C75.8998 22.3152 77.0364 22.7996 78.3644 22.7996C79.6925 22.7996 80.8291 22.3152 81.7704 21.3465C82.7118 20.3778 83.1844 19.1629 83.1844 17.6942C83.1844 16.5145 82.7118 15.4676 81.7704 14.5536C80.8291 13.6395 79.6925 13.1825 78.3644 13.1825C77.0364 13.1981 75.8998 13.663 74.9584 14.5731Z" fill="#231F20"/>
<path d="M100.301 10.2646L98.5353 13.7059C98.1291 13.3739 97.6721 13.1044 97.1643 12.9013C96.6604 12.6981 96.1331 12.5966 95.5902 12.5966C95.516 12.5966 95.43 12.5966 95.3402 12.6083C95.2504 12.6161 95.1605 12.6356 95.0668 12.663C94.7191 12.7372 94.4028 12.8895 94.1176 13.1161C93.8325 13.3427 93.688 13.6434 93.688 14.0223C93.688 14.4012 93.8247 14.6747 94.0942 14.8934C94.3676 15.1122 94.6606 15.288 94.9769 15.4247C95.098 15.4716 95.2152 15.5106 95.3285 15.5497C95.4417 15.5887 95.5511 15.62 95.6566 15.6512L96.7893 15.9676C97.9806 16.3309 98.9806 16.8543 99.7891 17.5418C100.598 18.2293 101 19.2645 101 20.6551V21.0184C100.969 21.8035 100.828 22.5691 100.57 23.3152C100.313 24.0613 99.8672 24.7058 99.2344 25.2488C98.6603 25.7449 98.0119 26.116 97.2893 26.3582C96.5667 26.6003 95.8245 26.7488 95.0707 26.8113C94.9496 26.8113 94.8324 26.8113 94.7191 26.823C94.6059 26.8308 94.4965 26.8347 94.391 26.8347C93.3208 26.8347 92.2701 26.6667 91.2467 26.3269C90.2195 25.9871 89.2703 25.5144 88.3954 24.9129L90.2976 21.3152C90.8561 21.8113 91.4616 22.2371 92.1178 22.5809C92.774 22.9285 93.4809 23.1004 94.2348 23.1004H94.4145C94.9105 23.0691 95.3636 22.9168 95.7738 22.6355C96.18 22.3582 96.3831 21.9363 96.3831 21.3777C96.3831 20.9559 96.2151 20.616 95.8753 20.3582C95.5355 20.1004 95.1527 19.8973 94.7309 19.7489C94.5512 19.6903 94.3676 19.6317 94.1879 19.5809C94.0083 19.5301 93.8403 19.4793 93.6919 19.4324C93.6606 19.4168 93.6294 19.4051 93.5903 19.3973C93.5513 19.3895 93.52 19.3778 93.4888 19.3621C92.1451 18.9832 91.0749 18.5028 90.2741 17.9129C89.4734 17.3231 89.075 16.2215 89.075 14.6083C89.075 12.8739 89.6297 11.4833 90.7389 10.4443C91.8482 9.40521 93.2544 8.88177 94.9613 8.88177C95.3089 8.88177 95.6644 8.90131 96.0237 8.93646C96.387 8.97552 96.7463 9.03802 97.1096 9.12787C97.6838 9.24896 98.2462 9.40911 98.797 9.60442C99.3477 9.79973 99.8477 10.0263 100.301 10.2841V10.2607V10.2646Z" fill="#231F20"/>
<path d="M37.7822 31.2851L38.0127 30.7695C38.2627 30.9492 38.6337 31.0781 38.9853 31.0781C39.3876 31.0781 39.5555 30.9453 39.5555 30.7617C39.5555 30.2109 37.8408 30.5898 37.8408 29.4922C37.8408 28.9922 38.2431 28.5742 39.0829 28.5742C39.454 28.5742 39.8329 28.6641 40.1063 28.8359L39.8954 29.3555C39.6219 29.1992 39.3407 29.125 39.079 29.125C38.6767 29.125 38.5205 29.2773 38.5205 29.4609C38.5205 30.0039 40.2352 29.6289 40.2352 30.7109C40.2352 31.2031 39.8251 31.625 38.9853 31.625C38.5165 31.625 38.0478 31.4843 37.7861 31.2851H37.7822Z" fill="#231F20"/>
<path d="M40.7001 28.6288H41.3836V31.578H40.7001V28.6288Z" fill="#231F20"/>
<path d="M44.7664 31.5781V29.8086L43.8954 31.2656H43.5868L42.7236 29.8476V31.5781H42.083V28.6289H42.6455L43.747 30.4609L44.8328 28.6289H45.3914L45.3992 31.5781H44.7586H44.7664Z" fill="#231F20"/>
<path d="M48.661 29.6992C48.661 30.3555 48.1688 30.7656 47.3798 30.7656H46.7861V31.5781H46.1025V28.6289H47.3798C48.1688 28.6289 48.661 29.0391 48.661 29.6992ZM47.9696 29.6992C47.9696 29.375 47.7587 29.1836 47.3407 29.1836H46.7861V30.207H47.3407C47.7587 30.207 47.9696 30.0156 47.9696 29.6992Z" fill="#231F20"/>
<path d="M49.1484 28.6289H49.832V31.0195H51.3084V31.5742H49.1484V28.625V28.6289Z" fill="#231F20"/>
<path d="M52.8046 30.5312V31.5741H52.121V30.5234L50.9805 28.6288H51.7031L52.4921 29.9374L53.2811 28.6288H53.949L52.8046 30.5312Z" fill="#231F20"/>
<path d="M55.1992 31.2851L55.4297 30.7695C55.6797 30.9492 56.0507 31.0781 56.4023 31.0781C56.8046 31.0781 56.9725 30.9453 56.9725 30.7617C56.9725 30.2109 55.2578 30.5898 55.2578 29.4922C55.2578 28.9922 55.6601 28.5742 56.4999 28.5742C56.871 28.5742 57.2499 28.6641 57.5233 28.8359L57.3123 29.3555C57.0389 29.1992 56.7577 29.125 56.496 29.125C56.0937 29.125 55.9374 29.2773 55.9374 29.4609C55.9374 30.0039 57.6522 29.6289 57.6522 30.7109C57.6522 31.2031 57.242 31.625 56.4023 31.625C55.9335 31.625 55.4648 31.4843 55.2031 31.2851H55.1992Z" fill="#231F20"/>
<path d="M60.4021 31.0276V31.5744H58.121V28.6252H60.3474V29.1721H58.7967V29.8127H60.1638V30.344H58.7967V31.0276H60.4021Z" fill="#231F20"/>
<path d="M60.749 30.1016C60.749 29.211 61.4326 28.5782 62.3505 28.5782C62.8583 28.5782 63.284 28.7618 63.5614 29.1016L63.1239 29.504C62.9247 29.2774 62.6786 29.1602 62.3817 29.1602C61.831 29.1602 61.4404 29.5469 61.4404 30.1016C61.4404 30.6563 61.831 31.043 62.3817 31.043C62.6747 31.043 62.9247 30.9258 63.1239 30.6914L63.5614 31.0938C63.284 31.4336 62.8583 31.6211 62.3427 31.6211C61.4287 31.6211 60.7451 30.9844 60.7451 30.0977L60.749 30.1016Z" fill="#231F20"/>
<path d="M63.9756 30.2812V28.6289H64.6591V30.2539C64.6591 30.8125 64.9052 31.0469 65.3153 31.0469C65.7255 31.0469 65.9715 30.8164 65.9715 30.2539V28.6289H66.6434V30.2812C66.6434 31.1484 66.1473 31.6289 65.3075 31.6289C64.4677 31.6289 63.9717 31.1484 63.9717 30.2812H63.9756Z" fill="#231F20"/>
<path d="M69.1982 31.578L68.6279 30.7577H67.9991V31.578H67.3155V28.6288H68.5928C69.3818 28.6288 69.874 29.039 69.874 29.6991C69.874 30.1405 69.6513 30.4648 69.2685 30.6288L69.9286 31.578H69.1943H69.1982ZM68.5576 29.1874H68.003V30.2148H68.5576C68.9756 30.2148 69.1865 30.0195 69.1865 29.7031C69.1865 29.3866 68.9756 29.1874 68.5576 29.1874Z" fill="#231F20"/>
<path d="M72.6981 31.0273V31.5742H70.417V28.625H72.6434V29.1719H71.0927V29.8125H72.4598V30.3437H71.0927V31.0273H72.6981Z" fill="#231F20"/>
<path d="M76.99 29.6991C76.99 30.3554 76.4978 30.7655 75.7088 30.7655H75.1151V31.578H74.4316V28.6288H75.7088C76.4978 28.6288 76.99 29.039 76.99 29.6991ZM76.2986 29.6991C76.2986 29.3749 76.0877 29.1835 75.6698 29.1835H75.1151V30.207H75.6698C76.0877 30.207 76.2986 30.0155 76.2986 29.6991Z" fill="#231F20"/>
<path d="M79.3574 31.578L78.7871 30.7577H78.1583V31.578H77.4747V28.6288H78.752C79.541 28.6288 80.0331 29.039 80.0331 29.6991C80.0331 30.1405 79.8105 30.4648 79.4277 30.6288L80.0878 31.578H79.3535H79.3574ZM78.7168 29.1874H78.1622V30.2148H78.7168C79.1348 30.2148 79.3457 30.0195 79.3457 29.7031C79.3457 29.3866 79.1348 29.1874 78.7168 29.1874Z" fill="#231F20"/>
<path d="M80.3885 30.1016C80.3885 29.2266 81.072 28.5782 82.0016 28.5782C82.9313 28.5782 83.6148 29.2227 83.6148 30.1016C83.6148 30.9805 82.9273 31.625 82.0016 31.625C81.0759 31.625 80.3885 30.9766 80.3885 30.1016ZM82.9234 30.1016C82.9234 29.543 82.5289 29.1602 82.0016 29.1602C81.4743 29.1602 81.0798 29.543 81.0798 30.1016C81.0798 30.6602 81.4743 31.043 82.0016 31.043C82.5289 31.043 82.9234 30.6602 82.9234 30.1016Z" fill="#231F20"/>
<path d="M84.6972 29.1836H83.7559V28.6289H86.326V29.1836H85.3847V31.5742H84.7011V29.1836H84.6972Z" fill="#231F20"/>
<path d="M88.9735 31.0273V31.5742H86.6924V28.625H88.9188V29.1719H87.3681V29.8125H88.7352V30.3437H87.3681V31.0273H88.9735Z" fill="#231F20"/>
<path d="M89.3254 30.1016C89.3254 29.211 90.009 28.5782 90.9269 28.5782C91.4346 28.5782 91.8604 28.7618 92.1377 29.1016L91.7003 29.504C91.501 29.2774 91.255 29.1602 90.9581 29.1602C90.4074 29.1602 90.0168 29.5469 90.0168 30.1016C90.0168 30.6563 90.4074 31.043 90.9581 31.043C91.2511 31.043 91.501 30.9258 91.7003 30.6914L92.1377 31.0938C91.8604 31.4336 91.4346 31.6211 90.9191 31.6211C90.0051 31.6211 89.3215 30.9844 89.3215 30.0977L89.3254 30.1016Z" fill="#231F20"/>
<path d="M93.1806 29.1836H92.2393V28.6289H94.8094V29.1836H93.8681V31.5742H93.1845V29.1836H93.1806Z" fill="#231F20"/>
<path d="M97.4549 31.0273V31.5742H95.1738V28.625H97.4002V29.1719H95.8496V29.8125H97.2167V30.3437H95.8496V31.0273H97.4549Z" fill="#231F20"/>
<path d="M98.0012 28.6292H99.341C100.306 28.6292 100.966 29.2112 100.966 30.1018C100.966 30.9924 100.306 31.5744 99.341 31.5744H98.0012V28.6252V28.6292ZM99.3058 31.0158C99.8917 31.0158 100.274 30.6643 100.274 30.1018C100.274 29.5393 99.8917 29.1877 99.3058 29.1877H98.6808V31.0158H99.3058Z" fill="#231F20"/>
<defs>
<linearGradient id="paint0_linear_1356_123653" x1="-0.000130833" y1="18.6443" x2="33.8608" y2="18.6443" gradientUnits="userSpaceOnUse">
<stop offset="0.5" stop-color="#333333"/>
<stop offset="0.78" stop-color="#141414"/>
<stop offset="1" stop-color="#010101"/>
</linearGradient>
<linearGradient id="paint1_linear_1356_123653" x1="16.9323" y1="6.20306" x2="16.9323" y2="30.1325" gradientUnits="userSpaceOnUse">
<stop stop-color="white"/>
<stop offset="0.23" stop-color="#BABABA"/>
<stop offset="0.51" stop-color="#6B6B6B"/>
<stop offset="0.74" stop-color="#323232"/>
<stop offset="0.91" stop-color="#0E0E0E"/>
<stop offset="1" stop-color="#010101"/>
</linearGradient>
<linearGradient id="paint2_linear_1356_123653" x1="1.71094" y1="18.7928" x2="32.3338" y2="18.7928" gradientUnits="userSpaceOnUse">
<stop stop-color="#D2D3D4"/>
<stop offset="0.24" stop-color="#D0D1D2"/>
<stop offset="0.32" stop-color="#C9CACB"/>
<stop offset="0.38" stop-color="#BDBEC0"/>
<stop offset="0.43" stop-color="#ACADAF"/>
<stop offset="0.47" stop-color="#96979A"/>
<stop offset="0.5" stop-color="#818285"/>
<stop offset="0.68" stop-color="#A3A4A6"/>
<stop offset="0.89" stop-color="#C5C6C7"/>
<stop offset="1" stop-color="#D2D3D4"/>
</linearGradient>
<linearGradient id="paint3_linear_1356_123653" x1="11.1631" y1="12.3867" x2="22.8693" y2="12.3867" gradientUnits="userSpaceOnUse">
<stop stop-color="#F7E57D"/>
<stop offset="0.14" stop-color="#D4B259"/>
<stop offset="0.27" stop-color="#BA8C3E"/>
<stop offset="0.36" stop-color="#AA762E"/>
<stop offset="0.43" stop-color="#A56E29"/>
<stop offset="0.48" stop-color="#A8722C"/>
<stop offset="0.53" stop-color="#B17F35"/>
<stop offset="0.58" stop-color="#BF9444"/>
<stop offset="0.64" stop-color="#D4B359"/>
<stop offset="0.69" stop-color="#EFD975"/>
<stop offset="0.71" stop-color="#F8E67E"/>
<stop offset="0.9" stop-color="#D6B650"/>
<stop offset="1" stop-color="#C9A33E"/>
</linearGradient>
<linearGradient id="paint4_linear_1356_123653" x1="15.6396" y1="22.2451" x2="18.1863" y2="22.2451" gradientUnits="userSpaceOnUse">
<stop stop-color="#F7E57D"/>
<stop offset="0.14" stop-color="#D4B259"/>
<stop offset="0.27" stop-color="#BA8C3E"/>
<stop offset="0.36" stop-color="#AA762E"/>
<stop offset="0.43" stop-color="#A56E29"/>
<stop offset="0.58" stop-color="#A7722A"/>
<stop offset="0.74" stop-color="#B07F2F"/>
<stop offset="0.91" stop-color="#BF9438"/>
<stop offset="1" stop-color="#C9A33E"/>
</linearGradient>
<linearGradient id="paint5_linear_1356_123653" x1="8.9209" y1="20.1591" x2="24.9393" y2="20.1591" gradientUnits="userSpaceOnUse">
<stop stop-color="#F7E57D"/>
<stop offset="0.14" stop-color="#D4B259"/>
<stop offset="0.27" stop-color="#BA8C3E"/>
<stop offset="0.36" stop-color="#AA762E"/>
<stop offset="0.43" stop-color="#A56E29"/>
<stop offset="0.48" stop-color="#A8722C"/>
<stop offset="0.53" stop-color="#B17F35"/>
<stop offset="0.58" stop-color="#BF9444"/>
<stop offset="0.64" stop-color="#D4B359"/>
<stop offset="0.69" stop-color="#EFD975"/>
<stop offset="0.71" stop-color="#F8E67E"/>
<stop offset="0.9" stop-color="#D6B650"/>
<stop offset="1" stop-color="#C9A33E"/>
</linearGradient>
</defs>
</svg>
