<svg width="21" height="16" viewBox="0 0 21 16" fill="none" xmlns="http://www.w3.org/2000/svg">
<path d="M17.5 0H3.5C2.70435 0 1.94129 0.316071 1.37868 0.87868C0.816071 1.44129 0.5 2.20435 0.5 3V13C0.5 13.7956 0.816071 14.5587 1.37868 15.1213C1.94129 15.6839 2.70435 16 3.5 16H17.5C18.2956 16 19.0587 15.6839 19.6213 15.1213C20.1839 14.5587 20.5 13.7956 20.5 13V3C20.5 2.20435 20.1839 1.44129 19.6213 0.87868C19.0587 0.316071 18.2956 0 17.5 0ZM17.09 2L11.21 7.88C11.117 7.97373 11.0064 8.04812 10.8846 8.09889C10.7627 8.14966 10.632 8.1758 10.5 8.1758C10.368 8.1758 10.2373 8.14966 10.1154 8.09889C9.99356 8.04812 9.88296 7.97373 9.79 7.88L3.91 2H17.09ZM18.5 13C18.5 13.2652 18.3946 13.5196 18.2071 13.7071C18.0196 13.8946 17.7652 14 17.5 14H3.5C3.23478 14 2.98043 13.8946 2.79289 13.7071C2.60536 13.5196 2.5 13.2652 2.5 13V3.41L8.38 9.29C8.9425 9.8518 9.705 10.1674 10.5 10.1674C11.295 10.1674 12.0575 9.8518 12.62 9.29L18.5 3.41V13Z" fill="#141414"/>
</svg>
