<svg width="152" height="145" viewBox="0 0 152 145" fill="none" xmlns="http://www.w3.org/2000/svg">
<g clip-path="url(#clip0_267_17939)">
<path d="M20.3906 127.861V130.497H40.1802V127.861H20.3906Z" fill="#E0E0E0"/>
<path d="M23.0869 127.97C23.1572 127.97 23.2099 128.524 23.2099 129.204C23.2099 129.883 23.1537 130.437 23.0869 130.437C23.0201 130.437 22.9639 129.883 22.9639 129.204C22.9639 128.524 23.0201 127.97 23.0869 127.97Z" fill="#FAFAFA"/>
<path d="M22.6543 127.917C22.7246 127.917 22.7773 128.471 22.7773 129.151C22.7773 129.831 22.7211 130.385 22.6543 130.385C22.5875 130.385 22.5312 129.831 22.5312 129.151C22.5312 128.471 22.5875 127.917 22.6543 127.917Z" fill="#FAFAFA"/>
<path d="M38.6474 127.97C38.7177 127.97 38.7705 128.524 38.7705 129.204C38.7705 129.883 38.7142 130.437 38.6474 130.437C38.5807 130.437 38.5244 129.883 38.5244 129.204C38.5244 128.524 38.5807 127.97 38.6474 127.97Z" fill="#FAFAFA"/>
<path d="M38.2187 127.917C38.289 127.917 38.3418 128.471 38.3418 129.151C38.3418 129.831 38.2855 130.385 38.2187 130.385C38.1519 130.385 38.0957 129.831 38.0957 129.151C38.0957 128.471 38.1519 127.917 38.2187 127.917Z" fill="#FAFAFA"/>
<path d="M35.632 129.26C35.632 129.33 33.3649 129.382 30.5704 129.382C27.776 129.382 25.5088 129.326 25.5088 129.26C25.5088 129.193 27.776 129.137 30.5704 129.137C33.3649 129.137 35.632 129.193 35.632 129.26Z" fill="#FAFAFA"/>
<path d="M20.3027 139.729V145H40.0923V139.729H20.3027Z" fill="#E0E0E0"/>
<path d="M40.3449 143.517C40.3449 143.517 40.3098 143.542 40.236 143.581C40.1622 143.619 40.0532 143.668 39.9056 143.731C39.6103 143.85 39.1674 144.022 38.5628 144.113C37.9688 144.197 37.1744 144.222 36.387 143.805C36.0004 143.598 35.6313 143.286 35.3536 142.869C35.0794 142.455 34.9037 141.912 34.9951 141.351C35.0408 141.071 35.1603 140.794 35.3571 140.566C35.5504 140.339 35.8598 140.17 36.1902 140.188C36.5206 140.202 36.8194 140.391 37.0303 140.64C37.2412 140.889 37.3818 141.204 37.4134 141.541C37.4907 142.21 37.2095 142.904 36.7315 143.409C36.2605 143.935 35.5575 144.253 34.8299 144.334C34.0987 144.422 33.3395 144.306 32.6224 144.061C31.9054 143.815 31.1953 143.412 30.6927 142.767C30.4466 142.448 30.2709 142.049 30.2428 141.628C30.2076 141.208 30.3412 140.756 30.6646 140.444C30.8263 140.286 31.0512 140.184 31.2832 140.174C31.5152 140.163 31.7437 140.237 31.93 140.356C32.3131 140.591 32.5557 140.997 32.6576 141.422C32.8439 142.284 32.5029 143.181 31.8773 143.745C31.2516 144.313 30.4326 144.565 29.6487 144.65C28.8614 144.727 28.0705 144.671 27.3394 144.422C26.6118 144.18 25.958 143.703 25.5819 143.058C25.1987 142.427 25.0722 141.632 25.3604 140.962C25.4975 140.633 25.8033 140.339 26.1689 140.282C26.5239 140.216 26.8894 140.314 27.1671 140.521C27.726 140.962 27.8174 141.719 27.6381 142.298C27.4554 142.89 27.0546 143.346 26.6399 143.7C25.7928 144.411 24.791 144.72 23.9263 144.751C23.051 144.783 22.3129 144.541 21.7751 144.264C21.2338 143.984 20.8752 143.665 20.6538 143.437C20.5448 143.321 20.464 143.23 20.4183 143.163C20.3691 143.097 20.3445 143.065 20.348 143.062C20.3726 143.027 20.7452 143.637 21.8208 144.18C22.3551 144.439 23.0756 144.657 23.9228 144.614C24.7593 144.572 25.7225 144.26 26.5274 143.57C26.9211 143.227 27.2937 142.788 27.4554 142.249C27.617 141.726 27.5116 141.05 27.0441 140.693C26.8156 140.521 26.4993 140.44 26.211 140.496C25.9158 140.545 25.6838 140.766 25.5643 141.057C25.3147 141.642 25.4237 142.368 25.7787 142.946C26.1302 143.538 26.7277 143.973 27.4167 144.201C28.1056 144.432 28.8684 144.488 29.6241 144.411C30.3728 144.331 31.1426 144.085 31.712 143.566C32.2744 143.062 32.5838 142.238 32.415 141.481C32.3237 141.113 32.1128 140.766 31.7964 140.573C31.4871 140.37 31.0829 140.377 30.8298 140.633C30.5732 140.878 30.4502 141.26 30.4853 141.621C30.5064 141.989 30.6611 142.336 30.8825 142.631C31.3359 143.22 32.0108 143.609 32.6927 143.847C33.3852 144.085 34.1093 144.197 34.7982 144.117C35.4837 144.04 36.1269 143.752 36.5663 143.269C37.0127 142.802 37.2693 142.168 37.2025 141.572C37.1533 140.99 36.7104 140.426 36.1761 140.391C35.9125 140.374 35.6594 140.503 35.4907 140.7C35.3149 140.896 35.206 141.145 35.1638 141.393C35.0759 141.902 35.2306 142.403 35.4837 142.795C35.7403 143.188 36.0882 143.493 36.4503 143.693C37.1884 144.099 37.9653 144.096 38.5488 144.026C39.1428 143.949 39.5892 143.798 39.8845 143.693C40.1832 143.584 40.3344 143.517 40.3414 143.528L40.3449 143.517Z" fill="#FAFAFA"/>
<path d="M22.0703 130.57V139.718H40.0918V130.57H22.0703Z" fill="#EBEBEB"/>
<path d="M25.0654 130.886C25.1357 130.886 25.1884 132.87 25.1884 135.313C25.1884 137.755 25.1322 139.739 25.0654 139.739C24.9986 139.739 24.9424 137.759 24.9424 135.313C24.9424 132.866 24.9986 130.886 25.0654 130.886Z" fill="#E0E0E0"/>
<path d="M26.4326 130.774C26.5029 130.774 26.5556 132.729 26.5556 135.144C26.5556 137.559 26.4994 139.515 26.4326 139.515C26.3658 139.515 26.3096 137.559 26.3096 135.144C26.3096 132.729 26.3658 130.774 26.4326 130.774Z" fill="#E0E0E0"/>
<path d="M38.0566 130.479C38.1269 130.479 38.1796 132.54 38.1796 135.081C38.1796 137.622 38.1234 139.683 38.0566 139.683C37.9898 139.683 37.9336 137.622 37.9336 135.081C37.9336 132.54 37.9898 130.479 38.0566 130.479Z" fill="#E0E0E0"/>
<path d="M36.4512 130.602C36.5215 130.602 36.5742 132.61 36.5742 135.085C36.5742 137.559 36.5179 139.567 36.4512 139.567C36.3844 139.567 36.3281 137.559 36.3281 135.085C36.3281 132.61 36.3844 130.602 36.4512 130.602Z" fill="#E0E0E0"/>
<path d="M133.461 110.603C135.331 109.643 137.528 109.517 139.602 109.86C140.716 110.042 141.88 110.375 142.636 111.21C143.395 112.044 143.539 113.512 142.667 114.231C142.151 114.658 141.427 114.721 140.755 114.714C139.131 114.697 137.332 114.409 136.031 115.384C135.289 115.941 134.797 116.863 133.915 117.136C133.05 117.403 132.073 116.894 131.613 116.116C131.152 115.338 131.138 114.364 131.352 113.484C131.352 113.484 131.577 111.571 133.461 110.603Z" fill="#EBEBEB"/>
<path d="M129.18 102.363C130.323 103.99 132.544 103.45 133.574 102.458C134.604 101.466 135.04 100.026 135.434 98.6516C136.337 95.5147 137.251 92.2272 136.58 89.0307C136.379 88.0774 136.021 87.1241 135.346 86.4161C134.674 85.7081 133.638 85.2875 132.692 85.5364C131.571 85.8308 130.878 86.9243 130.372 87.9652C128.892 91.0215 128.112 94.4107 128.098 97.8069C128.091 99.3911 128.281 101.056 129.177 102.363" fill="#EBEBEB"/>
<path d="M126.045 104.697C127.286 103.229 127.522 101.087 126.97 99.2509C126.418 97.4108 125.17 95.8477 123.732 94.5719C122.049 93.0753 120.066 91.9082 117.936 91.1617C117.099 90.8673 116.214 90.6359 115.331 90.7201C114.446 90.8042 113.556 91.2563 113.145 92.0379C112.537 93.198 113.12 94.6035 113.753 95.7531C114.867 97.7754 116.14 99.71 117.56 101.533C118.702 102.998 120.006 104.445 121.746 105.108C123.486 105.77 125.289 105.693 126.214 104.491" fill="#EBEBEB"/>
<path d="M129.103 126.908C129.124 126.908 129.159 126.645 129.205 126.168C129.258 125.629 129.325 124.956 129.402 124.15C129.497 123.301 129.62 122.292 129.855 121.191C130.091 120.094 130.46 118.906 130.935 117.697C131.427 116.498 132.024 115.408 132.724 114.536C133.42 113.659 134.225 113.025 134.984 112.661C135.74 112.289 136.418 112.135 136.889 112.068C137.363 112.019 137.627 111.984 137.627 111.963C137.627 111.942 137.363 111.939 136.875 111.953C136.393 111.984 135.687 112.107 134.889 112.468C134.087 112.822 133.233 113.467 132.502 114.36C131.768 115.251 131.149 116.365 130.65 117.585C130.168 118.812 129.803 120.014 129.578 121.135C129.353 122.253 129.251 123.277 129.184 124.132C129.121 124.987 129.096 125.681 129.082 126.161C129.072 126.641 129.079 126.908 129.096 126.908H129.103Z" fill="#E0E0E0"/>
<path d="M129.244 125.355C129.244 125.355 129.262 125.236 129.265 125.012C129.265 124.752 129.265 124.43 129.265 124.03C129.265 123.179 129.265 121.948 129.307 120.427C129.381 117.385 129.645 114.112 130.154 109.492C130.636 105.15 131.279 100.099 131.961 96.815C132.109 96.0685 132.253 95.3956 132.393 94.8067C132.527 94.2179 132.64 93.7097 132.748 93.2961C132.843 92.9071 132.917 92.5917 132.977 92.3428C133.026 92.1255 133.047 92.0063 133.037 92.0028C133.026 92.0028 132.984 92.1115 132.917 92.3253C132.843 92.5706 132.748 92.8826 132.632 93.2646C132.506 93.6712 132.376 94.1794 132.228 94.7647C132.074 95.35 131.912 96.0229 131.75 96.766C131.075 99.7416 130.365 103.902 129.852 108.528C129.342 113.155 129.114 117.368 129.093 120.417C129.075 121.941 129.107 123.175 129.146 124.027C129.17 124.426 129.191 124.749 129.205 125.008C129.223 125.233 129.237 125.348 129.248 125.348L129.244 125.355Z" fill="#E0E0E0"/>
<path d="M129.265 117.231C129.286 117.231 129.283 116.866 129.258 116.208C129.219 115.549 129.128 114.599 128.942 113.432C128.745 112.268 128.471 110.887 128.035 109.387C127.849 108.7 127.406 107.056 126.337 104.599C124.931 101.27 123.019 98.55 121.356 96.8641C120.966 96.4155 120.53 96.093 120.186 95.7776C120.007 95.6269 119.848 95.4762 119.687 95.3535C119.525 95.2414 119.374 95.1362 119.233 95.0416C118.685 94.6701 118.379 94.4703 118.369 94.4878C118.319 94.5544 119.595 95.301 121.205 97.0113C122.808 98.7147 124.667 101.417 126.063 104.719C126.84 106.51 127.385 108.104 127.768 109.461C128.214 110.947 128.509 112.314 128.731 113.467C128.942 114.62 129.065 115.563 129.139 116.215C129.198 116.866 129.244 117.231 129.265 117.231Z" fill="#E0E0E0"/>
<path d="M120.843 130.329L121.658 141.481H136.028L136.847 130.329H120.843Z" fill="#EBEBEB"/>
<path d="M138.558 125.93H119.454V130.325H138.558V125.93Z" fill="#EBEBEB"/>
<path d="M119.454 141.054V142.273H120.354H138.245V141.054H119.454Z" fill="#E0E0E0"/>
<path d="M121.233 144.282L120.354 142.137H137.561L136.534 144.282H121.233Z" fill="#E0E0E0"/>
<path d="M136.58 133.974C136.58 133.974 136.559 134.012 136.513 134.075C136.457 134.152 136.387 134.244 136.299 134.359C136.095 134.619 135.814 134.976 135.462 135.428L135.424 135.477L135.388 135.428C134.861 134.703 134.158 133.732 133.332 132.593H133.452C132.84 133.455 132.158 134.419 131.427 135.453L131.364 135.544L131.293 135.46C130.545 134.573 129.736 133.609 128.893 132.61H129.03C128.988 132.659 128.942 132.719 128.896 132.775C128.151 133.707 127.43 134.608 126.748 135.46L126.678 135.551L126.611 135.456C125.884 134.429 125.202 133.465 124.587 132.6L124.706 132.607C123.708 133.742 122.861 134.703 122.211 135.442L122.165 135.491L122.13 135.435C121.799 134.885 121.539 134.443 121.349 134.128C121.269 133.984 121.202 133.872 121.149 133.781C121.103 133.7 121.086 133.658 121.089 133.658C121.093 133.658 121.121 133.693 121.174 133.77C121.233 133.858 121.304 133.97 121.395 134.107C121.595 134.419 121.87 134.85 122.214 135.393L122.137 135.386C122.777 134.64 123.61 133.665 124.59 132.516L124.654 132.442L124.71 132.519C125.332 133.385 126.017 134.342 126.752 135.365H126.615C127.293 134.506 128.014 133.606 128.756 132.673C128.801 132.617 128.847 132.561 128.889 132.509L128.956 132.424L129.026 132.509C129.866 133.511 130.675 134.475 131.42 135.362H131.286C132.025 134.338 132.713 133.381 133.332 132.523L133.392 132.439L133.452 132.523C134.26 133.676 134.949 134.657 135.466 135.39H135.392C135.757 134.948 136.049 134.601 136.264 134.345C136.359 134.237 136.436 134.149 136.496 134.075C136.548 134.016 136.58 133.984 136.584 133.988L136.58 133.974Z" fill="#F5F5F5"/>
<path d="M137.047 130.255C137.047 130.304 133.447 130.343 129.004 130.343C124.561 130.343 120.962 130.304 120.962 130.255C120.962 130.206 124.561 130.167 129.004 130.167C133.447 130.167 137.047 130.206 137.047 130.255Z" fill="#F5F5F5"/>
<path d="M55.1264 14.0756C55.1264 14.0756 55.0983 14.0685 55.0456 14.051C54.9823 14.0265 54.905 13.9949 54.8136 13.9599C54.5957 13.8688 54.3004 13.7461 53.9278 13.5919C53.144 13.2589 52.0402 12.7858 50.6799 12.204C47.9312 11.0088 44.1596 9.37201 39.9908 7.56C39.8642 7.50392 39.7377 7.44784 39.6217 7.39877H39.699C35.604 9.1442 31.9132 10.7179 29.2278 11.864C27.8991 12.4213 26.8235 12.8699 26.0572 13.1923C25.6952 13.3395 25.4069 13.4587 25.1925 13.5428C24.9957 13.6199 24.8902 13.6585 24.8867 13.655C24.8867 13.648 24.9851 13.5989 25.1785 13.5078C25.3894 13.4131 25.6706 13.2835 26.0291 13.1222C26.7883 12.7893 27.8569 12.3196 29.175 11.7378C31.8535 10.5777 35.5372 8.98648 39.6252 7.22002L39.6639 7.2025L39.7025 7.22002C39.8185 7.2726 39.9451 7.32517 40.0716 7.38125C44.2299 9.21079 47.9945 10.8686 50.7362 12.0743C52.0859 12.6771 53.1826 13.1678 53.9594 13.5183C54.325 13.6865 54.6168 13.8197 54.8312 13.9213C54.9226 13.9634 54.9964 14.0019 55.0561 14.03C55.1053 14.0545 55.1299 14.0685 55.1299 14.072L55.1264 14.0756Z" fill="#E0E0E0"/>
<path d="M71.7942 12.5439H3.14941V63.7957H71.7942V12.5439Z" fill="#E0E0E0"/>
<path d="M69.6532 14.9272H5.5498V61.6892H69.6532V14.9272Z" fill="#FAFAFA"/>
<path d="M19.709 35.3571C19.709 35.3571 19.7758 43.208 20.1765 45.6019L30.0502 45.1357C30.0502 45.1357 29.182 37.418 29.5159 35.3571H19.709Z" fill="#E0E0E0"/>
<path d="M24.5733 36.4682C24.5733 36.4682 24.5838 36.4682 24.6084 36.4647C24.6366 36.4647 24.6717 36.4647 24.7139 36.4612C24.8088 36.4541 24.9459 36.4612 25.1252 36.4822C25.3009 36.5102 25.5188 36.5593 25.7543 36.6679C25.9863 36.7766 26.2289 36.9588 26.4363 37.2077C26.6401 37.46 26.8229 37.7755 26.9108 38.1575C26.9916 38.536 26.9495 38.9636 26.8089 39.3737C26.7385 39.5805 26.6436 39.7838 26.5312 39.98C26.4187 40.1798 26.3097 40.3761 26.2148 40.5934C26.0285 41.0245 25.8809 41.4977 25.8141 41.9918V42.0234H25.7789C25.4661 42.0269 25.1392 42.0339 24.8053 42.0409C24.4538 42.0479 24.1093 42.0514 23.7824 42.0584H23.7473V42.0234C23.7297 41.5292 23.5082 41.0771 23.2727 40.6775C23.1532 40.4742 23.0232 40.2885 22.9037 40.0957C22.7842 39.9064 22.6506 39.7277 22.5557 39.5314C22.3624 39.1389 22.3272 38.7043 22.401 38.3328C22.4713 37.9577 22.5979 37.6178 22.7806 37.3514C22.9669 37.085 23.2024 36.8993 23.4239 36.7731C23.6488 36.6504 23.8562 36.5803 24.032 36.5383C24.2042 36.4962 24.3413 36.4787 24.4362 36.4717C24.4819 36.4717 24.5171 36.4682 24.5417 36.4682C24.5663 36.4682 24.5768 36.4682 24.5768 36.4682C24.5768 36.4682 24.5663 36.4682 24.5417 36.4717C24.5135 36.4717 24.4784 36.4787 24.4362 36.4822C24.3448 36.4927 24.2077 36.5137 24.039 36.5593C23.8703 36.6049 23.6629 36.675 23.445 36.8011C23.227 36.9273 23.0021 37.1096 22.8228 37.3724C22.6471 37.6318 22.524 37.9682 22.4573 38.3363C22.387 38.7008 22.4221 39.1178 22.6119 39.4964C22.7033 39.6856 22.8369 39.8609 22.9564 40.0536C23.0759 40.2429 23.2095 40.4322 23.329 40.6355C23.568 41.0385 23.7965 41.4977 23.8176 42.0164L23.7789 41.9813C24.1058 41.9743 24.4503 41.9708 24.8018 41.9638C25.1357 41.9603 25.4661 41.9533 25.7754 41.9498L25.7403 41.9813C25.8071 41.4731 25.9582 41 26.148 40.5619C26.2429 40.3446 26.3589 40.1378 26.4679 39.9415C26.5804 39.7452 26.6718 39.5489 26.7421 39.3457C26.8862 38.9426 26.9284 38.529 26.851 38.161C26.7702 37.7965 26.5909 37.4811 26.3976 37.2322C26.1937 36.9869 25.9617 36.8081 25.7368 36.696C25.5083 36.5838 25.2974 36.5348 25.1216 36.5032C24.9459 36.4787 24.8088 36.4682 24.7139 36.4717C24.6717 36.4717 24.6366 36.4717 24.6084 36.4717C24.5838 36.4717 24.5733 36.4717 24.5733 36.4717V36.4682Z" fill="white"/>
<path d="M25.0797 41.9358C25.0797 41.9358 25.0797 41.9253 25.0727 41.9042C25.0692 41.8832 25.0656 41.8517 25.0586 41.8131C25.0446 41.7325 25.027 41.6133 25.0059 41.4626C24.9602 41.1577 24.8969 40.7161 24.8512 40.1623C24.8407 40.0256 24.8301 39.8819 24.8266 39.7312C24.8231 39.5805 24.8161 39.4228 24.8266 39.2616C24.8372 39.1003 24.8618 38.9286 24.9391 38.7674C25.0129 38.6096 25.1395 38.4624 25.3152 38.3923C25.4874 38.3187 25.7089 38.3573 25.853 38.494C25.9233 38.5641 25.969 38.6622 25.969 38.7639C25.969 38.8655 25.9303 38.9636 25.8671 39.0443C25.8073 39.1284 25.723 39.1915 25.6281 39.237C25.5367 39.2826 25.4347 39.3106 25.3363 39.3352C25.1324 39.3772 24.925 39.4017 24.7141 39.4088C24.5032 39.4123 24.2923 39.4088 24.0885 39.3772C23.9865 39.3597 23.8846 39.3352 23.7897 39.2931C23.6948 39.251 23.6104 39.1915 23.5401 39.1179C23.4698 39.0443 23.4171 38.9531 23.396 38.855C23.3714 38.7569 23.389 38.6517 23.4312 38.5641C23.4733 38.4765 23.5472 38.3994 23.6385 38.3643C23.7299 38.3258 23.8354 38.3363 23.9198 38.3783C24.0041 38.4169 24.0779 38.4835 24.1307 38.5571C24.1834 38.6307 24.215 38.7183 24.2361 38.8024C24.2748 38.9742 24.2748 39.1424 24.2853 39.3036C24.3029 39.6261 24.3169 39.931 24.331 40.2044C24.3591 40.7546 24.3802 41.1997 24.3978 41.5117C24.4048 41.6659 24.4119 41.7851 24.4154 41.8657C24.4154 41.9042 24.4154 41.9358 24.4154 41.9568C24.4154 41.9358 24.4119 41.9042 24.4083 41.8657C24.4048 41.7816 24.3943 41.6624 24.3872 41.5117C24.3697 41.2033 24.3451 40.7581 24.3099 40.2079C24.2959 39.931 24.2783 39.6296 24.2607 39.3071C24.2502 39.1459 24.2502 38.9777 24.2115 38.8094C24.1904 38.7253 24.1588 38.6447 24.1096 38.5746C24.0603 38.5045 23.99 38.4449 23.9092 38.4064C23.8284 38.3678 23.7335 38.3608 23.6491 38.3959C23.5647 38.4274 23.4979 38.4975 23.4593 38.5816C23.4206 38.6657 23.4066 38.7604 23.4276 38.855C23.4487 38.9461 23.4979 39.0337 23.5647 39.1038C23.6983 39.2475 23.8951 39.3246 24.092 39.3562C24.2923 39.3877 24.5032 39.3912 24.7141 39.3842C24.925 39.3772 25.1324 39.3562 25.3328 39.3141C25.4312 39.2931 25.5296 39.2651 25.6175 39.2195C25.7054 39.1774 25.7862 39.1143 25.846 39.0372C25.9057 38.9601 25.9409 38.8655 25.9409 38.7744C25.9409 38.6797 25.8987 38.5921 25.8354 38.5255C25.7019 38.3958 25.4945 38.3573 25.3293 38.4274C25.1641 38.494 25.041 38.6377 24.9672 38.7884C24.8934 38.9426 24.8653 39.1108 24.8583 39.2721C24.8477 39.4333 24.8583 39.591 24.8583 39.7417C24.8618 39.8924 24.8723 40.0361 24.8829 40.1728C24.925 40.7231 24.9883 41.1647 25.027 41.4731C25.0481 41.6238 25.0656 41.743 25.0762 41.8271C25.0797 41.8657 25.0867 41.8972 25.0867 41.9182C25.0867 41.9393 25.0867 41.9498 25.0867 41.9498L25.0797 41.9358Z" fill="white"/>
<path d="M23.7789 41.9883C23.7789 41.9883 23.793 42.111 23.8035 42.3143C23.8141 42.5526 23.8316 42.8365 23.8492 43.166L23.8422 43.145C24.039 43.3728 24.264 43.6321 24.5065 43.909L24.4714 43.895C24.7139 43.881 24.9705 43.867 25.2412 43.8529L25.2095 43.8705C25.3325 43.7198 25.4626 43.5655 25.5927 43.4043C25.6559 43.3272 25.7227 43.2466 25.786 43.173L25.7754 43.2045C25.7649 42.7559 25.7543 42.3318 25.7473 41.9428L25.7895 41.9813C25.2306 41.9883 24.7455 41.9919 24.3554 41.9989C24.2007 41.9989 24.0636 41.9989 23.9406 41.9989C23.8422 41.9989 23.7895 41.9989 23.7859 41.9919C23.7859 41.9919 23.8316 41.9848 23.923 41.9778C24.0425 41.9708 24.1761 41.9638 24.3272 41.9568C24.7244 41.9428 25.2201 41.9218 25.7895 41.9007H25.8317V41.9393C25.8422 42.3283 25.8563 42.7524 25.8703 43.201V43.2186L25.8598 43.2326C25.7965 43.3097 25.7333 43.3868 25.6665 43.4674C25.5364 43.6251 25.4064 43.7828 25.2833 43.9335L25.2693 43.9476H25.2482C24.981 43.9616 24.7209 43.9756 24.4784 43.9861H24.4573L24.4432 43.9721C24.2042 43.6917 23.9863 43.4288 23.7895 43.1975L23.7824 43.187V43.1765C23.7824 42.8365 23.7754 42.5456 23.7754 42.3003C23.7754 42.097 23.7754 41.9883 23.7824 41.9919L23.7789 41.9883Z" fill="white"/>
<path d="M25.7653 43.0959C25.7653 43.0959 25.7372 43.0854 25.6915 43.0643C25.6458 43.0433 25.579 43.0153 25.4911 42.9872C25.3224 42.9276 25.0728 42.8716 24.7987 42.8821C24.521 42.8891 24.2784 42.9592 24.1132 43.0293C24.0289 43.0643 23.9621 43.0959 23.9199 43.1204C23.8742 43.1449 23.8496 43.159 23.8496 43.1555C23.8496 43.1555 23.8707 43.1379 23.9129 43.1099C23.9551 43.0819 24.0218 43.0468 24.1062 43.0083C24.2714 42.9347 24.521 42.8575 24.7987 42.8505C25.0799 42.8435 25.3294 42.8996 25.5017 42.9662C25.586 42.9977 25.6528 43.0293 25.6985 43.0538C25.7442 43.0784 25.7653 43.0924 25.7653 43.0959Z" fill="white"/>
<path d="M25.7614 42.791C25.7614 42.791 25.7333 42.7804 25.6876 42.7594C25.6419 42.7384 25.5751 42.7104 25.4872 42.6823C25.3185 42.6227 25.0689 42.5702 24.7948 42.5772C24.5171 42.5842 24.2745 42.6543 24.1093 42.7244C24.025 42.7594 23.9582 42.791 23.916 42.8155C23.8703 42.84 23.8457 42.8541 23.8457 42.8505C23.8457 42.8505 23.8668 42.833 23.909 42.805C23.9512 42.7769 24.0179 42.7419 24.1023 42.7033C24.2675 42.6297 24.5171 42.5526 24.7948 42.5456C25.076 42.5386 25.3255 42.5947 25.4978 42.6613C25.5821 42.6928 25.6489 42.7244 25.6946 42.7489C25.7403 42.7734 25.7614 42.7875 25.7614 42.791Z" fill="white"/>
<path d="M25.7438 42.5001C25.7438 42.5001 25.7157 42.4895 25.67 42.4685C25.6243 42.4475 25.5575 42.4194 25.4696 42.3914C25.3009 42.3318 25.0514 42.2757 24.7772 42.2863C24.4995 42.2933 24.257 42.3634 24.0918 42.4335C24.0074 42.4685 23.9441 42.5001 23.8984 42.5246C23.8527 42.5491 23.8281 42.5631 23.8281 42.5596C23.8281 42.5596 23.8492 42.5421 23.8914 42.5141C23.9336 42.486 24.0004 42.451 24.0847 42.4124C24.2499 42.3388 24.4995 42.2617 24.7772 42.2547C25.0584 42.2477 25.3079 42.3038 25.4802 42.3704C25.5645 42.4019 25.6313 42.4335 25.677 42.458C25.7227 42.4825 25.7438 42.4966 25.7438 42.5001Z" fill="white"/>
<path d="M8.71387 22.5258C8.71387 22.5258 8.78065 30.3767 9.18136 32.7705L19.0551 32.3044C19.0551 32.3044 18.1868 24.5867 18.5208 22.5258H8.71387Z" fill="#EBEBEB"/>
<path d="M17.034 25.8239C17.034 25.8765 15.5577 26.0096 13.7264 26.1183C11.8951 26.2269 10.4117 26.2725 10.4082 26.2199C10.4082 26.1674 11.8845 26.0342 13.7158 25.9255C15.5436 25.8169 17.0305 25.7713 17.034 25.8239Z" fill="white"/>
<path d="M17.034 27.4852C17.034 27.5378 15.5577 27.671 13.7264 27.7796C11.8951 27.8883 10.4117 27.9338 10.4082 27.8813C10.4082 27.8287 11.8845 27.6955 13.7158 27.5868C15.5436 27.4782 17.0305 27.4326 17.034 27.4852Z" fill="white"/>
<path d="M15.3572 29.1185C15.3572 29.171 14.5171 29.2657 13.4766 29.3287C12.4327 29.3918 11.5855 29.3988 11.582 29.3463C11.582 29.2937 12.4221 29.1991 13.4626 29.136C14.5065 29.0729 15.3536 29.0659 15.3572 29.1185Z" fill="white"/>
<path d="M8.24609 45.6194C8.24609 45.6194 8.31288 53.4703 8.71359 55.8641L18.5873 55.398C18.5873 55.398 17.7191 47.6802 18.053 45.6194H8.24609Z" fill="#EBEBEB"/>
<path d="M16.5662 48.9175C16.5662 48.9701 15.0899 49.1032 13.2586 49.2119C11.4273 49.3205 9.94394 49.3661 9.94043 49.3135C9.94043 49.261 11.4167 49.1278 13.2481 49.0191C15.0759 48.9105 16.5627 48.8649 16.5662 48.9175Z" fill="white"/>
<path d="M16.5662 50.5788C16.5662 50.6314 15.0899 50.7645 13.2586 50.8732C11.4273 50.9818 9.94394 51.0274 9.94043 50.9748C9.94043 50.9223 11.4167 50.7891 13.2481 50.6804C15.0759 50.5718 16.5627 50.5262 16.5662 50.5788Z" fill="white"/>
<path d="M14.8894 52.2121C14.8894 52.2646 14.0493 52.3593 13.0089 52.4223C11.9649 52.4854 11.1178 52.4924 11.1143 52.4399C11.1143 52.3873 11.9543 52.2927 12.9948 52.2296C14.0388 52.1665 14.8859 52.1595 14.8894 52.2121Z" fill="white"/>
<path d="M35.2314 24.6042L36.2086 47.2457L64.5537 47.5891L63.2813 24.9056L35.2314 24.6042Z" fill="#EBEBEB"/>
<path d="M63.0592 24.443H34.9004V45.6439H63.0592V24.443Z" fill="#F5F5F5"/>
<path d="M63.0594 45.6439C63.0594 45.6439 63.0524 45.5072 63.0524 45.2514C63.0524 44.9885 63.0489 44.61 63.0418 44.1193C63.0383 43.1239 63.0313 41.6764 63.0207 39.8293C63.0102 36.1317 62.9961 30.8429 62.9785 24.443L63.0594 24.5236C55.0979 24.5271 45.3824 24.5341 34.9041 24.5411L35.0025 24.443C35.0025 32.0661 34.9955 39.2861 34.992 45.6439L34.9041 45.5563C43.2347 45.5738 50.2647 45.5878 55.2139 45.5984C57.6884 45.6089 59.6463 45.6159 60.989 45.6229C61.6569 45.6264 62.1701 45.6299 62.5251 45.6334C62.6973 45.6334 62.8274 45.6369 62.9223 45.6369C63.0137 45.6369 63.0594 45.6404 63.0594 45.6404C63.0594 45.6404 63.0172 45.6404 62.9329 45.6439C62.8415 45.6439 62.7114 45.6439 62.5462 45.6474C62.1947 45.6474 61.6885 45.6544 61.0277 45.6579C59.6885 45.665 57.7377 45.672 55.2701 45.6825C50.3034 45.693 43.2558 45.707 34.9041 45.7245H34.8162V45.6369C34.8162 39.2791 34.8092 32.0625 34.8057 24.436V24.3378H34.9041C45.3824 24.3448 55.0979 24.3518 63.0594 24.3553H63.1402V24.436C63.1227 30.8569 63.1086 36.1632 63.0981 39.8714C63.091 41.7115 63.084 43.152 63.077 44.1438C63.0735 44.6275 63.0699 45.0025 63.0664 45.2584C63.0664 45.5107 63.0594 45.6334 63.0594 45.6334V45.6439Z" fill="#E0E0E0"/>
<path d="M49.7131 28.9362H38.2998V43.2606H49.7131V28.9362Z" fill="#F5F5F5"/>
<path d="M49.7127 43.2606C49.7127 43.2606 49.7127 43.2361 49.7092 43.187C49.7092 43.1344 49.7092 43.0678 49.7057 42.9837C49.7057 42.7945 49.6986 42.5351 49.6951 42.2021C49.6881 41.5117 49.6811 40.5163 49.6705 39.2651C49.66 36.7451 49.6459 33.1771 49.6283 28.9397L49.7162 29.0273C46.3137 29.0273 42.4225 29.0343 38.3029 29.0378C38.2783 29.0589 38.4857 28.8556 38.3978 28.9432V29.4339V29.9281C38.3978 30.2575 38.3978 30.5835 38.3978 30.9094C38.3978 31.5614 38.3978 32.2027 38.3978 32.8406C38.3978 34.1129 38.3978 35.3536 38.3978 36.5558C38.3943 38.9601 38.3908 41.2173 38.3873 43.2641L38.3064 43.1835C41.7301 43.201 44.5737 43.215 46.5703 43.2256C47.5615 43.2361 48.3418 43.2431 48.8902 43.2466C49.1503 43.2501 49.3542 43.2536 49.5053 43.2571C49.6459 43.2571 49.7232 43.2676 49.7232 43.2676C49.7232 43.2676 49.66 43.2746 49.5229 43.2781C49.3752 43.2781 49.1784 43.2851 48.9218 43.2886C48.3805 43.2922 47.6037 43.2992 46.6195 43.3097C44.6089 43.3202 41.7512 43.3342 38.3029 43.3517H38.2221V43.2711C38.2186 41.2243 38.2151 38.9706 38.2115 36.5628C38.2115 35.3606 38.2115 34.1164 38.2115 32.8476C38.2115 32.2133 38.2115 31.5684 38.2115 30.9165C38.2115 30.5905 38.2115 30.2645 38.2115 29.9351V29.4409V29.1921V28.9502C38.1237 29.0308 38.3275 28.824 38.31 28.8486C42.4296 28.8521 46.3207 28.8556 49.7232 28.8591H49.8111V28.9467C49.7935 33.2051 49.7795 36.7941 49.7689 39.3281C49.7584 40.5724 49.7514 41.5607 49.7443 42.2477C49.7408 42.5737 49.7373 42.8295 49.7338 43.0153C49.7338 43.0959 49.7303 43.159 49.7303 43.208C49.7303 43.2501 49.7303 43.2711 49.7267 43.2711L49.7127 43.2606Z" fill="#E0E0E0"/>
<path d="M60.6093 25.6556H38.7354V27.72H60.6093V25.6556Z" fill="#F5F5F5"/>
<path d="M60.6091 27.72C60.6091 27.72 60.6056 27.6709 60.6021 27.5798C60.6021 27.4782 60.595 27.3485 60.5915 27.1803C60.588 26.8228 60.5775 26.3111 60.5704 25.6592L60.6091 25.6977C56.9183 25.7328 48.5104 25.7538 38.7351 25.7538C38.9284 25.561 38.7878 25.7012 38.8335 25.6592V26.1849C38.8335 26.3601 38.8335 26.5354 38.8335 26.7071C38.8335 27.0541 38.8335 27.3906 38.8335 27.72L38.7386 27.6254C44.8548 27.6429 50.3066 27.6569 54.2434 27.6674C56.2048 27.678 57.79 27.6885 58.8973 27.6955C59.4386 27.7025 59.8604 27.706 60.1627 27.7095C60.2998 27.7095 60.4087 27.713 60.4931 27.7165C60.5669 27.7165 60.6091 27.72 60.6091 27.7235C60.6091 27.7235 60.5774 27.727 60.5036 27.7305C60.4228 27.7305 60.3173 27.734 60.1838 27.7375C59.8885 27.7375 59.4702 27.7445 58.9394 27.7516C57.8392 27.7586 56.261 27.7691 54.3067 27.7796C50.3523 27.7901 44.8759 27.8041 38.7316 27.8217H38.6367V27.727C38.6367 27.3976 38.6367 27.0576 38.6367 26.7141C38.6367 26.5424 38.6367 26.3671 38.6367 26.1919V25.929V25.7958V25.6732V25.6662C38.6789 25.6241 38.5383 25.7608 38.7351 25.568C48.5104 25.568 56.9218 25.5926 60.6091 25.6241H60.6477V25.6627C60.6372 26.3251 60.6302 26.8438 60.6267 27.2083C60.6231 27.373 60.6196 27.5027 60.6161 27.6008C60.6161 27.6885 60.6126 27.7305 60.6091 27.727V27.72Z" fill="#E0E0E0"/>
<path d="M60.6134 28.9362H51.1123V37.5687H60.6134V28.9362Z" fill="#F5F5F5"/>
<path d="M60.6091 37.5687C60.6091 37.5687 60.6021 37.5091 60.5986 37.4005C60.5986 37.2813 60.5915 37.1271 60.588 36.9308C60.5845 36.5102 60.574 35.9179 60.5669 35.1714C60.5564 33.6538 60.5423 31.5088 60.5248 28.9327L60.6056 29.0133C57.8604 29.0168 54.5984 29.0238 51.1045 29.0273C51.0834 29.0484 51.2873 28.8451 51.1994 28.9327V29.518C51.1994 29.7143 51.1994 29.907 51.1994 30.0998C51.1994 30.4854 51.1994 30.8709 51.1994 31.2494C51.1994 32.01 51.1994 32.753 51.1994 33.475C51.1994 34.9225 51.1924 36.2964 51.1924 37.5617L51.108 37.4776C53.9271 37.4951 56.2856 37.5091 57.9623 37.5196C58.7848 37.5301 59.4421 37.5372 59.9061 37.5407C60.1205 37.5442 60.2928 37.5477 60.4263 37.5512C60.5458 37.5512 60.6091 37.5582 60.6126 37.5617C60.6126 37.5617 60.5599 37.5687 60.4474 37.5722C60.3209 37.5722 60.1557 37.5792 59.9448 37.5827C59.4843 37.5897 58.8375 37.5967 58.0185 37.6037C56.3313 37.6143 53.9517 37.6283 51.1115 37.6458H51.0272V37.5617C51.0272 36.2964 51.0201 34.9225 51.0201 33.475C51.0201 32.7495 51.0201 32.0065 51.0201 31.2494C51.0201 30.8709 51.0201 30.4854 51.0201 30.0998C51.0201 29.907 51.0201 29.7108 51.0201 29.518V29.2236V29.0764V28.9397V28.9327C50.9323 29.0168 51.1361 28.8135 51.1186 28.8346C54.6125 28.8416 57.8744 28.8451 60.6197 28.8486H60.704V28.9292C60.6864 31.5263 60.6724 33.6888 60.6618 35.2204C60.6513 35.96 60.6443 36.5453 60.6407 36.9624C60.6372 37.1516 60.6337 37.2988 60.6302 37.4145C60.6302 37.5161 60.6232 37.5652 60.6197 37.5652L60.6091 37.5687Z" fill="#E0E0E0"/>
<path d="M60.6134 38.9216H51.1123V43.2606H60.6134V38.9216Z" fill="#F5F5F5"/>
<path d="M60.6097 43.2606C60.6097 43.2606 60.5991 43.1485 60.5956 42.9452C60.5921 42.7279 60.585 42.437 60.578 42.0725C60.5675 41.3084 60.5569 40.2359 60.5394 38.9216L60.6097 38.9917C58.1316 38.9987 54.7888 39.0092 51.1086 39.0197C51.0207 39.1073 51.2246 38.9006 51.2035 38.9251V39.209V39.4929C51.2035 39.6821 51.2035 39.8679 51.2035 40.0572C51.2035 40.4287 51.2035 40.8002 51.2035 41.1612C51.2035 41.8867 51.2035 42.5912 51.1999 43.2641L51.1086 43.173C53.8503 43.1905 56.2053 43.2045 57.9031 43.215C58.7326 43.2256 59.4005 43.2326 59.882 43.2396C60.1 43.2431 60.2792 43.2466 60.4163 43.2501C60.5394 43.2536 60.6061 43.2571 60.6097 43.2606C60.6132 43.2641 60.5534 43.2676 60.4409 43.2711C60.3074 43.2711 60.1351 43.2781 59.9242 43.2816C59.4462 43.2886 58.7854 43.2957 57.9664 43.3062C56.2545 43.3167 53.8749 43.3307 51.1121 43.3482H51.0207V43.2571C51.0207 42.5842 51.0207 41.8797 51.0172 41.1542C51.0172 40.7897 51.0172 40.4217 51.0172 40.0501C51.0172 39.8644 51.0172 39.6751 51.0172 39.4859V39.202V39.0583V38.9251V38.9181C50.9961 38.9391 51.1999 38.7323 51.1156 38.8199C54.7958 38.8305 58.1386 38.841 60.6167 38.848H60.687V38.9181C60.6729 40.2499 60.6589 41.3364 60.6483 42.1145C60.6413 42.472 60.6343 42.7559 60.6307 42.9697C60.6272 43.1625 60.6202 43.2606 60.6167 43.2571L60.6097 43.2606Z" fill="#E0E0E0"/>
<path d="M49.4319 28.9607C45.8993 33.829 41.8324 38.3923 38.2998 43.2606Z" fill="white"/>
<path d="M38.2998 43.2606C38.2998 43.2606 38.3279 43.201 38.3947 43.0994C38.4756 42.9802 38.574 42.8365 38.6935 42.6648C38.9536 42.2863 39.3438 41.75 39.8359 41.0946C40.8166 39.7803 42.2191 37.9998 43.7903 36.0511C45.3615 34.1024 46.7815 32.3394 47.7904 31.0461C48.2789 30.4153 48.6832 29.9 48.982 29.5145C49.112 29.3498 49.221 29.2131 49.3088 29.1009C49.3862 29.0063 49.4284 28.9607 49.4354 28.9642C49.4424 28.9677 49.4073 29.0238 49.3405 29.1255C49.2596 29.2446 49.1612 29.3883 49.0417 29.5601C48.7816 29.9386 48.3914 30.4748 47.8993 31.1302C46.9186 32.4446 45.5161 34.225 43.9414 36.1738C42.3702 38.119 40.9501 39.8854 39.9448 41.1787C39.4562 41.8096 39.052 42.3248 38.7532 42.7103C38.6232 42.8751 38.5142 43.0118 38.4263 43.1239C38.349 43.2185 38.3068 43.2641 38.2998 43.2606Z" fill="#E0E0E0"/>
<path d="M49.7126 43.2571C49.6704 43.2886 47.0799 40.1097 43.9304 36.1562C40.7774 32.1992 38.2572 28.9677 38.2993 28.9327C38.3415 28.9012 40.9286 32.0801 44.0816 36.0336C47.2345 39.9871 49.7548 43.2221 49.7126 43.2536V43.2571Z" fill="#E0E0E0"/>
<path d="M36.208 28.9643C36.208 29.9491 35.4101 30.7447 34.4223 30.7447C33.4346 30.7447 32.6367 29.9491 32.6367 28.9643C32.6367 27.9794 33.4346 27.1838 34.4223 27.1838C35.4101 27.1838 36.208 27.9794 36.208 28.9643Z" fill="#E0E0E0"/>
<path d="M65.414 24.6427C65.414 25.6276 64.6161 26.4232 63.6284 26.4232C62.6407 26.4232 61.8428 25.6276 61.8428 24.6427C61.8428 23.6579 62.6407 22.8623 63.6284 22.8623C64.6161 22.8623 65.414 23.6579 65.414 24.6427Z" fill="#E0E0E0"/>
<path d="M135.265 37.0465H114.688V66.7888H135.265V37.0465Z" fill="#E0E0E0"/>
<path d="M134.235 37.0465H113.658V66.7888H134.235V37.0465Z" fill="#F5F5F5"/>
<path d="M131.68 40.2675H116.214V63.5678H131.68V40.2675Z" fill="white"/>
<path d="M131.679 63.5643C131.679 63.5643 131.679 63.5258 131.679 63.4487C131.679 63.3716 131.679 63.2629 131.679 63.1192C131.679 62.8248 131.679 62.3972 131.672 61.8399C131.672 60.7219 131.665 59.0956 131.658 57.0418C131.651 52.9341 131.644 47.116 131.634 40.264L131.686 40.3165C126.962 40.3165 121.725 40.3165 116.224 40.32L116.28 40.264C116.277 49.0542 116.273 57.1574 116.27 63.5643L116.224 63.5188C120.934 63.5293 124.793 63.5363 127.479 63.5433C128.822 63.5468 129.873 63.5503 130.59 63.5538C130.945 63.5538 131.219 63.5573 131.405 63.5573C131.591 63.5573 131.686 63.5608 131.686 63.5608C131.686 63.5608 131.595 63.5608 131.412 63.5643C131.226 63.5643 130.955 63.5643 130.604 63.5678C129.89 63.5678 128.843 63.5748 127.504 63.5784C124.811 63.5854 120.941 63.5924 116.22 63.6029H116.175V63.5573C116.175 57.1504 116.168 49.0472 116.164 40.2569V40.2009H116.22C121.721 40.2009 126.959 40.2009 131.683 40.2044H131.736V40.2569C131.725 47.123 131.718 52.9516 131.711 57.0663C131.704 59.1167 131.7 60.7394 131.697 61.854C131.697 62.4042 131.693 62.8318 131.69 63.1227C131.69 63.2629 131.69 63.3716 131.69 63.4487C131.69 63.5223 131.69 63.5573 131.69 63.5573L131.679 63.5643Z" fill="#E0E0E0"/>
<path d="M134.291 37.0465C134.291 37.0465 134.165 37.2603 133.926 37.5792C133.687 37.8982 133.346 38.3328 132.959 38.7989C132.572 39.2686 132.21 39.6821 131.943 39.9766C131.676 40.271 131.5 40.4462 131.49 40.4357C131.479 40.4252 131.63 40.2324 131.883 39.924C132.158 39.591 132.499 39.1809 132.875 38.7253C133.251 38.2697 133.588 37.8596 133.866 37.5266C134.119 37.2217 134.281 37.036 134.295 37.043L134.291 37.0465Z" fill="#E0E0E0"/>
<path d="M131.757 63.4907C132.527 64.7069 133.43 65.839 134.453 66.8554Z" fill="white"/>
<path d="M134.453 66.8519C134.453 66.8519 134.26 66.7047 133.982 66.4243C133.704 66.1474 133.339 65.7479 132.966 65.2817C132.594 64.8156 132.281 64.3704 132.07 64.041C131.859 63.7115 131.743 63.4977 131.757 63.4907C131.771 63.4837 131.908 63.68 132.137 63.9989C132.365 64.3179 132.681 64.749 133.054 65.2151C133.427 65.6778 133.782 66.0843 134.042 66.3752C134.302 66.6661 134.467 66.8449 134.453 66.8554V66.8519Z" fill="#E0E0E0"/>
<path d="M113.654 66.7643C114.554 65.6602 115.45 64.5527 116.35 63.4487Z" fill="white"/>
<path d="M116.351 63.4452C116.376 63.4662 115.792 64.2233 115.047 65.138C114.302 66.0528 113.68 66.7818 113.655 66.7608C113.63 66.7398 114.214 65.9827 114.959 65.0679C115.704 64.1532 116.326 63.4241 116.351 63.4452Z" fill="#E0E0E0"/>
<path d="M113.658 37.0465C113.683 37.029 114.27 37.7264 114.966 38.6061C115.665 39.4859 116.21 40.2149 116.185 40.2359C116.161 40.2534 115.574 39.556 114.878 38.6762C114.178 37.7965 113.633 37.0675 113.658 37.0465Z" fill="#E0E0E0"/>
<path d="M126.86 44.9955H121.683V59.6564H126.86V44.9955Z" fill="#E0E0E0"/>
<path d="M130.523 5.44309L127.577 5.45898L127.656 20.0741L130.602 20.0582L130.523 5.44309Z" fill="#E0E0E0"/>
<path d="M109.686 5.482L102.059 5.52315L102.102 13.5912L109.73 13.5501L109.686 5.482Z" fill="#EBEBEB"/>
<path d="M117.275 5.44106L109.647 5.48221L109.691 13.5503L117.319 13.5092L117.275 5.44106Z" fill="#F5F5F5"/>
<path d="M102.069 7.75627C107.137 7.79833 112.22 7.77029 117.289 7.68617C117.394 7.68617 117.391 7.52495 117.289 7.52495C112.22 7.49691 107.137 7.52495 102.069 7.61608C101.981 7.61608 101.981 7.75277 102.069 7.75627Z" fill="#E0E0E0"/>
<path d="M111.16 13.416L97.3008 13.4908L97.3365 20.0658L111.196 19.991L111.16 13.416Z" fill="#EBEBEB"/>
<path d="M124.956 13.3416L111.097 13.4163L111.132 19.9914L124.992 19.9166L124.956 13.3416Z" fill="#F5F5F5"/>
<path d="M97.31 15.3233C106.516 15.4284 115.757 15.3338 124.963 15.1866C125.068 15.1866 125.065 15.0254 124.963 15.0254C115.757 14.9763 106.516 14.9833 97.31 15.1831C97.2222 15.1831 97.2222 15.3198 97.31 15.3233Z" fill="#E0E0E0"/>
<path d="M145.824 20.0724H92.1289V22.4277H145.824V20.0724Z" fill="#E0E0E0"/>
<path d="M103.099 21.2045H100.92V29.2411H103.099V21.2045Z" fill="#E0E0E0"/>
<path d="M135.637 21.2045H133.458V29.2411H135.637V21.2045Z" fill="#E0E0E0"/>
<path d="M133.397 -0.0084753L130.451 0.00741577L130.56 20.1076L133.506 20.0917L133.397 -0.0084753Z" fill="#EBEBEB"/>
<path d="M137.996 3.73445L133.42 3.75914L133.508 20.0495L138.085 20.0248L137.996 3.73445Z" fill="#F5F5F5"/>
<path d="M137.968 6.88005C137.968 6.92211 136.942 6.96066 135.68 6.96066C134.418 6.96066 133.392 6.92561 133.392 6.88005C133.392 6.83449 134.414 6.79944 135.68 6.79944C136.945 6.79944 137.968 6.83449 137.968 6.88005Z" fill="#E0E0E0"/>
<path d="M137.968 6.19661C137.968 6.23867 136.942 6.27722 135.68 6.27722C134.418 6.27722 133.392 6.24217 133.392 6.19661C133.392 6.15105 134.414 6.116 135.68 6.116C136.945 6.116 137.968 6.15105 137.968 6.19661Z" fill="#E0E0E0"/>
<path d="M137.968 17.5804C137.968 17.6225 136.942 17.661 135.68 17.661C134.418 17.661 133.392 17.626 133.392 17.5804C133.392 17.5349 134.414 17.4998 135.68 17.4998C136.945 17.4998 137.968 17.5349 137.968 17.5804Z" fill="#E0E0E0"/>
<path d="M137.968 16.897C137.968 16.939 136.942 16.9776 135.68 16.9776C134.418 16.9776 133.392 16.9425 133.392 16.897C133.392 16.8514 134.414 16.8164 135.68 16.8164C136.945 16.8164 137.968 16.8514 137.968 16.897Z" fill="#E0E0E0"/>
<path d="M135.754 15.4039C135.712 15.4039 135.673 13.7601 135.673 11.7343C135.673 9.70848 135.708 8.0647 135.754 8.0647C135.799 8.0647 135.835 9.70848 135.835 11.7343C135.835 13.7601 135.799 15.4039 135.754 15.4039Z" fill="#E0E0E0"/>
<path d="M142.998 7.74225H138.018V20.0373H142.998V7.74225Z" fill="#EBEBEB"/>
<path d="M140.65 16.8479C139.997 16.8479 139.536 16.3818 139.536 15.7404C139.536 15.3934 139.67 15.092 139.94 14.9097L140.053 15.0639C139.831 15.2216 139.726 15.467 139.726 15.7369C139.726 16.2521 140.095 16.6306 140.65 16.6306C141.206 16.6306 141.575 16.2521 141.575 15.7369C141.575 15.4635 141.469 15.2216 141.248 15.0639L141.36 14.9097C141.624 15.0885 141.765 15.3934 141.765 15.7404C141.765 16.3818 141.304 16.8479 140.65 16.8479Z" fill="#FAFAFA"/>
<path d="M141.48 14.6083L141.311 14.5102C141.455 14.3419 141.574 14.044 141.574 13.7216C141.574 13.2589 141.409 13.0767 141.163 13.0767C140.523 13.0767 140.994 14.5277 140.133 14.5277C139.803 14.5277 139.532 14.2508 139.532 13.697C139.532 13.4201 139.617 13.1187 139.747 12.947L139.915 13.0451C139.782 13.2309 139.719 13.4692 139.719 13.704C139.719 14.1316 139.894 14.3209 140.13 14.3209C140.791 14.3209 140.323 12.8699 141.16 12.8699C141.518 12.8699 141.761 13.1748 141.761 13.7321C141.761 14.0931 141.638 14.4365 141.48 14.6083Z" fill="#FAFAFA"/>
<path d="M141.48 12.607L141.311 12.5124C141.455 12.3442 141.574 12.0462 141.574 11.7238C141.574 11.2647 141.409 11.0789 141.163 11.0789C140.523 11.0789 140.994 12.5299 140.133 12.5299C139.803 12.5299 139.532 12.253 139.532 11.6993C139.532 11.4224 139.617 11.121 139.747 10.9492L139.915 11.0439C139.782 11.2296 139.719 11.4679 139.719 11.7028C139.719 12.1304 139.894 12.3196 140.13 12.3196C140.791 12.3196 140.323 10.8686 141.16 10.8686C141.518 10.8686 141.761 11.1735 141.761 11.7308C141.761 12.0918 141.638 12.4353 141.48 12.607Z" fill="#FAFAFA"/>
<path d="M131.88 4.27594C132.348 4.27594 132.727 3.89777 132.727 3.43127C132.727 2.96477 132.348 2.58659 131.88 2.58659C131.412 2.58659 131.033 2.96477 131.033 3.43127C131.033 3.89777 131.412 4.27594 131.88 4.27594Z" fill="#E0E0E0"/>
<path d="M132.14 5.75499H131.616V17.7136H132.14V5.75499Z" fill="#E0E0E0"/>
<path d="M152 144.87C152 144.919 118.048 144.961 76.1772 144.961C34.3063 144.961 0.347656 144.919 0.347656 144.87C0.347656 144.821 34.2922 144.779 76.1772 144.779C118.062 144.779 152 144.821 152 144.87Z" fill="#263238"/>
<path d="M41.4066 24.3764C35.765 33.2227 36.1341 45.4897 42.2994 53.982C46.4085 59.6459 52.5703 63.4382 57.4632 68.4431C62.3561 73.4446 66.075 80.8188 63.4915 87.3168C60.8622 93.9305 53.1608 96.6223 47.3927 100.811C41.1113 105.374 36.7 112.422 35.3467 120.052C33.9934 127.682 35.7193 135.814 40.0533 142.245H99.9563C99.9563 142.245 110.48 122.25 96.951 107.011C83.4216 91.7715 76.1561 91.5227 76.6552 81.5303C77.1579 71.5379 84.1703 68.2889 88.181 64.5422C92.1881 60.7955 111.732 52.0508 100.206 24.3764H41.4066Z" fill="#FAFAFA"/>
<path d="M41.4067 24.3764C41.4067 24.3764 41.7547 24.3694 42.4366 24.3694C43.122 24.3694 44.1379 24.3659 45.4736 24.3623C48.1485 24.3588 52.0888 24.3518 57.1645 24.3448C67.3264 24.3378 82.0298 24.3273 100.209 24.3133H100.255L100.269 24.3518C101.088 26.4232 101.914 28.5577 102.501 30.8183C103.106 33.0684 103.598 35.4167 103.774 37.8456C103.956 40.271 103.879 42.7769 103.394 45.2654C102.895 47.7468 102.002 50.2038 100.688 52.4784C100.034 53.6175 99.2639 54.7005 98.4309 55.7415C97.5908 56.7789 96.6593 57.7533 95.6716 58.6855C94.6838 59.6143 93.6329 60.4906 92.5397 61.3282C91.45 62.1694 90.3112 62.965 89.2004 63.8027C88.645 64.2197 88.1354 64.6894 87.6046 65.159C87.0703 65.6217 86.522 66.0668 85.9701 66.5049C84.8629 67.3881 83.7451 68.2714 82.6906 69.2352C80.5605 71.1348 78.7608 73.5076 77.7696 76.273C77.288 77.6504 76.9435 79.0944 76.8311 80.5735C76.8029 80.9415 76.7502 81.3095 76.7397 81.681C76.7326 82.0525 76.7115 82.424 76.7291 82.7955C76.7326 83.5386 76.817 84.2851 76.9541 85.0176C77.2353 86.4862 77.8539 87.8916 78.7538 89.1078C79.6396 90.338 80.7292 91.421 81.8611 92.462C84.1353 94.5369 86.5466 96.5136 88.8595 98.6516C91.1829 100.776 93.436 103.019 95.6083 105.377C96.6874 106.562 97.7806 107.75 98.7226 109.072C99.6963 110.368 100.515 111.781 101.232 113.246C102.649 116.19 103.524 119.418 103.812 122.72C104.122 126.021 103.886 129.386 103.229 132.677C102.905 134.324 102.473 135.957 101.942 137.563C101.412 139.168 100.8 140.752 100.041 142.28L100.016 142.329H98.4168C77.9664 142.329 58.2366 142.329 40.0569 142.326H40.0112L39.9866 142.287C37.1324 138.015 35.4382 133.108 34.9707 128.187C34.4751 123.266 35.2343 118.335 37.0445 113.954C38.8302 109.559 41.607 105.707 44.9639 102.675C46.637 101.147 48.5 99.8993 50.37 98.7427C52.24 97.5861 54.1275 96.5136 55.9097 95.343C57.6847 94.1689 59.3966 92.9176 60.785 91.3895C62.1805 89.8719 63.2455 88.0914 63.8009 86.1742C64.3598 84.2571 64.3668 82.2453 64.0399 80.3527C63.706 78.453 63.0381 76.655 62.1875 75.0007C61.3369 73.3429 60.3034 71.8218 59.1716 70.4339C58.0433 69.0424 56.7884 67.8052 55.523 66.6381C52.9887 64.3109 50.3911 62.2745 48.0571 60.1821C46.8866 59.1377 45.7794 58.0862 44.76 57.0032C43.7477 55.9132 42.8197 54.7986 42.0253 53.642C40.4225 51.3358 39.3223 48.9034 38.5982 46.5587C37.8741 44.2104 37.5156 41.9393 37.4312 39.8504C37.382 39.3281 37.4031 38.8164 37.4031 38.3187C37.4101 37.8211 37.396 37.3304 37.4453 36.8572C37.4804 36.3841 37.5191 35.9214 37.5507 35.4693C37.6034 35.0207 37.6808 34.5861 37.7405 34.1655C38.2678 30.7833 39.2906 28.3088 40.0886 26.7281C40.2784 26.3251 40.4471 25.9711 40.6299 25.6872C40.8021 25.3963 40.9427 25.1509 41.0587 24.9547C41.2907 24.5621 41.4067 24.3694 41.4067 24.3694C41.3821 24.4114 41.2837 24.5832 41.0657 24.9687C40.9533 25.165 40.8126 25.4103 40.6439 25.7012C40.4647 25.9851 40.2995 26.3391 40.1096 26.7422C39.3223 28.3264 38.31 30.7973 37.7897 34.176C37.73 34.5966 37.6562 35.0312 37.6034 35.4798C37.5683 35.9284 37.5367 36.3911 37.5015 36.8642C37.4523 37.3374 37.4664 37.8246 37.4628 38.3222C37.4628 38.8199 37.4453 39.3316 37.4945 39.8504C37.5823 41.9323 37.9444 44.1964 38.672 46.5377C39.3961 48.8754 40.4963 51.2938 42.0991 53.5895C42.8935 54.7391 43.818 55.8501 44.8303 56.9366C45.8497 58.0161 46.9569 59.0641 48.1274 60.105C50.4614 62.1904 53.059 64.2232 55.6039 66.554C56.8693 67.7211 58.1312 68.9618 59.27 70.3603C60.4089 71.7552 61.4458 73.2798 62.3035 74.9481C63.1576 76.613 63.836 78.418 64.1735 80.3351C64.5039 82.2453 64.5039 84.2781 63.938 86.2198C63.3756 88.158 62.2965 89.963 60.894 91.4946C59.4915 93.0403 57.7726 94.2985 55.994 95.4762C54.2049 96.6538 52.3208 97.7263 50.4543 98.8829C48.5879 100.04 46.7355 101.28 45.0729 102.801C41.7371 105.816 38.9743 109.653 37.2027 114.024C35.403 118.381 34.6508 123.284 35.1464 128.177C35.6139 133.069 37.3011 137.948 40.1378 142.196L40.064 142.158C58.2472 142.158 77.977 142.158 98.4238 142.154H99.9669L99.8861 142.203C100.638 140.693 101.25 139.108 101.777 137.514C102.304 135.915 102.733 134.289 103.057 132.649C103.71 129.372 103.946 126.025 103.637 122.744C103.352 119.464 102.484 116.257 101.074 113.333C100.361 111.879 99.5486 110.474 98.582 109.187C97.647 107.876 96.5574 106.692 95.4818 105.511C93.313 103.155 91.0634 100.916 88.747 98.7918C86.4411 96.6573 84.0333 94.6806 81.7521 92.5987C80.6203 91.5542 79.52 90.4642 78.6237 89.2165C77.7133 87.9828 77.0841 86.5458 76.7994 85.0562C76.6623 84.3097 76.578 83.5561 76.5709 82.8061C76.5534 82.431 76.5745 82.056 76.5815 81.681C76.5956 81.306 76.6448 80.9345 76.6764 80.5629C76.7889 79.0734 77.1369 77.6154 77.6255 76.2204C78.6272 73.4305 80.448 71.0297 82.5922 69.1195C83.6537 68.1487 84.775 67.262 85.8822 66.3822C86.4376 65.9406 86.9824 65.499 87.5132 65.0399C88.0334 64.5772 88.5572 64.0971 89.1161 63.6765C90.2338 62.8353 91.3692 62.0432 92.4553 61.202C93.545 60.3679 94.5925 59.4952 95.5767 58.5699C96.5574 57.6446 97.4853 56.6737 98.3219 55.6433C99.1479 54.6059 99.9142 53.5299 100.568 52.4013C101.876 50.1442 102.765 47.7013 103.264 45.2374C103.749 42.7664 103.826 40.271 103.647 37.8561C103.475 35.4342 102.983 33.0965 102.385 30.8534C101.802 28.5997 100.979 26.4688 100.164 24.4009L100.224 24.4395C82.0544 24.4254 67.3581 24.4149 57.2032 24.4079C52.124 24.4009 48.1801 24.3939 45.5052 24.3904C44.1695 24.3869 43.1466 24.3834 42.4612 24.3834C41.7758 24.3834 41.4207 24.3764 41.4207 24.3764H41.4067Z" fill="#263238"/>
<path d="M97.8188 40.6039C106.642 42.0514 92.7291 57.6306 84.8554 63.7781C80.2965 67.3391 75.4 71.1979 73.2348 76.5534C70.7778 82.6308 72.5986 89.4583 71.407 95.5708C71.2101 96.5872 69.7057 96.426 69.7198 95.3921C69.7795 91.379 69.6706 87.3694 69.0027 83.4194C68.0572 77.8186 65.8954 72.2739 61.9586 68.1697C58.7459 64.8191 54.5314 62.59 51.1007 59.4601C46.0953 54.8863 40.9528 48.9876 40.4502 42.2337C40.4502 42.2337 50.0603 34.516 55.3961 35.4903C61.6317 36.6294 67.7689 46.2222 77.4282 45.1217C84.1735 44.3541 87.5761 38.9216 97.8118 40.6004L97.8188 40.6039Z" fill="#F99F1B"/>
<path d="M98.6029 123.999C98.3815 121.798 97.7909 119.309 95.8331 118.272C94.6485 117.644 93.2038 117.715 91.9033 118.055C90.6027 118.395 89.383 118.983 88.0965 119.365C85.5622 120.115 82.7853 120.028 80.3037 119.12C77.91 118.244 75.8537 116.66 73.6322 115.412C71.4107 114.164 68.8061 113.239 66.3315 113.852C62.0643 114.911 59.8428 120.035 55.6248 121.272C53.7513 121.822 51.7371 121.514 49.8285 121.083C47.9233 120.652 46.0077 120.098 44.0568 120.171C42.5278 120.228 40.9355 120.757 39.8599 121.801L39.8704 121.787C39.8704 121.787 39.8493 121.808 39.8388 121.822C39.6631 121.998 39.5014 122.183 39.3537 122.387C38.0461 124.125 37.8352 126.466 38.2395 128.59C38.6894 130.97 39.8037 133.168 40.9988 135.274C42.4083 137.755 44.0076 140.226 46.3346 141.877C49.2063 143.917 52.8198 142.508 56.3348 142.785C64.5353 143.43 73.3615 143.871 81.5621 143.237C85.8961 142.901 89.956 143.37 93.3937 140.721C95.812 138.856 97.3867 136.045 98.146 133.09C98.9052 130.136 98.9017 127.038 98.5924 124.002L98.6029 123.999Z" fill="#F99F1B"/>
<path d="M35.6594 144.961C35.6594 144.961 35.4942 142.221 39.0795 140.693H102.086C102.086 140.693 105.373 142.35 105.777 144.902L35.6594 144.958V144.961Z" fill="#263238"/>
<path d="M100.754 24.7128C100.722 24.7269 100.687 24.7444 100.656 24.7584L41.4099 24.3799C41.4099 24.3799 41.199 24.2467 40.8862 24.0014C39.199 22.6835 40.1445 19.9813 42.2887 19.9988L99.7909 20.4614C102.164 20.479 102.902 23.7034 100.758 24.7163L100.754 24.7128Z" fill="#263238"/>
<g opacity="0.24">
<path d="M91.2708 47.2456C91.3903 47.4735 90.9439 47.9676 90.0968 48.7177C89.2461 49.4712 88.0018 50.5017 86.4201 51.7739C84.8313 53.0357 82.905 54.5533 80.4515 55.9728C79.2213 56.6808 77.8539 57.3221 76.3601 57.8444C75.6079 58.0967 74.8275 58.3315 74.0085 58.4928C73.193 58.668 72.3424 58.7837 71.4672 58.8222C69.7237 58.9204 67.9486 58.668 66.3598 58.1248C64.7816 57.578 63.4318 56.8069 62.2543 56.0359C61.0732 55.2543 60.0539 54.4832 59.0943 53.7472C58.1382 53.0077 57.2665 52.2962 56.4897 51.6232C53.3789 48.935 51.7409 46.9582 52.0572 46.5762C52.3841 46.1802 54.588 47.4384 58.0187 49.5413C58.8764 50.0671 59.8149 50.6419 60.8237 51.2587C61.829 51.8686 62.9116 52.545 64.0153 53.1689C65.1225 53.7927 66.279 54.3605 67.4776 54.7285C68.6692 55.0825 69.9381 55.2508 71.2879 55.1772C73.9874 55.0405 76.6061 54.0907 78.8733 53.0006C81.1546 51.8896 83.1933 50.6278 84.9719 49.636C86.7469 48.6336 88.2689 47.8905 89.3727 47.4945C90.4799 47.0984 91.1583 47.0283 91.2708 47.2456Z" fill="black"/>
</g>
<path d="M69.7659 102.896C70.4162 102.668 71.193 103.32 71.0805 103.997C70.9645 104.673 70.0155 105.037 69.4777 104.61C68.9399 104.182 69.0805 103.18 69.7167 102.917" fill="#F99F1B"/>
<path d="M48.5769 57.0242C48.5769 57.0242 48.4996 56.9576 48.366 56.8139C48.2254 56.6597 48.0321 56.4494 47.793 56.1866C47.5505 55.9097 47.2306 55.5872 46.9037 55.1772C46.5733 54.7671 46.1972 54.301 45.786 53.7892C45.4028 53.2495 44.9705 52.6712 44.5346 52.0263C44.3272 51.6968 44.1128 51.3569 43.8914 51.0064C43.7824 50.8311 43.6664 50.6559 43.561 50.4701C43.459 50.2844 43.3571 50.0951 43.2516 49.9023C42.3869 48.3847 41.6171 46.6043 41.0688 44.6626C40.5205 42.7174 40.2639 40.7967 40.2393 39.0478C40.2393 38.6096 40.2603 38.1856 40.2709 37.772C40.2814 37.5652 40.2779 37.3619 40.299 37.1621C40.3201 36.9624 40.3412 36.7661 40.3623 36.5733C40.408 36.1878 40.4361 35.8128 40.4888 35.4553C40.5521 35.1013 40.6154 34.7613 40.6751 34.4353C40.7771 33.7799 40.9493 33.2086 41.0723 32.7004C41.1391 32.4481 41.1918 32.2098 41.2586 31.996C41.3289 31.7857 41.3922 31.5894 41.4519 31.4106C41.5644 31.0742 41.6558 30.8043 41.7226 30.6045C41.7859 30.4223 41.821 30.3276 41.828 30.3276C41.8351 30.3276 41.8105 30.4293 41.7577 30.615C41.698 30.8183 41.6207 31.0882 41.5187 31.4282C41.466 31.6069 41.4062 31.8032 41.343 32.0135C41.2797 32.2273 41.234 32.4691 41.1707 32.7215C41.0547 33.2297 40.8931 33.8045 40.8017 34.4564C40.7454 34.7823 40.6892 35.1188 40.6294 35.4728C40.5802 35.8268 40.5556 36.2018 40.5134 36.5838C40.4959 36.7766 40.4748 36.9729 40.4537 37.1691C40.4361 37.3689 40.4396 37.5722 40.4326 37.7755C40.4256 38.1856 40.4045 38.6096 40.408 39.0443C40.4396 40.7792 40.6997 42.6823 41.2446 44.6135C41.7894 46.5412 42.5486 48.3076 43.3993 49.8217C43.5012 50.0145 43.6031 50.2038 43.7051 50.3895C43.807 50.5753 43.923 50.747 44.032 50.9258C44.2499 51.2762 44.4608 51.6162 44.6647 51.9457C45.0935 52.5906 45.5188 53.1724 45.8949 53.7121C46.2992 54.2309 46.6647 54.697 46.9881 55.1141C47.3044 55.5312 47.6173 55.8571 47.8493 56.1445C48.0778 56.4179 48.2605 56.6317 48.3976 56.7929C48.5206 56.9436 48.5839 57.0242 48.5804 57.0277L48.5769 57.0242Z" fill="#263238"/>
<path d="M45.2412 109.093C45.2412 109.093 45.2623 109.051 45.308 108.977C45.3607 108.896 45.4275 108.788 45.5154 108.647C45.6103 108.5 45.7263 108.322 45.8599 108.115C45.9302 108.01 46.004 107.897 46.0813 107.775C46.1692 107.659 46.2676 107.543 46.3695 107.414C46.5769 107.161 46.8089 106.881 47.0585 106.573C47.3291 106.282 47.6385 105.98 47.9654 105.651C48.6332 105.006 49.4381 104.319 50.3767 103.625C52.2431 102.216 54.6509 100.814 57.2591 99.1773C58.5526 98.3467 59.9164 97.4704 61.2064 96.405C62.4964 95.3465 63.7408 94.1268 64.7496 92.6723C66.7356 89.7282 67.5405 86.3179 67.6143 83.2687C67.6952 80.1984 67.0378 77.4611 66.2681 75.2811C65.4877 73.0941 64.5914 71.4258 63.9411 70.3042C63.6142 69.7399 63.3471 69.3123 63.1643 69.0214C63.0764 68.8812 63.0096 68.7726 62.9569 68.692C62.9112 68.6184 62.8901 68.5763 62.8901 68.5763C62.8901 68.5763 62.9218 68.6113 62.971 68.6814C63.0272 68.7621 63.101 68.8672 63.1924 69.0039C63.3857 69.2878 63.6634 69.7119 64.0009 70.2691C64.6722 71.3837 65.5897 73.045 66.3911 75.2391C67.182 77.4261 67.8568 80.1774 67.7865 83.2757C67.7725 84.0468 67.7092 84.8389 67.5932 85.638C67.4807 86.4406 67.312 87.2502 67.08 88.0599C66.6266 89.6791 65.9025 91.2914 64.9077 92.7774C63.8884 94.253 62.63 95.4832 61.3295 96.5452C60.0289 97.6176 58.6616 98.4904 57.361 99.321C54.7423 100.951 52.3345 102.339 50.4645 103.73C49.526 104.417 48.7176 105.09 48.0462 105.724C47.7193 106.05 47.4065 106.345 47.1358 106.632C46.8827 106.934 46.6472 107.21 46.4363 107.459C46.3309 107.586 46.2289 107.698 46.1411 107.813C46.0602 107.932 45.9829 108.045 45.9126 108.146C45.772 108.35 45.6525 108.525 45.554 108.669C45.4591 108.802 45.3853 108.907 45.3291 108.987C45.2764 109.058 45.2518 109.096 45.2482 109.093H45.2412Z" fill="#263238"/>
<path d="M41.9727 115.286C41.9727 115.286 41.9516 115.345 41.8954 115.447C41.8286 115.566 41.7442 115.713 41.6458 115.892C41.5333 116.081 41.3998 116.32 41.2627 116.604C41.1256 116.887 40.9498 117.199 40.8022 117.567C40.7249 117.75 40.6405 117.939 40.5562 118.139C40.4718 118.338 40.4015 118.552 40.3207 118.77C40.1484 119.201 40.0148 119.681 39.8637 120.182C39.593 121.191 39.3681 122.32 39.2486 123.522C39.1431 124.724 39.1607 125.877 39.2415 126.918C39.3013 127.437 39.3435 127.935 39.4349 128.39C39.477 128.618 39.5052 128.843 39.5509 129.053C39.6001 129.263 39.6458 129.463 39.6915 129.659C39.7688 130.048 39.8848 130.388 39.9692 130.69C40.05 130.995 40.1379 131.25 40.2152 131.457C40.282 131.65 40.3347 131.811 40.3804 131.941C40.4156 132.053 40.4331 132.113 40.4261 132.116C40.4191 132.116 40.3945 132.064 40.3453 131.955C40.2925 131.829 40.2257 131.671 40.1484 131.482C40.0605 131.275 39.9621 131.023 39.8707 130.718C39.7758 130.416 39.6528 130.076 39.5649 129.687C39.5157 129.494 39.4665 129.291 39.4138 129.081C39.3611 128.871 39.3294 128.646 39.2837 128.415C39.1853 127.956 39.1361 127.455 39.0728 126.932C38.9814 125.881 38.9603 124.717 39.0658 123.505C39.1853 122.292 39.4173 121.153 39.6985 120.136C39.8567 119.632 39.9973 119.152 40.1765 118.717C40.2644 118.5 40.3347 118.282 40.4261 118.086C40.5175 117.89 40.6019 117.697 40.6862 117.518C40.8444 117.15 41.0272 116.838 41.1748 116.561C41.3189 116.281 41.463 116.05 41.5861 115.861C41.6985 115.689 41.7899 115.545 41.8673 115.429C41.934 115.331 41.9692 115.282 41.9762 115.286H41.9727Z" fill="#263238"/>
<path d="M85.429 123.708C85.429 123.708 85.4079 123.729 85.3587 123.76C85.2989 123.796 85.2286 123.841 85.1407 123.897C84.9333 124.023 84.6486 124.192 84.2866 124.409C84.1003 124.521 83.8929 124.64 83.6679 124.773C83.4359 124.9 83.1794 125.019 82.9052 125.159C82.3533 125.425 81.7382 125.762 81.0141 126.035C80.6556 126.182 80.2795 126.337 79.8893 126.494C79.4991 126.652 79.0738 126.771 78.645 126.922C77.7908 127.234 76.8418 127.455 75.854 127.714C73.8575 128.156 71.6255 128.482 69.2634 128.559C66.9013 128.608 64.6517 128.397 62.6341 128.061C61.6323 127.854 60.6762 127.682 59.8045 127.416C59.3686 127.29 58.9398 127.192 58.5391 127.055C58.1419 126.915 57.7587 126.782 57.3932 126.656C56.655 126.421 56.0258 126.116 55.4599 125.877C55.1787 125.755 54.9151 125.646 54.6761 125.534C54.4441 125.411 54.2332 125.303 54.0398 125.201C53.6672 125.005 53.3755 124.847 53.1611 124.735C53.0697 124.686 52.9959 124.644 52.9361 124.609C52.8869 124.581 52.8623 124.563 52.8623 124.56C52.8623 124.56 52.8904 124.567 52.9467 124.591C53.0099 124.619 53.0873 124.658 53.1822 124.7C53.4001 124.805 53.6989 124.952 54.075 125.134C54.2683 125.229 54.4827 125.338 54.7182 125.453C54.9573 125.562 55.2244 125.664 55.5056 125.783C56.075 126.011 56.7042 126.305 57.4424 126.533C57.8079 126.656 58.1876 126.785 58.5883 126.922C58.9855 127.055 59.4143 127.15 59.8502 127.272C60.7184 127.532 61.6709 127.696 62.6692 127.896C64.6763 128.222 66.9118 128.425 69.2634 128.38C71.6114 128.306 73.8329 127.987 75.8224 127.556C76.8066 127.304 77.7522 127.09 78.6063 126.785C79.0351 126.641 79.4569 126.522 79.8471 126.372C80.2373 126.217 80.6134 126.067 80.9684 125.927C81.6925 125.664 82.3076 125.334 82.863 125.078C83.1372 124.945 83.3973 124.829 83.6293 124.707C83.8577 124.581 84.0651 124.461 84.2549 124.356C84.6205 124.153 84.9123 123.992 85.1232 123.876C85.2145 123.827 85.2919 123.789 85.3516 123.753C85.4044 123.725 85.4325 123.715 85.4325 123.718L85.429 123.708Z" fill="#263238"/>
<path d="M89.095 49.5308C89.095 49.5308 89.0704 49.5554 89.0212 49.6009C88.9615 49.65 88.8841 49.7131 88.7892 49.7902C88.5748 49.9619 88.2725 50.2003 87.8929 50.5052C87.1091 51.122 85.9807 52.0158 84.5501 53.0813C83.1195 54.1397 81.3831 55.3734 79.3233 56.5265C78.2828 57.0803 77.1721 57.6481 75.9559 58.0722C74.7432 58.4998 73.4356 58.8257 72.0683 58.9344C69.3231 59.1201 66.7184 58.4262 64.6024 57.3852C63.5444 56.856 62.5883 56.2637 61.7166 55.6749C60.8589 55.072 60.075 54.4867 59.3826 53.9259C57.9906 52.8114 56.901 51.8686 56.1417 51.2237C55.7727 50.9047 55.4809 50.6559 55.2735 50.4736C55.1821 50.393 55.1083 50.3264 55.0521 50.2739C55.0029 50.2283 54.9783 50.2038 54.9818 50.2002C54.9818 50.2002 55.0134 50.2178 55.0661 50.2598C55.1259 50.3089 55.2032 50.3685 55.3016 50.4456C55.5161 50.6173 55.8148 50.8592 56.1909 51.1676C56.9607 51.7985 58.0644 52.7238 59.4634 53.8243C60.1594 54.3781 60.9468 54.9529 61.8044 55.5487C62.6726 56.127 63.6252 56.7123 64.6762 57.2345C66.7782 58.2579 69.3477 58.9344 72.0577 58.7521C73.404 58.647 74.694 58.3245 75.8961 57.904C77.1018 57.4869 78.2055 56.9261 79.2424 56.3793C81.2987 55.2403 83.0351 54.0206 84.4763 52.9761C85.9139 51.9246 87.0563 51.0484 87.8507 50.4491C88.2409 50.1582 88.5502 49.9269 88.7681 49.7621C88.8666 49.6885 88.9474 49.6325 89.0107 49.5869C89.0669 49.5483 89.095 49.5308 89.0986 49.5308H89.095Z" fill="#263238"/>
<g opacity="0.24">
<path d="M57.3926 126.652C59.0587 125.369 61.3997 125.681 63.456 126.112C65.5158 126.543 67.5897 127.244 69.6741 126.953C71.2453 126.733 72.6864 125.965 74.2366 125.629C75.7867 125.292 77.6672 125.541 78.5249 126.869C71.7057 129.081 64.1625 129 57.3926 126.649" fill="black"/>
</g>
<path d="M10.2213 135.695C10.2213 135.695 10.2389 135.642 10.2846 135.547C10.3338 135.442 10.4006 135.302 10.485 135.123C10.6537 134.748 10.8751 134.184 11.0685 133.427C11.4551 131.92 11.5922 129.617 11.0192 126.88C10.7521 125.509 10.3233 124.041 9.80304 122.485C9.28634 120.925 8.68878 119.267 8.20019 117.48C7.71512 115.696 7.3355 113.758 7.40931 111.725C7.48313 109.688 8.08771 107.656 8.75205 105.633C9.41639 103.607 10.1018 101.627 10.3057 99.6365C10.5377 97.6492 10.1124 95.697 9.20198 94.0953C8.32322 92.4795 7.21599 91.0951 6.38644 89.6651C5.54635 88.2386 5.0191 86.7701 4.69572 85.4067C4.06653 82.6554 4.28798 80.3352 4.58675 78.807C4.91365 77.2719 5.2757 76.4763 5.2757 76.4763C5.2757 76.4763 5.26515 76.5289 5.23352 76.6305C5.19837 76.7392 5.15267 76.8899 5.09292 77.0756C4.96989 77.4682 4.81172 78.0535 4.66408 78.821C4.38991 80.3457 4.19307 82.6484 4.83632 85.3717C5.16673 86.721 5.69399 88.1685 6.53408 89.5775C7.3601 90.9935 8.47085 92.3674 9.3707 94.0041C10.2987 95.6199 10.7451 97.6352 10.5096 99.6575C10.3022 101.683 9.61323 103.678 8.94889 105.7C8.28455 107.722 7.687 109.731 7.61319 111.732C7.53937 113.733 7.90845 115.65 8.38649 117.427C8.86805 119.208 9.45857 120.865 9.96825 122.429C10.485 123.992 10.9068 125.471 11.1669 126.852C11.7258 129.607 11.5641 131.934 11.1493 133.444C10.9384 134.202 10.7064 134.766 10.5236 135.137C10.4322 135.313 10.3584 135.449 10.3057 135.554C10.2565 135.649 10.2284 135.695 10.2248 135.691L10.2213 135.695Z" fill="#263238"/>
<path d="M7.51199 91.0811C7.51199 91.0811 5.82829 85.7186 8.84769 82.5783C8.95315 82.4696 9.13944 82.5187 9.16756 82.6694C9.32925 83.5561 9.52961 86.2549 7.51199 91.0811Z" fill="#F99F1B"/>
<path d="M8.52035 84.3622C8.54847 84.3692 8.49926 84.7443 8.40787 85.3506C8.29891 86.0306 8.16885 86.8332 8.02474 87.7164C7.88414 88.5996 7.7576 89.4022 7.64863 90.0822C7.55724 90.6885 7.501 91.0636 7.46936 91.06C7.44124 91.06 7.44476 90.678 7.501 90.0647C7.55724 89.4513 7.6662 88.6101 7.81735 87.6849C7.9685 86.7596 8.13019 85.9254 8.26376 85.3261C8.39381 84.7267 8.49575 84.3587 8.52387 84.3622H8.52035Z" fill="#263238"/>
<path d="M9.4873 103.73C9.4873 103.73 10.5172 98.203 14.6579 96.8361C14.802 96.787 14.9426 96.9202 14.8969 97.0674C14.6227 97.9261 13.5366 100.404 9.4873 103.73Z" fill="#F99F1B"/>
<path d="M13.5296 98.2625C13.5507 98.2801 13.3328 98.592 12.9637 99.0827C12.5454 99.633 12.0568 100.281 11.5155 100.996C10.9777 101.711 10.4891 102.36 10.0744 102.914C9.7088 103.408 9.48384 103.713 9.45923 103.695C9.43463 103.681 9.61741 103.345 9.95485 102.829C10.2923 102.314 10.7844 101.62 11.3503 100.874C11.9197 100.127 12.454 99.4647 12.8512 98.9951C13.2484 98.5254 13.5085 98.2485 13.5331 98.2661L13.5296 98.2625Z" fill="#263238"/>
<path d="M8.3694 117.592C8.3694 117.592 7.74372 112.005 11.308 109.499C11.4345 109.412 11.6067 109.499 11.6032 109.65C11.5927 110.551 11.2728 113.235 8.3694 117.592Z" fill="#F99F1B"/>
<path d="M10.6437 111.192C10.6718 111.203 10.5523 111.564 10.3449 112.142C10.1059 112.79 9.82467 113.551 9.51535 114.392C9.20954 115.233 8.92834 115.994 8.69283 116.642C8.48545 117.22 8.35891 117.578 8.33079 117.571C8.30618 117.564 8.38 117.189 8.55223 116.597C8.72447 116.004 8.99161 115.198 9.31851 114.318C9.6454 113.439 9.96175 112.65 10.2078 112.086C10.4503 111.521 10.6191 111.178 10.6472 111.192H10.6437Z" fill="#263238"/>
<path d="M11.4869 131.538C11.4869 131.538 11.0615 125.934 14.7136 123.554C14.8402 123.47 15.0124 123.564 15.0054 123.715C14.9632 124.616 14.5484 127.286 11.4869 131.538Z" fill="#F99F1B"/>
<path d="M13.9897 125.219C14.0179 125.229 13.8843 125.587 13.6558 126.158C13.3922 126.796 13.0864 127.546 12.7454 128.376C12.408 129.207 12.1022 129.957 11.8421 130.595C11.6136 131.163 11.4765 131.517 11.4484 131.51C11.4238 131.503 11.5117 131.131 11.705 130.546C11.8983 129.961 12.1936 129.165 12.5521 128.296C12.9106 127.43 13.2551 126.652 13.5187 126.098C13.7824 125.544 13.9616 125.208 13.9897 125.219Z" fill="#263238"/>
<path d="M5.09326 86.367C5.09326 86.367 0.0984206 83.7664 0 79.4204C0 79.2662 0.165206 79.1715 0.291747 79.2592C1.03342 79.7709 3.09322 81.5338 5.09326 86.3705V86.367Z" fill="#F99F1B"/>
<path d="M1.03711 80.9134C1.06171 80.8959 1.29371 81.1973 1.65927 81.6915C2.0635 82.2523 2.54154 82.9077 3.06879 83.6332C3.59604 84.3587 4.07409 85.0106 4.48183 85.5714C4.84739 86.0656 5.07587 86.367 5.05126 86.3881C5.03017 86.4056 4.76303 86.1357 4.36583 85.6625C3.96864 85.1894 3.44841 84.52 2.90007 83.7559C2.35173 82.9953 1.87368 82.2909 1.53976 81.7756C1.20583 81.2604 1.01602 80.9275 1.04062 80.9134H1.03711Z" fill="#263238"/>
<path d="M10.4571 97.8875C10.4571 97.8875 5.31113 95.5918 4.94908 91.2598C4.93502 91.1091 5.10023 91.004 5.23028 91.0811C6.00359 91.5472 8.16533 93.184 10.4571 97.8875Z" fill="#F99F1B"/>
<path d="M6.07764 92.6863C6.10224 92.6688 6.35181 92.9562 6.74549 93.4258C7.18487 93.9586 7.70158 94.5859 8.27101 95.2799C8.84396 95.9704 9.36067 96.5942 9.80004 97.127C10.1937 97.5966 10.4398 97.8875 10.4187 97.9086C10.3976 97.9261 10.1129 97.6737 9.69108 97.2251C9.26576 96.7765 8.70687 96.1386 8.10932 95.4131C7.51528 94.6876 6.99506 94.0146 6.6295 93.517C6.26393 93.0228 6.05655 92.7038 6.07764 92.6863Z" fill="#263238"/>
<path d="M7.49735 110.736C7.49735 110.736 3.96475 106.359 5.62033 102.335C5.68008 102.195 5.86989 102.174 5.95074 102.304C6.42527 103.068 7.6028 105.507 7.49383 110.736H7.49735Z" fill="#F99F1B"/>
<path d="M5.97203 104.116C6.00015 104.112 6.09505 104.48 6.22862 105.08C6.37626 105.756 6.54849 106.548 6.7383 107.421C6.93163 108.293 7.10738 109.086 7.25501 109.759C7.3921 110.354 7.47646 110.726 7.44834 110.736C7.42373 110.743 7.28665 110.389 7.11089 109.797C6.93866 109.205 6.73127 108.381 6.53092 107.466C6.33408 106.548 6.17941 105.714 6.08099 105.108C5.98257 104.501 5.94039 104.123 5.96851 104.116H5.97203Z" fill="#263238"/>
<path d="M10.9986 125.856C10.9986 125.856 5.89125 123.477 5.60302 119.138C5.59247 118.987 5.75768 118.882 5.88774 118.966C6.6505 119.446 8.78411 121.118 10.9986 125.86V125.856Z" fill="#F99F1B"/>
<path d="M6.70312 120.585C6.72773 120.568 6.97378 120.858 7.36043 121.335C7.78927 121.875 8.29543 122.513 8.85432 123.214C9.41321 123.915 9.91937 124.546 10.3517 125.085C10.7384 125.562 10.9774 125.856 10.9563 125.877C10.9352 125.895 10.654 125.636 10.2392 125.183C9.82446 124.728 9.2726 124.079 8.68911 123.343C8.10562 122.607 7.59946 121.927 7.24444 121.423C6.88942 120.922 6.68203 120.599 6.70664 120.582L6.70312 120.585Z" fill="#263238"/>
<path d="M21.1676 103.762C21.1676 103.762 21.1746 103.804 21.1746 103.884C21.1746 103.983 21.1676 104.102 21.1641 104.245C21.15 104.582 21.129 105.037 21.1043 105.609C21.0376 106.807 20.9462 108.476 20.8372 110.474V110.484C20.4716 112.517 19.4347 114.771 18.0393 116.961C17.0164 118.573 15.9443 120.038 15.0163 121.402C14.0849 122.762 13.2975 124.02 12.7527 125.134C12.2008 126.249 11.8809 127.206 11.6946 127.875C11.6033 128.212 11.5365 128.471 11.4978 128.653C11.4556 128.832 11.431 128.927 11.424 128.923C11.417 128.923 11.4275 128.825 11.4556 128.643C11.4802 128.461 11.5365 128.194 11.6138 127.854C11.779 127.174 12.0813 126.203 12.6191 125.071C13.1534 123.939 13.9337 122.663 14.8582 121.293C15.7756 119.919 16.8441 118.454 17.8635 116.849C19.2519 114.672 20.2853 112.45 20.6615 110.449V110.46C20.8021 108.462 20.9181 106.793 21.0024 105.598C21.0481 105.03 21.0868 104.575 21.1114 104.238C21.1254 104.095 21.136 103.979 21.1465 103.881C21.1571 103.8 21.1641 103.758 21.1676 103.758V103.762Z" fill="#263238"/>
<path d="M18.1269 116.544C18.1269 116.544 20.2887 111.353 17.568 107.954C17.4731 107.834 17.2833 107.869 17.2411 108.017C16.9986 108.886 16.5557 111.553 18.1269 116.544Z" fill="#F99F1B"/>
<path d="M17.7331 109.762C17.7613 109.762 17.8281 110.134 17.9054 110.743C17.9827 111.353 18.0671 112.198 18.1339 113.134C18.2006 114.07 18.2323 114.918 18.2323 115.535C18.2323 116.151 18.2006 116.53 18.1725 116.53C18.1409 116.53 18.1198 116.151 18.0847 115.538C18.039 114.851 17.9827 114.041 17.923 113.148C17.8597 112.254 17.8034 111.444 17.7542 110.757C17.7156 110.144 17.7015 109.766 17.7296 109.762H17.7331Z" fill="#263238"/>
<g opacity="0.3">
<path d="M18.1269 116.544C18.1269 116.544 20.2887 111.353 17.568 107.954C17.4731 107.834 17.2833 107.869 17.2411 108.017C16.9986 108.886 16.5557 111.553 18.1269 116.544Z" fill="black"/>
</g>
<path d="M11.4307 129.049C11.4307 129.049 13.1636 123.701 10.1759 120.532C10.0704 120.42 9.8841 120.473 9.85598 120.62C9.68726 121.503 9.45879 124.199 11.4307 129.049Z" fill="#F99F1B"/>
<path d="M10.4854 122.324C10.5135 122.317 10.612 122.688 10.735 123.287C10.8615 123.89 11.0162 124.724 11.1568 125.65C11.3009 126.575 11.3993 127.42 11.452 128.033C11.5013 128.646 11.5013 129.028 11.4731 129.032C11.4415 129.032 11.3923 128.657 11.3044 128.05C11.2025 127.367 11.083 126.568 10.9494 125.681C10.8158 124.794 10.6928 123.995 10.5874 123.312C10.4995 122.706 10.4538 122.327 10.4819 122.32L10.4854 122.324Z" fill="#263238"/>
<g opacity="0.3">
<path d="M11.4307 129.049C11.4307 129.049 13.1636 123.701 10.1759 120.532C10.0704 120.42 9.8841 120.473 9.85598 120.62C9.68726 121.503 9.45879 124.199 11.4307 129.049Z" fill="black"/>
</g>
<path d="M20.8789 110.2C20.8789 110.2 25.4976 106.976 25.0301 102.654C25.0126 102.503 24.8333 102.43 24.7208 102.531C24.0495 103.134 22.2392 105.15 20.8789 110.2Z" fill="#F99F1B"/>
<g opacity="0.3">
<path d="M20.8789 110.2C20.8789 110.2 25.4976 106.976 25.0301 102.654C25.0126 102.503 24.8333 102.43 24.7208 102.531C24.0495 103.134 22.2392 105.15 20.8789 110.2Z" fill="black"/>
</g>
<path d="M24.1975 104.266C24.2221 104.28 24.078 104.631 23.8144 105.188C23.5507 105.742 23.1676 106.503 22.7212 107.326C22.2748 108.153 21.846 108.886 21.512 109.405C21.1781 109.923 20.9496 110.228 20.925 110.211C20.9004 110.193 21.0867 109.864 21.382 109.327C21.7124 108.721 22.1026 108.01 22.5314 107.225C22.9602 106.436 23.3469 105.724 23.6773 105.118C23.9761 104.582 24.1659 104.252 24.194 104.266H24.1975Z" fill="#263238"/>
<path d="M13.29 123.746C13.29 123.746 18.8578 122.881 20.3517 118.794C20.4044 118.65 20.2744 118.507 20.1268 118.549C19.2585 118.798 16.7418 119.807 13.29 123.746Z" fill="#F99F1B"/>
<g opacity="0.3">
<path d="M13.29 123.746C13.29 123.746 18.8578 122.881 20.3517 118.794C20.4044 118.65 20.2744 118.507 20.1268 118.549C19.2585 118.798 16.7418 119.807 13.29 123.746Z" fill="black"/>
</g>
<path d="M18.8902 119.877C18.9077 119.902 18.623 120.15 18.138 120.536C17.6564 120.918 16.978 121.433 16.2117 121.976C15.4454 122.523 14.7354 122.993 14.2082 123.312C13.6809 123.631 13.34 123.803 13.3259 123.778C13.3083 123.75 13.6247 123.536 14.1273 123.186C14.6932 122.786 15.3576 122.32 16.0887 121.805C16.8198 121.286 17.4842 120.816 18.0466 120.417C18.5492 120.066 18.8691 119.856 18.8867 119.877H18.8902Z" fill="#263238"/>
<path d="M7.97941 133.967L6.35547 144.87H16.4787L15.1641 133.967H7.97941Z" fill="#455A64"/>
<path d="M15.5711 137.345C15.5711 137.405 13.7432 137.451 11.4901 137.451C9.23699 137.451 7.40918 137.405 7.40918 137.345C7.40918 137.286 9.23699 137.24 11.4901 137.24C13.7432 137.24 15.5711 137.286 15.5711 137.345Z" fill="#263238"/>
<path d="M15.7718 138.211C15.7718 138.271 13.8842 138.316 11.5573 138.316C9.23034 138.316 7.34277 138.271 7.34277 138.211C7.34277 138.151 9.23034 138.106 11.5573 138.106C13.8842 138.106 15.7718 138.151 15.7718 138.211Z" fill="#263238"/>
</g>
<defs>
<clipPath id="clip0_267_17939">
<rect width="152" height="145" fill="white"/>
</clipPath>
</defs>
</svg>
