<svg width="52" height="52" viewBox="0 0 52 52" fill="none" xmlns="http://www.w3.org/2000/svg">
<g clip-path="url(#clip0_2052_127269)">
<rect width="51.75" height="51.75" rx="10.35" fill="url(#paint0_radial_2052_127269)"/>
<path d="M29.7753 51.272L34.5796 53.9017L37.0523 54.1215V54.4748L35.1997 55.5267L32.6485 55.3069L30.7095 53.3915L29.3593 52.4652L28.9668 51.3819V51.0286L29.7753 51.272Z" fill="#575757"/>
<path d="M33.2058 49.9845L34.5324 51.4917L36.8247 53.0382L37.0523 54.1215L35.1997 55.1734L32.6485 54.9536L30.7095 53.0382L29.3593 52.1197L28.9668 51.0286L29.2258 49.49L33.2058 49.9845Z" fill="black"/>
<path opacity="0.3" d="M27.0823 40.3205H20.4726L15.794 43.0209V46.836L30.8503 55.5259H37.46L42.1386 52.8255V49.0104L27.0823 40.3205Z" fill="black"/>
<path d="M42.202 16.19L42.4453 17.1555L43.7249 18.9611L43.8269 19.6362L43.4344 20.2956L43.4658 20.8529L44.7611 21.3475L46.1976 20.9157L46.8021 19.3222L46.0092 17.4617L43.9447 15.146L42.987 15.2794L42.202 16.19Z" fill="#F0C6B4"/>
<path d="M40.953 14.455L42.2012 16.1898H43.3473L43.9439 15.1458L43.1824 13.2225L40.953 14.455Z" fill="white"/>
<path d="M34.3128 -4.80857L36.5265 -3.05802L40.1768 5.92239L43.8271 13.0188L42.7359 14.8792H40.4987L36.0713 7.90058L33.1746 -4.10992L34.3128 -4.80857Z" fill="#211A1A"/>
<path d="M21.4068 37.3694L25.3004 41.0039L27.4356 42.3306L27.2315 42.5739L26.313 43.3197L24.429 42.3541L22.4587 39.8107L20.3941 38.6254L19.8446 36.655L20.0487 36.4117L21.4068 37.3694Z" fill="#575757"/>
<path d="M25.1121 37.7309L25.8971 39.1753L27.3258 40.3842L27.4357 42.331L26.5094 43.0767L24.6254 42.1112L22.655 39.5678L20.5905 38.3903L20.0488 36.4121L21.7758 34.9912L25.1121 37.7309Z" fill="black"/>
<path d="M36.1021 15.8209L34.0768 23.6709L31.4 29.8567L25.748 36.2152L25.0886 38.2326L22.2783 37.7067L21.3206 34.81L24.7353 29.5976L27.0589 27.0071L29.775 16.5666L35.4506 13.9447L36.1021 15.8209Z" fill="#0A0808"/>
<path d="M24.0994 21.7319L27.0589 35.2496L26.5329 40.1794L28.7702 49.9134L30.5914 51.4912L33.7707 50.3765L32.0986 37.95V33.8052L31.5726 21.4493L33.0484 19.2748L35.4506 14.6669L25.4339 15.656L24.0994 21.7319Z" fill="#211A1A"/>
<path d="M27.2788 -1.73971L31.3451 -3.05851L34.1162 -2.46191L35.7411 4.74439V13.9917L33.1742 15.3497L30.3011 15.6559L27.059 6.14169L27.2788 -1.73971Z" fill="white"/>
<path d="M30.5918 15.2087L33.2922 14.8947L35.3803 13.4503L35.451 14.8555L33.355 16.2057L30.6546 16.5668L30.5918 15.2087Z" fill="#944E39"/>
<path d="M32.1225 -2.97951L33.6925 -0.569555L34.9799 4.76845L35.2468 21.7323L36.5264 19.6678V1.95815L35.6079 -1.81771L33.928 -4.07066L32.099 -5.10686L32.1225 -2.97951Z" fill="#362C29"/>
<path d="M26.5645 -3.60743L23.4637 -0.695077L22.6944 5.09037L23.8091 11.3154L22.6944 20.7747L24.4842 23.0983L31.4236 23.6713L30.9683 6.53478L30.0577 0.922023L28.4642 -1.84118L26.5645 -3.60743Z" fill="#362C29"/>
<path d="M32.0833 -0.184593L33.6769 5.36536L34.611 16.1199L33.5591 18.7496L32.0284 17.3209L32.3659 5.88346L31.5731 -0.0511429L31.5966 -0.467194L32.0833 -0.184593Z" fill="black"/>
<path opacity="0.3" d="M31.4939 -1.20547L30.9287 0.058383L28.2754 -0.538217L26.517 -2.12392L26.7132 -3.53692L27.3962 -2.24952L30.3321 -1.02492L31.4939 -1.20547Z" fill="black"/>
<path d="M23.3853 -1.14263L21.36 -0.137831L20.6613 1.04752L20.2688 3.63802L23.1105 2.06017L23.3853 -1.14263Z" fill="#0A0808"/>
<path d="M19.397 3.92014L20.2683 6.32224L22.8981 6.71474L27.3647 -0.782009L26.1794 -3.05851H24.1619L19.397 3.92014Z" fill="#211A1A"/>
<path d="M44.9753 17.3343H46.2548L47.7071 19.8541L47.2204 23.944L44.3316 21.746L44.1039 18.5589L44.9753 17.3343Z" fill="#6B4414"/>
<path d="M47.7074 39.1642L48.5238 50.8215L48.1156 55.3745L49.5443 65.9798L49.9368 67.7618L47.7074 69.4103H45.8391L43.1465 58.5616L43.5626 55.3745L40.0144 42.3592L44.1435 37.7826L47.2442 36.8014L47.7074 39.1642Z" fill="#F4EFE9"/>
<path d="M34.3543 41.9353L32.3133 52.1167L30.2095 55.3745L29.4167 62.7064L30.0839 65.3989H33.4359L35.5397 57.3134L37.7063 53.9615L41.7098 43.8821L44.7085 41.9353L47.7072 37.0604H36.9841L34.3543 41.9353Z" fill="white"/>
<path d="M41.3801 39.6277L44.7086 39.455L46.9144 37.783L46.8673 35.9461L41.4822 36.2915L41.3801 39.6277Z" fill="#211A1A"/>
<path d="M39.0018 16.2659L38.6329 17.9772L38.8134 19.9868L43.2801 21.7452L44.332 18.8721L41.8043 15.4103L39.0018 16.2659Z" fill="#C7A495"/>
<path d="M38.7264 19.1161L42.8084 21.0864L43.5306 18.8492L44.6453 18.5587L46.9139 24.8623V36.2055L44.504 38.1602L40.9008 38.4663L38.2318 22.5308L38.7264 19.1161Z" fill="#BAF3FF"/>
<path d="M43.1466 17.6634L44.0729 19.3747L46.0275 25.113L46.1688 32.3664L46.6869 41.9356L48.5238 39.9417L48.2255 24.2731L47.1422 20.1283L45.4388 17.9774L43.7903 17.1688L43.1466 17.6634Z" fill="#87511B"/>
<path d="M34.5507 21.5021L36.4268 19.7908L38.6327 17.9775L40.0143 20.1676L41.6078 26.6596L42.3771 33.6068L42.7932 44.0395L39.6846 44.6675L35.6497 43.8825L33.9855 41.9357L35.1159 33.3007L34.7705 25.3879L34.5507 21.5021Z" fill="#87511B"/>
<path d="M45.1869 11.902L45.7521 13.6682L45.4695 14.3119L45.7521 14.7044L45.1869 19.0219L43.8446 19.854L40.3749 17.7973L39.9196 16.7454L39.0011 16.2666L38.2318 15.0341L38.3417 13.4798L41.2148 11.4545L43.8917 11.5487L45.1869 11.902Z" fill="#F0C6B4"/>
<path d="M39.5271 9.31111L41.262 8.78516L43.2559 9.18551L45.6031 10.8497L45.187 11.9016L43.4521 12.7808L41.788 12.9535L41.3797 13.9819L40.5398 14.2252L40.3828 15.23L40.0766 15.387L39.5899 14.2645L38.8285 14.1546L38.4124 15.0573L39.0012 16.2662L38.0827 15.0573L37.7059 12.5218L38.122 10.6299L39.221 10.1903L39.5271 9.31111Z" fill="#EDEDED"/>
<path d="M39.5274 10.5199L41.2152 12.3803L39.7708 11.1479L39.5274 10.5199Z" fill="#DADADA"/>
<path d="M41.9926 45.0521L43.5155 46.1354L44.7087 47.7133V48.2392L44.167 48.1058L43.3506 47.3993L43.1308 47.4385L43.068 48.4904L43.4448 49.4874L44.3633 50.3116L44.4496 50.8219L42.754 50.5942L40.8857 48.7809L40.0144 46.1354L40.6267 45.5781L41.9926 45.0521Z" fill="#F0C6B4"/>
<path d="M39.2528 44.8241L40.0142 46.1351L41.0112 46.0566L41.9924 45.0518L41.3801 43.5367L39.2528 44.8241Z" fill="#BAF3FF"/>
<path d="M34.5507 21.5025L33.1063 23.1902L32.9414 25.9142L35.477 37.6578L38.8289 45.2173H40.603L41.9925 43.5374L39.2214 35.4833L37.6514 23.9438L36.5917 22.366L34.5507 21.5025Z" fill="#6B4414"/>
<path opacity="0.3" d="M5.10764 42.3641H-1.50206L-6.18066 45.0645V48.8796L8.87564 57.5696H15.4853L20.1639 54.8692V51.0541L5.10764 42.3641Z" fill="black"/>
<path d="M5.20954 0.241286L10.4926 -1.25806L12.2902 1.28534L12.1097 8.36604L10.9714 8.75854L5.88464 2.93384L5.20954 0.241286Z" fill="white"/>
<path d="M9.99866 -2.18478L12.5264 -2.15338L14.5988 -0.779625L16.9381 3.99318L19.8269 7.73763L18.3197 8.75813L16.4278 8.59328L13.4841 5.88503L12.2359 0.806073L9.99866 -2.18478Z" fill="#211A1A"/>
<path d="M19.4808 50.2929L21.3884 49.9632V50.2144V51.0622L19.104 51.6196L16.3408 51.2663L14.0879 51.8315L12.7691 51.5725V51.3291L13.6954 50.5363L19.4808 50.2929Z" fill="#575757"/>
<path d="M16.4744 48.0389L18.8216 49.1301L21.0353 49.5304L21.3885 49.9622L21.2943 50.8178L19.1042 51.3673L16.341 51.0219L14.088 51.5871L12.7692 51.3281L12.5102 49.5304L12.7457 48.7376L16.4744 48.0389Z" fill="black"/>
<path d="M7.81618 24.7411L10.5558 35.2601V39.9309L12.0709 48.9506L14.0412 49.5315L17.0007 48.0792L15.7525 38.2196L15.6897 33.8L14.7006 20.0704L8.19298 20.3373L7.81618 24.7411Z" fill="#211A1A"/>
<path d="M-4.9408 44.0673L-2.0991 49.5466L0.208806 49.947L0.0989056 50.2532L-0.952995 50.889L-3.69265 50.473L-4.9251 48.0002L-5.0978 45.9592L-5.78075 44.1615L-5.34115 42.6072L-5.2234 42.2932L-4.9408 44.0673Z" fill="#575757"/>
<path d="M-1.34499 44.7976L-1.03884 47.2704L0.0130577 48.809L0.209308 49.9472L-0.842593 50.5831L-3.58224 50.1671L-4.80684 47.6865L-4.97954 45.6455L-5.66249 43.8478L-5.22289 42.2935L-4.30444 41.7675L-1.34499 44.7976Z" fill="black"/>
<path d="M0.954601 22.4017L-0.5526 33.2897L-2.71135 35.9194L-4.6346 41.5086L-4.20285 44.4681L-1.212 45.2609L1.77885 38.5884L4.4243 35.4327L8.1923 24.3249L0.954601 22.4017Z" fill="#211A1A"/>
<path d="M9.91156 2.16399L11.772 8.16924L12.7297 18.649L11.9683 21.3808L10.2884 20.1248L10.5239 8.82864L9.41701 2.35239L9.39346 1.93634L9.91156 2.16399Z" fill="black"/>
<path d="M10.1239 1.40267L9.91191 2.16412L9.41736 2.35252L8.53816 2.02282L9.29176 1.18287L10.1239 1.40267Z" fill="#362C29"/>
<path d="M4.37003 -0.920925L1.91298 1.85797L0.499975 7.28232L1.89728 13.9784L0.193825 21.8676L2.43108 25.1646L10.9719 25.5257L11.5449 21.8676L12.3064 25.1411L15.4464 22.4014L14.4337 12.8166L14.2767 3.38872L12.3299 -0.779625L9.99848 -2.18478L8.28718 -2.15338L10.3753 -0.606927L11.5606 1.26137L11.1446 7.67482L6.91343 2.80783L5.32773 -0.245825L4.37003 -0.920925Z" fill="#362C29"/>
<path d="M11.3175 9.44075L11.1448 7.6745L11.1919 9.4486L11.4745 14.7631V20.0932L11.5452 21.8673L11.608 20.0932V14.7631L11.3175 9.44075Z" fill="#0A0808"/>
<path d="M5.24899 -1.89473L4.73874 -0.725077L5.36674 0.311124L7.85519 1.59852L9.29174 1.18247L10.116 -0.803578L9.55864 -2.33433L7.32139 -2.60123L5.24899 -1.89473Z" fill="#C7A495"/>
<path opacity="0.3" d="M9.29174 1.18278L10.4692 2.00703L10.7754 -0.622725L9.63714 -2.15347L10.1317 0.523378L9.29174 1.18278Z" fill="black"/>
<path d="M9.29174 1.18278L9.76274 -1.12512L9.63714 -2.15347L10.6341 -0.489273L10.3593 1.74013L9.29174 1.18278Z" fill="white"/>
<path opacity="0.3" d="M9.29199 1.18323L8.82884 2.58053L6.33254 2.12523L4.40929 0.735781L4.37004 -0.92057L5.27279 0.515979L8.14589 1.48938L9.29199 1.18323Z" fill="black"/>
<path d="M9.29199 1.18282L7.03119 0.649016L5.37484 -0.465686L5.04514 -1.89439L4.37004 -0.920985L4.69189 0.366416L6.48169 1.67736L8.74249 2.37601L9.29199 1.18282Z" fill="white"/>
<path d="M4.25986 -5.53648L4.44041 -3.11083L6.00257 0.625773L8.10637 0.806323L9.99822 -2.18453L10.3593 -3.83303L10.7911 -4.17843L10.9716 -5.53648L10.846 -5.88188L9.99822 -7.23208L4.27556 -7.01228L4.25986 -5.53648Z" fill="#F0C6B4"/>
<path d="M-1.43928 -1.44699L-0.0812267 -2.71085L1.16692 -2.03575L1.19047 -0.779743L0.240623 0.531206L-1.43928 -1.44699Z" fill="white"/>
<path d="M-1.50985 -1.89439L0.366304 -1.23499L0.790205 0.641164L-1.21155 2.74497L-0.159646 2.27397L1.91276 1.85791L3.68686 3.56922L2.96465 5.99487L0.499754 7.28227H-6.40825L-6.76935 3.72622L-1.50985 -1.89439Z" fill="#211A1A"/>
<path d="M14.0408 11.3245L13.6483 13.656L15.7285 14.6529L16.9374 12.816L15.4459 10.7515L14.0408 11.3245Z" fill="#878787"/>
<path d="M13.8448 12.3615H12.055L10.7911 12.7069L10.5085 13.4762L9.51158 13.9865L9.33103 15.007L9.81773 16.0432L11.058 16.7811L12.9263 16.0903L14.9595 14.5438L15.4462 13.4605L14.8967 12.44L13.8448 12.3615Z" fill="#F0C6B4"/>
<path d="M14.6847 11.1763L13.8447 12.3616L14.8181 13.2644L14.9594 14.5439L16.4274 13.3507L16.2468 11.9691L14.6847 11.1763Z" fill="white"/>
<path d="M14.0408 11.3253L15.8699 12.3615L15.7286 14.6537L19.8263 10.2734V7.73788L17.589 6.98428L16.2467 8.42868L14.0408 11.3253Z" fill="#211A1A"/>
<path d="M9.73923 11.7252L9.51942 11.945V12.2512L9.73923 12.471H10.0532L10.273 12.2512V11.945L10.0532 11.7252H9.73923Z" fill="#0A0808"/>
<path d="M12.7069 11.1763L12.4871 11.3961V11.7101L12.7069 11.9299H13.013L13.2328 11.7101V11.3961L13.013 11.1763H12.7069Z" fill="#0A0808"/>
<path d="M9.84866 17.1344L9.62886 17.3542V17.6682L9.84866 17.888H10.1627L10.3825 17.6682V17.3542L10.1627 17.1344H9.84866Z" fill="#0A0808"/>
<path d="M12.8163 16.5924L12.5965 16.8122V17.1183L12.8163 17.3381H13.1224L13.3422 17.1183V16.8122L13.1224 16.5924H12.8163Z" fill="#0A0808"/>
<g clip-path="url(#clip1_2052_127269)">
<path fill-rule="evenodd" clip-rule="evenodd" d="M33.4457 47.9222C33.711 47.934 33.9781 47.9374 34.2435 47.9323H34.5816C34.8858 47.9323 35.1867 47.9205 35.4842 47.9002L35.8899 52.4632C32.6596 53.7826 23.148 53.8876 18.1243 52.6342L17.8589 49.0553C18.6905 49.0502 19.534 48.9655 20.3792 48.7962L20.5043 48.7708C21.6757 48.559 22.793 48.1915 23.8343 47.6918C24.1605 47.5563 24.4834 47.4056 24.8029 47.2413C27.4466 48.3998 30.4757 48.7013 33.444 47.9205" fill="black"/>
<path fill-rule="evenodd" clip-rule="evenodd" d="M39.3805 33.3287C37.8626 35.4899 34.0221 37.2667 27.8607 38.6606C30.3642 39.0214 33.1786 39.5041 36.3007 40.1105C36.3007 40.1105 36.1063 42.4885 35.7175 47.2446C35.6296 48.3134 35.5705 49.0028 35.4285 49.4685C35.3203 49.8225 35.0836 50.08 34.7811 50.2714C32.3858 51.789 22.0189 51.4028 19.1402 50.4933C18.0651 50.1545 17.7034 49.4059 16.8734 46.9872L14.3717 39.6871C12.0474 37.5106 8.95745 34.5939 10.1745 30.6711C10.9994 28.0153 15.4028 25.4645 17.7828 24.4991C25.337 24.8158 29.115 24.975 29.115 24.975C30.4267 25.346 32.1154 25.6661 33.5792 26.2386C34.3855 26.5536 35.1242 26.9449 35.6939 27.4649C36.916 28.576 38.1381 30.3832 39.3636 32.8866C39.3755 33.1813 39.3805 33.3304 39.3805 33.3304" fill="#404040"/>
<path fill-rule="evenodd" clip-rule="evenodd" d="M37.1712 33.6335C38.7179 34.1315 39.4549 34.0299 39.3822 33.3286C39.3822 33.3286 39.3771 33.1813 39.3653 32.8849C38.7466 31.6264 38.1499 30.5712 37.5735 29.7158C36.9143 28.7589 36.3379 28.0526 35.8443 27.5986C35.3287 27.0702 34.5309 26.5993 33.4524 26.186C32.9622 25.9913 32.1525 25.749 31.0251 25.4594C30.2762 25.2782 29.6407 25.1156 29.1183 24.9716C29.1183 24.9716 29.1927 25.7609 29.3448 27.3378C32.7492 28.3676 34.4514 28.8842 34.4514 28.8842C36.2652 32.0499 37.1729 33.6318 37.1729 33.6318" fill="#616161"/>
<path fill-rule="evenodd" clip-rule="evenodd" d="M23.0872 34.9683C31.3548 37.8544 34.8775 37.6546 33.657 34.3687C33.657 34.3687 33.6182 33.6962 33.5404 32.3531C34.3771 30.871 34.6544 29.7599 34.3721 29.0231C31.0353 32.2515 26.522 33.9639 21.8871 33.7555C22.0139 34.1417 22.0764 34.3331 22.0764 34.3331C22.3671 34.9039 22.7035 35.1139 23.0855 34.9649" fill="#141414"/>
<path fill-rule="evenodd" clip-rule="evenodd" d="M35.9153 42.6037C34.6763 38.1153 27.9081 37.4496 15.6073 40.6102C16.5387 41.6874 20.6784 46.9516 22.0763 47.6681C22.5801 47.9255 23.1616 47.9984 23.7802 47.9476C27.3841 47.6529 32.0951 46.4164 35.8443 45.727C35.9322 44.6515 35.9998 43.8165 36.0488 43.2237C36.0979 42.9442 36.0522 42.7392 35.9153 42.6054" fill="#141414"/>
<path d="M33.8648 34.9005C33.8682 35.014 33.7786 35.1088 33.6654 35.1139C33.5521 35.1173 33.4574 35.0275 33.4524 34.914L33.3662 32.2142C33.3662 32.1752 33.3746 32.1379 33.3932 32.1058C33.6518 31.6281 33.8648 31.1285 34.0271 30.6136C34.1911 30.0987 34.306 29.5668 34.3702 29.0248C34.3838 28.9113 34.4869 28.83 34.6001 28.8436C34.7134 28.8571 34.7945 28.9604 34.781 29.0739C34.7134 29.638 34.5934 30.1952 34.4209 30.7389C34.2553 31.2623 34.0406 31.7721 33.7803 32.2582L33.8648 34.9022V34.9005Z" fill="#141414"/>
<path fill-rule="evenodd" clip-rule="evenodd" d="M22.5783 23.6742C22.4735 23.6217 22.3755 23.5574 22.2893 23.4845L22.2707 23.471C21.9444 23.4303 21.652 23.283 21.4272 23.0679C21.3613 23.0882 21.2953 23.1034 21.2277 23.1136C21.1567 23.1305 21.0857 23.1424 21.0164 23.1492C20.9894 23.1983 20.959 23.244 20.9268 23.2881L20.9302 23.283L20.9251 23.2948C20.5719 24.0011 19.3785 24.2958 19.0218 24.0045C18.6753 24.0282 18.1293 24.2095 17.7862 24.5008C19.3988 27.3243 22.5563 29.5194 25.4181 29.7853C28.4929 30.0716 30.119 27.8866 29.1183 24.9767C28.9611 24.909 28.6721 24.8649 28.285 24.8463C28.2157 24.8429 28.1616 24.8209 28.0923 24.782C27.8201 25.1139 27.406 25.3257 26.9428 25.3257C26.1805 25.3257 25.5534 24.7515 25.4655 24.013C24.9279 24.2315 24.3109 24.1146 23.89 23.7166C23.4759 23.9029 22.984 23.8893 22.58 23.6776" fill="black"/>
<path fill-rule="evenodd" clip-rule="evenodd" d="M27.5022 21.911C25.107 21.9161 22.7506 21.2928 20.6698 20.1004C20.6698 20.1004 20.6799 21.1048 20.6985 23.1153C20.6985 23.1153 20.1373 23.4032 19.0149 23.9791C20.1356 26.3233 22.9061 28.3219 25.3521 28.5489C27.7963 28.7759 29.0793 27.1549 28.2832 24.8413C27.8487 24.6515 27.6307 24.555 27.6307 24.555C27.5445 22.7901 27.5022 21.9077 27.5022 21.9077" fill="#FFBD95"/>
<path fill-rule="evenodd" clip-rule="evenodd" d="M27.5482 22.8459C23.2175 21.6417 21.0505 21.0387 21.0505 21.0387C21.1553 21.1945 21.2601 21.3487 21.3632 21.4994C21.2381 21.4689 21.1097 21.4384 20.9778 21.4096C24.1996 26.1844 25.8105 28.5726 25.8105 28.5726C26.0894 28.5776 26.3667 28.5472 26.6371 28.4828C26.8298 28.4438 27.0158 28.3812 27.1916 28.2982C27.511 28.1474 27.7967 27.9289 28.0283 27.6562C28.4069 27.1633 28.5793 26.5434 28.51 25.9252C28.4813 25.556 28.4052 25.1935 28.2818 24.8446C27.8474 24.6549 27.6294 24.5583 27.6294 24.5583C27.5736 23.4167 27.5465 22.8459 27.5465 22.8459" fill="#E08853"/>
<path fill-rule="evenodd" clip-rule="evenodd" d="M29.6475 16.0608C30.016 14.7583 29.9264 13.7183 29.3787 12.9443C29.1928 12.5869 28.2361 12.4023 26.5119 12.3904C24.9669 11.4622 23.0162 11.5571 21.571 12.6343C20.1257 13.7098 19.4699 15.5544 19.9127 17.304C19.9229 18.6675 20.1376 19.8023 20.5568 20.7085C21.287 22.2905 23.7346 24.118 25.8121 24.0808C26.9142 24.0604 27.5701 23.5337 28.0349 22.7969C28.5741 21.9415 29.3686 20.0818 29.5072 18.659C29.6103 17.6004 29.1962 17.2346 29.6492 16.0608" fill="#FFBD95"/>
<path fill-rule="evenodd" clip-rule="evenodd" d="M29.6474 16.0607C30.0159 14.7582 29.9263 13.7183 29.3786 12.9442C29.1927 12.5868 28.2359 12.4022 26.5118 12.3903C26.1804 12.1922 25.8322 12.0397 25.4739 11.9347C27.1727 13.5302 28.2359 15.7982 28.2359 18.3151C28.2359 20.517 27.4229 22.5275 26.0824 24.0655C27.0239 23.9706 27.6088 23.471 28.0331 22.7968C28.5723 21.9415 29.3668 20.0817 29.5071 18.659C29.6102 17.6004 29.196 17.2345 29.6491 16.0607" fill="#FFD3B8"/>
<path fill-rule="evenodd" clip-rule="evenodd" d="M20.151 14.4196C18.9677 15.8948 19.1114 17.3278 20.5837 18.7132C20.5989 20.1767 21.4576 21.574 23.1581 22.9087C22.0492 21.5164 23.9052 20.9863 24.0151 19.5618C24.1047 18.4016 23.148 17.9561 23.224 17.0415C23.3373 15.656 26.2903 15.2546 25.0462 12.5429C24.1622 12.0517 23.1057 11.9771 22.1625 12.3396C21.2176 12.7021 20.4823 13.4626 20.151 14.4196Z" fill="#ECA377"/>
<path fill-rule="evenodd" clip-rule="evenodd" d="M21.6943 14.2349C22.3129 13.7759 22.9062 13.4423 22.8403 12.1821C26.314 13.7251 28.4033 14.008 29.1082 13.0273C29.7539 13.6692 29.9398 14.6093 29.6643 15.8508C29.5865 16.1794 29.7285 16.1421 29.8215 15.844C30.5365 13.344 29.9415 10.6984 27.3316 9.56353C25.2068 8.64043 22.7288 9.41956 21.5117 11.3945C20.3352 11.3301 19.2263 11.9484 18.6601 12.9849C18.0955 14.0215 18.1749 15.2901 18.8646 16.2471C19.0556 16.2336 19.2314 16.1929 19.3937 16.1235C19.4816 16.154 19.5644 16.1726 19.6371 16.1997C19.4342 16.945 19.5509 17.7478 19.9701 18.4067C20.4721 18.9792 21.3325 18.6878 21.4711 18.0764C21.5962 17.5242 20.8626 16.7671 20.9184 15.7373C20.9488 15.1733 21.1855 14.6482 21.6926 14.2349" fill="#1A1A1A"/>
<path fill-rule="evenodd" clip-rule="evenodd" d="M21.6943 14.2349C21.7382 14.2027 21.7805 14.1706 21.8244 14.1401C21.1077 13.9216 20.5871 13.2559 20.5871 12.4666C20.5871 12.072 20.7172 11.7078 20.9387 11.4148C19.9853 11.5418 19.1317 12.116 18.6601 12.9815C18.0955 14.0181 18.1749 15.2867 18.8646 16.2437C19.0556 16.2302 19.2314 16.1895 19.3937 16.1201C19.4816 16.1506 19.5644 16.1692 19.6371 16.1963C19.4342 16.9416 19.5509 17.7444 19.9701 18.4033C20.4721 18.9758 21.3325 18.6844 21.4711 18.073C21.5962 17.5208 20.8626 16.7637 20.9184 15.7339C20.9488 15.1699 21.1855 14.6448 21.6926 14.2315" fill="black"/>
<path d="M27.4041 15.4171C27.3331 15.4696 27.2351 15.4544 27.1827 15.3849C27.1303 15.3138 27.1455 15.2155 27.2148 15.163C27.367 15.0512 27.5377 14.9716 27.7169 14.9259C27.896 14.8819 28.0837 14.8717 28.2696 14.9005C28.4555 14.9293 28.633 14.9953 28.7902 15.0919C28.9474 15.1884 29.0877 15.3155 29.1976 15.4679C29.2483 15.539 29.2331 15.639 29.1621 15.6898C29.0911 15.7406 28.9914 15.7254 28.9407 15.6542C28.8545 15.5357 28.7463 15.4374 28.6246 15.3629C28.5029 15.2884 28.366 15.2376 28.2223 15.2155C28.0769 15.1935 27.9315 15.2003 27.7929 15.2342C27.6543 15.268 27.5208 15.3307 27.4041 15.4171Z" fill="#1A1A1A"/>
<path d="M23.6263 15.5121C23.5688 15.5764 23.4691 15.5815 23.4049 15.5239C23.3406 15.4663 23.3356 15.3664 23.393 15.302C23.5401 15.1377 23.7176 15.0073 23.912 14.9142C24.1064 14.821 24.3193 14.7668 24.5408 14.7567C24.7605 14.7465 24.9769 14.7787 25.1797 14.8532C25.3826 14.926 25.5719 15.0395 25.7342 15.1886C25.7984 15.2478 25.8018 15.3461 25.7443 15.4104C25.6868 15.4748 25.5871 15.4782 25.5229 15.4206C25.391 15.3003 25.2389 15.2089 25.0732 15.1496C24.9093 15.0903 24.7318 15.0632 24.5543 15.0717C24.3768 15.0802 24.2044 15.1242 24.0455 15.2004C23.8866 15.2766 23.7446 15.3817 23.6246 15.5155" fill="#1A1A1A"/>
<path fill-rule="evenodd" clip-rule="evenodd" d="M19.2803 15.8016C19.97 15.7254 20.6563 16.3978 20.8118 17.3023C20.9673 18.2068 20.5346 19.0012 19.8432 19.0774C19.1535 19.1536 18.4672 18.4812 18.3117 17.5767C18.1562 16.6722 18.5889 15.8779 19.2803 15.8016Z" fill="#FFBD95"/>
<path fill-rule="evenodd" clip-rule="evenodd" d="M19.2316 16.5537C19.6643 16.5063 20.0936 16.928 20.19 17.4937C20.288 18.0611 20.0159 18.5574 19.5831 18.6048C19.1504 18.6523 18.7211 18.2305 18.6247 17.6648C18.5267 17.0974 18.7988 16.6011 19.2316 16.5537Z" fill="#ECA377"/>
<path fill-rule="evenodd" clip-rule="evenodd" d="M19.5492 16.7518C19.8213 16.7214 20.0918 16.9873 20.1543 17.3447C20.2152 17.702 20.0444 18.0154 19.7723 18.0459C19.5001 18.0764 19.2297 17.8104 19.1671 17.4531C19.1063 17.0957 19.277 16.7823 19.5492 16.7518Z" fill="#B60000"/>
<path fill-rule="evenodd" clip-rule="evenodd" d="M27.842 13.593C28.437 13.5608 28.8579 13.3728 29.1064 13.0273C29.7521 13.6692 29.938 14.6092 29.6625 15.8508C29.5848 16.1794 29.7267 16.1421 29.8197 15.844C30.5347 13.344 29.9397 10.6983 27.3298 9.56351C26.5015 9.20274 25.6192 9.1028 24.7791 9.22984C25.0428 9.25355 25.3065 9.30775 25.5685 9.39582C27.3231 9.98187 28.3035 11.8281 27.842 13.5947" fill="#4D4D4D"/>
<path fill-rule="evenodd" clip-rule="evenodd" d="M21.3125 44.3348C23.7568 45.0529 29.864 42.558 32.4587 41.7416C32.4756 41.7179 33.6707 42.2701 34.8557 42.7697C37.0295 43.6861 38.6438 44.0079 40.7787 42.4445C44.3081 39.8598 41.372 35.9032 39.3807 33.3287C37.8442 32.3887 35.853 32.6952 34.6714 34.057C34.1778 33.7284 33.6471 33.996 33.0791 34.8616L32.4925 35.7914C30.2376 35.1884 27.457 34.1654 25.1733 33.9097C24.4566 33.83 23.7534 33.9571 22.3436 34.6668C22.0681 34.3195 21.9295 34.1451 21.9295 34.1451C16.4865 34.2806 14.2045 37.6359 15.6092 40.6102C16.7604 41.4232 19.8706 43.9113 21.3142 44.3348" fill="#ECA377"/>
<path fill-rule="evenodd" clip-rule="evenodd" d="M27.8386 50.7744L31.9158 50.5475C32.1254 50.5356 32.2978 50.6982 32.2978 50.9099V53.2236C32.2978 53.4354 32.1254 53.6166 31.9158 53.6284L27.8386 53.8554C27.629 53.8673 27.4566 53.7047 27.4566 53.4929V51.1793C27.4566 50.9675 27.629 50.7863 27.8386 50.7744Z" fill="white"/>
<path fill-rule="evenodd" clip-rule="evenodd" d="M28.1854 51.1319L31.5678 50.9591C31.725 50.9507 31.8551 51.0743 31.8551 51.2318V52.9696C31.8551 53.1288 31.7267 53.2643 31.5678 53.2728L28.1854 53.4456C28.0282 53.454 27.898 53.3304 27.898 53.1729V51.4351C27.898 51.2759 28.0265 51.1404 28.1854 51.1319Z" fill="black"/>
<path fill-rule="evenodd" clip-rule="evenodd" d="M15.2102 38.615C15.1832 39.0265 15.2221 39.4398 15.3269 39.8396C16.549 40.6204 17.739 41.4605 18.9003 42.1939C20.9406 43.4845 21.3885 43.9537 23.4727 43.7708C24.6982 43.6624 26.7216 43.1407 28.7145 42.4886C26.2652 43.3677 23.5623 42.1244 22.6326 39.6888C22.6326 39.6888 20.6921 38.3694 16.811 35.7288C16.5034 35.9744 16.2261 36.2589 15.9878 36.5723C15.5348 37.1617 15.2626 37.8714 15.2102 38.6133" fill="#E08853"/>
<path fill-rule="evenodd" clip-rule="evenodd" d="M16.4626 35.3155C15.2421 36.2284 14.6083 37.7308 14.8077 39.245C12.7337 37.4852 10.3215 34.9818 10.4381 32.1803C10.4466 31.9669 10.4686 31.7518 10.5024 31.5367C10.6883 31.933 11.0298 32.2549 11.476 32.4039C12.0558 32.597 12.666 32.4513 13.0937 32.0753L16.9748 35.0377C16.8345 35.0868 16.6637 35.18 16.4643 35.3172" fill="#141414"/>
<path fill-rule="evenodd" clip-rule="evenodd" d="M24.7471 37.1516C27.7796 37.8748 30.185 39.2823 31.9649 41.3724C31.9649 41.3724 30.4571 41.8772 27.4415 42.885C28.0687 41.7908 28.1245 40.4561 27.5869 39.3145C27.0494 38.1712 25.9895 37.365 24.7471 37.1516Z" fill="#E08853"/>
<path fill-rule="evenodd" clip-rule="evenodd" d="M39.3807 33.3287C38.784 32.9628 38.096 32.7748 37.3962 32.7867C38.8161 34.9513 39.5261 36.0319 39.5261 36.0319C39.8624 35.8219 40.2715 35.7558 40.6552 35.8541C41.0406 35.9506 41.3702 36.2013 41.5663 36.5468C41.3178 36.0641 40.9308 35.4493 40.405 34.7006C40.0349 34.1891 39.6934 33.7318 39.3773 33.3287" fill="#FFBD95"/>
<path fill-rule="evenodd" clip-rule="evenodd" d="M22.526 34.5753C22.5176 34.5956 22.5176 34.6193 22.5311 34.638C22.5429 34.6566 22.5632 34.6684 22.5869 34.6684C22.5869 34.6684 27.0934 35.8642 36.1047 38.2558C36.5949 39.5363 37.8288 40.3764 39.198 40.3629C40.5672 40.3493 41.7826 39.4838 42.2474 38.1932C41.8333 38.3795 41.3515 38.3456 40.9678 38.1017C40.5841 37.8578 40.3475 37.4361 40.339 36.9804C39.695 35.9083 38.0046 35.6898 35.2679 36.325C33.2851 35.932 32.2946 35.7338 32.2946 35.7338C31.113 35.3917 29.9061 35.036 28.6722 34.6668C27.876 34.4364 27.0917 34.2416 26.3209 34.0858C25.8408 33.9825 25.3236 33.9147 24.7674 33.8859C24.6085 33.8808 24.355 33.9164 24.0034 33.9926C23.6924 34.0756 23.3898 34.1823 23.099 34.3094C22.9334 34.3805 22.7424 34.4669 22.5294 34.5719" fill="#FFBD95"/>
<path fill-rule="evenodd" clip-rule="evenodd" d="M23.8495 36.6468C22.7592 35.219 22.2132 34.5059 22.2132 34.5059C22.2132 34.5059 22.1591 34.4398 22.0526 34.3094C22.0526 34.3094 21.9258 34.2586 21.674 34.1553C20.8677 34.1858 20.0681 34.306 19.2889 34.5144C21.7534 36.5384 22.9874 37.5513 22.9874 37.5513C23.246 38.3609 23.9171 38.9724 24.747 39.1519C25.577 39.3331 26.4391 39.0553 27.0104 38.427C26.2751 37.3921 25.1155 36.7383 23.8512 36.6468" fill="#FFBD95"/>
<path fill-rule="evenodd" clip-rule="evenodd" d="M18.7818 29.8531C20.7088 32.7207 21.6723 34.1553 21.6723 34.1553C20.8474 34.1875 20.0513 34.3077 19.2872 34.5144C19.2872 34.5144 18.5401 33.7353 17.0441 32.177C15.9893 32.6665 14.7435 32.4785 13.8781 31.6994C13.0126 30.9202 12.6948 29.699 13.0684 28.5964C15.041 27.7071 17.3619 28.2187 18.7801 29.8548" fill="#616161"/>
<path d="M22.0897 34.0198C22.159 34.1095 22.1421 34.2399 22.0525 34.3094C21.9629 34.3788 21.8328 34.3619 21.7635 34.2721L18.9558 30.6204C18.9473 30.6102 18.9406 30.5984 18.9355 30.5865C18.6718 30.1021 18.3151 29.6803 17.8926 29.3399C17.4683 28.9994 16.9781 28.742 16.4473 28.5879C15.9165 28.4337 15.3638 28.3914 14.8229 28.454C14.2836 28.5167 13.7562 28.6861 13.2728 28.9571C13.1731 29.013 13.048 28.9774 12.9922 28.8775C12.9364 28.7776 12.9719 28.6522 13.0716 28.5963C13.6024 28.2982 14.1822 28.1119 14.7772 28.0442C15.3688 27.9764 15.9757 28.0238 16.5622 28.1932C17.1488 28.3626 17.688 28.6454 18.1529 29.0198C18.6143 29.3907 19.0031 29.8514 19.2939 30.3815L22.0931 34.0214L22.0897 34.0198Z" fill="#141414"/>
<path fill-rule="evenodd" clip-rule="evenodd" d="M31.9819 40.9946C29.4125 38.8808 26.615 37.3869 23.5859 36.5112C23.5859 36.5112 23.4473 36.2606 23.1684 35.7575C23.1684 35.7575 27.3993 37.0566 35.8596 39.6566C36.3261 40.6864 37.2507 41.4367 38.3529 41.6823C39.455 41.9262 40.6095 41.6366 41.4665 40.8998C40.4996 42.1379 39.3062 42.7799 37.8863 42.829C36.0134 42.8934 33.6841 41.6942 31.9819 40.9929" fill="#E08853"/>
<path d="M34.5666 33.93C34.6376 33.8724 34.7407 33.8825 34.7982 33.952C34.8557 34.0231 34.8455 34.1264 34.7762 34.184L33.5321 35.2088C33.4611 35.2663 33.358 35.2562 33.3005 35.1867C33.2431 35.1156 33.2532 35.0123 33.3225 34.9547L34.5666 33.93ZM36.0998 35.8626C36.1032 35.8134 36.1302 35.7677 36.1758 35.7423L37.07 35.263C37.07 35.263 37.0819 35.2562 37.0886 35.2545C37.4893 35.0885 37.807 35.0174 38.0437 35.0394C38.0758 35.0428 38.1079 35.0478 38.1384 35.0529C38.1384 35.0478 38.1384 35.0428 38.1384 35.036C38.1384 35.0072 38.1384 34.9801 38.135 34.9513C38.1215 34.8429 38.0707 34.7582 37.9778 34.7023C37.8662 34.6329 37.6972 34.5939 37.474 34.5855C37.3337 34.5804 37.1732 34.5888 36.9906 34.6092L35.6214 35.4035C35.542 35.4493 35.4422 35.4222 35.3966 35.3426C35.351 35.263 35.378 35.163 35.4574 35.1173L36.8571 34.306C36.8773 34.2941 36.8993 34.2873 36.9196 34.2857C37.1292 34.2602 37.3185 34.2518 37.4859 34.2569C37.5839 34.2603 37.6735 34.2687 37.758 34.2823C37.7276 34.2111 37.6634 34.1502 37.5687 34.0993C37.4267 34.0214 37.2188 33.9672 36.9467 33.9334L36.2553 34.0079L34.9639 34.8903C34.8878 34.9411 34.7864 34.9225 34.734 34.8463C34.6833 34.7701 34.7019 34.6684 34.7779 34.6159L36.1032 33.7098C36.1268 33.6928 36.1539 33.6844 36.1809 33.681L36.497 33.6471C36.377 33.5489 36.2604 33.4845 36.1471 33.454C35.9916 33.4134 35.8378 33.4405 35.6856 33.5353C35.6079 33.5827 35.5065 33.559 35.4591 33.4828C35.4118 33.4049 35.4355 33.3033 35.5115 33.2558C35.7448 33.1102 35.9831 33.0712 36.2316 33.1356C36.4632 33.1966 36.6965 33.3507 36.9281 33.5997H36.9314C36.9433 33.5997 36.9551 33.5997 36.9669 33.5997C37.2898 33.6369 37.5433 33.7064 37.7276 33.8063C37.9389 33.9215 38.0623 34.0756 38.1012 34.2704C38.1079 34.3094 38.1012 34.3466 38.086 34.3788C38.1113 34.3907 38.135 34.4042 38.1569 34.4178C38.3378 34.5313 38.4426 34.6955 38.468 34.909C38.473 34.9496 38.4747 34.9953 38.473 35.0428C38.473 35.0953 38.446 35.141 38.4071 35.1698C38.5001 35.2477 38.5609 35.3595 38.5931 35.5052C38.6117 35.5949 38.5559 35.6779 38.4663 35.6898C38.3767 35.7016 38.2888 35.6373 38.2685 35.5458C38.2448 35.4357 38.1722 35.3747 38.0488 35.3629C37.8662 35.346 37.5991 35.4086 37.2458 35.5543L36.8182 35.7846C37.4149 35.7389 37.949 35.7406 38.419 35.788C39.352 35.8829 40.0417 36.1623 40.4913 36.6264C40.5708 36.7077 40.5691 36.8382 40.488 36.9178C40.4068 36.9974 40.2767 36.9957 40.1972 36.9144C39.8169 36.5214 39.2117 36.2826 38.3784 36.1996C37.518 36.1115 36.426 36.1894 35.1008 36.4334C35.0737 36.4401 35.045 36.4418 35.0163 36.4367L32.4604 35.9896C32.3489 35.971 32.2728 35.8642 32.2914 35.7508C32.31 35.639 32.4165 35.5628 32.5297 35.5814L35.0518 36.0218C35.4203 35.954 35.7702 35.8998 36.1048 35.8575L36.0998 35.8626ZM32.6041 41.5959C32.6836 41.6772 32.6836 41.8077 32.6041 41.8873C32.523 41.9669 32.3928 41.9669 32.3134 41.8873C31.0946 40.6559 29.7237 39.599 28.2379 38.7386C26.7538 37.8781 25.1547 37.2142 23.4829 36.7687C23.4272 36.7535 23.3832 36.7179 23.3579 36.6722L22.1662 34.7752C22.1053 34.6786 22.134 34.5516 22.2304 34.4906C22.3267 34.4296 22.4535 34.4584 22.5144 34.555L23.6672 36.3893C25.3457 36.8432 26.9516 37.514 28.4441 38.3795C29.9587 39.2585 31.36 40.3375 32.6041 41.5943V41.5959Z" fill="#BF5E23"/>
<path fill-rule="evenodd" clip-rule="evenodd" d="M37.9453 50.595C38.1092 50.595 38.2428 50.7288 38.2428 50.8931C38.2428 51.0574 38.1092 51.1912 37.9453 51.1912C37.7813 51.1912 37.6478 51.0574 37.6478 50.8931C37.6478 50.7288 37.7813 50.595 37.9453 50.595Z" fill="white"/>
<path d="M24.9431 16.1827C25.1628 16.386 25.3555 16.8958 25.3099 17.182L25.2287 17.2041C25.2169 16.8806 25.178 16.5028 24.9414 16.1827H24.9431Z" fill="#DA634D"/>
<path style="mix-blend-mode:multiply" d="M25.229 16.994C24.9467 15.8439 23.5505 15.7491 23.1228 16.7128L25.229 16.994Z" fill="url(#paint1_linear_2052_127269)"/>
<path d="M23.0922 16.7959C23.1226 16.8857 23.1717 16.9687 23.2325 17.0432C23.5993 17.4869 24.4563 17.6377 25.1409 17.282C25.1866 17.2583 25.2322 17.2312 25.2761 17.2024C25.2863 17.1956 25.2981 17.1888 25.3083 17.1804C25.2914 17.1279 25.2694 17.0788 25.2457 17.033C24.8688 16.3047 23.7413 16.2132 23.0905 16.7942L23.0922 16.7959Z" fill="#F0EDFE"/>
<mask id="mask0_2052_127269" style="mask-type:luminance" maskUnits="userSpaceOnUse" x="23" y="16" width="3" height="2">
<path d="M23.0923 16.7959C23.3053 17.4209 24.3415 17.6969 25.1428 17.282C25.2002 17.2515 25.256 17.2193 25.3118 17.182C25.2949 17.1295 25.2729 17.0804 25.2492 17.0347C24.8723 16.3064 23.7448 16.2149 23.094 16.7959H23.0923Z" fill="white"/>
</mask>
<g mask="url(#mask0_2052_127269)">
<path d="M24.2316 17.392C24.5312 17.392 24.7742 17.1485 24.7742 16.8483C24.7742 16.548 24.5312 16.3046 24.2316 16.3046C23.9319 16.3046 23.689 16.548 23.689 16.8483C23.689 17.1485 23.9319 17.392 24.2316 17.392Z" fill="#573127"/>
<path d="M24.0015 16.8483C24.0015 16.9753 24.1046 17.0786 24.2314 17.0786C24.3582 17.0786 24.4613 16.9753 24.4613 16.8483C24.4613 16.7213 24.3582 16.6179 24.2314 16.6179C24.1046 16.6179 24.0015 16.7213 24.0015 16.8483Z" fill="#23031B"/>
</g>
<path d="M25.1407 17.2837C25.1982 17.2532 25.254 17.221 25.3098 17.1837C25.2929 17.1312 25.2709 17.0821 25.2472 17.0364C25.1441 17.1058 25.1002 17.1854 25.1424 17.2853L25.1407 17.2837Z" fill="#DA634D"/>
<path d="M24.3921 16.9856C24.4191 16.8263 24.5409 16.8382 24.5155 16.9534C24.4901 17.0702 24.3701 17.1109 24.3921 16.9856Z" fill="white"/>
<g style="mix-blend-mode:multiply" opacity="0.15">
<path d="M23.0923 16.7959C23.1228 16.8856 23.1718 16.9686 23.2326 17.0431C23.7753 16.3724 24.8706 16.5858 25.278 17.204C25.2881 17.1973 25.3 17.1905 25.3101 17.182C25.2932 17.1295 25.2712 17.0804 25.2476 17.0347C24.8706 16.3064 23.7431 16.2149 23.0923 16.7959Z" fill="#23031B"/>
</g>
<path d="M25.31 17.1821C25.0007 16.2623 23.7955 15.9659 22.9976 16.7654L23.1125 16.8484C24.1031 15.9473 25.1714 16.6875 25.2779 17.2041L25.31 17.1821Z" fill="#23031B"/>
<path d="M25.3099 17.1821C25.1392 17.2989 24.9482 17.3887 24.747 17.4446C24.5459 17.5005 24.3329 17.5191 24.125 17.4988C23.9171 17.4751 23.7109 17.4141 23.5317 17.304L23.4658 17.2617L23.4032 17.2125C23.361 17.1821 23.3255 17.1431 23.2883 17.1058L23.2612 17.077L23.1919 16.9822C23.1615 16.9399 23.1395 16.8924 23.1159 16.8467C23.2223 17.0262 23.3762 17.1685 23.5537 17.2684C23.7311 17.3684 23.9306 17.4277 24.1334 17.4463C24.3363 17.47 24.5425 17.4514 24.7403 17.4039C24.9397 17.3582 25.1308 17.2786 25.3133 17.1804L25.3099 17.1821Z" fill="#DA634D"/>
<path d="M25.8899 15.3206L25.6465 16.2301C25.6465 16.2301 25.5518 16.1827 25.376 16.115C24.994 15.9676 24.23 15.7203 23.2479 15.661C23.2479 15.661 23.16 15.7034 23.0349 15.7796C22.8844 15.8711 22.6782 16.0116 22.5007 16.1895C22.6698 15.4798 23.5572 14.7075 23.5572 14.7075C23.5572 14.7075 23.9105 14.9581 24.71 15.1461C24.9365 15.1986 25.2002 15.2478 25.5028 15.2833C25.5113 15.2833 25.5197 15.2867 25.5282 15.2901C25.5738 15.3053 25.6076 15.3494 25.6076 15.4002V15.7898L25.7986 15.3121C25.8493 15.3172 25.8392 15.3155 25.8916 15.3206H25.8899Z" fill="#23031B"/>
<path d="M25.3758 16.1133C24.9938 15.9659 24.2298 15.7187 23.2477 15.6594C23.2477 15.6594 23.1598 15.7017 23.0347 15.7779C23.3102 15.2512 23.7125 15.0445 23.7328 15.0344C23.7227 15.0479 23.5486 15.2664 23.4995 15.4663C23.6889 15.3257 24.1284 15.1868 24.7098 15.1445C24.9364 15.197 25.2 15.2461 25.5026 15.2817C25.5111 15.2817 25.5195 15.2851 25.528 15.2884C25.4452 15.4189 25.3539 15.6678 25.3775 16.1133H25.3758Z" fill="#401437"/>
<path d="M27.3876 16.1285C27.1679 16.3317 26.9752 16.8415 27.0208 17.1278L27.102 17.1498C27.1138 16.8263 27.1527 16.4486 27.3893 16.1285H27.3876Z" fill="#DA634D"/>
<path style="mix-blend-mode:multiply" d="M27.1018 16.9398C27.3841 15.7898 28.7804 15.6949 29.208 16.6587L27.1018 16.9398Z" fill="url(#paint2_linear_2052_127269)"/>
<path d="M29.2382 16.7417C29.2078 16.8315 29.1588 16.9145 29.0979 16.989C28.7311 17.4328 27.8741 17.5835 27.1895 17.2278C27.1439 17.2041 27.0982 17.177 27.0543 17.1482C27.0441 17.1415 27.0323 17.1347 27.0221 17.1262C27.0391 17.0737 27.061 17.0246 27.0847 16.9788C27.4616 16.2505 28.5891 16.1591 29.2399 16.74L29.2382 16.7417Z" fill="#F0EDFE"/>
<mask id="mask1_2052_127269" style="mask-type:luminance" maskUnits="userSpaceOnUse" x="27" y="16" width="3" height="2">
<path d="M29.2387 16.7417C29.0257 17.3667 27.9895 17.6428 27.1882 17.2278C27.1308 17.1973 27.075 17.1651 27.0192 17.1279C27.0361 17.0754 27.0581 17.0262 27.0818 16.9805C27.4587 16.2522 28.5862 16.1607 29.237 16.7417H29.2387Z" fill="white"/>
</mask>
<g mask="url(#mask1_2052_127269)">
<path d="M28.0996 17.3395C28.3993 17.3395 28.6422 17.0961 28.6422 16.7958C28.6422 16.4955 28.3993 16.2521 28.0996 16.2521C27.8 16.2521 27.557 16.4955 27.557 16.7958C27.557 17.0961 27.8 17.3395 28.0996 17.3395Z" fill="#573127"/>
<path d="M28.3294 16.7959C28.3294 16.923 28.2263 17.0263 28.0995 17.0263C27.9727 17.0263 27.8696 16.923 27.8696 16.7959C27.8696 16.6689 27.9727 16.5656 28.0995 16.5656C28.2263 16.5656 28.3294 16.6689 28.3294 16.7959Z" fill="#23031B"/>
</g>
<path d="M27.1882 17.2294C27.1308 17.1989 27.075 17.1667 27.0192 17.1295C27.0361 17.077 27.0581 17.0278 27.0818 16.9821C27.1849 17.0516 27.2288 17.1312 27.1866 17.2311L27.1882 17.2294Z" fill="#DA634D"/>
<path d="M27.9386 16.9313C27.9115 16.7721 27.7898 16.784 27.8152 16.8991C27.8405 17.016 27.9605 17.0566 27.9386 16.9313Z" fill="white"/>
<g style="mix-blend-mode:multiply" opacity="0.15">
<path d="M29.2384 16.7417C29.208 16.8315 29.159 16.9144 29.0981 16.989C28.5555 16.3182 27.4602 16.5317 27.0528 17.1499C27.0427 17.1431 27.0308 17.1363 27.0207 17.1279C27.0376 17.0754 27.0596 17.0262 27.0832 16.9805C27.4602 16.2522 28.5876 16.1607 29.2384 16.7417Z" fill="#23031B"/>
</g>
<path d="M27.0207 17.1295C27.33 16.2098 28.5352 15.9134 29.3331 16.7129L29.2181 16.7959C28.2276 15.8948 27.1593 16.635 27.0528 17.1516L27.0207 17.1295Z" fill="#23031B"/>
<path d="M27.0208 17.1295C27.1915 17.2464 27.3825 17.3362 27.5836 17.3921C27.7848 17.448 27.9978 17.4666 28.2057 17.4463C28.4136 17.4226 28.6198 17.3616 28.799 17.2515L28.8649 17.2091L28.9275 17.16C28.9697 17.1295 29.0052 17.0906 29.0424 17.0533L29.0695 17.0245L29.1388 16.9297C29.1692 16.8873 29.1912 16.8399 29.2148 16.7942C29.1083 16.9737 28.9545 17.116 28.777 17.2159C28.5995 17.3159 28.4001 17.3751 28.1972 17.3938C27.9944 17.4175 27.7882 17.3988 27.5904 17.3514C27.3909 17.3057 27.1999 17.2261 27.0174 17.1278L27.0208 17.1295Z" fill="#DA634D"/>
<path d="M26.441 15.2664L26.6844 16.176C26.6844 16.176 26.7791 16.1286 26.9549 16.0608C27.3369 15.9134 28.101 15.6662 29.0831 15.6069C29.0831 15.6069 29.171 15.6492 29.2961 15.7254C29.4465 15.8169 29.6527 15.9575 29.8302 16.1353C29.6612 15.4256 28.7737 14.6533 28.7737 14.6533C28.7737 14.6533 28.4204 14.904 27.6209 15.092C27.3944 15.1445 27.1307 15.1936 26.8281 15.2292C26.8197 15.2292 26.8112 15.2325 26.8028 15.2359C26.7571 15.2512 26.7233 15.2952 26.7233 15.346V15.7356L26.5323 15.258C26.4816 15.263 26.4917 15.2613 26.4393 15.2664H26.441Z" fill="#23031B"/>
<path d="M26.9547 16.0608C27.3367 15.9134 28.1007 15.6662 29.0828 15.6069C29.0828 15.6069 29.1707 15.6492 29.2958 15.7254C29.0203 15.1987 28.618 14.992 28.5977 14.9819C28.6078 14.9954 28.7819 15.2139 28.831 15.4138C28.6416 15.2732 28.2022 15.1343 27.6207 15.092C27.3942 15.1445 27.1305 15.1936 26.8279 15.2292C26.8194 15.2292 26.811 15.2325 26.8025 15.2359C26.8854 15.3664 26.9766 15.6153 26.953 16.0608H26.9547Z" fill="#401437"/>
<path d="M23.9492 8.12042C21.6266 9.84637 22.4515 15.6136 22.4515 15.6136C20.1543 15.3968 18.3828 14.9903 18.3828 14.9903C17.9704 14.5838 17.9315 8.261 23.9492 8.12042Z" fill="#2D2D2D"/>
<path d="M22.4499 15.634C20.1764 15.4188 18.3964 15.014 18.3795 15.0106H18.3745L18.3711 15.0056C18.1479 14.7854 18.0736 13.1272 18.6906 11.5689C19.2991 10.0293 20.7071 8.17631 23.9526 8.10178H24.0169L23.9662 8.13905C22.7745 9.02489 22.4313 11.0049 22.3552 12.5107C22.2707 14.1519 22.4736 15.6001 22.477 15.6136L22.4803 15.639H22.455L22.4499 15.634ZM18.726 11.5825C18.0888 13.1949 18.2088 14.7684 18.3947 14.9717C18.508 14.9971 20.2355 15.3816 22.4296 15.5916C22.3569 15.136 21.7264 9.83789 23.8901 8.14243C20.7105 8.23898 19.3278 10.0649 18.7277 11.5825H18.726Z" fill="#5A5A5A"/>
<g style="mix-blend-mode:multiply" opacity="0.5">
<path d="M22.3957 8.31689C22.1219 8.57943 21.9021 8.90294 21.7365 9.24338C21.4085 9.92258 21.2412 10.7119 21.3122 11.4656C21.3798 12.1821 21.7128 12.9358 22.3095 13.3372C22.3095 14.6211 22.4515 15.6136 22.4515 15.6136C20.1543 15.3968 18.3828 14.9903 18.3828 14.9903C18.0109 14.6228 17.9433 9.40768 22.3957 8.31689Z" fill="#767676"/>
</g>
<path d="M23.9491 8.12044C24.1536 8.11536 24.3632 8.11706 24.5812 8.12722C30.9049 8.41516 30.1003 14.9362 30.1003 14.9362C27.9586 15.8609 24.9041 15.8457 22.4497 15.6137C22.4497 15.6137 21.6265 9.84639 23.9474 8.12044H23.9491Z" fill="#2D2D2D"/>
<path d="M22.45 15.6339H22.4381L22.4331 15.6221C22.4297 15.617 22.2251 14.1553 22.3097 12.5123C22.45 9.76503 23.2732 8.59802 23.9375 8.10344L23.9425 8.10006H23.9493C24.1555 8.09498 24.3719 8.09667 24.5832 8.10683C26.4155 8.18983 27.827 8.80636 28.7804 9.9361C30.469 11.9398 30.1259 14.909 30.1208 14.9395V14.9513L30.109 14.9564C28.8615 15.495 27.1813 15.7677 25.114 15.7677C24.2806 15.7677 23.3847 15.722 22.45 15.6339ZM28.7499 9.9632C27.805 8.84193 26.402 8.23048 24.5815 8.14748C24.3719 8.13732 24.1606 8.13563 23.9561 8.14071C22.7694 9.02824 22.4263 11.0049 22.3502 12.5072C22.2708 14.057 22.4466 15.4341 22.4686 15.595C23.3966 15.6813 24.2874 15.7271 25.114 15.7271C27.1694 15.7271 28.8412 15.4561 30.0819 14.9242C30.1039 14.7193 30.3727 11.8907 28.7482 9.9632H28.7499Z" fill="#5A5A5A"/>
<g style="mix-blend-mode:multiply" opacity="0.5">
<path d="M22.9298 13.5946C23.4775 13.7013 24.0303 13.5862 24.5492 13.4032C25.1459 13.1932 25.7189 12.9476 26.3461 12.8375C26.6807 12.7782 27.0188 12.7393 27.3586 12.7359C27.6916 12.7325 28.0161 12.7782 28.3441 12.8358C28.8021 12.9171 29.4073 13.0984 29.7521 12.68C29.84 12.5733 29.889 12.4496 29.911 12.3192C30.2491 13.7234 30.0987 14.9378 30.0987 14.9378C27.957 15.8626 24.9025 15.8473 22.4481 15.6153C22.4481 15.6153 22.3061 14.6227 22.3061 13.3389C22.4887 13.4608 22.6949 13.5506 22.9265 13.5963L22.9298 13.5946Z" fill="#767676"/>
</g>
<g style="mix-blend-mode:multiply" opacity="0.5">
<path d="M21.2378 8.73527C20.9318 8.96731 20.6445 9.22815 20.3943 9.51779C20.1086 9.84976 19.8906 10.2224 19.7232 10.6187C19.6167 10.8203 19.5221 11.0286 19.4409 11.242C19.2229 11.8162 19.0674 12.4209 18.9609 13.0256C18.8628 13.5913 18.8206 14.157 18.7868 14.7295C18.78 14.843 18.7716 14.9565 18.7682 15.0716C18.5197 15.0208 18.3811 14.9903 18.3811 14.9903C18.0447 14.6584 17.9568 10.3613 21.2361 8.73527H21.2378Z" fill="#767676"/>
</g>
<path d="M32.7188 15.4205C32.4635 15.2782 32.1981 15.1648 31.9006 15.0987C31.353 14.9751 30.7292 15.0818 30.2086 15.2681C29.7437 15.4341 29.2958 15.6898 28.8918 15.971C28.8918 15.971 27.2589 17.3345 25.3032 16.8704C23.6196 16.4706 22.4515 15.6136 22.4515 15.6136C22.4515 15.6136 24.4073 13.4185 27.6004 13.2627C27.6004 13.2627 28.9814 13.1322 30.1342 13.7335C31.2887 14.3348 33.4896 15.412 33.3848 15.5814C33.3273 15.6729 33.2462 15.7559 33.165 15.7017C33.0146 15.6001 32.8675 15.5069 32.7171 15.4222L32.7188 15.4205Z" fill="#505050"/>
<path d="M25.298 16.889C23.6297 16.4927 22.4515 15.639 22.4396 15.6306L22.421 15.617L22.4363 15.6001C22.4565 15.5781 24.4326 13.3982 27.5986 13.2424C27.5986 13.2424 27.7288 13.2305 27.9367 13.2305C28.4134 13.2305 29.3363 13.2932 30.146 13.7149C30.3505 13.8216 30.5889 13.9436 30.8424 14.0723C32.2657 14.8006 33.3594 15.3714 33.4084 15.551C33.4134 15.5696 33.4084 15.5832 33.405 15.5899C33.3644 15.6577 33.2985 15.7373 33.2224 15.7373C33.2005 15.7373 33.1785 15.7305 33.1565 15.717C32.9858 15.6018 32.8438 15.5137 32.7103 15.4392C32.428 15.2817 32.1693 15.18 31.8972 15.1191C31.7434 15.0852 31.5743 15.0666 31.3985 15.0666C30.932 15.0666 30.4976 15.1868 30.217 15.2884C29.8012 15.4375 29.36 15.6729 28.9053 15.988C28.8934 15.9981 27.6882 16.989 26.1331 16.989C25.8508 16.989 25.5702 16.9568 25.2997 16.8924L25.298 16.889ZM31.9056 15.0784C32.1812 15.1394 32.4432 15.2427 32.7289 15.4036C32.8641 15.4781 33.0061 15.5679 33.1785 15.6831C33.192 15.6932 33.2072 15.6966 33.2207 15.6966C33.2664 15.6966 33.3188 15.6509 33.3695 15.5696C33.3695 15.5696 33.3695 15.5645 33.3695 15.5628C33.3205 15.385 31.8769 14.6482 30.8238 14.1096C30.572 13.9809 30.3336 13.8589 30.1274 13.7522C29.3245 13.3338 28.4117 13.2729 27.9367 13.2729C27.7322 13.2729 27.6037 13.2847 27.602 13.2847C24.6016 13.4321 22.6729 15.4087 22.4819 15.6119C22.6374 15.722 23.7598 16.4825 25.3065 16.8518C25.5736 16.9161 25.8525 16.9483 26.1314 16.9483C27.673 16.9483 28.8664 15.9676 28.8799 15.9558C29.338 15.639 29.7826 15.4019 30.2018 15.2512C30.4874 15.1495 30.9252 15.0276 31.3969 15.0276C31.576 15.0276 31.7468 15.0462 31.904 15.0801L31.9056 15.0784Z" fill="#5A5A5A"/>
<path d="M32.7492 15.2901C32.7492 15.2901 31.3158 14.1231 28.8918 15.8033C28.8918 15.8033 27.2589 17.1668 25.3032 16.7027C23.6196 16.303 22.4515 15.6136 22.4515 15.6136C22.4515 15.6136 24.4073 13.2525 27.6004 13.0967C27.6004 13.0967 28.9814 12.9662 30.1342 13.5675C31.2887 14.1688 33.5149 15.3714 33.4101 15.5408C33.3053 15.7101 33.3476 15.6813 32.7475 15.2918L32.7492 15.2901Z" fill="#2D2D2D"/>
<path d="M25.298 16.723C23.6313 16.3266 22.4532 15.639 22.4413 15.6322L22.421 15.6203L22.4363 15.6017C22.4363 15.6017 22.9366 15.0021 23.8173 14.3974C24.6287 13.8402 25.9454 13.1576 27.5986 13.0763C27.5986 13.0763 27.7288 13.0644 27.9367 13.0644C28.4134 13.0644 29.3346 13.1271 30.1443 13.5488C30.8965 13.9401 33.3577 15.2392 33.432 15.5102C33.4371 15.5289 33.432 15.5424 33.427 15.5492L33.4185 15.5627C33.383 15.6203 33.361 15.6576 33.3137 15.6576C33.263 15.6576 33.192 15.6102 33.0196 15.495C32.9452 15.4459 32.8539 15.3832 32.7356 15.307C32.7305 15.3036 32.2454 14.9174 31.3816 14.9174C30.6024 14.9174 29.7673 15.2223 28.9036 15.8202C28.8917 15.8303 27.6865 16.8212 26.1314 16.8212C25.8491 16.8212 25.5685 16.789 25.298 16.7247V16.723ZM32.761 15.2731C32.8776 15.3493 32.9706 15.4103 33.0449 15.4611C33.2005 15.5644 33.2782 15.6169 33.3171 15.6169C33.3408 15.6169 33.3543 15.5949 33.3864 15.5424L33.3949 15.5289V15.5221C33.3391 15.3188 31.5997 14.3517 30.1274 13.5861C29.3245 13.1694 28.4117 13.1068 27.9384 13.1068C27.7338 13.1068 27.6054 13.1186 27.6037 13.1186C24.605 13.266 22.678 15.39 22.4853 15.6102C22.6509 15.7033 23.77 16.3182 25.3099 16.6857C25.5769 16.7501 25.8559 16.7822 26.1348 16.7822C27.6764 16.7822 28.8698 15.8016 28.8833 15.7897C29.7555 15.185 30.5973 14.8785 31.3867 14.8785C32.2657 14.8785 32.761 15.2731 32.7643 15.2765L32.761 15.2731Z" fill="#5A5A5A"/>
<g style="mix-blend-mode:multiply" opacity="0.5">
<path d="M26.2345 13.3033C26.0892 13.3456 25.9455 13.3981 25.812 13.4693C25.6683 13.5455 25.5128 13.6522 25.4485 13.808C25.3403 14.0672 25.55 14.3111 25.7376 14.4669C26.0063 14.6922 26.3241 14.8565 26.6402 15.0021C26.9884 15.1596 27.3569 15.3189 27.7322 15.3883C28.0179 15.4408 28.2951 15.4273 28.5723 15.3392C28.8732 15.2443 29.169 15.1376 29.4682 15.0377C29.9483 14.8785 30.4199 14.7718 30.927 14.7701C31.7789 14.7684 32.7424 14.9818 33.3442 15.6271C33.2833 15.6661 33.1904 15.5746 32.7492 15.2884C32.7492 15.2884 31.3158 14.1214 28.8918 15.8016C28.8918 15.8016 27.2589 17.1651 25.3032 16.701C23.6196 16.3012 22.4515 15.6119 22.4515 15.6119C22.4515 15.6119 23.8579 13.913 26.2345 13.3016V13.3033Z" fill="#767676"/>
</g>
<g style="mix-blend-mode:multiply" opacity="0.5">
<path d="M23.2239 14.87C23.1512 14.9903 23.1072 15.1207 23.1292 15.2545C23.1833 15.5848 23.6042 15.7508 23.8696 15.8711C24.2956 16.0608 24.7266 16.2488 25.1813 16.3639C25.7425 16.5045 26.3291 16.5384 26.897 16.4012C27.4684 16.2623 27.9873 15.9862 28.5096 15.7254C29.0252 15.4679 29.5526 15.2444 30.1205 15.1444C29.7453 15.285 29.3345 15.4984 28.89 15.8067C28.89 15.8067 27.2571 17.1702 25.3013 16.7061C23.6177 16.3064 22.4497 15.617 22.4497 15.617C22.4497 15.617 22.7201 15.2918 23.2222 14.8734L23.2239 14.87Z" fill="#767676"/>
</g>
<g style="mix-blend-mode:screen" opacity="0.7">
<path d="M32.1608 14.8311C31.6114 14.6583 31.0232 14.6346 30.4806 14.4364C29.965 14.2484 29.5593 13.8707 29.0826 13.6116C28.6229 13.3609 28.0921 13.2474 27.5698 13.2152C27.492 13.2101 27.4143 13.2085 27.3365 13.2068C27.3973 13.2017 27.4599 13.1983 27.5224 13.1949C27.5224 13.1949 28.8511 13.0713 29.9616 13.6387C30.5803 13.9554 31.5201 14.4466 32.2132 14.848C32.1963 14.8429 32.1794 14.8362 32.1625 14.8311H32.1608Z" fill="#767676"/>
</g>
<g style="mix-blend-mode:screen" opacity="0.7">
<path d="M29.7742 12.2176C29.7742 12.2176 28.9798 8.29487 24.4276 8.24237C24.4276 8.24237 28.0163 8.10178 29.7742 12.2176Z" fill="#767676"/>
</g>
<path fill-rule="evenodd" clip-rule="evenodd" d="M24.6979 20.9117C24.6455 20.8575 24.6455 20.7728 24.6979 20.7186C24.752 20.6661 24.8365 20.6661 24.8906 20.7186C25.0512 20.8829 25.2422 21.0116 25.4518 21.0997C25.6597 21.1878 25.8862 21.2335 26.1161 21.2335C26.346 21.2335 26.5725 21.1878 26.7804 21.0997C26.99 21.0116 27.1811 20.8829 27.3416 20.7186C27.394 20.6644 27.4802 20.6644 27.5343 20.7186C27.5884 20.7711 27.5884 20.8575 27.5343 20.9117C27.3467 21.1031 27.1253 21.2522 26.8852 21.3538C26.6435 21.4554 26.3832 21.5096 26.1161 21.5096C25.8491 21.5096 25.5887 21.4554 25.347 21.3538C25.107 21.2522 24.8855 21.1031 24.6979 20.9117Z" fill="#BF5E23"/>
<path fill-rule="evenodd" clip-rule="evenodd" d="M25.4537 21.7298C25.4284 21.7044 25.43 21.6637 25.4537 21.64C25.4791 21.6146 25.5196 21.6163 25.5433 21.64C25.6194 21.7162 25.7073 21.7772 25.8053 21.8178C25.9033 21.8585 26.0081 21.8805 26.1163 21.8805C26.2245 21.8805 26.3293 21.8585 26.4274 21.8178C26.5254 21.7772 26.6133 21.7162 26.6894 21.64C26.7147 21.6146 26.7536 21.6146 26.7789 21.64C26.8043 21.6654 26.8043 21.7044 26.7789 21.7298C26.691 21.8195 26.5879 21.889 26.4764 21.9364C26.3631 21.9838 26.2414 22.0092 26.1163 22.0092C25.9912 22.0092 25.8695 21.9838 25.7563 21.9364C25.643 21.889 25.5399 21.8195 25.4537 21.7298Z" fill="#BF5E23"/>
<path fill-rule="evenodd" clip-rule="evenodd" d="M26.2028 17.9376C26.2028 17.9376 26.2029 17.9376 26.287 17.8426C26.3712 17.7477 26.3713 17.7477 26.3713 17.7477L26.3716 17.748L26.3725 17.7488L26.3759 17.7519C26.3788 17.7545 26.3831 17.7583 26.3885 17.7633C26.3994 17.7732 26.4151 17.7877 26.4348 17.8061C26.4742 17.8431 26.5297 17.8962 26.5943 17.9611C26.7232 18.0906 26.8902 18.2691 27.0393 18.4621C27.1866 18.6526 27.3248 18.8679 27.3854 19.0702C27.416 19.1723 27.4295 19.2798 27.4071 19.3829C27.3839 19.4896 27.324 19.5822 27.2258 19.6519L27.1901 19.6772L27.1466 19.6752L27.1463 19.6751L27.1452 19.6751L27.1401 19.6749C27.1355 19.6747 27.1287 19.6745 27.1198 19.6742C27.1021 19.6738 27.0766 19.6733 27.0458 19.6733C26.9838 19.6732 26.902 19.6751 26.8202 19.6826C26.7367 19.6902 26.661 19.703 26.6074 19.7218C26.5806 19.7312 26.5662 19.7397 26.5601 19.7447C26.5589 19.7456 26.5585 19.7461 26.5584 19.7461C26.5584 19.7461 26.5639 19.7404 26.5659 19.7285L26.3158 19.6864C26.3264 19.6232 26.3631 19.5774 26.4013 19.5467C26.4384 19.5168 26.4823 19.4964 26.5238 19.4819C26.6067 19.4529 26.7068 19.4378 26.7972 19.4296C26.8893 19.4212 26.9794 19.4192 27.0459 19.4192C27.0702 19.4192 27.0916 19.4195 27.109 19.4198C27.1372 19.3922 27.1522 19.3619 27.1594 19.3288C27.1696 19.2819 27.1657 19.2205 27.1426 19.1432C27.0957 18.9868 26.9811 18.8016 26.8389 18.6176C26.6986 18.4361 26.5395 18.2659 26.4147 18.1405C26.3525 18.0779 26.2992 18.0269 26.2616 17.9917C26.2428 17.9741 26.2279 17.9604 26.2179 17.9512C26.2128 17.9466 26.209 17.9431 26.2065 17.9408L26.2036 17.9383L26.203 17.9377L26.2028 17.9376Z" fill="#BF5E23"/>
<path d="M26.6116 9.16039C26.6116 9.16039 26.8459 9.42704 27.2659 9.51627C27.815 9.63282 28.1032 9.31983 28.1032 9.31983C28.1032 9.31983 28.1464 9.88044 27.9534 10.706C27.737 11.6322 27.2159 12.0738 26.6112 12.4622C26.0066 12.0738 25.4854 11.6322 25.269 10.706C25.0764 9.88044 25.1196 9.31983 25.1196 9.31983C25.1196 9.31983 25.4081 9.63282 25.9569 9.51627C26.3772 9.42704 26.6116 9.16039 26.6116 9.16039Z" fill="#1F2020"/>
<path style="mix-blend-mode:screen" d="M26.6116 9.16039C26.6116 9.16039 26.8459 9.42704 27.2659 9.51627C27.815 9.63282 28.1032 9.31983 28.1032 9.31983C28.1032 9.31983 28.1464 9.88044 27.9534 10.706C27.737 11.6322 27.2159 12.0738 26.6112 12.4622C26.0066 12.0738 25.4854 11.6322 25.269 10.706C25.0764 9.88044 25.1196 9.31983 25.1196 9.31983C25.1196 9.31983 25.4081 9.63282 25.9569 9.51627C26.3772 9.42704 26.6116 9.16039 26.6116 9.16039Z" fill="url(#paint3_linear_2052_127269)"/>
<path style="mix-blend-mode:multiply" d="M26.6116 9.16039C26.6116 9.16039 26.8459 9.42704 27.2659 9.51627C27.815 9.63282 28.1032 9.31983 28.1032 9.31983C28.1032 9.31983 28.1464 9.88044 27.9534 10.706C27.737 11.6322 27.2159 12.0738 26.6112 12.4622C26.0066 12.0738 25.4854 11.6322 25.269 10.706C25.0764 9.88044 25.1196 9.31983 25.1196 9.31983C25.1196 9.31983 25.4081 9.63282 25.9569 9.51627C26.3772 9.42704 26.6116 9.16039 26.6116 9.16039Z" fill="url(#paint4_linear_2052_127269)"/>
<g style="mix-blend-mode:overlay">
<path d="M26.6113 9.35306C26.729 9.45024 26.9416 9.59169 27.2364 9.65429C27.3271 9.67366 27.4176 9.68334 27.5049 9.68334C27.6961 9.68334 27.8497 9.637 27.9639 9.5827C27.957 9.81788 27.9259 10.2021 27.8158 10.6735C27.6298 11.47 27.2167 11.8926 26.611 12.2931C26.0053 11.8926 25.5922 11.47 25.4061 10.6735C25.296 10.2021 25.265 9.81753 25.2581 9.5827C25.3723 9.637 25.5259 9.68334 25.7171 9.68334C25.8044 9.68334 25.8948 9.67366 25.9856 9.65429C26.2807 9.59169 26.4933 9.4499 26.6106 9.35306M26.6106 9.16042C26.6106 9.16042 26.3763 9.42707 25.9563 9.5163C25.87 9.53463 25.7903 9.54224 25.7171 9.54224C25.3243 9.54224 25.1193 9.31986 25.1193 9.31986C25.1193 9.31986 25.0762 9.88048 25.2691 10.706C25.4855 11.6322 26.0067 12.0738 26.6113 12.4622C27.216 12.0738 27.7372 11.6322 27.9535 10.706C28.1465 9.88048 28.1033 9.31986 28.1033 9.31986C28.1033 9.31986 27.8983 9.54224 27.5052 9.54224C27.4321 9.54224 27.3523 9.53463 27.266 9.5163C26.8457 9.42707 26.6113 9.16042 26.6113 9.16042H26.6106Z" fill="#5E5F5F"/>
</g>
<path style="mix-blend-mode:screen" opacity="0.11" d="M26.6195 9.35406C26.7372 9.45124 26.9498 9.59269 27.2445 9.65529C27.3353 9.67466 27.4257 9.68434 27.513 9.68434C27.7042 9.68434 27.8578 9.638 27.972 9.5837C27.9651 9.81887 27.9341 10.2031 27.824 10.6745C27.6379 11.471 27.2248 11.8936 26.6191 12.2941C26.0134 11.8936 25.6003 11.471 25.4143 10.6745C25.3042 10.2031 25.2731 9.81853 25.2662 9.5837C25.3804 9.638 25.534 9.68434 25.7252 9.68434C25.8125 9.68434 25.903 9.67466 25.9937 9.65529C26.2888 9.59269 26.5014 9.45089 26.6188 9.35406" fill="url(#paint5_linear_2052_127269)"/>
<path d="M26.6097 9.90252L26.1017 10.221L26.3232 10.3684L26.4882 10.266V10.4645L26.7281 10.6115V10.257L26.8993 10.3711L27.136 10.2242L26.6097 9.90252Z" fill="url(#paint6_linear_2052_127269)"/>
<path d="M26.4976 10.9152V11.2126L26.7226 11.3447V11.0563L26.4976 10.9152Z" fill="url(#paint7_linear_2052_127269)"/>
<path d="M27.0792 10.4763L26.9712 10.404L27.1873 10.2567L27.3191 10.3317V11.197L27.2142 11.2662C27.2142 11.2662 27.1559 11.2617 27.1362 11.242C27.1165 11.2223 26.1467 10.6229 26.1467 10.6229V11.0497L26.8452 11.4792L26.6099 11.6325L25.9037 11.1967V10.3342L26.0328 10.256L27.0765 10.8962L27.0796 10.4756L27.0792 10.4763Z" fill="url(#paint8_linear_2052_127269)"/>
<rect x="18.796" y="16.6488" width="1.27054" height="1.2649" rx="0.632448" fill="#CAC9C1"/>
<path d="M19.2553 21.1407L18.7722 20.9692C18.7066 20.9459 18.633 20.9794 18.6092 21.0435L18.6023 21.0618C18.5785 21.126 18.6128 21.1978 18.6785 21.2211L19.1615 21.3926C19.2271 21.4159 19.3007 21.3824 19.3245 21.3183L19.3314 21.3C19.3552 21.2358 19.3209 21.164 19.2553 21.1407Z" fill="#B1B0A6"/>
<path d="M19.1421 21.8465L18.6591 21.675C18.5934 21.6517 18.5199 21.6853 18.496 21.7494L18.4892 21.7677C18.4654 21.8318 18.4997 21.9037 18.5654 21.927L19.0484 22.0984C19.1141 22.1217 19.1876 22.0882 19.2115 22.024L19.2183 22.0057C19.2421 21.9416 19.2078 21.8698 19.1421 21.8465Z" fill="#B1B0A6"/>
<path d="M19.3629 20.4422L18.8798 20.2707C18.8141 20.2474 18.7406 20.281 18.7167 20.3451L18.7099 20.3634C18.6861 20.4275 18.7204 20.4993 18.7861 20.5226L19.2691 20.6941C19.3348 20.7174 19.4083 20.6839 19.4322 20.6197L19.439 20.6014C19.4629 20.5373 19.4285 20.4655 19.3629 20.4422Z" fill="#B1B0A6"/>
<path d="M19.0338 22.5436L18.5507 22.3721C18.4851 22.3488 18.4116 22.3824 18.3877 22.4465L18.3809 22.4648C18.357 22.5289 18.3914 22.6008 18.457 22.6241L18.9401 22.7955C19.0057 22.8188 19.0793 22.7853 19.1031 22.7211L19.1099 22.7028C19.1338 22.6387 19.0995 22.5669 19.0338 22.5436Z" fill="#B1B0A6"/>
<path d="M18.9365 23.226L18.4535 23.0545C18.3878 23.0311 18.3143 23.0647 18.2904 23.1288L18.2836 23.1471C18.2597 23.2112 18.294 23.2831 18.3597 23.3064L18.8427 23.4779C18.9084 23.5012 18.9819 23.4677 19.0058 23.4036L19.0126 23.3852C19.0365 23.3211 19.0022 23.2493 18.9365 23.226Z" fill="#B1B0A6"/>
<path d="M19.3902 20.6786L18.8612 21.1952C18.8014 21.2537 18.7016 21.2537 18.6417 21.1952C18.5818 21.1368 18.5818 21.0393 18.6417 20.9808L19.1706 20.4642C19.2305 20.4057 19.3303 20.4057 19.3902 20.4642C19.45 20.5227 19.45 20.6202 19.3902 20.6786Z" fill="#D5D4CD"/>
<path d="M18.8238 23.9388L18.3407 23.7674C18.275 23.7441 18.2015 23.7776 18.1776 23.8417L18.1708 23.86C18.147 23.9242 18.1813 23.996 18.247 24.0193L18.73 24.1907C18.7957 24.214 18.8692 24.1805 18.8931 24.1164L18.8999 24.0981C18.9237 24.0339 18.8894 23.9621 18.8238 23.9388Z" fill="#B1B0A6"/>
<path d="M19.2851 21.3756L18.7562 21.8922C18.6963 21.9506 18.5965 21.9506 18.5366 21.8922C18.4768 21.8337 18.4768 21.7362 18.5366 21.6777L19.0656 21.1611C19.1255 21.1026 19.2253 21.1026 19.2851 21.1611C19.345 21.2196 19.345 21.3171 19.2851 21.3756Z" fill="#D5D4CD"/>
<path d="M19.1706 22.0798L18.6416 22.5964C18.5817 22.6549 18.4819 22.6549 18.4221 22.5964C18.3622 22.5379 18.3622 22.4405 18.4221 22.382L18.951 21.8654C19.0109 21.8069 19.1107 21.8069 19.1706 21.8654C19.2304 21.9239 19.2304 22.0213 19.1706 22.0798Z" fill="#D5D4CD"/>
<path d="M19.0608 22.7791L18.5318 23.2957C18.4719 23.3542 18.3721 23.3542 18.3123 23.2957C18.2524 23.2373 18.2524 23.1398 18.3123 23.0813L18.8412 22.5647C18.9011 22.5062 19.0009 22.5062 19.0608 22.5647C19.1206 22.6232 19.1206 22.7207 19.0608 22.7791Z" fill="#D5D4CD"/>
<path d="M18.966 23.4615L18.4371 23.9781C18.3772 24.0366 18.2774 24.0366 18.2175 23.9781C18.1576 23.9196 18.1576 23.8221 18.2175 23.7636L18.7464 23.247C18.8063 23.1885 18.9061 23.1885 18.966 23.247C19.0259 23.3055 19.0259 23.403 18.966 23.4615Z" fill="#D5D4CD"/>
<path d="M19.2729 19.9793C19.3627 19.9793 19.435 19.9086 19.435 19.8209V17.7106C19.435 17.6229 19.3627 17.5522 19.2729 17.5522C19.1831 17.5522 19.1107 17.6229 19.1107 17.7106V19.8209C19.1107 19.9086 19.1831 19.9793 19.2729 19.9793Z" fill="#CAC9C1"/>
<path d="M19.4974 19.9914L18.9684 20.5081C18.9086 20.5665 18.8088 20.5665 18.7489 20.5081C18.689 20.4496 18.689 20.3521 18.7489 20.2936L19.2778 19.777C19.3377 19.7185 19.4375 19.7185 19.4974 19.777C19.5572 19.8355 19.5572 19.933 19.4974 19.9914Z" fill="#D5D4CD"/>
</g>
</g>
<defs>
<radialGradient id="paint0_radial_2052_127269" cx="0" cy="0" r="1" gradientUnits="userSpaceOnUse" gradientTransform="translate(29.3319 46.8182) rotate(-102.529) scale(46.8046)">
<stop stop-color="#8A0404"/>
<stop offset="0.760417" stop-color="#E04A4A"/>
</radialGradient>
<linearGradient id="paint1_linear_2052_127269" x1="24.1776" y1="16.994" x2="24.1776" y2="16.054" gradientUnits="userSpaceOnUse">
<stop stop-color="#FFC596"/>
<stop offset="0.5" stop-color="#FDC091"/>
<stop offset="1" stop-color="#FDAE91"/>
</linearGradient>
<linearGradient id="paint2_linear_2052_127269" x1="28.1532" y1="16.9398" x2="28.1532" y2="15.9998" gradientUnits="userSpaceOnUse">
<stop stop-color="#FFC596"/>
<stop offset="0.5" stop-color="#FDC091"/>
<stop offset="1" stop-color="#FDAE91"/>
</linearGradient>
<linearGradient id="paint3_linear_2052_127269" x1="25.1154" y1="10.8111" x2="28.1074" y2="10.8111" gradientUnits="userSpaceOnUse">
<stop offset="0.5" stop-color="#333333"/>
<stop offset="0.78" stop-color="#141414"/>
<stop offset="1" stop-color="#010101"/>
</linearGradient>
<linearGradient id="paint4_linear_2052_127269" x1="26.6116" y1="9.7096" x2="26.6116" y2="11.8283" gradientUnits="userSpaceOnUse">
<stop stop-color="white"/>
<stop offset="0.23" stop-color="#BABABA"/>
<stop offset="0.51" stop-color="#6B6B6B"/>
<stop offset="0.74" stop-color="#323232"/>
<stop offset="0.91" stop-color="#0E0E0E"/>
<stop offset="1" stop-color="#010101"/>
</linearGradient>
<linearGradient id="paint5_linear_2052_127269" x1="25.2665" y1="10.8243" x2="27.9724" y2="10.8243" gradientUnits="userSpaceOnUse">
<stop stop-color="#D2D3D4"/>
<stop offset="0.24" stop-color="#D0D1D2"/>
<stop offset="0.32" stop-color="#C9CACB"/>
<stop offset="0.38" stop-color="#BDBEC0"/>
<stop offset="0.43" stop-color="#ACADAF"/>
<stop offset="0.47" stop-color="#96979A"/>
<stop offset="0.5" stop-color="#818285"/>
<stop offset="0.68" stop-color="#A3A4A6"/>
<stop offset="0.89" stop-color="#C5C6C7"/>
<stop offset="1" stop-color="#D2D3D4"/>
</linearGradient>
<linearGradient id="paint6_linear_2052_127269" x1="26.1017" y1="10.257" x2="27.136" y2="10.257" gradientUnits="userSpaceOnUse">
<stop stop-color="#F7E57D"/>
<stop offset="0.14" stop-color="#D4B259"/>
<stop offset="0.27" stop-color="#BA8C3E"/>
<stop offset="0.36" stop-color="#AA762E"/>
<stop offset="0.43" stop-color="#A56E29"/>
<stop offset="0.48" stop-color="#A8722C"/>
<stop offset="0.53" stop-color="#B17F35"/>
<stop offset="0.58" stop-color="#BF9444"/>
<stop offset="0.64" stop-color="#D4B359"/>
<stop offset="0.69" stop-color="#EFD975"/>
<stop offset="0.71" stop-color="#F8E67E"/>
<stop offset="0.9" stop-color="#D6B650"/>
<stop offset="1" stop-color="#C9A33E"/>
</linearGradient>
<linearGradient id="paint7_linear_2052_127269" x1="26.4976" y1="11.1299" x2="26.7226" y2="11.1299" gradientUnits="userSpaceOnUse">
<stop stop-color="#F7E57D"/>
<stop offset="0.14" stop-color="#D4B259"/>
<stop offset="0.27" stop-color="#BA8C3E"/>
<stop offset="0.36" stop-color="#AA762E"/>
<stop offset="0.43" stop-color="#A56E29"/>
<stop offset="0.58" stop-color="#A7722A"/>
<stop offset="0.74" stop-color="#B07F2F"/>
<stop offset="0.91" stop-color="#BF9438"/>
<stop offset="1" stop-color="#C9A33E"/>
</linearGradient>
<linearGradient id="paint8_linear_2052_127269" x1="25.9037" y1="10.9453" x2="27.3191" y2="10.9453" gradientUnits="userSpaceOnUse">
<stop stop-color="#F7E57D"/>
<stop offset="0.14" stop-color="#D4B259"/>
<stop offset="0.27" stop-color="#BA8C3E"/>
<stop offset="0.36" stop-color="#AA762E"/>
<stop offset="0.43" stop-color="#A56E29"/>
<stop offset="0.48" stop-color="#A8722C"/>
<stop offset="0.53" stop-color="#B17F35"/>
<stop offset="0.58" stop-color="#BF9444"/>
<stop offset="0.64" stop-color="#D4B359"/>
<stop offset="0.69" stop-color="#EFD975"/>
<stop offset="0.71" stop-color="#F8E67E"/>
<stop offset="0.9" stop-color="#D6B650"/>
<stop offset="1" stop-color="#C9A33E"/>
</linearGradient>
<clipPath id="clip0_2052_127269">
<rect width="51.75" height="51.75" rx="10.35" fill="white"/>
</clipPath>
<clipPath id="clip1_2052_127269">
<rect width="32.5259" height="55.6554" fill="white" transform="translate(9.9023 5.2647)"/>
</clipPath>
</defs>
</svg>
