<svg width="140" height="144" viewBox="0 0 140 144" fill="none" xmlns="http://www.w3.org/2000/svg">
<g clip-path="url(#clip0_2184_8538)">
<rect y="0.614136" width="140" height="143.307" rx="6.46154" fill="white"/>
<g clip-path="url(#clip1_2184_8538)">
<path d="M75.0448 42.9297C75.0448 42.9297 75.2141 44.6757 76.3432 45.1172C76.3432 45.1172 76.9682 44.8995 77.1416 44.9781C77.315 45.0567 77.4098 45.6193 77.4098 45.6193C77.4098 45.6193 77.9199 45.8814 78.1558 45.5447C78.3917 45.208 78.9703 42.9801 78.6074 41.4437L75.0428 42.9297H75.0448Z" fill="url(#paint0_linear_2184_8538)"/>
<path d="M74.9722 42.9741L74.8089 42.0043C74.8089 42.0043 76.6073 41.3974 78.8755 40.2482L78.9118 41.3349C78.9118 41.3349 77.1981 42.5406 74.9702 42.9741H74.9722Z" fill="url(#paint1_linear_2184_8538)"/>
<path d="M71.8249 35.0504C71.8249 35.0504 72.6919 40.4256 74.0004 42.214C74.0004 42.214 77.2041 42.1757 80.1316 40.0224C80.1316 40.0224 83.7084 18.7172 73.3552 13.7009C73.3552 13.7009 79.5268 24.2456 71.8249 35.0504Z" fill="url(#paint2_linear_2184_8538)"/>
<path d="M69.3369 80.2091L69.3167 80.0378C69.2764 79.701 68.9821 79.4551 68.6615 79.4914L65.7541 79.816C65.7703 79.7535 65.7844 79.689 65.7965 79.6244L70.1494 79.1385C70.466 79.1022 70.6938 78.8018 70.6555 78.4692L70.6353 78.2998C70.597 77.9671 70.3047 77.7232 69.9861 77.7595L65.7461 78.2333L65.7239 78.0498L70.4861 77.5195C70.8128 77.4832 71.0466 77.1748 71.0063 76.832L70.9862 76.6566C70.9458 76.3159 70.6454 76.0659 70.3208 76.1021L65.4356 76.6465C65.4073 76.5759 65.3791 76.5074 65.3469 76.4409L69.6978 75.955C70.0567 75.9146 70.3148 75.5739 70.2704 75.1969C70.226 74.8198 69.8954 74.5456 69.5365 74.586L64.8468 75.1082C64.865 74.9166 64.9255 74.7331 65.0283 74.586L65.5686 73.8218C65.5686 73.8218 66.1755 72.8964 65.4194 72.1806C65.3327 72.1 65.2017 72.106 65.1231 72.1907L63.1311 74.3561C63.1311 74.3561 62.4859 75.0295 61.0826 75.3299C61.0745 75.3299 60.5302 75.4812 60.4455 75.5195C60.1088 75.6707 59.7257 75.963 59.6491 76.3784C59.639 76.4308 59.2015 76.4449 59.1511 76.4509L57.4051 76.3985C56.8183 76.463 56.401 77.0155 56.4736 77.6304L56.8022 80.4168C56.8748 81.0317 57.4091 81.4773 57.9958 81.4128L59.2801 80.7696C59.3305 80.7636 60.1269 80.5922 60.1511 80.6406C60.3971 81.1749 60.9616 81.558 61.6875 81.6749C61.7238 81.681 61.76 81.6749 61.7963 81.6709L63.0202 81.5338L68.8268 80.8866C69.1474 80.8503 69.3772 80.5458 69.3389 80.2091H69.3369Z" fill="url(#paint3_linear_2184_8538)"/>
<path d="M59.5442 75.7231L56.4857 76.2615C56.4857 76.2615 56.1913 81.054 57.7639 82.1931L60.5624 81.6931C60.5624 81.6931 60.6814 78.3502 59.5442 75.7231Z" fill="url(#paint4_linear_2184_8538)"/>
<path d="M68.8631 80.3563L68.9941 80.2454C69.2502 80.0277 69.2905 79.6426 69.0869 79.3886L67.23 77.0941C67.2905 77.074 67.3509 77.0518 67.4094 77.0256L70.1918 80.4612C70.3954 80.7112 70.7684 80.7414 71.0204 80.5257L71.1495 80.4148C71.4015 80.1991 71.4438 79.818 71.2402 79.568L68.5304 76.2211L68.6695 76.1022L71.712 79.8603C71.9196 80.1184 72.3027 80.1466 72.5628 79.9269L72.6959 79.814C72.956 79.5922 72.9963 79.201 72.7886 78.945L69.6676 75.09C69.7099 75.0275 69.7502 74.965 69.7885 74.9005L72.5689 78.3361C72.7987 78.6204 73.2201 78.6526 73.5064 78.4087C73.7927 78.1647 73.8391 77.7333 73.6092 77.451L70.6131 73.7493C70.7805 73.6605 70.966 73.6101 71.1434 73.6182L72.0668 73.6585C72.0668 73.6585 73.1616 73.6686 73.339 72.6343C73.3592 72.5174 73.2806 72.4085 73.1677 72.3883L70.2926 71.8782C70.2926 71.8782 69.3833 71.6988 68.3691 70.6705C68.3631 70.6645 67.9417 70.2834 67.8651 70.233C67.5566 70.0294 67.107 69.864 66.7219 70.0274C66.6735 70.0475 66.4215 69.6826 66.3892 69.6423L65.4779 68.1281C65.1029 67.6644 64.4214 67.612 63.9537 68.0112L61.8387 69.8136C61.3709 70.2108 61.2963 70.9104 61.6713 71.3722L62.9032 72.1141C62.9355 72.1544 63.5121 72.7371 63.4859 72.7835C63.1794 73.2835 63.1734 73.9751 63.4738 74.6565C63.4879 74.6908 63.5141 74.719 63.5383 74.7473L64.3206 75.713L68.0304 80.2958C68.2361 80.5499 68.6131 80.5781 68.8671 80.3604L68.8631 80.3563Z" fill="url(#paint5_linear_2184_8538)"/>
<path opacity="0.72" d="M72.8007 74.0497L72.0245 73.705L71.8995 74.0034C71.8995 74.0034 72.6657 74.4268 72.8007 74.0517V74.0497Z" fill="#F7E0D1"/>
<path opacity="0.4" d="M66.1291 79.7817L66.5505 79.572C66.609 79.5418 66.6796 79.566 66.7078 79.6245L66.9054 80.0418C66.9054 80.0418 66.9114 80.0539 66.9134 80.062C66.9276 80.1164 66.9699 80.3442 66.7159 80.4713C66.5304 80.564 66.3328 80.4934 66.2683 80.3563L66.0727 79.941C66.0445 79.8825 66.0727 79.812 66.1291 79.7817Z" fill="#F7D5B5"/>
<path opacity="0.4" d="M68.1332 80.3987L68.5768 80.1769C68.6393 80.1466 68.7139 80.1728 68.7441 80.2353L68.9579 80.689C68.9579 80.689 68.9639 80.7031 68.9659 80.7112C68.9821 80.7696 69.0304 81.0156 68.7623 81.1507C68.5667 81.2495 68.357 81.1688 68.2885 81.0217L68.0748 80.57C68.0445 80.5055 68.0707 80.4289 68.1332 80.3987Z" fill="#F7D5B5"/>
<path opacity="0.4" d="M69.7643 80.1729L70.222 79.945C70.2865 79.9128 70.3631 79.941 70.3954 80.0055L70.6192 80.4773C70.6192 80.4773 70.6252 80.4914 70.6273 80.4995C70.6434 80.56 70.6938 80.816 70.4176 80.9552C70.216 81.056 70.0002 80.9733 69.9276 80.8201L69.7059 80.3523C69.6756 80.2858 69.7018 80.2071 69.7663 80.1749L69.7643 80.1729Z" fill="#F7D5B5"/>
<path opacity="0.4" d="M70.968 78.9813L71.4196 78.7555C71.4842 78.7232 71.5588 78.7495 71.589 78.814L71.8027 79.2676C71.8027 79.2676 71.8088 79.2817 71.8108 79.2898C71.8269 79.3483 71.8733 79.5963 71.6011 79.7313C71.4015 79.8322 71.1898 79.7535 71.1192 79.6043L70.9055 79.1527C70.8753 79.0882 70.9035 79.0116 70.966 78.9793L70.968 78.9813Z" fill="#F7D5B5"/>
<path d="M67.1917 69.5476L64.861 67.0898C64.861 67.0898 61.0766 69.3923 61.2056 71.3501L62.7581 72.6344C62.7581 72.6344 65.3106 71.9287 67.1917 69.5476Z" fill="url(#paint6_linear_2184_8538)"/>
<path d="M53.7174 47.5871C53.7174 47.5871 51.6549 51.8655 51.5601 53.2889C51.4653 54.7144 52.048 58.1056 52.4069 59.0653C52.7638 60.0251 53.3928 60.767 54.6126 60.8033C55.8324 60.8396 58.9011 56.3213 58.6632 53.5148C58.4253 50.7082 58.7216 49.4743 58.5966 48.9198C58.4716 48.3654 56.9998 44.5346 53.7174 47.5871Z" fill="url(#paint7_linear_2184_8538)"/>
<path d="M66.2602 68.5637C66.2602 68.5637 60.9274 61.8276 57.8567 56.6802C54.7881 51.5389 53.9453 47.5086 53.1832 47.0711C50.546 45.5589 41.6989 41.0265 36.2068 32.7964C36.2068 32.7964 35.4507 37.1252 45.4813 55.3838C50.3786 64.2974 61.4415 72.3098 61.4415 72.3098C61.4415 72.3098 66.0122 70.096 66.2602 68.5637Z" fill="url(#paint8_linear_2184_8538)"/>
<path d="M59.76 69.8842C59.887 70.0959 60.1632 70.1605 60.3729 70.0274C60.5826 69.8943 60.6511 69.6181 60.5241 69.4064C60.3971 69.1947 60.1229 69.1302 59.9112 69.2632C59.6995 69.3963 59.633 69.6725 59.76 69.8842Z" fill="#262C2F"/>
<path d="M60.9919 70.9024C61.1189 71.1141 61.3951 71.1786 61.6048 71.0456C61.8165 70.9145 61.883 70.6363 61.756 70.4246C61.629 70.2129 61.3548 70.1484 61.1431 70.2814C60.9314 70.4125 60.8649 70.6907 60.9919 70.9024Z" fill="#262C2F"/>
<path d="M71.8188 76.0337L71.6495 76.0135C71.3188 75.9732 71.0144 76.207 70.972 76.5317L70.597 79.4793C70.5406 79.4471 70.4841 79.4188 70.4257 79.3926L70.9862 74.9812C71.0265 74.6586 70.7926 74.3642 70.464 74.3239L70.2966 74.3038C69.968 74.2634 69.6676 74.4953 69.6272 74.8159L69.0808 79.1144L68.8994 79.0922L69.5143 74.2675C69.5567 73.9368 69.3147 73.6344 68.98 73.592L68.8087 73.5719C68.472 73.5315 68.1635 73.7674 68.1211 74.0981L67.4921 79.0479C67.4175 79.0579 67.3449 79.0721 67.2743 79.0862L67.8348 74.6767C67.8812 74.3118 67.6151 73.9791 67.2441 73.9328C66.8731 73.8884 66.5324 74.1485 66.486 74.5134L65.8811 79.2676C65.7017 79.2031 65.5404 79.1023 65.4235 78.9652L64.8206 78.2535C64.8206 78.2535 64.0787 77.4369 63.2157 78.0136C63.1169 78.0801 63.0927 78.2111 63.1552 78.3099L64.7581 80.7878C64.7581 80.7878 65.2501 81.5842 65.2077 83.0399C65.2077 83.048 65.2218 83.6206 65.238 83.7133C65.3025 84.0823 65.492 84.5279 65.8731 84.7013C65.9215 84.7235 65.8307 85.159 65.8247 85.2114L65.363 86.9231C65.2864 87.5179 65.7158 88.0582 66.3227 88.1328L69.0647 88.4655C69.6696 88.5381 70.222 88.1167 70.2986 87.5219L69.9861 86.1025C69.9922 86.0501 70.0164 85.2235 70.0688 85.2134C70.6373 85.0965 71.222 84.6589 71.4196 83.9392C71.4297 83.9029 71.4358 83.8666 71.4398 83.8303L71.5971 82.5903L72.3451 76.705C72.3874 76.3804 72.1495 76.08 71.8188 76.0397V76.0337Z" fill="url(#paint9_linear_2184_8538)"/>
<path opacity="0.72" d="M63.2903 78.1628L63.7379 78.8927L64.0061 78.7193C64.0061 78.7193 63.6089 77.9309 63.2903 78.1628Z" fill="#F7E0D1"/>
<path opacity="0.4" d="M71.2241 77.4732L70.7604 77.4066C70.6958 77.3965 70.6495 77.3381 70.6595 77.2736L70.7281 76.8159C70.7281 76.8159 70.7301 76.8018 70.7321 76.7957C70.7503 76.7433 70.841 76.5296 71.1233 76.5719C71.3289 76.6022 71.4519 76.7735 71.4277 76.9227L71.3592 77.3784C71.3491 77.4429 71.2886 77.4873 71.2241 77.4772V77.4732Z" fill="#F7D5B5"/>
<path opacity="0.4" d="M69.9095 75.8159L69.4196 75.7453C69.351 75.7352 69.3026 75.6707 69.3147 75.6001L69.3893 75.1021C69.3893 75.1021 69.3913 75.088 69.3954 75.08C69.4155 75.0235 69.5123 74.7917 69.8087 74.834C70.0244 74.8662 70.1535 75.0517 70.1293 75.213L70.0547 75.707C70.0446 75.7776 69.9801 75.826 69.9115 75.8159H69.9095Z" fill="#F7D5B5"/>
<path opacity="0.4" d="M68.4377 75.0679L67.9336 74.9953C67.8631 74.9852 67.8147 74.9187 67.8248 74.8461L67.9034 74.3279C67.9034 74.3279 67.9054 74.3118 67.9094 74.3058C67.9296 74.2473 68.0304 74.0054 68.3349 74.0497C68.5587 74.082 68.6897 74.2755 68.6655 74.4429L68.5889 74.957C68.5788 75.0296 68.5123 75.08 68.4397 75.0699L68.4377 75.0679Z" fill="#F7D5B5"/>
<path opacity="0.4" d="M67.2058 75.1929L66.7078 75.1204C66.6372 75.1103 66.5888 75.0458 66.5989 74.9752L66.6735 74.4772C66.6735 74.4772 66.6755 74.4631 66.6796 74.455C66.6997 74.3986 66.7965 74.1667 67.0989 74.211C67.3187 74.2433 67.4498 74.4288 67.4256 74.5901L67.351 75.0841C67.3409 75.1546 67.2744 75.201 67.2058 75.1909V75.1929Z" fill="#F7D5B5"/>
<path d="M39.9367 109.484C39.9367 109.484 39.7654 104.724 40.2472 103.383C40.7311 102.043 42.6223 99.1836 43.332 98.4557C44.0417 97.7259 44.9147 97.3085 46.0438 97.7803C47.1729 98.2521 48.1669 103.647 46.8261 106.111C45.4853 108.577 45.2615 109.827 44.9268 110.283C44.5921 110.738 41.713 113.63 39.9347 109.484H39.9367Z" fill="url(#paint10_linear_2184_8538)"/>
<path d="M52.9271 117.426C52.9271 117.426 57.2438 115.567 58.2337 114.553C59.2237 113.541 60.9717 110.587 61.3185 109.626C61.6673 108.662 61.6693 107.684 60.7721 106.845C59.8729 106.006 54.6409 107.377 53.0118 109.656C51.3807 111.934 50.3625 112.67 50.0984 113.172C49.8343 113.674 48.4774 117.547 52.9251 117.426H52.9271Z" fill="url(#paint11_linear_2184_8538)"/>
<path d="M36.608 89.5986C36.608 89.5986 31.6845 94.8709 29.3638 101.587L33.9063 104.418C33.9063 104.418 39.0859 97.2702 40.5295 92.0422L36.608 89.5966V89.5986Z" fill="url(#paint12_linear_2184_8538)"/>
<path d="M32.7047 101.601L32.0292 101.178L35.8116 94.9193L36.487 95.3407L32.7047 101.601Z" fill="url(#paint13_linear_2184_8538)"/>
<path d="M35.1402 99.2158C35.1402 99.2158 35.8479 98.0444 35.3479 97.2259C35.3479 97.2259 34.8559 97.0605 34.7854 96.9295C34.7148 96.7984 34.9164 96.3992 34.9164 96.3992C34.9164 96.3992 34.7208 95.9899 34.4164 96.0867C34.112 96.1835 32.7127 97.2964 32.2228 98.4295L35.1402 99.2158Z" fill="url(#paint14_linear_2184_8538)"/>
<path d="M35.2067 99.2219L34.8559 99.9054C34.8559 99.9054 33.4506 99.4195 31.499 99.0465L31.9829 98.351C31.9829 98.351 33.614 98.4215 35.2067 99.2219Z" fill="url(#paint15_linear_2184_8538)"/>
<path d="M65.2017 84.7275L65.1916 86.4635C65.1916 86.4635 68.978 85.8667 70.72 87.4494L70.6414 85.4997C70.6414 85.4997 67.8792 84.292 65.2017 84.7275Z" fill="url(#paint16_linear_2184_8538)"/>
<path d="M35.2995 104.916C35.2995 104.916 35.7431 101.857 35.4588 100.163C35.4588 100.163 32.9184 98.6191 30.0876 98.5546C30.0876 98.5546 16.817 109.192 22.4886 118.208C22.4886 118.208 20.7325 106.154 35.2995 104.918V104.916Z" fill="url(#paint17_linear_2184_8538)"/>
<path d="M65.0646 86.29C65.0646 86.29 63.1532 95.2601 60.8911 102.698C58.6914 109.93 54.5622 113.656 54.7034 114.67C54.9917 116.725 61.9697 125.519 60.9253 131.487C60.9253 131.487 64.3307 129.112 69.1212 107.357C71.6192 96.0121 70.962 87.1671 70.962 87.1671C70.962 87.1671 68.6736 85.2033 65.0666 86.29H65.0646Z" fill="url(#paint18_linear_2184_8538)"/>
<path d="M21.2708 114.422C21.2708 114.422 18.6437 120.543 37.5717 131.548C37.5717 131.548 51.8706 137.969 57.3869 134.828C57.3869 134.828 64.2178 130.806 62.871 124.358C61.1431 116.091 47.6547 108.998 43.951 107.464C40.8319 106.174 32.2893 102.766 26.527 106.224C26.527 106.224 22.0652 109.109 21.2708 114.422Z" fill="url(#paint19_linear_2184_8538)"/>
<path d="M48.8161 110.041C47.4229 109.184 45.9934 108.438 44.578 107.635C41.2957 107.478 38.7089 108.137 38.7089 108.137L40.8622 110.498L37.9931 109.061C37.9125 109.271 37.5274 110.021 36.1584 112.418C33.7974 116.547 35.5717 119.053 35.5717 119.053C38.8843 113.299 45.1869 110.952 48.8161 110.043V110.041Z" fill="url(#paint20_linear_2184_8538)"/>
<path d="M52.3968 116.954L55.4554 117.708C55.4554 117.708 55.2296 116.031 54.411 113.904C54.3969 113.894 54.3828 113.884 54.3687 113.872C54.2537 113.777 53.6166 113.327 53.3485 113.124C52.6347 112.581 51.9633 112.111 51.2335 111.605C50.802 111.305 50.2839 110.96 49.8786 110.708C50.3282 114.551 50.296 120.717 46.7575 126.108C46.7575 126.108 49.7919 126.443 52.5944 122.198C54.2215 119.737 54.7497 119.005 54.907 118.825L52.3968 116.952V116.954Z" fill="url(#paint21_linear_2184_8538)"/>
<path d="M37.5596 112.999C37.5596 112.999 40.348 109.968 43.2231 110.363C46.5983 110.829 47.8382 110.041 48.1306 109.855C48.3947 109.688 49.3463 109.41 49.4229 110.611C49.4975 111.769 49.1931 112.345 51.046 114.321C52.4311 115.799 53.5219 117.789 53.2638 119.13C53.0259 120.36 52.8989 120.868 52.5057 121.751C51.6589 123.652 40.5295 124.751 37.5617 113.001L37.5596 112.999Z" fill="url(#paint22_linear_2184_8538)"/>
<path d="M39.3299 111.621C39.3299 111.621 40.5033 113.188 39.5395 114.972C38.5738 116.757 34.2249 124.102 34.2249 124.102C34.2249 124.102 31.6703 123.144 32.9627 119.63C34.2551 116.116 37.85 112.194 39.3299 111.621Z" fill="url(#paint23_linear_2184_8538)"/>
<path d="M39.7089 114.608C39.7089 114.608 44.9248 113.666 48.2818 116.934C51.6529 120.217 52.0823 121.334 52.8908 120.68C52.8908 120.68 52.4009 125.1 48.3019 128.719C44.203 132.338 36.5717 131.529 34.2249 124.104C34.2249 124.104 33.7188 121.775 39.7089 114.608Z" fill="url(#paint24_linear_2184_8538)"/>
<path d="M69.5708 74.1666L69.5204 74.332C69.4196 74.6545 69.5889 75.0033 69.8954 75.1042L72.6757 76.0256C72.6354 76.076 72.5971 76.1284 72.5588 76.1808L68.3953 74.8017C68.0909 74.7009 67.7623 74.8804 67.6635 75.2009L67.6131 75.3642C67.5143 75.6848 67.6816 76.0276 67.984 76.1284L72.0386 77.4732L71.9842 77.6486L67.4296 76.1385C67.1171 76.0356 66.7804 76.2191 66.6775 76.5478L66.6251 76.7151C66.5223 77.0437 66.6957 77.3966 67.0062 77.4994L71.6777 79.0478C71.6737 79.1224 71.6737 79.1991 71.6757 79.2736L67.5143 77.8946C67.1715 77.7817 66.7985 77.9833 66.6856 78.3442C66.5727 78.7051 66.7622 79.0942 67.105 79.2091L71.591 80.6951C71.4962 80.8624 71.3672 81.0035 71.214 81.0943L70.4136 81.5641C70.4136 81.5641 69.4861 82.1528 69.8833 83.1226C69.9276 83.2335 70.0527 83.2818 70.1595 83.2375L72.8532 82.0983C72.8532 82.0983 73.7141 81.7536 75.1153 82.0681C75.1234 82.0681 75.6799 82.1608 75.7726 82.1629C76.1416 82.1669 76.6073 82.06 76.8452 81.7132C76.8755 81.6689 77.2807 81.8403 77.3291 81.8564L78.8997 82.6347C79.4602 82.8201 80.0651 82.4915 80.2465 81.9028L81.0772 79.2273C81.2607 78.6365 80.9542 78.0075 80.3937 77.822L78.9622 77.8704C78.9138 77.8542 78.1174 77.6768 78.1174 77.6224C78.1094 77.0337 77.7948 76.3683 77.1355 76.0356C77.1033 76.0195 77.069 76.0054 77.0347 75.9953L75.8633 75.6082L70.3107 73.7674C70.0043 73.6666 69.6696 73.8461 69.5708 74.1707V74.1666Z" fill="url(#paint25_linear_2184_8538)"/>
<path opacity="0.72" d="M70.1595 83.2396L70.9418 82.9089L70.8168 82.6125C70.8168 82.6125 69.9861 82.8827 70.1595 83.2396Z" fill="#F7E0D1"/>
<path opacity="0.4" d="M70.6898 74.3783L70.5486 74.8319C70.5285 74.8964 70.4639 74.9307 70.4035 74.9106L69.97 74.7674C69.97 74.7674 69.9579 74.7634 69.9518 74.7593C69.9034 74.7331 69.7119 74.6061 69.7966 74.3319C69.8591 74.1303 70.0446 74.0355 70.1857 74.0819L70.6172 74.2251C70.6777 74.2452 70.7119 74.3138 70.6918 74.3783H70.6898Z" fill="#F7D5B5"/>
<path opacity="0.4" d="M68.8651 75.4247L68.7159 75.9025C68.6958 75.9691 68.6252 76.0074 68.5587 75.9852L68.0869 75.83C68.0869 75.83 68.0728 75.8239 68.0667 75.8219C68.0143 75.7937 67.8046 75.6586 67.8953 75.3683C67.9619 75.1566 68.1615 75.0578 68.3147 75.1082L68.7825 75.2634C68.849 75.2856 68.8853 75.3582 68.8631 75.4247H68.8651Z" fill="#F7D5B5"/>
<path opacity="0.4" d="M67.8994 76.7776L67.7461 77.2715C67.724 77.3401 67.6514 77.3784 67.5828 77.3562L67.0929 77.1929C67.0929 77.1929 67.0788 77.1869 67.0707 77.1828C67.0163 77.1526 66.7985 77.0135 66.8913 76.7151C66.9598 76.4973 67.1675 76.3965 67.3268 76.4489L67.8127 76.6102C67.8812 76.6324 67.9195 76.707 67.8973 76.7776H67.8994Z" fill="#F7D5B5"/>
<path opacity="0.4" d="M67.9155 78.4853L67.7643 78.9732C67.7421 79.0418 67.6715 79.0801 67.607 79.0579L67.1352 78.9027C67.1352 78.9027 67.1211 78.8966 67.1151 78.8946C67.0626 78.8664 66.855 78.7293 66.9457 78.4349C67.0122 78.2192 67.2139 78.1184 67.3671 78.1688L67.8348 78.324C67.9014 78.3462 67.9377 78.4188 67.9155 78.4873V78.4853Z" fill="#F7D5B5"/>
<path d="M93.9385 114.428C93.9385 114.428 89.3013 113.716 88.0956 112.984C86.8879 112.253 84.4745 109.833 83.9019 108.988C83.3293 108.144 83.0874 107.196 83.7527 106.156C84.4181 105.117 89.8215 105.125 91.9566 106.922C94.0918 108.718 95.2612 109.174 95.6382 109.593C96.0152 110.013 98.2774 113.424 93.9385 114.428Z" fill="url(#paint26_linear_2184_8538)"/>
<path d="M106.1 100.716C106.1 100.716 105.104 96.0606 104.308 94.8851C103.511 93.7077 100.981 91.4173 100.114 90.889C99.2472 90.3628 98.3016 90.1773 97.3217 90.9173C96.3439 91.6592 96.6987 97.1352 98.6 99.1857C100.501 101.236 101.023 102.391 101.459 102.746C101.894 103.101 105.391 105.178 106.1 100.714V100.716Z" fill="url(#paint27_linear_2184_8538)"/>
<path d="M85.1802 115.085C85.1802 115.085 84.1781 114.16 83.293 114.507C83.293 114.507 83.041 114.966 82.9019 115.013C82.7607 115.059 82.4139 114.783 82.4139 114.783C82.4139 114.783 81.9825 114.902 82.0188 115.224C82.0571 115.547 82.8736 117.15 83.8777 117.85L85.1802 115.083V115.085Z" fill="url(#paint28_linear_2184_8538)"/>
<path d="M85.1983 115.021L86.0673 115.22C86.0673 115.22 84.5249 117.991 83.8011 119.87L83.3515 118.463C83.3515 118.463 84.1277 116.462 85.1983 115.021Z" fill="url(#paint29_linear_2184_8538)"/>
<path d="M76.7505 82.1125L78.4945 82.925C78.4945 82.925 78.7425 78.685 80.5974 77.2393L78.3271 77.0922C78.3271 77.0922 76.8251 79.3604 76.7505 82.1145V82.1125Z" fill="url(#paint30_linear_2184_8538)"/>
<path d="M90.7247 115.985C90.7247 115.985 87.8496 114.972 86.156 114.942C86.156 114.942 84.1902 117.19 83.6015 120.005C83.6015 120.005 91.4263 135.227 101.201 131.241C101.201 131.241 89.2146 130.753 90.7247 115.985Z" fill="url(#paint31_linear_2184_8538)"/>
<path d="M78.2364 82.8141C78.2364 82.8141 86.5572 86.3888 93.3317 90.0281C99.9186 93.5665 102.755 98.3812 103.761 98.4275C105.802 98.5223 115.574 94.8468 121.153 97.0001C121.153 97.0001 119.52 91.5039 99.3661 82.679C88.8557 78.0781 80.178 77.0922 80.178 77.0922C80.178 77.0922 77.8533 79.0116 78.2344 82.8141H78.2364Z" fill="url(#paint32_linear_2184_8538)"/>
<path d="M97.3136 131.755C97.3136 131.755 102.747 135.516 116.907 118.666C116.907 118.666 125.052 106.736 123.04 100.645C123.04 100.645 120.51 92.6673 114.476 92.8145C106.159 93.0181 96.9689 104.412 94.7974 107.823C92.9688 110.696 88.0875 118.59 90.3598 124.985C90.3598 124.985 92.3215 129.975 97.3136 131.753V131.755Z" fill="url(#paint33_linear_2184_8538)"/>
<path d="M98.1907 103.446C97.104 104.676 96.116 105.966 95.0777 107.228C94.3156 110.474 94.4728 113.178 94.4728 113.178L97.1564 111.466L95.2329 114.061C95.4204 114.182 96.0757 114.704 98.1383 116.517C101.693 119.64 104.447 118.335 104.447 118.335C99.4972 113.96 98.3963 107.234 98.1927 103.444L98.1907 103.446Z" fill="url(#paint34_linear_2184_8538)"/>
<path d="M105.544 101.155L106.842 98.242C106.842 98.242 105.179 98.1573 102.969 98.5767C102.957 98.5888 102.945 98.6009 102.931 98.613C102.818 98.7097 102.171 99.2622 101.925 99.492C101.267 100.103 100.719 100.669 100.094 101.303C99.723 101.678 99.1524 102.307 98.8318 102.664C102.632 102.928 108.794 103.948 113.352 108.484C113.352 108.484 114.24 105.518 110.657 101.932C108.578 99.8509 107.969 99.1876 107.824 98.996L105.546 101.155H105.544Z" fill="url(#paint35_linear_2184_8538)"/>
<path d="M98.9629 115.23C98.9629 115.23 96.5495 111.884 97.4669 109.087C98.5435 105.805 98.0112 104.422 97.8883 104.095C97.7753 103.801 97.6826 102.799 98.858 102.944C99.9911 103.085 100.493 103.494 102.747 102.012C104.433 100.903 106.562 100.186 107.81 100.692C108.957 101.157 109.423 101.379 110.203 101.936C111.885 103.133 110.881 114.446 98.9629 115.226V115.23Z" fill="url(#paint36_linear_2184_8538)"/>
<path d="M97.9588 113.208C97.9588 113.208 99.6907 112.327 101.239 113.622C102.786 114.916 109.084 120.622 109.084 120.622C109.084 120.622 107.683 122.993 104.524 121.051C101.364 119.11 98.2371 114.793 97.9588 113.208Z" fill="url(#paint37_linear_2184_8538)"/>
<path d="M100.917 113.384C100.917 113.384 100.975 108.002 104.761 105.258C108.562 102.502 109.723 102.283 109.241 101.355C109.241 101.355 113.425 102.666 116.163 107.43C118.903 112.194 116.703 119.66 109.084 120.622C109.084 120.622 106.737 120.694 100.919 113.384H100.917Z" fill="url(#paint38_linear_2184_8538)"/>
<path d="M69.595 87.6388C69.5869 87.8868 69.7805 88.0945 70.0285 88.1025C70.2765 88.1106 70.4841 87.917 70.4922 87.669C70.5003 87.4211 70.3067 87.2134 70.0587 87.2053C69.8107 87.1973 69.603 87.3908 69.595 87.6388Z" fill="#00203B"/>
<path d="M69.5506 88.9574C69.5426 89.2054 69.7361 89.4131 69.9841 89.4211C70.2321 89.4292 70.4398 89.2356 70.4478 88.9877C70.4559 88.7397 70.2623 88.532 70.0144 88.5239C69.7664 88.5159 69.5587 88.7094 69.5506 88.9574Z" fill="#00203B"/>
<path d="M68.7018 40.5848C68.7018 40.5848 73.1495 42.093 74.2161 43.0224C75.2827 43.9519 77.2525 46.7564 77.6739 47.6879C78.0953 48.6194 78.1759 49.5952 77.3452 50.5045C76.5146 51.4118 71.1918 50.4642 69.3914 48.323C67.5889 46.1818 66.5163 45.5306 66.2138 45.0527C65.9114 44.5749 64.2581 40.8207 68.7018 40.5848Z" fill="url(#paint39_linear_2184_8538)"/>
<path d="M73.2463 13.6929C70.7563 13.7131 55.8788 13.2695 37.229 28.893C37.0496 29.0442 35.491 31.8951 36.36 34.1391C37.1625 36.2118 38.0899 43.9842 47.9088 47.317C47.9088 47.317 52.9009 49.3695 61.2641 47.9158C61.5806 47.8614 61.8911 48.0489 61.9939 48.3594L61.8185 47.6033C61.9355 47.9541 61.7661 48.4844 62.1109 48.3594C64.9537 47.3412 74.3189 38.974 75.8775 32.5443C78.2445 22.7759 75.823 16.7676 73.7766 13.959C73.6536 13.7897 73.456 13.6909 73.2483 13.6929H73.2463Z" fill="url(#paint40_linear_2184_8538)"/>
<path d="M51.7678 19.576C51.7678 19.576 48.8987 21.318 49.0399 28.3223C49.181 35.3266 49.0298 33.9455 49.0298 33.9455L52.4291 34.4011L49.2818 35.6633C49.2818 35.6633 55.0441 43.6454 61.8165 44.0244C61.8165 44.0244 52.0843 33.8225 51.7678 19.576Z" fill="url(#paint41_linear_2184_8538)"/>
<path d="M55.1127 33.135C55.1127 33.135 58.2902 41.5708 61.5967 44.8814C61.5967 44.8814 63.2057 37.6715 62.8488 31.5302L55.1127 33.135Z" fill="url(#paint42_linear_2184_8538)"/>
<path d="M31.1098 78.2616C31.1098 78.2616 34.9346 81.0177 36.3015 81.3423C37.6685 81.6669 41.0598 81.6286 42.0497 81.425C43.0397 81.2213 43.8623 80.7092 44.0941 79.4934C44.326 78.2757 40.4307 74.4731 37.6645 74.2594C34.9003 74.0457 33.747 73.5497 33.1906 73.586C32.6321 73.6223 28.6723 74.4812 31.1098 78.2636V78.2616Z" fill="url(#paint43_linear_2184_8538)"/>
<path d="M28.4424 57.7165C28.4424 57.7165 31.5978 54.1922 32.8659 53.5773C34.1341 52.9624 37.4548 52.2647 38.4649 52.2486C39.475 52.2325 40.3863 52.5531 40.8682 53.6922C41.3501 54.8314 38.346 59.394 35.6906 60.2025C33.0353 61.013 32.0151 61.7469 31.4607 61.8336C30.9082 61.9203 26.8597 61.9425 28.4424 57.7165Z" fill="url(#paint44_linear_2184_8538)"/>
<path d="M66.1352 76.2776L66.2582 76.3965C66.4981 76.6304 66.8812 76.6304 67.107 76.3965L69.1514 74.2715C69.1776 74.3299 69.2059 74.3884 69.2381 74.4469L66.1775 77.6284C65.9537 77.8603 65.9658 78.2393 66.2058 78.4712L66.3267 78.5901C66.5646 78.822 66.9437 78.822 67.1655 78.5901L70.1454 75.4892L70.2765 75.6163L66.9296 79.0962C66.6997 79.3341 66.7138 79.7232 66.9578 79.9612L67.0828 80.0821C67.3268 80.32 67.7159 80.32 67.9437 80.0821L71.3773 76.5115C71.4418 76.5477 71.5084 76.582 71.5749 76.6143L68.5163 79.7958C68.2643 80.0579 68.2784 80.4874 68.5466 80.7495C68.8167 81.0116 69.2442 81.0116 69.4962 80.7495L72.7927 77.3199C72.8975 77.4792 72.9661 77.6607 72.9782 77.8401L73.0387 78.7777C73.0387 78.7777 73.1475 79.8845 74.1798 79.9511C74.2968 79.9591 74.3955 79.8684 74.4036 79.7515L74.5891 76.7937C74.5891 76.7937 74.6657 75.8562 75.5629 74.7191C75.567 74.713 75.8956 74.2452 75.9359 74.1626C76.1013 73.8279 76.2142 73.3561 76.0125 72.9851C75.9863 72.9387 76.317 72.6444 76.3533 72.6081L77.7344 71.5214C78.1477 71.0919 78.1235 70.3983 77.684 69.9689L75.6899 68.0293C75.2504 67.6019 74.5589 67.6019 74.1455 68.0293L73.5548 69.354C73.5185 69.3923 73.0104 70.0374 72.962 70.0133C72.4378 69.7592 71.7624 69.8278 71.1273 70.2048C71.095 70.2229 71.0708 70.2532 71.0466 70.2794L70.1857 71.1746L66.105 75.4187C65.8791 75.6526 65.8912 76.0376 66.1332 76.2715L66.1352 76.2776Z" fill="url(#paint45_linear_2184_8538)"/>
<path opacity="0.72" d="M74.4056 79.7556L74.4601 78.8967L74.1415 78.8785C74.1415 78.8785 74.0125 79.7556 74.4056 79.7536V79.7556Z" fill="#F7E0D1"/>
<path opacity="0.4" d="M66.8167 75.3522L67.1554 75.6808C67.2038 75.7272 67.2058 75.8018 67.1614 75.8481L66.8429 76.1808C66.8429 76.1808 66.8328 76.1909 66.8268 76.1949C66.7824 76.2272 66.5848 76.3461 66.3812 76.1465C66.232 76.0014 66.23 75.7897 66.3328 75.6808L66.6493 75.3522C66.6937 75.3058 66.7683 75.3058 66.8167 75.3522Z" fill="#F7D5B5"/>
<path opacity="0.4" d="M66.9336 77.4772L67.2905 77.824C67.3409 77.8724 67.3429 77.9531 67.2945 78.0035L66.9477 78.3644C66.9477 78.3644 66.9376 78.3744 66.9316 78.3785C66.8832 78.4128 66.6715 78.5438 66.4558 78.3341C66.2985 78.1809 66.3005 77.9531 66.4134 77.8361L66.7582 77.4793C66.8066 77.4289 66.8872 77.4268 66.9376 77.4772H66.9336Z" fill="#F7D5B5"/>
<path opacity="0.4" d="M67.7018 78.9551L68.0687 79.314C68.1212 79.3644 68.1212 79.447 68.0708 79.4995L67.7099 79.8745C67.7099 79.8745 67.6978 79.8846 67.6917 79.8906C67.6413 79.9269 67.4215 80.064 67.1998 79.8462C67.0364 79.687 67.0405 79.4531 67.1574 79.3321L67.5143 78.9611C67.5647 78.9087 67.6473 78.9067 67.6998 78.9571L67.7018 78.9551Z" fill="#F7D5B5"/>
<path opacity="0.4" d="M69.2159 79.697L69.5788 80.0499C69.6293 80.1003 69.6313 80.1809 69.5829 80.2313L69.2361 80.5922C69.2361 80.5922 69.226 80.6023 69.22 80.6063C69.1716 80.6406 68.9579 80.7717 68.7381 80.558C68.5768 80.4007 68.5768 80.1729 68.6897 80.0559L69.0345 79.6991C69.0829 79.6487 69.1635 79.6487 69.2159 79.6991V79.697Z" fill="#F7D5B5"/>
<path d="M100.79 57.8495C100.79 57.8495 96.1523 58.5552 94.9446 59.2851C93.7369 60.0149 91.3195 62.4303 90.7449 63.2731C90.1703 64.1179 89.9263 65.0655 90.5917 66.1039C91.257 67.1422 96.6584 67.1422 98.7976 65.3498C100.937 63.5574 102.104 63.1038 102.483 62.6844C102.862 62.265 105.128 58.8576 100.792 57.8475L100.79 57.8495Z" fill="url(#paint46_linear_2184_8538)"/>
<path d="M114.677 68.7814C114.677 68.7814 115.814 73.4025 115.613 74.8159C115.413 76.2292 114.143 79.4229 113.596 80.2858C113.05 81.1488 112.282 81.7395 111.08 81.5157C109.881 81.2919 107.81 76.2212 108.618 73.5275C109.429 70.8339 109.393 69.5637 109.629 69.0476C109.864 68.5314 112.092 65.0978 114.675 68.7794L114.677 68.7814Z" fill="url(#paint47_linear_2184_8538)"/>
<path d="M76.3271 72.969L78.8917 70.9931C78.8917 70.9931 75.2161 67.4749 73.45 68.2693L72.6898 69.7471C72.6898 69.7471 73.9762 71.477 76.3271 72.967V72.969Z" fill="url(#paint48_linear_2184_8538)"/>
<path d="M78.0328 71.9226C78.0328 71.9226 83.7809 66.2309 88.0674 62.0755C91.8739 58.3879 97.2148 56.0189 97.1967 55.7951C96.9507 52.7284 95.3882 42.5265 101.564 36.2319C101.564 36.2319 91.3437 42.5406 81.6659 55.3112C75.9883 62.8054 72.6898 68.4366 72.6898 68.4366C72.6898 68.4366 76.567 72.3622 78.0307 71.9206L78.0328 71.9226Z" fill="url(#paint49_linear_2184_8538)"/>
<path d="M113.742 72.9852C113.742 72.9852 111.358 72.6263 117.155 67.3903C117.155 67.3903 117.685 69.7069 115.784 71.3581C113.883 73.0094 113.816 72.9247 113.742 72.9872V72.9852Z" fill="url(#paint50_linear_2184_8538)"/>
<path d="M137.438 53.4845C137.438 53.4845 130.053 42.0466 101.564 36.2339C101.564 36.2339 95.37 39.3126 97.108 55.5994C97.108 55.5994 96.9084 57.0047 103.114 63.0352L102.382 64.0271C102.382 64.0271 114.627 73.8178 123.099 69.112C132.077 64.1259 136.515 56.6297 137.438 53.4845Z" fill="url(#paint51_linear_2184_8538)"/>
<path d="M137.438 53.4845C137.438 53.4845 140.099 60.2508 134.135 67.6261C131.069 71.4186 124.492 75.2352 115.238 73.2876C115.238 73.2876 118.685 71.6726 118.643 67.9971C118.643 67.9971 123.929 68.1543 126.766 66.6785C129.51 65.251 136.172 56.9604 137.436 53.4865L137.438 53.4845Z" fill="url(#paint52_linear_2184_8538)"/>
<path d="M118.645 67.9951L117.129 67.3903C117.129 67.3903 117.905 69.7391 115.409 71.6646C113.375 73.2352 113.665 72.9731 113.665 72.9731L115.282 73.2856C115.282 73.2856 118.643 71.7634 118.643 67.9951H118.645Z" fill="url(#paint53_linear_2184_8538)"/>
<path d="M116.82 70.0495C117.167 69.3217 117.379 68.2511 117.165 67.4406C116.828 66.9869 115.978 66.495 115.524 66.1784C114.869 65.7228 111.157 64.5131 111.157 64.5131C111.157 64.5131 110.381 65.6462 111.869 66.3599C113.76 67.2652 115.127 67.7612 114.532 68.2309C113.937 68.7007 110.717 67.6724 109.85 66.6643C108.981 65.6583 109.631 70.229 110.927 70.9951C112.197 71.7452 112.915 71.9569 114.744 72.2331C115.637 71.6202 116.516 70.6947 116.822 70.0516L116.82 70.0495Z" fill="url(#paint54_linear_2184_8538)"/>
<path d="M120.286 38.5949C120.286 38.5949 117.246 37.1856 111.651 41.2845C106.056 45.3815 107.09 44.4701 107.09 44.4701L108.651 47.569L105.84 45.6557C105.84 45.6557 102.648 55.0068 106.187 60.884C106.187 60.884 108.923 46.9541 120.286 38.5949Z" fill="url(#paint55_linear_2184_8538)"/>
<path d="M126.768 44.075C126.768 44.075 128.23 47.1396 124.29 53.4059C120.353 59.6722 121.232 58.4988 121.232 58.4988L118.127 57.1459L120.083 59.9222C120.083 59.9222 111.264 64.3559 105.364 61.1844C105.364 61.1844 118.73 56.8032 126.766 44.075H126.768Z" fill="url(#paint56_linear_2184_8538)"/>
<path d="M109.584 70.2311L109.118 66.6059L109.691 66.4568L112.242 67.7068L114.768 66.5999L114.818 66.1926L115.151 65.5535C115.151 65.5535 109.453 65.4325 107.27 63.8942L105.338 69.8702C105.338 69.8702 109.487 72.2856 112.342 72.1969L112.546 71.7614L111.798 71.4771L109.58 70.2291L109.584 70.2311Z" fill="url(#paint57_linear_2184_8538)"/>
<path d="M114.578 68.231L115.637 66.0797C115.637 66.0797 111.957 66.7047 106.336 63.2751L105.122 69.4306C105.122 69.4306 108.191 71.5093 112.203 71.977L112.358 71.6988C112.358 71.6988 110.26 70.8742 109.77 68.9507C109.322 67.1886 109.483 66.7249 109.483 66.7249C109.483 66.7249 109.538 66.2873 109.848 66.6644C110.318 67.235 113.387 68.8882 114.578 68.231Z" fill="url(#paint58_linear_2184_8538)"/>
<path d="M111.201 49.0933C111.201 49.0933 106.407 56.7971 105.602 61.4404C105.602 61.4404 112.123 58.4343 116.895 54.6479L111.201 49.0933Z" fill="url(#paint59_linear_2184_8538)"/>
<path d="M123.542 55.1157C123.542 55.1157 119.538 57.0452 117.169 55.7871C114.008 54.1096 112.919 55.1721 112.576 55.2004C112.233 55.2286 111.242 55.1862 111.342 53.9866C111.443 52.787 112.074 52.5672 110.804 50.1639C109.854 48.3655 109.508 46.0811 110.106 44.8593C110.657 43.7363 111.302 43.2685 111.911 42.5225C113.223 40.9176 123.748 42.9903 123.542 55.1197V55.1157Z" fill="url(#paint60_linear_2184_8538)"/>
<path d="M121.8 55.7709C121.8 55.7709 121.764 53.1075 123.161 51.6457C124.558 50.184 129.383 45.5709 129.383 45.5709C129.383 45.5709 131.03 47.7524 129.155 50.4058C127.002 53.4522 123.427 55.3575 121.798 55.7709H121.8Z" fill="url(#paint61_linear_2184_8538)"/>
<path d="M123.284 51.5166C123.284 51.5166 117.897 51.3876 115.074 47.6234C112.246 43.8511 115.334 40.4618 110.411 44.3712C110.411 44.3712 112.794 40.4921 117.08 37.1916C121.308 33.9354 129.059 37.7763 129.381 45.5689C129.381 45.5689 130.93 46.2181 123.282 51.5146L123.284 51.5166Z" fill="url(#paint62_linear_2184_8538)"/>
<path d="M74.7645 66.4406C74.6133 66.6342 74.6476 66.9185 74.8411 67.0757C75.0347 67.231 75.3149 67.2007 75.4662 67.0072C75.6174 66.8136 75.5831 66.5294 75.3895 66.3721C75.196 66.2168 74.9157 66.2471 74.7645 66.4406Z" fill="#4D5861"/>
<path d="M73.958 67.4748C73.8068 67.6684 73.8411 67.9527 74.0347 68.1099C74.2282 68.2652 74.5085 68.2349 74.6597 68.0414C74.8109 67.8478 74.7766 67.5635 74.5831 67.4063C74.3895 67.251 74.1092 67.2813 73.958 67.4748Z" fill="#4D5861"/>
<path d="M57.653 34.3206C57.653 34.3206 57.524 44.6133 58.0482 46.2666C58.4696 47.5953 61.8246 49.7425 61.8246 49.7425C61.8246 49.7425 61.9153 49.051 61.9939 48.3594L61.5967 44.8815L62.5826 39.7442L61.2963 33.9476L57.6551 34.3206H57.653Z" fill="url(#paint63_linear_2184_8538)"/>
<path d="M59.891 17.2697C59.891 17.2697 63.2036 17.7898 66.0445 24.6409C68.8833 31.4919 68.4337 30.0906 68.4337 30.0906L65.5747 31.9173L68.9357 31.8588C68.9357 31.8588 66.6332 41.4882 61.5967 44.8794C61.5967 44.8794 61.7903 43.9137 62.0988 42.2685C62.9617 37.6554 64.1291 27.5502 59.8931 17.2697H59.891Z" fill="url(#paint64_linear_2184_8538)"/>
<path d="M67.0042 26.2377C67.0042 26.2377 66.2925 30.6814 63.9275 31.9475C60.7721 33.6371 61.0141 35.1513 60.8427 35.4537C60.6693 35.7561 60.0725 36.5606 59.1571 35.7964C58.2418 35.0323 58.4212 34.3791 55.7538 34.0746C53.7578 33.8468 51.7093 32.8387 51.0601 31.6431C50.4633 30.5443 50.4492 29.7398 50.1931 28.8063C49.6387 26.7962 57.2962 19.1749 67.0062 26.2377H67.0042Z" fill="url(#paint65_linear_2184_8538)"/>
<path d="M66.5425 28.0683C66.5425 28.0683 64.365 26.5864 63.9738 24.5883C63.5827 22.5903 62.5867 15.9348 62.5867 15.9348C62.5867 15.9348 65.2904 15.7957 66.3751 18.8704C67.6211 22.4007 67.1332 26.4735 66.5425 28.0683Z" fill="url(#paint66_linear_2184_8538)"/>
<path d="M63.9416 24.4109C63.9416 24.4109 60.7762 28.8405 56.1248 29.0623C51.4613 29.2841 50.4714 24.7779 50.8424 31.1148C50.8424 31.1148 49.054 26.9191 48.8141 21.4592C48.5782 16.0739 56.0925 11.7774 62.5887 15.9348C62.5887 15.9348 63.996 15.0094 63.9416 24.4109Z" fill="url(#paint67_linear_2184_8538)"/>
<path d="M58.1994 75.8179C58.1994 75.8179 48.8826 77.1223 42.9671 77.4409C36.7169 77.7776 33.2369 77.4147 33.0918 77.582C31.0816 79.8825 21.3676 91.6632 13.1838 93.6471C13.1838 93.6471 18.055 94.5463 43.6909 87.3203C52.0904 84.9533 59.5463 82.0378 59.5463 82.0378C59.5463 82.0378 59.5301 76.586 58.2015 75.8179H58.1994Z" fill="url(#paint68_linear_2184_8538)"/>
<path d="M56.6087 82.1911C56.8506 82.169 57.03 81.9452 57.0059 81.6952C56.9837 81.4452 56.7679 81.2597 56.524 81.2839C56.282 81.306 56.1026 81.5278 56.1268 81.7798C56.149 82.0299 56.3647 82.2153 56.6087 82.1911Z" fill="#4D5861"/>
<path d="M58.1269 81.691C58.3688 81.6688 58.5483 81.445 58.5241 81.195C58.5019 80.945 58.2861 80.7595 58.0422 80.7837C57.8002 80.8059 57.6208 81.0297 57.645 81.2797C57.6672 81.5297 57.8829 81.7152 58.1269 81.691Z" fill="#4D5861"/>
<path d="M30.263 52.5873C30.263 52.5873 31.9889 54.1357 24.5814 55.2084C24.5814 55.2084 25.3697 53.0591 27.765 52.7607C30.1602 52.4623 30.1723 52.5954 30.2651 52.5873H30.263Z" fill="url(#paint69_linear_2184_8538)"/>
<path d="M2.43348 54.6216C2.43348 54.6216 -1.18559 74.3562 13.1818 93.6471C13.1818 93.6471 29.019 95.0766 33.3518 78.4511C33.3518 78.4511 34.3418 75.7252 34.0837 66.2914L35.1503 65.8881C35.1503 65.8881 30.4304 50.8272 21.4482 49.8856C11.9298 48.8896 4.71985 52.549 2.43146 54.6196L2.43348 54.6216Z" fill="url(#paint70_linear_2184_8538)"/>
<path d="M2.43349 54.6216C2.43349 54.6216 5.37512 49.4783 11.214 47.8613C15.9702 46.5427 23.3898 45.8391 29.7247 51.7465C29.7247 51.7465 25.777 50.9663 24.3717 54.5531C24.3717 54.5531 20.7264 52.4159 16.9017 52.1659C13.8331 51.9643 5.2723 52.5147 2.43349 54.6236V54.6216Z" fill="url(#paint71_linear_2184_8538)"/>
<path d="M24.4403 54.3071L25.3455 55.4483C25.3455 55.4483 25.8879 53.4503 28.4303 52.9845C30.2671 52.6478 30.3981 52.7466 30.3981 52.7466L29.5332 51.7103C29.5332 51.7103 25.8657 51.1054 24.4403 54.3071Z" fill="url(#paint72_linear_2184_8538)"/>
<path d="M7.32478 76.8804C7.32478 76.8804 9.09299 79.7615 15.9843 79.4853C22.8757 79.2091 21.5188 79.3885 21.5188 79.3885L21.9039 75.9288L23.2064 79.1022C23.2064 79.1022 30.9526 73.1 31.1986 66.2147C31.1986 66.2147 21.3414 76.2897 7.32478 76.8804Z" fill="url(#paint73_linear_2184_8538)"/>
<path d="M4.90334 68.6745C4.90334 68.6745 5.35295 65.2994 12.0427 62.2872C18.7324 59.275 17.3614 59.7588 17.3614 59.7588L19.2143 62.6279L19.0933 59.2145C19.0933 59.2145 28.8557 60.4686 32.0474 66.4224C32.0474 66.4224 18.5227 62.5735 4.90334 68.6745Z" fill="url(#paint74_linear_2184_8538)"/>
<path d="M20.6075 73.2291C20.6075 73.2291 28.7932 69.4992 31.9889 66.0797C31.9889 66.0797 24.9201 64.9244 18.8816 65.4043L20.6075 73.2311V73.2291Z" fill="url(#paint75_linear_2184_8538)"/>
<path d="M20.0409 67.2571L24.9847 65.3558C24.9847 65.3558 30.253 65.6966 31.9909 66.0796C31.9909 66.0796 29.9667 68.1926 26.1379 70.3479L20.801 70.9689L20.0409 67.2571Z" fill="url(#paint76_linear_2184_8538)"/>
<path d="M13.5952 61.2831C13.5952 61.2831 17.9824 61.9222 19.2728 64.3013C20.9946 67.4748 22.4805 67.1986 22.783 67.37C23.0854 67.5393 23.8878 68.1321 23.1519 69.0757C22.416 70.0193 21.7708 69.8499 21.5208 72.5657C21.3353 74.598 20.3817 76.6969 19.2163 77.3784C18.1477 78.0054 17.3533 78.0336 16.44 78.3139C14.4722 78.9147 6.82678 71.2814 13.5952 61.2871V61.2831Z" fill="url(#paint77_linear_2184_8538)"/>
<path d="M15.4037 61.7146C15.4037 61.7146 13.9863 63.9546 12.0265 64.3881C10.0668 64.8215 3.53635 65.9607 3.53635 65.9607C3.53635 65.9607 3.34884 63.2187 6.35499 62.0593C9.80672 60.7266 13.823 61.146 15.4037 61.7166V61.7146Z" fill="url(#paint78_linear_2184_8538)"/>
<path d="M11.8552 64.4263C11.8552 64.4263 16.2747 67.5575 16.5811 72.2774C16.8876 77.0094 12.4701 78.1002 18.7001 77.6042C18.7001 77.6042 14.6052 79.5014 9.23612 79.8462C3.94159 80.1869 -0.429524 72.6363 3.53835 65.9586C3.53835 65.9586 2.60082 64.5473 11.8552 64.4243V64.4263Z" fill="url(#paint79_linear_2184_8538)"/>
<path d="M32.9647 63.4567L32.505 63.7571C32.3155 63.8801 32.0635 63.8256 31.9425 63.6321L27.6057 56.7851C27.4847 56.5935 27.5392 56.3375 27.7287 56.2125L28.1884 55.9121C28.3779 55.7891 28.6299 55.8435 28.7509 56.0371L33.0877 62.8841C33.2087 63.0756 33.1543 63.3317 32.9647 63.4567Z" fill="url(#paint80_linear_2184_8538)"/>
<path d="M27.0835 53.3736C26.4484 53.7809 25.6923 54.5168 25.4363 55.285C25.4685 55.8314 25.896 56.6883 26.0935 57.1883C26.3798 57.9101 28.7307 60.892 28.7307 60.892C28.7307 60.892 29.9505 60.4001 29.1279 59.023C28.0815 57.2709 27.2932 56.1318 28.017 56.0753C28.7428 56.0189 29.1844 56.7689 31.1703 59.8698C31.8054 60.8618 31.5211 58.3133 31.2691 56.6318C31.1905 56.1096 31.4123 54.5269 29.5271 52.7849C28.5835 52.8777 27.6561 53.0067 27.0815 53.3757L27.0835 53.3736Z" fill="url(#paint81_linear_2184_8538)"/>
</g>
</g>
<defs>
<linearGradient id="paint0_linear_2184_8538" x1="76.6666" y1="41.8224" x2="77.4734" y2="48.0335" gradientUnits="userSpaceOnUse">
<stop stop-color="#D26B5E"/>
<stop offset="0.14" stop-color="#DF8067"/>
<stop offset="0.31" stop-color="#EB936E"/>
<stop offset="0.49" stop-color="#F29E73"/>
<stop offset="0.69" stop-color="#F5A275"/>
<stop offset="0.87" stop-color="#EFB486"/>
<stop offset="1" stop-color="#EDBB8D"/>
</linearGradient>
<linearGradient id="paint1_linear_2184_8538" x1="77.0701" y1="42.2568" x2="76.7696" y2="41.5105" gradientUnits="userSpaceOnUse">
<stop offset="0.34" stop-color="#F3FAFE"/>
<stop offset="0.45" stop-color="#EDF5FA"/>
<stop offset="0.57" stop-color="#DFE8EF"/>
<stop offset="0.7" stop-color="#C7D2DE"/>
<stop offset="0.84" stop-color="#A5B3C5"/>
<stop offset="0.99" stop-color="#7A8CA6"/>
<stop offset="1" stop-color="#7789A4"/>
</linearGradient>
<linearGradient id="paint2_linear_2184_8538" x1="79.7311" y1="40.5398" x2="68.2554" y2="9.89175" gradientUnits="userSpaceOnUse">
<stop stop-color="#15252D"/>
<stop offset="0.52" stop-color="#20313A"/>
<stop offset="0.72" stop-color="#22323B"/>
<stop offset="0.81" stop-color="#293942"/>
<stop offset="0.88" stop-color="#36454D"/>
<stop offset="0.94" stop-color="#48565D"/>
<stop offset="0.99" stop-color="#5F6B71"/>
<stop offset="1" stop-color="#647075"/>
</linearGradient>
<linearGradient id="paint3_linear_2184_8538" x1="58.8638" y1="77.6201" x2="66.6941" y2="76.5546" gradientUnits="userSpaceOnUse">
<stop stop-color="#F5A275"/>
<stop offset="0.1" stop-color="#F6AA7B"/>
<stop offset="0.44" stop-color="#FBC38C"/>
<stop offset="0.75" stop-color="#FED196"/>
<stop offset="1" stop-color="#FFD79A"/>
</linearGradient>
<linearGradient id="paint4_linear_2184_8538" x1="60.9751" y1="78.6109" x2="57.8972" y2="79.0604" gradientUnits="userSpaceOnUse">
<stop offset="0.34" stop-color="#F3FAFE"/>
<stop offset="0.45" stop-color="#EDF5FA"/>
<stop offset="0.57" stop-color="#DFE8EF"/>
<stop offset="0.7" stop-color="#C7D2DE"/>
<stop offset="0.84" stop-color="#A5B3C5"/>
<stop offset="0.99" stop-color="#7A8CA6"/>
<stop offset="1" stop-color="#7789A4"/>
</linearGradient>
<linearGradient id="paint5_linear_2184_8538" x1="74.6837" y1="79.8488" x2="63.6282" y2="70.286" gradientUnits="userSpaceOnUse">
<stop stop-color="#D26B5E"/>
<stop offset="0.11" stop-color="#DF8067"/>
<stop offset="0.24" stop-color="#EB936E"/>
<stop offset="0.38" stop-color="#F29E73"/>
<stop offset="0.53" stop-color="#F5A275"/>
<stop offset="0.8" stop-color="#EFB37F"/>
<stop offset="1" stop-color="#EEBA83"/>
</linearGradient>
<linearGradient id="paint6_linear_2184_8538" x1="65.9696" y1="71.9137" x2="63.6157" y2="69.7672" gradientUnits="userSpaceOnUse">
<stop offset="0.34" stop-color="#F3FAFE"/>
<stop offset="0.45" stop-color="#EDF5FA"/>
<stop offset="0.57" stop-color="#DFE8EF"/>
<stop offset="0.7" stop-color="#C7D2DE"/>
<stop offset="0.84" stop-color="#A5B3C5"/>
<stop offset="0.99" stop-color="#7A8CA6"/>
<stop offset="1" stop-color="#7789A4"/>
</linearGradient>
<linearGradient id="paint7_linear_2184_8538" x1="56.0625" y1="47.2144" x2="53.9915" y2="62.0153" gradientUnits="userSpaceOnUse">
<stop stop-color="#231216"/>
<stop offset="0.25" stop-color="#2A262B"/>
<stop offset="0.52" stop-color="#2C282D"/>
<stop offset="0.68" stop-color="#353034"/>
<stop offset="0.82" stop-color="#433E3F"/>
<stop offset="0.94" stop-color="#575150"/>
<stop offset="1" stop-color="#665F5C"/>
</linearGradient>
<linearGradient id="paint8_linear_2184_8538" x1="42.8604" y1="38.2842" x2="65.5454" y2="79.6037" gradientUnits="userSpaceOnUse">
<stop stop-color="#15252D"/>
<stop offset="0.55" stop-color="#20313A"/>
<stop offset="0.65" stop-color="#24353E"/>
<stop offset="0.77" stop-color="#32424A"/>
<stop offset="0.89" stop-color="#49575E"/>
<stop offset="1" stop-color="#647075"/>
</linearGradient>
<linearGradient id="paint9_linear_2184_8538" x1="66.6264" y1="85.2219" x2="68.3715" y2="73.8542" gradientUnits="userSpaceOnUse">
<stop stop-color="#D26B5E"/>
<stop offset="0.11" stop-color="#DF8067"/>
<stop offset="0.24" stop-color="#EB936E"/>
<stop offset="0.38" stop-color="#F29E73"/>
<stop offset="0.53" stop-color="#F5A275"/>
<stop offset="0.8" stop-color="#EFB37F"/>
<stop offset="1" stop-color="#EEBA83"/>
</linearGradient>
<linearGradient id="paint10_linear_2184_8538" x1="42.2792" y1="111.137" x2="45.1423" y2="97.5649" gradientUnits="userSpaceOnUse">
<stop stop-color="#1C120E"/>
<stop offset="0.25" stop-color="#34221C"/>
<stop offset="0.51" stop-color="#36241E"/>
<stop offset="0.67" stop-color="#3F2B24"/>
<stop offset="0.8" stop-color="#4D3830"/>
<stop offset="0.92" stop-color="#614940"/>
<stop offset="1" stop-color="#765B50"/>
</linearGradient>
<linearGradient id="paint11_linear_2184_8538" x1="49.9532" y1="116.349" x2="61.7652" y2="107.337" gradientUnits="userSpaceOnUse">
<stop stop-color="#1C120E"/>
<stop offset="0.25" stop-color="#34221C"/>
<stop offset="0.51" stop-color="#36241E"/>
<stop offset="0.67" stop-color="#3F2B24"/>
<stop offset="0.8" stop-color="#4D3830"/>
<stop offset="0.92" stop-color="#614940"/>
<stop offset="1" stop-color="#765B50"/>
</linearGradient>
<linearGradient id="paint12_linear_2184_8538" x1="33.3992" y1="99.6001" x2="38.9046" y2="90.7534" gradientUnits="userSpaceOnUse">
<stop stop-color="#503932"/>
<stop offset="0.13" stop-color="#583E35"/>
<stop offset="0.69" stop-color="#795340"/>
<stop offset="1" stop-color="#865B45"/>
</linearGradient>
<linearGradient id="paint13_linear_2184_8538" x1="32.801" y1="100.555" x2="36.828" y2="94.2717" gradientUnits="userSpaceOnUse">
<stop stop-color="#1C120E"/>
<stop offset="0.55" stop-color="#34221C"/>
<stop offset="0.68" stop-color="#36241E"/>
<stop offset="0.75" stop-color="#3F2B24"/>
<stop offset="0.82" stop-color="#4D3830"/>
<stop offset="0.88" stop-color="#614940"/>
<stop offset="0.92" stop-color="#765B50"/>
</linearGradient>
<linearGradient id="paint14_linear_2184_8538" x1="33.5558" y1="99.0481" x2="35.9771" y2="94.814" gradientUnits="userSpaceOnUse">
<stop stop-color="#D26B5E"/>
<stop offset="0.14" stop-color="#DF8067"/>
<stop offset="0.31" stop-color="#EB936E"/>
<stop offset="0.49" stop-color="#F29E73"/>
<stop offset="0.69" stop-color="#F5A275"/>
<stop offset="0.87" stop-color="#EFB486"/>
<stop offset="1" stop-color="#EDBB8D"/>
</linearGradient>
<linearGradient id="paint15_linear_2184_8538" x1="33.5088" y1="98.6005" x2="33.3448" y2="99.1954" gradientUnits="userSpaceOnUse">
<stop offset="0.34" stop-color="#F3FAFE"/>
<stop offset="0.45" stop-color="#EDF5FA"/>
<stop offset="0.57" stop-color="#DFE8EF"/>
<stop offset="0.7" stop-color="#C7D2DE"/>
<stop offset="0.84" stop-color="#A5B3C5"/>
<stop offset="0.99" stop-color="#7A8CA6"/>
<stop offset="1" stop-color="#7789A4"/>
</linearGradient>
<linearGradient id="paint16_linear_2184_8538" x1="68.2896" y1="84.6672" x2="67.7538" y2="86.8988" gradientUnits="userSpaceOnUse">
<stop offset="0.34" stop-color="#F3FAFE"/>
<stop offset="0.45" stop-color="#EDF5FA"/>
<stop offset="0.57" stop-color="#DFE8EF"/>
<stop offset="0.7" stop-color="#C7D2DE"/>
<stop offset="0.84" stop-color="#A5B3C5"/>
<stop offset="0.99" stop-color="#7A8CA6"/>
<stop offset="1" stop-color="#7789A4"/>
</linearGradient>
<linearGradient id="paint17_linear_2184_8538" x1="31.1387" y1="98.5345" x2="23.8494" y2="122.915" gradientUnits="userSpaceOnUse">
<stop stop-color="#192F50"/>
<stop offset="0.06" stop-color="#153354"/>
<stop offset="0.33" stop-color="#0A4265"/>
<stop offset="0.63" stop-color="#044B6F"/>
<stop offset="1" stop-color="#024E73"/>
</linearGradient>
<linearGradient id="paint18_linear_2184_8538" x1="66.21" y1="87.4587" x2="60.3393" y2="119.811" gradientUnits="userSpaceOnUse">
<stop stop-color="#192F50"/>
<stop offset="0.27" stop-color="#0F3B5E"/>
<stop offset="0.67" stop-color="#05496D"/>
<stop offset="1" stop-color="#024E73"/>
</linearGradient>
<linearGradient id="paint19_linear_2184_8538" x1="34.5912" y1="131.291" x2="49.399" y2="110.248" gradientUnits="userSpaceOnUse">
<stop stop-color="#000E2C"/>
<stop offset="0.24" stop-color="#192F50"/>
<stop offset="0.26" stop-color="#182F50"/>
<stop offset="0.72" stop-color="#084569"/>
<stop offset="1" stop-color="#024E73"/>
</linearGradient>
<linearGradient id="paint20_linear_2184_8538" x1="37.8678" y1="109.537" x2="47.9388" y2="121.211" gradientUnits="userSpaceOnUse">
<stop stop-color="#192F50"/>
<stop offset="0.06" stop-color="#153354"/>
<stop offset="0.33" stop-color="#0A4265"/>
<stop offset="0.63" stop-color="#044B6F"/>
<stop offset="1" stop-color="#024E73"/>
</linearGradient>
<linearGradient id="paint21_linear_2184_8538" x1="55.9118" y1="119.295" x2="43.4092" y2="117.844" gradientUnits="userSpaceOnUse">
<stop stop-color="#192F50"/>
<stop offset="0.06" stop-color="#153354"/>
<stop offset="0.33" stop-color="#0A4265"/>
<stop offset="0.63" stop-color="#044B6F"/>
<stop offset="1" stop-color="#024E73"/>
</linearGradient>
<linearGradient id="paint22_linear_2184_8538" x1="49.1945" y1="109.822" x2="45.3846" y2="116.762" gradientUnits="userSpaceOnUse">
<stop stop-color="#D26B5E"/>
<stop offset="0.14" stop-color="#DF8067"/>
<stop offset="0.31" stop-color="#EB936E"/>
<stop offset="0.49" stop-color="#F29E73"/>
<stop offset="0.69" stop-color="#F5A275"/>
<stop offset="0.87" stop-color="#EFB486"/>
<stop offset="1" stop-color="#EDBB8D"/>
</linearGradient>
<linearGradient id="paint23_linear_2184_8538" x1="34.7277" y1="116.414" x2="39.6152" y2="119.98" gradientUnits="userSpaceOnUse">
<stop stop-color="#1C120E"/>
<stop offset="0.45" stop-color="#34221C"/>
<stop offset="0.64" stop-color="#36241E"/>
<stop offset="0.76" stop-color="#3F2B24"/>
<stop offset="0.85" stop-color="#4D3830"/>
<stop offset="0.94" stop-color="#614940"/>
<stop offset="1" stop-color="#765B50"/>
</linearGradient>
<linearGradient id="paint24_linear_2184_8538" x1="36.6652" y1="118.985" x2="50.2356" y2="127.567" gradientUnits="userSpaceOnUse">
<stop stop-color="#1C120E"/>
<stop offset="0.25" stop-color="#34221C"/>
<stop offset="0.51" stop-color="#36241E"/>
<stop offset="0.67" stop-color="#3F2B24"/>
<stop offset="0.8" stop-color="#4D3830"/>
<stop offset="0.92" stop-color="#614940"/>
<stop offset="1" stop-color="#765B50"/>
</linearGradient>
<linearGradient id="paint25_linear_2184_8538" x1="64.9557" y1="77.7373" x2="79.3251" y2="79.8483" gradientUnits="userSpaceOnUse">
<stop stop-color="#F6BD86"/>
<stop offset="0.36" stop-color="#F4B984"/>
<stop offset="0.66" stop-color="#EFAF81"/>
<stop offset="0.94" stop-color="#E79D7C"/>
<stop offset="0.99" stop-color="#E69A7B"/>
</linearGradient>
<linearGradient id="paint26_linear_2184_8538" x1="96.0151" y1="112.276" x2="83.3672" y2="107.005" gradientUnits="userSpaceOnUse">
<stop stop-color="#231216"/>
<stop offset="0.25" stop-color="#2A262B"/>
<stop offset="0.52" stop-color="#2C282D"/>
<stop offset="0.68" stop-color="#353034"/>
<stop offset="0.82" stop-color="#433E3F"/>
<stop offset="0.94" stop-color="#575150"/>
<stop offset="1" stop-color="#665F5C"/>
</linearGradient>
<linearGradient id="paint27_linear_2184_8538" x1="104.613" y1="103.367" x2="97.9141" y2="90.0041" gradientUnits="userSpaceOnUse">
<stop stop-color="#231216"/>
<stop offset="0.25" stop-color="#2A262B"/>
<stop offset="0.52" stop-color="#2C282D"/>
<stop offset="0.68" stop-color="#353034"/>
<stop offset="0.82" stop-color="#433E3F"/>
<stop offset="0.94" stop-color="#575150"/>
<stop offset="1" stop-color="#665F5C"/>
</linearGradient>
<linearGradient id="paint28_linear_2184_8538" x1="84.7603" y1="116.576" x2="81.0516" y2="113.414" gradientUnits="userSpaceOnUse">
<stop stop-color="#D26B5E"/>
<stop offset="0.14" stop-color="#DF8067"/>
<stop offset="0.31" stop-color="#EB936E"/>
<stop offset="0.49" stop-color="#F29E73"/>
<stop offset="0.69" stop-color="#F5A275"/>
<stop offset="0.87" stop-color="#EFB486"/>
<stop offset="1" stop-color="#EDBB8D"/>
</linearGradient>
<linearGradient id="paint29_linear_2184_8538" x1="83.9604" y1="117.008" x2="84.9655" y2="117.568" gradientUnits="userSpaceOnUse">
<stop offset="0.34" stop-color="#F3FAFE"/>
<stop offset="0.45" stop-color="#EDF5FA"/>
<stop offset="0.57" stop-color="#DFE8EF"/>
<stop offset="0.7" stop-color="#C7D2DE"/>
<stop offset="0.84" stop-color="#A5B3C5"/>
<stop offset="0.99" stop-color="#7A8CA6"/>
<stop offset="1" stop-color="#7789A4"/>
</linearGradient>
<linearGradient id="paint30_linear_2184_8538" x1="77.2639" y1="78.9387" x2="79.6163" y2="79.9963" gradientUnits="userSpaceOnUse">
<stop offset="0.34" stop-color="#F3FAFE"/>
<stop offset="0.45" stop-color="#EDF5FA"/>
<stop offset="0.57" stop-color="#DFE8EF"/>
<stop offset="0.7" stop-color="#C7D2DE"/>
<stop offset="0.84" stop-color="#A5B3C5"/>
<stop offset="0.99" stop-color="#7A8CA6"/>
<stop offset="1" stop-color="#7789A4"/>
</linearGradient>
<linearGradient id="paint31_linear_2184_8538" x1="85.1095" y1="124.296" x2="95.6309" y2="123.017" gradientUnits="userSpaceOnUse">
<stop stop-color="#F3FAFE"/>
<stop offset="0.19" stop-color="#E5EDF3"/>
<stop offset="0.55" stop-color="#C1CCD9"/>
<stop offset="1" stop-color="#8C9BB2"/>
</linearGradient>
<linearGradient id="paint32_linear_2184_8538" x1="83.4591" y1="80.0381" x2="120.019" y2="100.583" gradientUnits="userSpaceOnUse">
<stop stop-color="#F3FAFE"/>
<stop offset="0.19" stop-color="#E5EDF3"/>
<stop offset="0.55" stop-color="#C1CCD9"/>
<stop offset="1" stop-color="#8C9BB2"/>
</linearGradient>
<linearGradient id="paint33_linear_2184_8538" x1="118.366" y1="120.155" x2="97.2548" y2="105.946" gradientUnits="userSpaceOnUse">
<stop offset="0.34" stop-color="#F3FAFE"/>
<stop offset="0.45" stop-color="#EDF5FA"/>
<stop offset="0.57" stop-color="#DFE8EF"/>
<stop offset="0.7" stop-color="#C7D2DE"/>
<stop offset="0.84" stop-color="#A5B3C5"/>
<stop offset="0.99" stop-color="#7A8CA6"/>
<stop offset="1" stop-color="#7789A4"/>
</linearGradient>
<linearGradient id="paint34_linear_2184_8538" x1="93.7473" y1="111.583" x2="99.32" y2="111.136" gradientUnits="userSpaceOnUse">
<stop stop-color="#F3FAFE"/>
<stop offset="0.16" stop-color="#EDF5FA"/>
<stop offset="0.34" stop-color="#DFE8EF"/>
<stop offset="0.55" stop-color="#C7D2DE"/>
<stop offset="0.76" stop-color="#A5B3C5"/>
<stop offset="0.98" stop-color="#7A8CA6"/>
<stop offset="1" stop-color="#7789A4"/>
</linearGradient>
<linearGradient id="paint35_linear_2184_8538" x1="109.642" y1="99.1091" x2="105.669" y2="106.332" gradientUnits="userSpaceOnUse">
<stop stop-color="#F3FAFE"/>
<stop offset="0.16" stop-color="#EDF5FA"/>
<stop offset="0.34" stop-color="#DFE8EF"/>
<stop offset="0.55" stop-color="#C7D2DE"/>
<stop offset="0.76" stop-color="#A5B3C5"/>
<stop offset="0.98" stop-color="#7A8CA6"/>
<stop offset="1" stop-color="#7789A4"/>
</linearGradient>
<linearGradient id="paint36_linear_2184_8538" x1="97.993" y1="103.057" x2="104.062" y2="108.058" gradientUnits="userSpaceOnUse">
<stop stop-color="#D26B5E"/>
<stop offset="0.14" stop-color="#DF8067"/>
<stop offset="0.31" stop-color="#EB936E"/>
<stop offset="0.49" stop-color="#F29E73"/>
<stop offset="0.69" stop-color="#F5A275"/>
<stop offset="0.87" stop-color="#EFB486"/>
<stop offset="1" stop-color="#EDBB8D"/>
</linearGradient>
<linearGradient id="paint37_linear_2184_8538" x1="101.74" y1="118.598" x2="106.044" y2="114.554" gradientUnits="userSpaceOnUse">
<stop stop-color="#1E171D"/>
<stop offset="0.25" stop-color="#2A262B"/>
<stop offset="0.52" stop-color="#2C282D"/>
<stop offset="0.68" stop-color="#353034"/>
<stop offset="0.82" stop-color="#433E3F"/>
<stop offset="0.94" stop-color="#575150"/>
<stop offset="1" stop-color="#665F5C"/>
</linearGradient>
<linearGradient id="paint38_linear_2184_8538" x1="104.52" y1="117.108" x2="115.549" y2="105.287" gradientUnits="userSpaceOnUse">
<stop stop-color="#181117"/>
<stop offset="0.25" stop-color="#2A262B"/>
<stop offset="0.52" stop-color="#2C282D"/>
<stop offset="0.68" stop-color="#353034"/>
<stop offset="0.82" stop-color="#433E3F"/>
<stop offset="0.94" stop-color="#575150"/>
<stop offset="1" stop-color="#665F5C"/>
</linearGradient>
<linearGradient id="paint39_linear_2184_8538" x1="65.7775" y1="41.6987" x2="78.7849" y2="50.3688" gradientUnits="userSpaceOnUse">
<stop stop-color="#231216"/>
<stop offset="0.25" stop-color="#2A262B"/>
<stop offset="0.52" stop-color="#2C282D"/>
<stop offset="0.68" stop-color="#353034"/>
<stop offset="0.82" stop-color="#433E3F"/>
<stop offset="0.94" stop-color="#575150"/>
<stop offset="1" stop-color="#665F5C"/>
</linearGradient>
<linearGradient id="paint40_linear_2184_8538" x1="46.9596" y1="20.8886" x2="74.4739" y2="41.3692" gradientUnits="userSpaceOnUse">
<stop stop-color="#16262E"/>
<stop offset="0.84" stop-color="#213640"/>
<stop offset="0.87" stop-color="#263A44"/>
<stop offset="0.92" stop-color="#364851"/>
<stop offset="0.97" stop-color="#505F65"/>
<stop offset="1" stop-color="#647075"/>
</linearGradient>
<linearGradient id="paint41_linear_2184_8538" x1="49.2699" y1="35.1118" x2="65.2334" y2="28.093" gradientUnits="userSpaceOnUse">
<stop stop-color="#16262E"/>
<stop offset="0.16" stop-color="#213640"/>
<stop offset="0.39" stop-color="#2F424B"/>
<stop offset="0.83" stop-color="#536168"/>
<stop offset="1" stop-color="#647075"/>
</linearGradient>
<linearGradient id="paint42_linear_2184_8538" x1="58.1039" y1="28.6653" x2="62.153" y2="44.9245" gradientUnits="userSpaceOnUse">
<stop stop-color="#D6DDE6"/>
<stop offset="0.3" stop-color="#AEBACA"/>
<stop offset="0.69" stop-color="#7789A4"/>
<stop offset="0.79" stop-color="#67788E"/>
<stop offset="0.91" stop-color="#5A6A7B"/>
<stop offset="0.99" stop-color="#566575"/>
</linearGradient>
<linearGradient id="paint43_linear_2184_8538" x1="31.0554" y1="75.9516" x2="45.1314" y2="80.3161" gradientUnits="userSpaceOnUse">
<stop stop-color="#1C120E"/>
<stop offset="0.25" stop-color="#34221C"/>
<stop offset="0.51" stop-color="#36241E"/>
<stop offset="0.67" stop-color="#3F2B24"/>
<stop offset="0.8" stop-color="#4D3830"/>
<stop offset="0.92" stop-color="#614940"/>
<stop offset="1" stop-color="#765B50"/>
</linearGradient>
<linearGradient id="paint44_linear_2184_8538" x1="28.1317" y1="60.7955" x2="41.3056" y2="52.4043" gradientUnits="userSpaceOnUse">
<stop stop-color="#1C120E"/>
<stop offset="0.25" stop-color="#34221C"/>
<stop offset="0.51" stop-color="#36241E"/>
<stop offset="0.67" stop-color="#3F2B24"/>
<stop offset="0.8" stop-color="#4D3830"/>
<stop offset="0.92" stop-color="#614940"/>
<stop offset="1" stop-color="#765B50"/>
</linearGradient>
<linearGradient id="paint45_linear_2184_8538" x1="67.2508" y1="82.0041" x2="75.5875" y2="69.9276" gradientUnits="userSpaceOnUse">
<stop stop-color="#D26B5E"/>
<stop offset="0.11" stop-color="#DF8067"/>
<stop offset="0.24" stop-color="#EB936E"/>
<stop offset="0.38" stop-color="#F29E73"/>
<stop offset="0.53" stop-color="#F5A275"/>
<stop offset="0.8" stop-color="#EFB37F"/>
<stop offset="1" stop-color="#EEBA83"/>
</linearGradient>
<linearGradient id="paint46_linear_2184_8538" x1="102.42" y1="59.5944" x2="89.2238" y2="66.2173" gradientUnits="userSpaceOnUse">
<stop stop-color="#1C120E"/>
<stop offset="0.25" stop-color="#34221C"/>
<stop offset="0.51" stop-color="#36241E"/>
<stop offset="0.67" stop-color="#3F2B24"/>
<stop offset="0.8" stop-color="#4D3830"/>
<stop offset="0.92" stop-color="#614940"/>
<stop offset="1" stop-color="#765B50"/>
</linearGradient>
<linearGradient id="paint47_linear_2184_8538" x1="112.205" y1="66.9112" x2="111.873" y2="82.7044" gradientUnits="userSpaceOnUse">
<stop stop-color="#1C120E"/>
<stop offset="0.25" stop-color="#34221C"/>
<stop offset="0.51" stop-color="#36241E"/>
<stop offset="0.67" stop-color="#3F2B24"/>
<stop offset="0.8" stop-color="#4D3830"/>
<stop offset="0.92" stop-color="#614940"/>
<stop offset="1" stop-color="#765B50"/>
</linearGradient>
<linearGradient id="paint48_linear_2184_8538" x1="74.7302" y1="73.0352" x2="75.8992" y2="70.1852" gradientUnits="userSpaceOnUse">
<stop offset="0.34" stop-color="#F3FAFE"/>
<stop offset="0.45" stop-color="#EDF5FA"/>
<stop offset="0.57" stop-color="#DFE8EF"/>
<stop offset="0.7" stop-color="#C7D2DE"/>
<stop offset="0.84" stop-color="#A5B3C5"/>
<stop offset="0.99" stop-color="#7A8CA6"/>
<stop offset="1" stop-color="#7789A4"/>
</linearGradient>
<linearGradient id="paint49_linear_2184_8538" x1="100.042" y1="45.1092" x2="72.4681" y2="68.8358" gradientUnits="userSpaceOnUse">
<stop stop-color="#17263A"/>
<stop offset="0.03" stop-color="#17263A"/>
<stop offset="1" stop-color="#2C3F50"/>
</linearGradient>
<linearGradient id="paint50_linear_2184_8538" x1="114.147" y1="74.3792" x2="114.659" y2="72.5619" gradientUnits="userSpaceOnUse">
<stop offset="0.34" stop-color="#F3FAFE"/>
<stop offset="0.45" stop-color="#EDF5FA"/>
<stop offset="0.57" stop-color="#DFE8EF"/>
<stop offset="0.7" stop-color="#C7D2DE"/>
<stop offset="0.84" stop-color="#A5B3C5"/>
<stop offset="0.99" stop-color="#7A8CA6"/>
<stop offset="1" stop-color="#7789A4"/>
</linearGradient>
<linearGradient id="paint51_linear_2184_8538" x1="122.273" y1="41.2494" x2="104.195" y2="66.7534" gradientUnits="userSpaceOnUse">
<stop stop-color="#17263A"/>
<stop offset="0.03" stop-color="#17263A"/>
<stop offset="1" stop-color="#2C3F50"/>
</linearGradient>
<linearGradient id="paint52_linear_2184_8538" x1="127.262" y1="64.8535" x2="134.193" y2="75.887" gradientUnits="userSpaceOnUse">
<stop stop-color="#17263A"/>
<stop offset="0.03" stop-color="#17263A"/>
<stop offset="1" stop-color="#2C3F50"/>
</linearGradient>
<linearGradient id="paint53_linear_2184_8538" x1="115.699" y1="70.2289" x2="117.557" y2="71.3339" gradientUnits="userSpaceOnUse">
<stop offset="0.34" stop-color="#F3FAFE"/>
<stop offset="0.45" stop-color="#EDF5FA"/>
<stop offset="0.57" stop-color="#DFE8EF"/>
<stop offset="0.7" stop-color="#C7D2DE"/>
<stop offset="0.84" stop-color="#A5B3C5"/>
<stop offset="0.99" stop-color="#7A8CA6"/>
<stop offset="1" stop-color="#7789A4"/>
</linearGradient>
<linearGradient id="paint54_linear_2184_8538" x1="116.966" y1="70.421" x2="108.7" y2="66.3995" gradientUnits="userSpaceOnUse">
<stop stop-color="#D26B5E"/>
<stop offset="0.11" stop-color="#DF8067"/>
<stop offset="0.24" stop-color="#EB936E"/>
<stop offset="0.38" stop-color="#F29E73"/>
<stop offset="0.53" stop-color="#F5A275"/>
<stop offset="0.8" stop-color="#EFB37F"/>
<stop offset="1" stop-color="#EEBA83"/>
</linearGradient>
<linearGradient id="paint55_linear_2184_8538" x1="105.909" y1="45.2841" x2="113.433" y2="49.8614" gradientUnits="userSpaceOnUse">
<stop stop-color="#17263A"/>
<stop offset="0.03" stop-color="#17263A"/>
<stop offset="1" stop-color="#2C3F50"/>
</linearGradient>
<linearGradient id="paint56_linear_2184_8538" x1="119.657" y1="60.7086" x2="117.141" y2="55.0454" gradientUnits="userSpaceOnUse">
<stop stop-color="#17263A"/>
<stop offset="0.03" stop-color="#17263A"/>
<stop offset="1" stop-color="#2C3F50"/>
</linearGradient>
<linearGradient id="paint57_linear_2184_8538" x1="118.665" y1="70.16" x2="105.816" y2="67.1117" gradientUnits="userSpaceOnUse">
<stop stop-color="#DEE4EB"/>
<stop offset="0.17" stop-color="#D4DBE4"/>
<stop offset="0.45" stop-color="#BAC4D2"/>
<stop offset="0.81" stop-color="#909FB5"/>
<stop offset="1" stop-color="#7789A4"/>
</linearGradient>
<linearGradient id="paint58_linear_2184_8538" x1="107.829" y1="63.1622" x2="112.058" y2="70.7815" gradientUnits="userSpaceOnUse">
<stop stop-color="#EFF5FA"/>
<stop offset="0.16" stop-color="#E9F0F6"/>
<stop offset="0.35" stop-color="#DBE3EB"/>
<stop offset="0.56" stop-color="#C2CDDA"/>
<stop offset="0.78" stop-color="#A0AEC1"/>
<stop offset="1" stop-color="#7789A4"/>
</linearGradient>
<linearGradient id="paint59_linear_2184_8538" x1="116.583" y1="49.0027" x2="105.503" y2="61.5722" gradientUnits="userSpaceOnUse">
<stop stop-color="#D6DDE6"/>
<stop offset="0.3" stop-color="#AEBACA"/>
<stop offset="0.69" stop-color="#7789A4"/>
<stop offset="0.79" stop-color="#67788E"/>
<stop offset="0.91" stop-color="#5A6A7B"/>
<stop offset="0.99" stop-color="#566575"/>
</linearGradient>
<linearGradient id="paint60_linear_2184_8538" x1="111.37" y1="55.5752" x2="121.135" y2="45.2069" gradientUnits="userSpaceOnUse">
<stop stop-color="#D26B5E"/>
<stop offset="0.14" stop-color="#DF8067"/>
<stop offset="0.31" stop-color="#EB936E"/>
<stop offset="0.49" stop-color="#F29E73"/>
<stop offset="0.69" stop-color="#F5A275"/>
<stop offset="0.87" stop-color="#EFB486"/>
<stop offset="1" stop-color="#EDBB8D"/>
</linearGradient>
<linearGradient id="paint61_linear_2184_8538" x1="125.06" y1="50.0628" x2="128.908" y2="54.4727" gradientUnits="userSpaceOnUse">
<stop stop-color="#1C120E"/>
<stop offset="0.25" stop-color="#34221C"/>
<stop offset="0.51" stop-color="#36241E"/>
<stop offset="0.67" stop-color="#3F2B24"/>
<stop offset="0.8" stop-color="#4D3830"/>
<stop offset="0.92" stop-color="#614940"/>
<stop offset="1" stop-color="#765B50"/>
</linearGradient>
<linearGradient id="paint62_linear_2184_8538" x1="126.432" y1="50.0531" x2="115.241" y2="38.0865" gradientUnits="userSpaceOnUse">
<stop stop-color="#1C120E"/>
<stop offset="0.25" stop-color="#34221C"/>
<stop offset="0.51" stop-color="#36241E"/>
<stop offset="0.67" stop-color="#3F2B24"/>
<stop offset="0.8" stop-color="#4D3830"/>
<stop offset="0.92" stop-color="#614940"/>
<stop offset="1" stop-color="#765B50"/>
</linearGradient>
<linearGradient id="paint63_linear_2184_8538" x1="62.0556" y1="41.8509" x2="57.2008" y2="41.8158" gradientUnits="userSpaceOnUse">
<stop stop-color="#192F50"/>
<stop offset="0.25" stop-color="#103A5D"/>
<stop offset="0.67" stop-color="#05486D"/>
<stop offset="1" stop-color="#024E73"/>
</linearGradient>
<linearGradient id="paint64_linear_2184_8538" x1="68.7265" y1="29.9577" x2="54.7176" y2="31.924" gradientUnits="userSpaceOnUse">
<stop stop-color="#16262E"/>
<stop offset="0.26" stop-color="#213640"/>
<stop offset="0.46" stop-color="#2F424B"/>
<stop offset="0.85" stop-color="#536168"/>
<stop offset="1" stop-color="#647075"/>
</linearGradient>
<linearGradient id="paint65_linear_2184_8538" x1="60.5939" y1="36.6625" x2="57.5909" y2="22.653" gradientUnits="userSpaceOnUse">
<stop stop-color="#D26B5E"/>
<stop offset="0.14" stop-color="#DF8067"/>
<stop offset="0.31" stop-color="#EB936E"/>
<stop offset="0.49" stop-color="#F29E73"/>
<stop offset="0.69" stop-color="#F5A275"/>
<stop offset="0.87" stop-color="#EFB486"/>
<stop offset="1" stop-color="#EDBB8D"/>
</linearGradient>
<linearGradient id="paint66_linear_2184_8538" x1="63.855" y1="22.0922" x2="69.5275" y2="21.4462" gradientUnits="userSpaceOnUse">
<stop stop-color="#1C120E"/>
<stop offset="0.25" stop-color="#34221C"/>
<stop offset="0.51" stop-color="#36241E"/>
<stop offset="0.67" stop-color="#3F2B24"/>
<stop offset="0.8" stop-color="#4D3830"/>
<stop offset="0.92" stop-color="#614940"/>
<stop offset="1" stop-color="#765B50"/>
</linearGradient>
<linearGradient id="paint67_linear_2184_8538" x1="64.6235" y1="21.0647" x2="48.5059" y2="23.462" gradientUnits="userSpaceOnUse">
<stop stop-color="#1C120E"/>
<stop offset="0.25" stop-color="#34221C"/>
<stop offset="0.51" stop-color="#36241E"/>
<stop offset="0.67" stop-color="#3F2B24"/>
<stop offset="0.8" stop-color="#4D3830"/>
<stop offset="0.92" stop-color="#614940"/>
<stop offset="1" stop-color="#765B50"/>
</linearGradient>
<linearGradient id="paint68_linear_2184_8538" x1="21.4362" y1="83.4511" x2="59.4464" y2="87.1301" gradientUnits="userSpaceOnUse">
<stop stop-color="#263740"/>
<stop offset="0.57" stop-color="#4B5960"/>
<stop offset="1" stop-color="#647075"/>
</linearGradient>
<linearGradient id="paint69_linear_2184_8538" x1="30.7" y1="51.1176" x2="29.3357" y2="52.2935" gradientUnits="userSpaceOnUse">
<stop offset="0.34" stop-color="#F3FAFE"/>
<stop offset="0.45" stop-color="#EDF5FA"/>
<stop offset="0.57" stop-color="#DFE8EF"/>
<stop offset="0.7" stop-color="#C7D2DE"/>
<stop offset="0.84" stop-color="#A5B3C5"/>
<stop offset="0.99" stop-color="#7A8CA6"/>
<stop offset="1" stop-color="#7789A4"/>
</linearGradient>
<linearGradient id="paint70_linear_2184_8538" x1="4.67561" y1="76.012" x2="36.5028" y2="64.2144" gradientUnits="userSpaceOnUse">
<stop stop-color="#16262E"/>
<stop offset="0.16" stop-color="#213640"/>
<stop offset="0.39" stop-color="#2F424B"/>
<stop offset="0.83" stop-color="#536168"/>
<stop offset="1" stop-color="#647075"/>
</linearGradient>
<linearGradient id="paint71_linear_2184_8538" x1="16.1494" y1="51.7495" x2="16.3822" y2="42.2465" gradientUnits="userSpaceOnUse">
<stop stop-color="#243640"/>
<stop offset="0.22" stop-color="#3B4B53"/>
<stop offset="0.5" stop-color="#515F66"/>
<stop offset="0.76" stop-color="#5F6B71"/>
<stop offset="1" stop-color="#647075"/>
</linearGradient>
<linearGradient id="paint72_linear_2184_8538" x1="27.6762" y1="53.842" x2="26.7691" y2="51.9602" gradientUnits="userSpaceOnUse">
<stop offset="0.34" stop-color="#F3FAFE"/>
<stop offset="0.45" stop-color="#EDF5FA"/>
<stop offset="0.57" stop-color="#DFE8EF"/>
<stop offset="0.7" stop-color="#C7D2DE"/>
<stop offset="0.84" stop-color="#A5B3C5"/>
<stop offset="0.99" stop-color="#7A8CA6"/>
<stop offset="1" stop-color="#7789A4"/>
</linearGradient>
<linearGradient id="paint73_linear_2184_8538" x1="22.9774" y1="79.2511" x2="19.1987" y2="71.1951" gradientUnits="userSpaceOnUse">
<stop stop-color="#16262E"/>
<stop offset="0.16" stop-color="#213640"/>
<stop offset="0.39" stop-color="#2F424B"/>
<stop offset="0.83" stop-color="#536168"/>
<stop offset="1" stop-color="#647075"/>
</linearGradient>
<linearGradient id="paint74_linear_2184_8538" x1="19.9876" y1="58.6874" x2="18.9626" y2="64.7538" gradientUnits="userSpaceOnUse">
<stop stop-color="#16262E"/>
<stop offset="0.16" stop-color="#213640"/>
<stop offset="0.39" stop-color="#2F424B"/>
<stop offset="0.83" stop-color="#536168"/>
<stop offset="1" stop-color="#647075"/>
</linearGradient>
<linearGradient id="paint75_linear_2184_8538" x1="16.1326" y1="70.1649" x2="32.1698" y2="65.8484" gradientUnits="userSpaceOnUse">
<stop stop-color="#D6DDE6"/>
<stop offset="0.3" stop-color="#AEBACA"/>
<stop offset="0.69" stop-color="#7789A4"/>
<stop offset="0.79" stop-color="#67788E"/>
<stop offset="0.91" stop-color="#5A6A7B"/>
<stop offset="0.99" stop-color="#566575"/>
</linearGradient>
<linearGradient id="paint76_linear_2184_8538" x1="32.2409" y1="66.1805" x2="14.2847" y2="70.6705" gradientUnits="userSpaceOnUse">
<stop stop-color="#192F50"/>
<stop offset="0.2" stop-color="#12375A"/>
<stop offset="0.67" stop-color="#06486C"/>
<stop offset="1" stop-color="#024E73"/>
</linearGradient>
<linearGradient id="paint77_linear_2184_8538" x1="24.0225" y1="67.563" x2="10.263" y2="70.7853" gradientUnits="userSpaceOnUse">
<stop stop-color="#D26B5E"/>
<stop offset="0.14" stop-color="#DF8067"/>
<stop offset="0.31" stop-color="#EB936E"/>
<stop offset="0.49" stop-color="#F29E73"/>
<stop offset="0.69" stop-color="#F5A275"/>
<stop offset="0.87" stop-color="#EFB486"/>
<stop offset="1" stop-color="#EDBB8D"/>
</linearGradient>
<linearGradient id="paint78_linear_2184_8538" x1="9.63534" y1="64.9667" x2="9.02847" y2="60.8174" gradientUnits="userSpaceOnUse">
<stop offset="0.07" stop-color="#1E171D"/>
<stop offset="0.44" stop-color="#2A262B"/>
<stop offset="0.64" stop-color="#2C282D"/>
<stop offset="0.76" stop-color="#353034"/>
<stop offset="0.86" stop-color="#433E3F"/>
<stop offset="0.95" stop-color="#575150"/>
<stop offset="1" stop-color="#665F5C"/>
</linearGradient>
<linearGradient id="paint79_linear_2184_8538" x1="8.5288" y1="63.7268" x2="11.2665" y2="80.0171" gradientUnits="userSpaceOnUse">
<stop offset="0.1" stop-color="#181117"/>
<stop offset="0.46" stop-color="#2A262B"/>
<stop offset="0.73" stop-color="#2B272C"/>
<stop offset="0.83" stop-color="#322E32"/>
<stop offset="0.9" stop-color="#3E393B"/>
<stop offset="0.95" stop-color="#4F4949"/>
<stop offset="1" stop-color="#665F5C"/>
</linearGradient>
<linearGradient id="paint80_linear_2184_8538" x1="28.2226" y1="56.3839" x2="33.4103" y2="64.8156" gradientUnits="userSpaceOnUse">
<stop stop-color="#15252D"/>
<stop offset="0.52" stop-color="#20313A"/>
<stop offset="0.72" stop-color="#22323B"/>
<stop offset="0.81" stop-color="#293942"/>
<stop offset="0.88" stop-color="#36454D"/>
<stop offset="0.94" stop-color="#48565D"/>
<stop offset="0.99" stop-color="#5F6B71"/>
<stop offset="1" stop-color="#647075"/>
</linearGradient>
<linearGradient id="paint81_linear_2184_8538" x1="26.9217" y1="53.0263" x2="31.5436" y2="60.869" gradientUnits="userSpaceOnUse">
<stop stop-color="#D26B5E"/>
<stop offset="0.11" stop-color="#DF8067"/>
<stop offset="0.24" stop-color="#EB936E"/>
<stop offset="0.38" stop-color="#F29E73"/>
<stop offset="0.53" stop-color="#F5A275"/>
<stop offset="0.8" stop-color="#EFB37F"/>
<stop offset="1" stop-color="#EEBA83"/>
</linearGradient>
<clipPath id="clip0_2184_8538">
<rect y="0.614136" width="140" height="143.307" rx="6.46154" fill="white"/>
</clipPath>
<clipPath id="clip1_2184_8538">
<rect width="136.031" height="122" fill="white" transform="translate(2 13.6929)"/>
</clipPath>
</defs>
</svg>
