<svg width="140" height="144" viewBox="0 0 140 144" fill="none" xmlns="http://www.w3.org/2000/svg">
<g clip-path="url(#clip0_2184_7873)">
<rect width="140" height="143.307" rx="6.46154" fill="white"/>
<path d="M14.1743 14.8336H35.085V12.3064L14.1743 5.38461V14.8336Z" fill="#A69465"/>
<path d="M49.2593 25.3361H0V186.515H49.2593V25.3361Z" fill="#DADBAF"/>
<path d="M43.7866 20.7H5.47263V25.3344H43.7866V20.7Z" fill="#A69465"/>
<path d="M41.578 20.7H7.68136V16.6012L41.578 5.38461V20.7Z" fill="#DADBAF"/>
<path d="M11.7872 46.0875H3.99909V51.4464H11.7872V46.0875Z" fill="#4BA3DB"/>
<path d="M5.1349 50.6658V46.868H10.6548L5.1349 50.6658Z" fill="#9BC4E9"/>
<path d="M11.7872 54.3972H3.99909V59.7561H11.7872V54.3972Z" fill="#4BA3DB"/>
<path d="M5.1349 58.9755V55.1794H10.6548L5.1349 58.9755Z" fill="#9BC4E9"/>
<path d="M11.7872 37.7796H3.99909V43.1385H11.7872V37.7796Z" fill="#4BA3DB"/>
<path d="M5.1349 42.358V38.562H10.6548L5.1349 42.358Z" fill="#9BC4E9"/>
<path d="M11.7872 29.4717H3.99909V34.8307H11.7872V29.4717Z" fill="#4BA3DB"/>
<path d="M5.1349 34.05V30.2523H10.6548L5.1349 34.05Z" fill="#9BC4E9"/>
<path d="M11.7872 62.705H3.99909V68.0639H11.7872V62.705Z" fill="#4BA3DB"/>
<path d="M5.1349 67.2834V63.4856H10.6548L5.1349 67.2834Z" fill="#9BC4E9"/>
<path d="M11.7872 71.0129H3.99909V76.3719H11.7872V71.0129Z" fill="#4BA3DB"/>
<path d="M5.1349 75.5913V71.7952H10.6548L5.1349 75.5913Z" fill="#9BC4E9"/>
<path d="M11.7872 79.3208H3.99909V84.6797H11.7872V79.3208Z" fill="#4BA3DB"/>
<path d="M5.1349 83.9009V80.1014H10.6548L5.1349 83.9009Z" fill="#9BC4E9"/>
<path d="M11.7872 87.6304H3.99909V92.9893H11.7872V87.6304Z" fill="#4BA3DB"/>
<path d="M5.1349 92.207V88.4092H10.6548L5.1349 92.207Z" fill="#9BC4E9"/>
<path d="M11.7872 95.9384H3.99909V101.297H11.7872V95.9384Z" fill="#4BA3DB"/>
<path d="M5.1349 100.515V96.7189H10.6548L5.1349 100.515Z" fill="#9BC4E9"/>
<path d="M11.7872 104.245H3.99909V109.605H11.7872V104.245Z" fill="#4BA3DB"/>
<path d="M5.1349 108.825V105.027H10.6548L5.1349 108.825Z" fill="#9BC4E9"/>
<path d="M11.7872 112.552H3.99909V117.913H11.7872V112.552Z" fill="#4BA3DB"/>
<path d="M5.1349 117.132V113.335H10.6548L5.1349 117.132Z" fill="#9BC4E9"/>
<path d="M11.7872 120.864H3.99909V126.223H11.7872V120.864Z" fill="#4BA3DB"/>
<path d="M5.1349 125.44V121.644H10.6548L5.1349 125.44Z" fill="#9BC4E9"/>
<path d="M11.7872 129.17H3.99909V134.531H11.7872V129.17Z" fill="#4BA3DB"/>
<path d="M5.1349 133.75V129.952H10.6548L5.1349 133.75Z" fill="#9BC4E9"/>
<path d="M11.7872 137.479H3.99909V142.838H11.7872V137.479Z" fill="#4BA3DB"/>
<path d="M5.1349 142.058V138.26H10.6548L5.1349 142.058Z" fill="#9BC4E9"/>
<path d="M45.2602 46.0875H37.4704V51.4464H45.2602V46.0875Z" fill="#4BA3DB"/>
<path d="M38.6062 50.6658V46.868H44.1261L38.6062 50.6658Z" fill="#9BC4E9"/>
<path d="M45.2602 54.3972H37.4704V59.7561H45.2602V54.3972Z" fill="#4BA3DB"/>
<path d="M38.6062 58.9755V55.1794H44.1261L38.6062 58.9755Z" fill="#9BC4E9"/>
<path d="M45.2602 37.7796H37.4704V43.1385H45.2602V37.7796Z" fill="#4BA3DB"/>
<path d="M38.6062 42.358V38.562H44.1261L38.6062 42.358Z" fill="#9BC4E9"/>
<path d="M45.2602 29.4717H37.4704V34.8307H45.2602V29.4717Z" fill="#4BA3DB"/>
<path d="M38.6062 34.05V30.2523H44.1261L38.6062 34.05Z" fill="#9BC4E9"/>
<path d="M45.2602 62.705H37.4704V68.0639H45.2602V62.705Z" fill="#4BA3DB"/>
<path d="M38.6062 67.2834V63.4856H44.1261L38.6062 67.2834Z" fill="#9BC4E9"/>
<path d="M45.2602 71.0129H37.4704V76.3719H45.2602V71.0129Z" fill="#4BA3DB"/>
<path d="M38.6062 75.5913V71.7952H44.1261L38.6062 75.5913Z" fill="#9BC4E9"/>
<path d="M45.2602 79.3208H37.4704V84.6797H45.2602V79.3208Z" fill="#4BA3DB"/>
<path d="M38.6062 83.9009V80.1014H44.1261L38.6062 83.9009Z" fill="#9BC4E9"/>
<path d="M45.2602 87.6304H37.4704V92.9893H45.2602V87.6304Z" fill="#4BA3DB"/>
<path d="M38.6062 92.207V88.4092H44.1261L38.6062 92.207Z" fill="#9BC4E9"/>
<path d="M45.2602 95.9384H37.4704V101.297H45.2602V95.9384Z" fill="#4BA3DB"/>
<path d="M38.6062 100.515V96.7189H44.1261L38.6062 100.515Z" fill="#9BC4E9"/>
<path d="M45.2602 104.245H37.4704V109.605H45.2602V104.245Z" fill="#4BA3DB"/>
<path d="M38.6062 108.825V105.027H44.1261L38.6062 108.825Z" fill="#9BC4E9"/>
<path d="M45.2602 112.552H37.4704V117.913H45.2602V112.552Z" fill="#4BA3DB"/>
<path d="M38.6062 117.132V113.335H44.1261L38.6062 117.132Z" fill="#9BC4E9"/>
<path d="M45.2602 120.864H37.4704V126.223H45.2602V120.864Z" fill="#4BA3DB"/>
<path d="M38.6062 125.44V121.644H44.1261L38.6062 125.44Z" fill="#9BC4E9"/>
<path d="M45.2602 129.17H37.4704V134.531H45.2602V129.17Z" fill="#4BA3DB"/>
<path d="M38.6062 133.75V129.952H44.1261L38.6062 133.75Z" fill="#9BC4E9"/>
<path d="M45.2602 137.479H37.4704V142.838H45.2602V137.479Z" fill="#4BA3DB"/>
<path d="M38.6062 142.058V138.26H44.1261L38.6062 142.058Z" fill="#9BC4E9"/>
<path d="M33.6411 25.3361H15.6182V186.515H33.6411V25.3361Z" fill="#4391C2"/>
<path d="M31.9574 37.2528L17.3018 29.4717V27.0513L31.9574 34.8306V37.2528Z" fill="#212F20"/>
<path d="M31.9574 37.2528L17.3018 29.4717V27.9246L31.9574 35.7022V37.2528Z" fill="#3F361E"/>
<path d="M30.2196 35.8194C30.1041 35.7599 30.0603 35.6164 30.1181 35.5009C30.1811 35.3889 30.3263 35.3434 30.4401 35.4012C30.5556 35.4642 30.5976 35.6077 30.5416 35.7232C30.4978 35.8054 30.4138 35.8474 30.3263 35.8474C30.2948 35.8474 30.2511 35.8352 30.2196 35.8177V35.8194ZM28.5902 34.9601C28.4747 34.8971 28.4327 34.7501 28.4939 34.6381C28.5499 34.5226 28.697 34.4806 28.8107 34.5366C28.9297 34.5996 28.9735 34.7466 28.9105 34.8586C28.8667 34.9409 28.7827 34.9864 28.7005 34.9864C28.6637 34.9864 28.6252 34.9794 28.5884 34.9601H28.5902ZM26.9591 34.0938C26.8453 34.0308 26.7998 33.8873 26.8646 33.7718C26.9206 33.6598 27.0658 33.616 27.1796 33.679C27.2986 33.735 27.3441 33.8785 27.2793 33.994C27.2356 34.0763 27.1533 34.1183 27.0711 34.1183C27.0343 34.1183 26.9941 34.1113 26.9573 34.0921L26.9591 34.0938ZM25.3297 33.2292C25.2142 33.1662 25.1722 33.0227 25.2352 32.9072C25.2982 32.7935 25.4365 32.7497 25.5572 32.8127C25.6692 32.8705 25.7147 33.0157 25.6517 33.1312C25.6062 33.2117 25.524 33.2555 25.4435 33.2555C25.4067 33.2555 25.3647 33.2485 25.3297 33.2292ZM23.7073 32.3647C23.5866 32.3017 23.5428 32.1617 23.6076 32.0426C23.6706 31.9271 23.8141 31.8851 23.9278 31.9481C24.0416 32.0041 24.0853 32.1512 24.0241 32.2702C23.9856 32.3454 23.9033 32.3892 23.8141 32.3892C23.7773 32.3892 23.7388 32.3822 23.7073 32.3647ZM22.0779 31.4984C21.9624 31.4354 21.9134 31.2971 21.9764 31.1763C22.0394 31.0643 22.1847 31.0188 22.2985 31.0836C22.414 31.1466 22.4577 31.2848 22.393 31.4038C22.3562 31.4826 22.274 31.5316 22.1847 31.5316C22.1479 31.5316 22.1094 31.5194 22.0779 31.4984ZM20.4468 30.6338C20.3348 30.5778 20.2911 30.4325 20.3471 30.3188C20.4101 30.198 20.5553 30.1543 20.6691 30.2173C20.7811 30.2803 20.8266 30.4273 20.7688 30.5393C20.7251 30.6145 20.6446 30.667 20.5553 30.667C20.5221 30.667 20.4783 30.6548 20.4468 30.6355V30.6338ZM18.8174 29.7692C18.7037 29.7097 18.6599 29.5662 18.7229 29.4507C18.7789 29.3317 18.926 29.2862 19.038 29.3509C19.1587 29.4139 19.2042 29.5575 19.1412 29.673C19.0957 29.7552 19.0152 29.7972 18.933 29.7972C18.8962 29.7972 18.8577 29.785 18.8192 29.7675L18.8174 29.7692Z" fill="#212F20"/>
<path d="M17.3018 45.1809L31.9574 37.4016V34.9811L17.3018 42.7605V45.1809Z" fill="#212F20"/>
<path d="M17.3018 45.1809L31.9574 37.4016V35.8527L17.3018 43.6338V45.1809Z" fill="#3F361E"/>
<path d="M18.9347 43.7809C18.8472 43.7809 18.7632 43.7371 18.7194 43.6566C18.6617 43.5411 18.7054 43.3976 18.8192 43.3346C18.933 43.2751 19.0782 43.3223 19.1412 43.4361C19.199 43.5481 19.1535 43.6933 19.0397 43.7511C19.01 43.7686 18.9645 43.7809 18.933 43.7809H18.9347ZM20.5571 42.9163C20.4748 42.9163 20.3926 42.8708 20.3488 42.7885C20.2858 42.6748 20.3296 42.5295 20.4486 42.4665C20.5623 42.4105 20.7076 42.4542 20.7654 42.568C20.8284 42.68 20.7846 42.827 20.6691 42.89C20.6323 42.9093 20.5938 42.9163 20.5571 42.9163ZM22.1847 42.05C22.1042 42.05 22.022 42.0062 21.9764 41.9257C21.9134 41.8102 21.9572 41.6667 22.078 41.6107C22.1917 41.5459 22.337 41.5914 22.393 41.7069C22.4577 41.8189 22.414 41.9642 22.2985 42.0255C22.2617 42.0447 22.2215 42.0517 22.1847 42.0517V42.05ZM23.8141 41.1854C23.7318 41.1854 23.6496 41.1399 23.6058 41.0576C23.5428 40.9456 23.5883 40.7986 23.7003 40.7426C23.8211 40.6796 23.9593 40.7251 24.0224 40.8371C24.0854 40.9526 24.0434 41.0961 23.9278 41.1591C23.8911 41.1784 23.8526 41.1854 23.8141 41.1854ZM25.4435 40.3191C25.3542 40.3191 25.272 40.2753 25.2352 40.2001C25.1722 40.0793 25.2159 39.9341 25.3297 39.878C25.4435 39.8133 25.587 39.8588 25.6517 39.9708C25.7147 40.0916 25.671 40.2298 25.5502 40.2946C25.5187 40.3121 25.482 40.3173 25.4435 40.3173V40.3191ZM27.0728 39.4615C26.9836 39.4615 26.9013 39.4108 26.8646 39.3338C26.8016 39.2147 26.8453 39.0765 26.9591 39.0117C27.0728 38.9487 27.2181 38.9942 27.2811 39.1062C27.3441 39.227 27.2934 39.3653 27.1796 39.4283C27.1481 39.4475 27.1113 39.4615 27.0728 39.4615ZM28.7022 38.5952C28.6147 38.5952 28.5307 38.5462 28.4887 38.4709C28.4309 38.3554 28.4764 38.2119 28.5885 38.1489C28.7022 38.0859 28.8475 38.1297 28.9122 38.2504C28.9665 38.3624 28.9227 38.5077 28.8107 38.5654C28.7792 38.5847 28.7355 38.5952 28.7022 38.5952ZM30.3246 37.7306C30.2441 37.7306 30.1618 37.6869 30.1163 37.6064C30.0551 37.4909 30.0971 37.3474 30.2196 37.2844C30.3316 37.2196 30.4786 37.2651 30.5346 37.3841C30.5976 37.4996 30.5539 37.6431 30.4401 37.6991C30.4033 37.7184 30.3648 37.7306 30.3263 37.7306H30.3246Z" fill="#212F20"/>
<path d="M31.9574 52.9358L17.3018 45.1547V42.7343L31.9574 50.5154V52.9358Z" fill="#212F20"/>
<path d="M31.9574 52.9358L17.3018 45.1547V43.6075L31.9574 51.3869V52.9358Z" fill="#3F361E"/>
<path d="M30.2196 51.5024C30.1041 51.4446 30.0603 51.2994 30.1181 51.1856C30.1811 51.0736 30.3263 51.0299 30.4401 51.0859C30.5556 51.1489 30.5976 51.2941 30.5416 51.4079C30.4978 51.4901 30.4138 51.5339 30.3263 51.5339C30.2948 51.5339 30.2511 51.5216 30.2196 51.5024ZM28.5902 50.6431C28.4747 50.5801 28.4327 50.4348 28.4939 50.3211C28.5499 50.2055 28.697 50.1635 28.8107 50.2195C28.9297 50.2825 28.9735 50.4296 28.9105 50.5416C28.8667 50.6256 28.7827 50.6693 28.7005 50.6693C28.6637 50.6693 28.6252 50.6623 28.5884 50.6448L28.5902 50.6431ZM26.9591 49.7785C26.8453 49.7155 26.7998 49.5685 26.8646 49.4565C26.9206 49.3427 27.0658 49.299 27.1796 49.362C27.2986 49.418 27.3441 49.5632 27.2793 49.677C27.2356 49.7593 27.1533 49.8013 27.0711 49.8013C27.0343 49.8013 26.9941 49.7943 26.9573 49.7768L26.9591 49.7785ZM25.3297 48.9122C25.2142 48.8492 25.1722 48.7039 25.2352 48.5902C25.2982 48.4782 25.4365 48.4327 25.5572 48.4957C25.6692 48.5534 25.7147 48.6987 25.6517 48.8107C25.6062 48.8947 25.524 48.9384 25.4435 48.9384C25.4067 48.9384 25.3647 48.9314 25.3297 48.9122ZM23.7073 48.0476C23.5866 47.9846 23.5428 47.8446 23.6076 47.7256C23.6706 47.6101 23.8141 47.5681 23.9278 47.6293C24.0416 47.6853 24.0853 47.8324 24.0241 47.9514C23.9856 48.0266 23.9033 48.0704 23.8141 48.0704C23.7773 48.0704 23.7388 48.0669 23.7073 48.0459V48.0476ZM22.0779 47.1813C21.9624 47.1183 21.9134 46.98 21.9764 46.8593C22.0394 46.7473 22.1847 46.7018 22.2985 46.7665C22.414 46.8295 22.4577 46.9678 22.393 47.0885C22.3562 47.1638 22.274 47.2128 22.1847 47.2128C22.1479 47.2128 22.1094 47.2006 22.0779 47.1813ZM20.4468 46.3167C20.3348 46.2607 20.2911 46.1155 20.3471 46.0017C20.4101 45.881 20.5553 45.8372 20.6691 45.9002C20.7811 45.9632 20.8266 46.1102 20.7688 46.2222C20.7251 46.2975 20.6446 46.35 20.5553 46.35C20.5221 46.35 20.4783 46.3377 20.4468 46.3185V46.3167ZM18.8174 45.4522C18.7037 45.3944 18.6599 45.2492 18.7229 45.1372C18.7789 45.0164 18.926 44.9709 19.038 45.0356C19.1587 45.0986 19.2042 45.2439 19.1412 45.3577C19.0957 45.4399 19.0152 45.4837 18.933 45.4837C18.8962 45.4837 18.8577 45.4732 18.8192 45.4522H18.8174Z" fill="#212F20"/>
<path d="M17.3018 60.8656L31.9574 53.0845V50.6641L17.3018 58.4434V60.8656Z" fill="#212F20"/>
<path d="M17.3018 60.8656L31.9574 53.0845V51.5374L17.3018 59.3168V60.8656Z" fill="#3F361E"/>
<path d="M18.9347 59.4638C18.8472 59.4638 18.7632 59.42 18.7194 59.336C18.6617 59.224 18.7054 59.0788 18.8192 59.014C18.933 58.958 19.0782 59.0035 19.1412 59.1155C19.199 59.2293 19.1535 59.3745 19.0397 59.4305C19.01 59.4498 18.9645 59.4638 18.933 59.4638H18.9347ZM20.5571 58.5992C20.4748 58.5992 20.3926 58.5537 20.3488 58.4715C20.2858 58.3594 20.3296 58.2124 20.4486 58.1494C20.5623 58.0934 20.7076 58.1372 20.7654 58.2509C20.8284 58.3647 20.7846 58.51 20.6691 58.573C20.6323 58.5922 20.5938 58.5992 20.5571 58.5992ZM22.1847 57.7329C22.1042 57.7329 22.022 57.6891 21.9764 57.6086C21.9134 57.4931 21.9572 57.3496 22.078 57.2936C22.1917 57.2289 22.337 57.2744 22.393 57.3864C22.4577 57.5019 22.414 57.6454 22.2985 57.7084C22.2617 57.7294 22.2215 57.7347 22.1847 57.7347V57.7329ZM23.8141 56.8683C23.7318 56.8683 23.6496 56.8228 23.6058 56.7406C23.5428 56.6286 23.5883 56.4816 23.7003 56.4256C23.8211 56.3626 23.9593 56.4081 24.0224 56.5201C24.0854 56.6338 24.0434 56.7791 23.9278 56.8421C23.8911 56.8613 23.8526 56.8683 23.8141 56.8683ZM25.4435 56.002C25.3542 56.002 25.272 55.9583 25.2352 55.883C25.1722 55.7623 25.2159 55.617 25.3297 55.561C25.4435 55.4962 25.587 55.5417 25.6517 55.6537C25.7147 55.7745 25.671 55.9128 25.5502 55.9775C25.5187 55.9968 25.482 56.002 25.4435 56.002ZM27.0728 55.1445C26.9836 55.1445 26.9013 55.0955 26.8646 55.0167C26.8016 54.8977 26.8453 54.7594 26.9591 54.6947C27.0728 54.6317 27.2181 54.6772 27.2811 54.7892C27.3441 54.9099 27.2934 55.0482 27.1796 55.1112C27.1481 55.1305 27.1113 55.1427 27.0728 55.1427V55.1445ZM28.7022 54.2781C28.6147 54.2781 28.5307 54.2274 28.4887 54.1539C28.4309 54.0419 28.4764 53.8949 28.5885 53.8319C28.7022 53.7689 28.8475 53.8126 28.9122 53.9334C28.9665 54.0489 28.9227 54.1906 28.8107 54.2484C28.7792 54.2676 28.7355 54.2781 28.7022 54.2781ZM30.3246 53.4136C30.2441 53.4136 30.1618 53.3698 30.1163 53.2858C30.0551 53.1738 30.0971 53.0285 30.2196 52.9638C30.3316 52.9008 30.4786 52.9463 30.5346 53.0653C30.5976 53.1791 30.5539 53.3243 30.4401 53.3803C30.4033 53.3996 30.3648 53.4136 30.3263 53.4136H30.3246Z" fill="#212F20"/>
<path d="M31.9574 68.6187L17.3018 60.8376V58.4172L31.9574 66.1965V68.6187Z" fill="#212F20"/>
<path d="M31.9574 68.6187L17.3018 60.8376V59.2905L31.9574 67.0716V68.6187Z" fill="#3F361E"/>
<path d="M30.2196 67.1871C30.1041 67.1311 30.0603 66.9841 30.1181 66.8721C30.1811 66.7566 30.3263 66.7146 30.4401 66.7706C30.5556 66.8336 30.5976 66.9788 30.5416 67.0926C30.4978 67.1748 30.4138 67.2169 30.3263 67.2169C30.2948 67.2169 30.2511 67.2046 30.2196 67.1871ZM28.5902 66.3278C28.4747 66.2648 28.4327 66.1213 28.4939 66.0058C28.5499 65.892 28.697 65.8482 28.8107 65.9043C28.9297 65.969 28.9735 66.1143 28.9105 66.228C28.8667 66.3085 28.7827 66.3523 28.7005 66.3523C28.6637 66.3523 28.6252 66.3453 28.5884 66.326L28.5902 66.3278ZM26.9591 65.4632C26.8453 65.4002 26.7998 65.2532 26.8646 65.1412C26.9206 65.0257 27.0658 64.9837 27.1796 65.0467C27.2986 65.1027 27.3441 65.2497 27.2793 65.3617C27.2356 65.444 27.1533 65.4877 27.0711 65.4877C27.0343 65.4877 26.9941 65.4825 26.9573 65.4632H26.9591ZM25.3297 64.5987C25.2142 64.5339 25.1722 64.3886 25.2352 64.2731C25.2982 64.1611 25.4365 64.1156 25.5572 64.1804C25.6692 64.2364 25.7147 64.3816 25.6517 64.4954C25.6062 64.5759 25.524 64.6197 25.4435 64.6197C25.4067 64.6197 25.3647 64.6127 25.3297 64.5969V64.5987ZM23.7073 63.7323C23.5866 63.6693 23.5428 63.5311 23.6076 63.4103C23.6706 63.2966 23.8141 63.2528 23.9278 63.3158C24.0416 63.3718 24.0853 63.5171 24.0241 63.6378C23.9856 63.7131 23.9033 63.7586 23.8141 63.7586C23.7773 63.7586 23.7388 63.7516 23.7073 63.7323ZM22.0779 62.8678C21.9624 62.803 21.9134 62.6648 21.9764 62.5457C22.0394 62.4302 22.1847 62.3865 22.2985 62.4512C22.414 62.5142 22.4577 62.6525 22.393 62.7733C22.3562 62.8485 22.274 62.8975 22.1847 62.8975C22.1479 62.8975 22.1094 62.8853 22.0779 62.8678ZM20.4468 62.0015C20.3348 61.9454 20.2911 61.7984 20.3471 61.6864C20.4101 61.5657 20.5553 61.5219 20.6691 61.5849C20.7811 61.6497 20.8266 61.7949 20.7688 61.9069C20.7251 61.9822 20.6446 62.0347 20.5553 62.0347C20.5221 62.0347 20.4783 62.0225 20.4468 62.0015ZM18.8174 61.1369C18.7037 61.0809 18.6599 60.9339 18.7229 60.8219C18.7789 60.7011 18.926 60.6573 19.038 60.7204C19.1587 60.7834 19.2042 60.9286 19.1412 61.0424C19.0957 61.1246 19.0152 61.1666 18.933 61.1666C18.8962 61.1666 18.8577 61.1544 18.8192 61.1369H18.8174Z" fill="#212F20"/>
<path d="M17.3018 76.5468L31.9574 68.7675V66.3488L17.3018 74.1299V76.5468Z" fill="#212F20"/>
<path d="M17.3018 76.5469L31.9574 68.7675V67.2204L17.3018 74.9997V76.5469Z" fill="#3F361E"/>
<path d="M18.9347 75.1467C18.8472 75.1467 18.7632 75.103 18.7194 75.0224C18.6617 74.9087 18.7054 74.7634 18.8192 74.7004C18.933 74.6444 19.0782 74.6882 19.1412 74.8002C19.199 74.9157 19.1535 75.0592 19.0397 75.1187C19.01 75.1362 18.9645 75.1485 18.933 75.1485L18.9347 75.1467ZM20.5571 74.2821C20.4748 74.2821 20.3926 74.2366 20.3488 74.1544C20.2858 74.0424 20.3296 73.8954 20.4486 73.8324C20.5623 73.7764 20.7076 73.8201 20.7654 73.9339C20.8284 74.0459 20.7846 74.1929 20.6691 74.2559C20.6323 74.2751 20.5938 74.2821 20.5571 74.2821ZM22.1847 73.4158C22.1042 73.4158 22.022 73.3721 21.9764 73.2898C21.9134 73.1761 21.9572 73.0308 22.078 72.9748C22.1917 72.9118 22.337 72.9555 22.393 73.0693C22.4577 73.1813 22.414 73.3283 22.2985 73.3913C22.2617 73.4088 22.2215 73.4158 22.1847 73.4158ZM23.8141 72.5513C23.7318 72.5513 23.6496 72.5075 23.6058 72.4235C23.5428 72.3115 23.5883 72.1662 23.7003 72.1085C23.8211 72.0455 23.9593 72.0892 24.0224 72.203C24.0854 72.3185 24.0434 72.462 23.9278 72.525C23.8911 72.5443 23.8526 72.5513 23.8141 72.5513ZM25.4435 71.6849C25.3542 71.6849 25.272 71.6412 25.2352 71.5659C25.1722 71.4469 25.2159 71.2999 25.3297 71.2439C25.4435 71.1809 25.587 71.2247 25.6517 71.3384C25.7147 71.4574 25.671 71.5974 25.5502 71.6604C25.5187 71.6779 25.482 71.6849 25.4435 71.6849ZM27.0728 70.8274C26.9836 70.8274 26.9013 70.7766 26.8646 70.7031C26.8016 70.5824 26.8453 70.4441 26.9591 70.3811C27.0728 70.3163 27.2181 70.3601 27.2811 70.4738C27.3441 70.5946 27.2934 70.7329 27.1796 70.7959C27.1481 70.8151 27.1113 70.8274 27.0728 70.8274ZM28.7022 69.9628C28.6147 69.9628 28.5307 69.9103 28.4887 69.835C28.4309 69.7213 28.4764 69.576 28.5885 69.513C28.7022 69.45 28.8475 69.4938 28.9122 69.6145C28.9665 69.7265 28.9227 69.8735 28.8107 69.9296C28.7792 69.9488 28.7355 69.9628 28.7022 69.9628ZM30.3246 69.0965C30.2441 69.0965 30.1618 69.0527 30.1163 68.9722C30.0551 68.8567 30.0971 68.7132 30.2196 68.6502C30.3316 68.5854 30.4786 68.631 30.5346 68.7517C30.5976 68.8637 30.5539 69.009 30.4401 69.0667C30.4033 69.0842 30.3648 69.0965 30.3263 69.0965H30.3246Z" fill="#212F20"/>
<path d="M31.9574 84.3017L17.3018 76.5205V74.1019L31.9574 81.8795V84.3017Z" fill="#212F20"/>
<path d="M31.9574 84.3017L17.3018 76.5206V74.9752L31.9574 82.7528V84.3017Z" fill="#3F361E"/>
<path d="M30.2196 82.8701C30.1041 82.8123 30.0603 82.667 30.1181 82.555C30.1811 82.4413 30.3263 82.3975 30.4401 82.4535C30.5556 82.5165 30.5976 82.6636 30.5416 82.7756C30.4978 82.8578 30.4138 82.8998 30.3263 82.8998C30.2948 82.8998 30.2511 82.8893 30.2196 82.8701ZM28.5902 82.0107C28.4747 81.9477 28.4327 81.8025 28.4939 81.6887C28.5499 81.5767 28.697 81.5312 28.8107 81.5872C28.9297 81.652 28.9735 81.7972 28.9105 81.9092C28.8667 81.9932 28.7827 82.037 28.7005 82.037C28.6637 82.037 28.6252 82.03 28.5884 82.0107H28.5902ZM26.9591 81.1462C26.8453 81.0832 26.7998 80.9379 26.8646 80.8242C26.9206 80.7086 27.0658 80.6666 27.1796 80.7297C27.2986 80.7857 27.3441 80.9309 27.2793 81.0447C27.2356 81.1269 27.1533 81.1689 27.0711 81.1689C27.0343 81.1689 26.9941 81.1654 26.9573 81.1462H26.9591ZM25.3297 80.2799C25.2142 80.2169 25.1722 80.0734 25.2352 79.9578C25.2982 79.8458 25.4365 79.8003 25.5572 79.8633C25.6692 79.9211 25.7147 80.0663 25.6517 80.1784C25.6062 80.2624 25.524 80.3061 25.4435 80.3061C25.4067 80.3061 25.3647 80.2991 25.3297 80.2799ZM23.7073 79.4153C23.5866 79.3523 23.5428 79.2123 23.6076 79.0933C23.6706 78.9778 23.8141 78.9358 23.9278 78.9988C24.0416 79.0565 24.0853 79.2018 24.0241 79.3208C23.9856 79.396 23.9033 79.4416 23.8141 79.4416C23.7773 79.4416 23.7388 79.4346 23.7073 79.4153ZM22.0779 78.549C21.9624 78.486 21.9134 78.3477 21.9764 78.227C22.0394 78.1149 22.1847 78.0694 22.2985 78.1342C22.414 78.1972 22.4577 78.3337 22.393 78.4562C22.3562 78.5315 22.274 78.5822 22.1847 78.5822C22.1479 78.5822 22.1094 78.5717 22.0779 78.549ZM20.4468 77.6844C20.3348 77.6284 20.2911 77.4831 20.3471 77.3694C20.4101 77.2486 20.5553 77.2049 20.6691 77.2679C20.7811 77.3309 20.8266 77.4779 20.7688 77.5899C20.7251 77.6652 20.6446 77.7177 20.5553 77.7177C20.5221 77.7177 20.4783 77.7054 20.4468 77.6862V77.6844ZM18.8174 76.8199C18.7037 76.7603 18.6599 76.6168 18.7229 76.5048C18.7789 76.3841 18.926 76.3386 19.038 76.4033C19.1587 76.4663 19.2042 76.6098 19.1412 76.7253C19.0957 76.8076 19.0152 76.8496 18.933 76.8496C18.8962 76.8496 18.8577 76.8391 18.8192 76.8199H18.8174Z" fill="#212F20"/>
<path d="M17.3018 92.2315L31.9574 84.4522V82.0317L17.3018 89.8093V92.2315Z" fill="#212F20"/>
<path d="M17.3018 92.2315L31.9574 84.4522V82.9033L17.3018 90.6827V92.2315Z" fill="#3F361E"/>
<path d="M18.9347 90.8297C18.8472 90.8297 18.7632 90.7859 18.7194 90.7054C18.6617 90.5899 18.7054 90.4464 18.8192 90.3834C18.933 90.3239 19.0782 90.3711 19.1412 90.4831C19.199 90.5987 19.1535 90.7422 19.0397 90.8017C19.01 90.8192 18.9645 90.8314 18.933 90.8314L18.9347 90.8297ZM20.5571 89.9651C20.4748 89.9651 20.3926 89.9196 20.3488 89.8373C20.2858 89.7253 20.3296 89.5801 20.4486 89.5171C20.5623 89.4593 20.7076 89.5013 20.7654 89.6168C20.8284 89.7306 20.7846 89.8759 20.6691 89.9389C20.6323 89.9581 20.5938 89.9651 20.5571 89.9651ZM22.1847 89.0988C22.1042 89.0988 22.022 89.055 21.9764 88.9745C21.9134 88.859 21.9572 88.7155 22.078 88.6595C22.1917 88.5965 22.337 88.6403 22.393 88.7523C22.4577 88.8678 22.414 89.0113 22.2985 89.0743C22.2617 89.0953 22.2215 89.1005 22.1847 89.1005V89.0988ZM23.8141 88.2342C23.7318 88.2342 23.6496 88.1905 23.6058 88.1065C23.5428 87.9945 23.5883 87.8492 23.7003 87.7914C23.8211 87.7284 23.9593 87.7739 24.0224 87.886C24.0854 88.0015 24.0434 88.145 23.9278 88.208C23.8911 88.2272 23.8526 88.2342 23.8141 88.2342ZM25.4435 87.3679C25.3542 87.3679 25.272 87.3242 25.2352 87.2489C25.1722 87.1299 25.2159 86.9829 25.3297 86.9269C25.4435 86.8639 25.587 86.9076 25.6517 87.0214C25.7147 87.1421 25.671 87.2804 25.5502 87.3434C25.5187 87.3627 25.482 87.3679 25.4435 87.3679ZM27.0728 86.5103C26.9836 86.5103 26.9013 86.4596 26.8646 86.3826C26.8016 86.2636 26.8453 86.1236 26.9591 86.0606C27.0728 85.9976 27.2181 86.0431 27.2811 86.1551C27.3441 86.2758 27.2934 86.4141 27.1796 86.4771C27.1481 86.4963 27.1113 86.5103 27.0728 86.5103ZM28.7022 85.6458C28.6147 85.6458 28.5307 85.595 28.4887 85.518C28.4309 85.406 28.4764 85.259 28.5885 85.196C28.7022 85.133 28.8475 85.1767 28.9122 85.2975C28.9665 85.4113 28.9227 85.5565 28.8107 85.6125C28.7792 85.6318 28.7355 85.644 28.7022 85.644V85.6458ZM30.3246 84.7795C30.2441 84.7795 30.1618 84.7357 30.1163 84.6552C30.0551 84.5397 30.0971 84.3962 30.2196 84.3332C30.3316 84.2684 30.4786 84.3139 30.5346 84.4329C30.5976 84.5484 30.5539 84.692 30.4401 84.7515C30.4033 84.769 30.3648 84.7812 30.3263 84.7812L30.3246 84.7795Z" fill="#212F20"/>
<path d="M31.9574 99.9864L17.3018 92.2035V89.7849L31.9574 97.566V99.9864Z" fill="#212F20"/>
<path d="M31.9574 99.9864L17.3018 92.2036V90.6564L31.9574 98.4393V99.9864Z" fill="#3F361E"/>
<path d="M30.2196 98.553C30.1041 98.497 30.0603 98.35 30.1181 98.238C30.1811 98.1242 30.3263 98.0805 30.4401 98.1365C30.5556 98.1995 30.5976 98.343 30.5416 98.4585C30.4978 98.5408 30.4138 98.5845 30.3263 98.5845C30.2948 98.5845 30.2511 98.5723 30.2196 98.5548V98.553ZM28.5902 97.6937C28.4747 97.6307 28.4327 97.4854 28.4939 97.3717C28.5499 97.2562 28.697 97.2142 28.8107 97.2702C28.9297 97.3349 28.9735 97.4802 28.9105 97.5939C28.8667 97.6744 28.7827 97.7182 28.7005 97.7182C28.6637 97.7182 28.6252 97.7112 28.5884 97.6937H28.5902ZM26.9591 96.8291C26.8453 96.7661 26.7998 96.6191 26.8646 96.5071C26.9206 96.3933 27.0658 96.3496 27.1796 96.4126C27.2986 96.4686 27.3441 96.6139 27.2793 96.7276C27.2356 96.8099 27.1533 96.8554 27.0711 96.8554C27.0343 96.8554 26.9941 96.8484 26.9573 96.8291H26.9591ZM25.3297 95.9646C25.2142 95.8998 25.1722 95.7545 25.2352 95.6408C25.2982 95.5288 25.4365 95.4833 25.5572 95.548C25.6692 95.604 25.7147 95.7493 25.6517 95.863C25.6062 95.9436 25.524 95.9891 25.4435 95.9891C25.4067 95.9891 25.3647 95.9821 25.3297 95.9646ZM23.7073 95.0982C23.5866 95.0352 23.5428 94.897 23.6076 94.7762C23.6706 94.6607 23.8141 94.6187 23.9278 94.68C24.0416 94.7395 24.0853 94.883 24.0241 95.002C23.9856 95.0772 23.9033 95.1227 23.8141 95.1227C23.7773 95.1227 23.7388 95.1157 23.7073 95.0982ZM22.0779 94.2337C21.9624 94.1689 21.9134 94.0307 21.9764 93.9116C22.0394 93.7979 22.1847 93.7541 22.2985 93.8171C22.414 93.8801 22.4577 94.0184 22.393 94.1392C22.3562 94.2144 22.274 94.2634 22.1847 94.2634C22.1479 94.2634 22.1094 94.2529 22.0779 94.2337ZM20.4468 93.3674C20.3348 93.3114 20.2911 93.1661 20.3471 93.0523C20.4101 92.9333 20.5553 92.8878 20.6691 92.9508C20.7811 93.0156 20.8266 93.1608 20.7688 93.2728C20.7251 93.3481 20.6446 93.4006 20.5553 93.4006C20.5221 93.4006 20.4783 93.3884 20.4468 93.3691V93.3674ZM18.8174 92.5028C18.7037 92.4468 18.6599 92.2998 18.7229 92.1878C18.7789 92.067 18.926 92.0233 19.038 92.0863C19.1587 92.1493 19.2042 92.2945 19.1412 92.4083C19.0957 92.4905 19.0152 92.536 18.933 92.536C18.8962 92.536 18.8577 92.5203 18.8192 92.5028H18.8174Z" fill="#212F20"/>
<path d="M17.3018 107.915L31.9574 100.135V97.7147L17.3018 105.494V107.915Z" fill="#212F20"/>
<path d="M17.3018 107.914L31.9574 100.135V98.588L17.3018 106.367V107.914Z" fill="#3F361E"/>
<path d="M18.9347 106.514C18.8472 106.514 18.7632 106.471 18.7194 106.388C18.6617 106.275 18.7054 106.129 18.8192 106.066C18.933 106.009 19.0782 106.054 19.1412 106.168C19.199 106.28 19.1535 106.425 19.0397 106.483C19.01 106.5 18.9645 106.514 18.933 106.514H18.9347ZM20.5571 105.65C20.4748 105.65 20.3926 105.604 20.3488 105.522C20.2858 105.407 20.3296 105.263 20.4486 105.2C20.5623 105.144 20.7076 105.188 20.7654 105.302C20.8284 105.414 20.7846 105.561 20.6691 105.624C20.6323 105.643 20.5938 105.648 20.5571 105.648V105.65ZM22.1847 104.784C22.1042 104.784 22.022 104.74 21.9764 104.659C21.9134 104.544 21.9572 104.4 22.078 104.341C22.1917 104.278 22.337 104.323 22.393 104.437C22.4577 104.549 22.414 104.694 22.2985 104.759C22.2617 104.777 22.2215 104.784 22.1847 104.784ZM23.8141 103.919C23.7318 103.919 23.6496 103.873 23.6058 103.791C23.5428 103.677 23.5883 103.532 23.7003 103.476C23.8211 103.413 23.9593 103.457 24.0224 103.571C24.0854 103.683 24.0434 103.83 23.9278 103.893C23.8911 103.912 23.8526 103.919 23.8141 103.919ZM25.4435 103.053C25.3542 103.053 25.272 103.009 25.2352 102.934C25.1722 102.813 25.2159 102.668 25.3297 102.612C25.4435 102.549 25.587 102.592 25.6517 102.706C25.7147 102.825 25.671 102.963 25.5502 103.026C25.5187 103.046 25.482 103.053 25.4435 103.053ZM27.0728 102.195C26.9836 102.195 26.9013 102.144 26.8646 102.071C26.8016 101.95 26.8453 101.812 26.9591 101.747C27.0728 101.684 27.2181 101.728 27.2811 101.842C27.3441 101.962 27.2934 102.101 27.1796 102.164C27.1481 102.183 27.1113 102.195 27.0728 102.195ZM28.7022 101.331C28.6147 101.331 28.5307 101.278 28.4887 101.203C28.4309 101.087 28.4764 100.944 28.5885 100.881C28.7022 100.818 28.8475 100.861 28.9122 100.982C28.9665 101.094 28.9227 101.24 28.8107 101.297C28.7792 101.317 28.7355 101.329 28.7022 101.329V101.331ZM30.3246 100.464C30.2441 100.464 30.1618 100.42 30.1163 100.338C30.0551 100.224 30.0971 100.079 30.2196 100.016C30.3316 99.9514 30.4786 99.9969 30.5346 100.116C30.5976 100.23 30.5539 100.375 30.4401 100.433C30.4033 100.45 30.3648 100.464 30.3263 100.464H30.3246Z" fill="#212F20"/>
<path d="M31.9574 115.669L17.3018 107.888V105.468L31.9574 113.249V115.669Z" fill="#212F20"/>
<path d="M31.9574 115.669L17.3018 107.888V106.341L31.9574 114.12V115.669Z" fill="#3F361E"/>
<path d="M30.2196 114.236C30.1041 114.178 30.0603 114.033 30.1181 113.919C30.1811 113.807 30.3263 113.763 30.4401 113.819C30.5556 113.882 30.5976 114.028 30.5416 114.141C30.4978 114.224 30.4138 114.266 30.3263 114.266C30.2948 114.266 30.2511 114.253 30.2196 114.236ZM28.5902 113.377C28.4747 113.314 28.4327 113.17 28.4939 113.055C28.5499 112.943 28.697 112.897 28.8107 112.953C28.9297 113.016 28.9735 113.163 28.9105 113.275C28.8667 113.359 28.7827 113.403 28.7005 113.403C28.6637 113.403 28.6252 113.396 28.5884 113.377H28.5902ZM26.9591 112.512C26.8453 112.449 26.7998 112.302 26.8646 112.19C26.9206 112.075 27.0658 112.033 27.1796 112.096C27.2986 112.152 27.3441 112.297 27.2793 112.411C27.2356 112.493 27.1533 112.537 27.0711 112.537C27.0343 112.537 26.9941 112.53 26.9573 112.512H26.9591ZM25.3297 111.646C25.2142 111.583 25.1722 111.439 25.2352 111.324C25.2982 111.212 25.4365 111.166 25.5572 111.227C25.6692 111.287 25.7147 111.431 25.6517 111.543C25.6062 111.627 25.524 111.67 25.4435 111.67C25.4067 111.67 25.3647 111.663 25.3297 111.644V111.646ZM23.7073 110.781C23.5866 110.718 23.5428 110.578 23.6076 110.459C23.6706 110.345 23.8141 110.302 23.9278 110.365C24.0416 110.421 24.0853 110.568 24.0241 110.687C23.9856 110.762 23.9033 110.806 23.8141 110.806C23.7773 110.806 23.7388 110.802 23.7073 110.781ZM22.0779 109.915C21.9624 109.852 21.9134 109.714 21.9764 109.593C22.0394 109.481 22.1847 109.435 22.2985 109.5C22.414 109.563 22.4577 109.701 22.393 109.822C22.3562 109.897 22.274 109.946 22.1847 109.946C22.1479 109.946 22.1094 109.934 22.0779 109.915ZM20.4468 109.05C20.3348 108.994 20.2911 108.849 20.3471 108.735C20.4101 108.615 20.5553 108.571 20.6691 108.634C20.7811 108.697 20.8266 108.844 20.7688 108.956C20.7251 109.031 20.6446 109.084 20.5553 109.084C20.5221 109.084 20.4783 109.071 20.4468 109.05ZM18.8174 108.186C18.7037 108.128 18.6599 107.983 18.7229 107.871C18.7789 107.75 18.926 107.704 19.038 107.769C19.1587 107.832 19.2042 107.977 19.1412 108.091C19.0957 108.173 19.0152 108.216 18.933 108.216C18.8962 108.216 18.8577 108.205 18.8192 108.186H18.8174Z" fill="#212F20"/>
<path d="M17.3018 123.599L31.9574 115.818V113.398L17.3018 121.177V123.599Z" fill="#212F20"/>
<path d="M17.3018 123.599L31.9574 115.818V114.271L17.3018 122.052V123.599Z" fill="#3F361E"/>
<path d="M18.9347 122.197C18.8472 122.197 18.7632 122.154 18.7194 122.073C18.6617 121.959 18.7054 121.814 18.8192 121.751C18.933 121.695 19.0782 121.739 19.1412 121.853C19.199 121.965 19.1535 122.112 19.0397 122.168C19.01 122.185 18.9645 122.197 18.933 122.197H18.9347ZM20.5571 121.333C20.4748 121.333 20.3926 121.287 20.3488 121.205C20.2858 121.093 20.3296 120.948 20.4486 120.883C20.5623 120.827 20.7076 120.873 20.7654 120.985C20.8284 121.1 20.7846 121.244 20.6691 121.307C20.6323 121.326 20.5938 121.333 20.5571 121.333ZM22.1847 120.468C22.1042 120.468 22.022 120.423 21.9764 120.34C21.9134 120.227 21.9572 120.081 22.078 120.025C22.1917 119.961 22.337 120.006 22.393 120.118C22.4577 120.232 22.414 120.379 22.2985 120.442C22.2617 120.461 22.2215 120.468 22.1847 120.468ZM23.8141 119.602C23.7318 119.602 23.6496 119.556 23.6058 119.474C23.5428 119.362 23.5883 119.215 23.7003 119.159C23.8211 119.096 23.9593 119.142 24.0224 119.254C24.0854 119.369 24.0434 119.513 23.9278 119.576C23.8911 119.595 23.8526 119.602 23.8141 119.602ZM25.4435 118.737C25.3542 118.737 25.272 118.692 25.2352 118.617C25.1722 118.496 25.2159 118.351 25.3297 118.295C25.4435 118.23 25.587 118.275 25.6517 118.387C25.7147 118.508 25.671 118.646 25.5502 118.711C25.5187 118.729 25.482 118.737 25.4435 118.737ZM27.0728 117.878C26.9836 117.878 26.9013 117.827 26.8646 117.75C26.8016 117.631 26.8453 117.493 26.9591 117.428C27.0728 117.365 27.2181 117.411 27.2811 117.523C27.3441 117.644 27.2934 117.782 27.1796 117.845C27.1481 117.864 27.1113 117.876 27.0728 117.876V117.878ZM28.7022 117.012C28.6147 117.012 28.5307 116.961 28.4887 116.886C28.4309 116.774 28.4764 116.627 28.5885 116.564C28.7022 116.501 28.8475 116.544 28.9122 116.665C28.9665 116.779 28.9227 116.922 28.8107 116.98C28.7792 116.999 28.7355 117.012 28.7022 117.012ZM30.3246 116.147C30.2441 116.147 30.1618 116.103 30.1163 116.019C30.0551 115.907 30.0971 115.762 30.2196 115.697C30.3316 115.634 30.4786 115.68 30.5346 115.799C30.5976 115.914 30.5539 116.058 30.4401 116.114C30.4033 116.133 30.3648 116.145 30.3263 116.145L30.3246 116.147Z" fill="#212F20"/>
<path d="M31.9574 131.352L17.3018 123.571V121.151L31.9574 128.932V131.352Z" fill="#212F20"/>
<path d="M31.9574 131.352L17.3018 123.571V122.024L31.9574 129.805V131.352Z" fill="#3F361E"/>
<path d="M30.2196 129.919C30.1041 129.863 30.0603 129.716 30.1181 129.604C30.1811 129.49 30.3263 129.446 30.4401 129.502C30.5556 129.565 30.5976 129.712 30.5416 129.824C30.4978 129.907 30.4138 129.952 30.3263 129.952C30.2948 129.952 30.2511 129.94 30.2196 129.921V129.919ZM28.5902 129.06C28.4747 128.997 28.4327 128.853 28.4939 128.738C28.5499 128.626 28.697 128.58 28.8107 128.638C28.9297 128.701 28.9735 128.844 28.9105 128.96C28.8667 129.042 28.7827 129.084 28.7005 129.084C28.6637 129.084 28.6252 129.077 28.5884 129.058L28.5902 129.06ZM26.9591 128.195C26.8453 128.132 26.7998 127.987 26.8646 127.873C26.9206 127.761 27.0658 127.716 27.1796 127.779C27.2986 127.835 27.3441 127.982 27.2793 128.094C27.2356 128.176 27.1533 128.221 27.0711 128.221C27.0343 128.221 26.9941 128.214 26.9573 128.195H26.9591ZM25.3297 127.33C25.2142 127.266 25.1722 127.12 25.2352 127.008C25.2982 126.895 25.4365 126.849 25.5572 126.914C25.6692 126.97 25.7147 127.115 25.6517 127.229C25.6062 127.311 25.524 127.353 25.4435 127.353C25.4067 127.353 25.3647 127.346 25.3297 127.329V127.33ZM23.7073 126.464C23.5866 126.401 23.5428 126.263 23.6076 126.142C23.6706 126.03 23.8141 125.985 23.9278 126.048C24.0416 126.105 24.0853 126.251 24.0241 126.371C23.9856 126.447 23.9033 126.49 23.8141 126.49C23.7773 126.49 23.7388 126.483 23.7073 126.464ZM22.0779 125.6C21.9624 125.535 21.9134 125.397 21.9764 125.278C22.0394 125.162 22.1847 125.12 22.2985 125.183C22.414 125.246 22.4577 125.386 22.393 125.505C22.3562 125.58 22.274 125.629 22.1847 125.629C22.1479 125.629 22.1094 125.617 22.0779 125.6ZM20.4468 124.733C20.3348 124.677 20.2911 124.532 20.3471 124.418C20.4101 124.299 20.5553 124.254 20.6691 124.319C20.7811 124.382 20.8266 124.527 20.7688 124.639C20.7251 124.718 20.6446 124.767 20.5553 124.767C20.5221 124.767 20.4783 124.754 20.4468 124.733ZM18.8174 123.869C18.7037 123.813 18.6599 123.666 18.7229 123.554C18.7789 123.435 18.926 123.389 19.038 123.452C19.1587 123.515 19.2042 123.662 19.1412 123.774C19.0957 123.856 19.0152 123.898 18.933 123.898C18.8962 123.898 18.8577 123.888 18.8192 123.869H18.8174Z" fill="#212F20"/>
<path d="M17.3018 139.282L31.9574 131.505V129.082L17.3018 136.862V139.282Z" fill="#212F20"/>
<path d="M17.3018 139.282L31.9574 131.505V129.954L17.3018 137.735V139.282Z" fill="#3F361E"/>
<path d="M18.9347 137.882C18.8472 137.882 18.7632 137.837 18.7194 137.754C18.6617 137.642 18.7054 137.495 18.8192 137.432C18.933 137.376 19.0782 137.42 19.1412 137.534C19.199 137.649 19.1535 137.793 19.0397 137.849C19.01 137.868 18.9645 137.88 18.933 137.88L18.9347 137.882ZM20.5571 137.016C20.4748 137.016 20.3926 136.972 20.3488 136.89C20.2858 136.776 20.3296 136.631 20.4486 136.568C20.5623 136.508 20.7076 136.555 20.7654 136.667C20.8284 136.781 20.7846 136.926 20.6691 136.989C20.6323 137.009 20.5938 137.016 20.5571 137.016ZM22.1847 136.149C22.1042 136.149 22.022 136.106 21.9764 136.025C21.9134 135.913 21.9572 135.766 22.078 135.71C22.1917 135.647 22.337 135.691 22.393 135.805C22.4577 135.918 22.414 136.064 22.2985 136.127C22.2617 136.146 22.2215 136.149 22.1847 136.149ZM23.8141 135.285C23.7318 135.285 23.6496 135.241 23.6058 135.161C23.5428 135.045 23.5883 134.902 23.7003 134.846C23.8211 134.781 23.9593 134.826 24.0224 134.938C24.0854 135.054 24.0434 135.197 23.9278 135.262C23.8911 135.281 23.8526 135.287 23.8141 135.287V135.285ZM25.4435 134.42C25.3542 134.42 25.272 134.377 25.2352 134.3C25.1722 134.181 25.2159 134.034 25.3297 133.978C25.4435 133.915 25.587 133.96 25.6517 134.072C25.7147 134.191 25.671 134.331 25.5502 134.394C25.5187 134.413 25.482 134.42 25.4435 134.42ZM27.0728 133.561C26.9836 133.561 26.9013 133.51 26.8646 133.435C26.8016 133.314 26.8453 133.176 26.9591 133.113C27.0728 133.05 27.2181 133.094 27.2811 133.209C27.3441 133.328 27.2934 133.466 27.1796 133.531C27.1481 133.549 27.1113 133.561 27.0728 133.561ZM28.7022 132.696C28.6147 132.696 28.5307 132.647 28.4887 132.569C28.4309 132.457 28.4764 132.311 28.5885 132.247C28.7022 132.184 28.8475 132.229 28.9122 132.348C28.9665 132.46 28.9227 132.607 28.8107 132.663C28.7792 132.682 28.7355 132.695 28.7022 132.695V132.696ZM30.3246 131.83C30.2441 131.83 30.1618 131.786 30.1163 131.706C30.0551 131.594 30.0971 131.447 30.2196 131.384C30.3316 131.321 30.4786 131.365 30.5346 131.485C30.5976 131.597 30.5539 131.743 30.4401 131.8C30.4033 131.818 30.3648 131.83 30.3263 131.83H30.3246Z" fill="#212F20"/>
<path d="M31.9574 147.035L17.3018 139.256V136.834L31.9574 144.615V147.035Z" fill="#212F20"/>
<path d="M31.9574 147.035L17.3018 139.256V137.709L31.9574 145.488V147.035Z" fill="#3F361E"/>
<path d="M30.2196 145.604C30.1041 145.548 30.0603 145.402 30.1181 145.289C30.1811 145.175 30.3263 145.131 30.4401 145.187C30.5556 145.252 30.5976 145.397 30.5416 145.509C30.4978 145.591 30.4138 145.637 30.3263 145.637C30.2948 145.637 30.2511 145.625 30.2196 145.605V145.604ZM28.5902 144.746C28.4747 144.683 28.4327 144.536 28.4939 144.424C28.5499 144.309 28.697 144.265 28.8107 144.323C28.9297 144.386 28.9735 144.531 28.9105 144.645C28.8667 144.727 28.7827 144.771 28.7005 144.771C28.6637 144.771 28.6252 144.765 28.5884 144.746H28.5902ZM26.9591 143.88C26.8453 143.817 26.7998 143.673 26.8646 143.558C26.9206 143.444 27.0658 143.4 27.1796 143.465C27.2986 143.521 27.3441 143.666 27.2793 143.78C27.2356 143.86 27.1533 143.904 27.0711 143.904C27.0343 143.904 26.9941 143.897 26.9573 143.878L26.9591 143.88ZM25.3297 143.015C25.2142 142.952 25.1722 142.805 25.2352 142.693C25.2982 142.579 25.4365 142.534 25.5572 142.599C25.6692 142.655 25.7147 142.8 25.6517 142.914C25.6062 142.996 25.524 143.041 25.4435 143.041C25.4067 143.041 25.3647 143.034 25.3297 143.015ZM23.7073 142.151C23.5866 142.086 23.5428 141.948 23.6076 141.827C23.6706 141.715 23.8141 141.669 23.9278 141.734C24.0416 141.79 24.0853 141.935 24.0241 142.056C23.9856 142.131 23.9033 142.175 23.8141 142.175C23.7773 142.175 23.7388 142.168 23.7073 142.152V142.151ZM22.0779 141.284C21.9624 141.22 21.9134 141.081 21.9764 140.962C22.0394 140.849 22.1847 140.805 22.2985 140.868C22.414 140.931 22.4577 141.069 22.393 141.19C22.3562 141.265 22.274 141.318 22.1847 141.318C22.1479 141.318 22.1094 141.305 22.0779 141.284ZM20.4468 140.42C20.3348 140.362 20.2911 140.217 20.3471 140.101C20.4101 139.982 20.5553 139.937 20.6691 140.001C20.7811 140.064 20.8266 140.208 20.7688 140.323C20.7251 140.399 20.6446 140.448 20.5553 140.448C20.5221 140.448 20.4783 140.435 20.4468 140.418V140.42ZM18.8174 139.553C18.7037 139.497 18.6599 139.352 18.7229 139.238C18.7789 139.119 18.926 139.074 19.038 139.137C19.1587 139.202 19.2042 139.347 19.1412 139.459C19.0957 139.541 19.0152 139.587 18.933 139.587C18.8962 139.587 18.8577 139.574 18.8192 139.555L18.8174 139.553Z" fill="#212F20"/>
<path opacity="0.5" d="M31.9574 25.3361H17.3018V186.515H31.9574V25.3361Z" fill="#4BA3DB"/>
<path d="M85.4433 27.3926H46.3295V34.6574H85.4433V27.3926Z" fill="#245B7C"/>
<path d="M37.3216 187.276H90.7182V31.7504H71.6015L37.3216 19.0409V187.276Z" fill="#387BA5"/>
<path d="M90.7182 31.7504H71.6015V187.276H90.7182V31.7504Z" fill="#306E94"/>
<path d="M90.7182 40.7023H71.6015V46.2975H90.7182V40.7023Z" fill="#4BA3DB"/>
<path d="M90.7182 40.7023H71.6015V42.3335H90.7182V40.7023Z" fill="#4391C2"/>
<path d="M85.4433 40.7023H83.2469V46.2975H85.4433V40.7023Z" fill="#9BC4E9"/>
<path d="M81.159 40.7023H78.9626V46.2975H81.159V40.7023Z" fill="#9BC4E9"/>
<path d="M68.4145 40.7023H40.1779V46.2975H68.4145V40.7023Z" fill="#4BA3DB"/>
<path d="M68.4145 40.7023H40.1779V42.3335H68.4145V40.7023Z" fill="#4391C2"/>
<path d="M63.1413 40.7023H60.9432V46.2975H63.1413V40.7023Z" fill="#9BC4E9"/>
<path d="M58.8553 40.7023H56.6588V46.2975H58.8553V40.7023Z" fill="#9BC4E9"/>
<path d="M90.7182 49.3743H71.6015V54.9694H90.7182V49.3743Z" fill="#4BA3DB"/>
<path d="M90.7182 49.3743H71.6015V51.0054H90.7182V49.3743Z" fill="#4391C2"/>
<path d="M85.4433 49.3743H83.2469V54.9694H85.4433V49.3743Z" fill="#9BC4E9"/>
<path d="M81.159 49.3743H78.9626V54.9694H81.159V49.3743Z" fill="#9BC4E9"/>
<path d="M68.4145 49.3743H40.1779V54.9694H68.4145V49.3743Z" fill="#4BA3DB"/>
<path d="M68.4145 49.3743H40.1779V51.0054H68.4145V49.3743Z" fill="#4391C2"/>
<path d="M63.1413 49.3743H60.9432V54.9694H63.1413V49.3743Z" fill="#9BC4E9"/>
<path d="M58.8553 49.3743H56.6588V54.9694H58.8553V49.3743Z" fill="#9BC4E9"/>
<path d="M90.7182 58.0479H71.6015V63.6396H90.7182V58.0479Z" fill="#4BA3DB"/>
<path d="M90.7182 58.0479H71.6015V59.6773H90.7182V58.0479Z" fill="#4391C2"/>
<path d="M85.4433 58.0479H83.2469V63.6396H85.4433V58.0479Z" fill="#9BC4E9"/>
<path d="M81.159 58.0479H78.9626V63.6396H81.159V58.0479Z" fill="#9BC4E9"/>
<path d="M68.4145 58.0479H40.1779V63.6396H68.4145V58.0479Z" fill="#4BA3DB"/>
<path d="M68.4145 58.0479H40.1779V59.6773H68.4145V58.0479Z" fill="#4391C2"/>
<path d="M63.1413 58.0479H60.9432V63.6396H63.1413V58.0479Z" fill="#9BC4E9"/>
<path d="M58.8553 58.0479H56.6588V63.6396H58.8553V58.0479Z" fill="#9BC4E9"/>
<path d="M90.7182 66.7198H71.6015V72.3133H90.7182V66.7198Z" fill="#4BA3DB"/>
<path d="M90.7182 66.7198H71.6015V68.351H90.7182V66.7198Z" fill="#4391C2"/>
<path d="M85.4433 66.7198H83.2469V72.3133H85.4433V66.7198Z" fill="#9BC4E9"/>
<path d="M81.159 66.7198H78.9626V72.3133H81.159V66.7198Z" fill="#9BC4E9"/>
<path d="M68.4145 66.7198H40.1779V72.3133H68.4145V66.7198Z" fill="#4BA3DB"/>
<path d="M68.4145 66.7198H40.1779V68.351H68.4145V66.7198Z" fill="#4391C2"/>
<path d="M63.1413 66.7198H60.9432V72.3133H63.1413V66.7198Z" fill="#9BC4E9"/>
<path d="M58.8553 66.7198H56.6588V72.3133H58.8553V66.7198Z" fill="#9BC4E9"/>
<path d="M90.7182 75.3917H71.6015V80.9852H90.7182V75.3917Z" fill="#4BA3DB"/>
<path d="M90.7182 75.3917H71.6015V77.0228H90.7182V75.3917Z" fill="#4391C2"/>
<path d="M85.4433 75.3917H83.2469V80.9852H85.4433V75.3917Z" fill="#9BC4E9"/>
<path d="M81.159 75.3917H78.9626V80.9852H81.159V75.3917Z" fill="#9BC4E9"/>
<path d="M68.4145 75.3917H40.1779V80.9852H68.4145V75.3917Z" fill="#4BA3DB"/>
<path d="M68.4145 75.3917H40.1779V77.0228H68.4145V75.3917Z" fill="#4391C2"/>
<path d="M63.1413 75.3917H60.9432V80.9852H63.1413V75.3917Z" fill="#9BC4E9"/>
<path d="M58.8553 75.3917H56.6588V80.9852H58.8553V75.3917Z" fill="#9BC4E9"/>
<path d="M90.7182 84.0619H71.6015V89.6588H90.7182V84.0619Z" fill="#4BA3DB"/>
<path d="M90.7182 84.0619H71.6015V85.693H90.7182V84.0619Z" fill="#4391C2"/>
<path d="M85.4433 84.0619H83.2469V89.6588H85.4433V84.0619Z" fill="#9BC4E9"/>
<path d="M81.159 84.0619H78.9626V89.6588H81.159V84.0619Z" fill="#9BC4E9"/>
<path d="M68.4145 84.0619H40.1779V89.6588H68.4145V84.0619Z" fill="#4BA3DB"/>
<path d="M68.4145 84.0619H40.1779V85.693H68.4145V84.0619Z" fill="#4391C2"/>
<path d="M63.1413 84.0619H60.9432V89.6588H63.1413V84.0619Z" fill="#9BC4E9"/>
<path d="M58.8553 84.0619H56.6588V89.6588H58.8553V84.0619Z" fill="#9BC4E9"/>
<path d="M90.7182 92.7356H71.6015V98.329H90.7182V92.7356Z" fill="#4BA3DB"/>
<path d="M90.7182 92.7356H71.6015V94.3667H90.7182V92.7356Z" fill="#4391C2"/>
<path d="M85.4433 92.7356H83.2469V98.329H85.4433V92.7356Z" fill="#9BC4E9"/>
<path d="M81.159 92.7356H78.9626V98.329H81.159V92.7356Z" fill="#9BC4E9"/>
<path d="M68.4145 92.7356H40.1779V98.329H68.4145V92.7356Z" fill="#4BA3DB"/>
<path d="M68.4145 92.7356H40.1779V94.3667H68.4145V92.7356Z" fill="#4391C2"/>
<path d="M63.1413 92.7356H60.9432V98.329H63.1413V92.7356Z" fill="#9BC4E9"/>
<path d="M58.8553 92.7356H56.6588V98.329H58.8553V92.7356Z" fill="#9BC4E9"/>
<path d="M90.7182 101.407H71.6015V107.001H90.7182V101.407Z" fill="#4BA3DB"/>
<path d="M90.7182 101.407H71.6015V103.039H90.7182V101.407Z" fill="#4391C2"/>
<path d="M85.4433 101.407H83.2469V107.001H85.4433V101.407Z" fill="#9BC4E9"/>
<path d="M81.159 101.407H78.9626V107.001H81.159V101.407Z" fill="#9BC4E9"/>
<path d="M68.4145 101.407H40.1779V107.001H68.4145V101.407Z" fill="#4BA3DB"/>
<path d="M68.4145 101.407H40.1779V103.039H68.4145V101.407Z" fill="#4391C2"/>
<path d="M63.1413 101.407H60.9432V107.001H63.1413V101.407Z" fill="#9BC4E9"/>
<path d="M58.8553 101.407H56.6588V107.001H58.8553V101.407Z" fill="#9BC4E9"/>
<path d="M90.7182 110.079H71.6015V115.676H90.7182V110.079Z" fill="#4BA3DB"/>
<path d="M90.7182 110.079H71.6015V111.711H90.7182V110.079Z" fill="#4391C2"/>
<path d="M85.4433 110.079H83.2469V115.676H85.4433V110.079Z" fill="#9BC4E9"/>
<path d="M81.159 110.079H78.9626V115.676H81.159V110.079Z" fill="#9BC4E9"/>
<path d="M68.4145 110.079H40.1779V115.676H68.4145V110.079Z" fill="#4BA3DB"/>
<path d="M68.4145 110.079H40.1779V111.711H68.4145V110.079Z" fill="#4391C2"/>
<path d="M63.1413 110.079H60.9432V115.676H63.1413V110.079Z" fill="#9BC4E9"/>
<path d="M58.8553 110.079H56.6588V115.676H58.8553V110.079Z" fill="#9BC4E9"/>
<path d="M90.7182 118.753H71.6015V124.348H90.7182V118.753Z" fill="#4BA3DB"/>
<path d="M90.7182 118.753H71.6015V120.382H90.7182V118.753Z" fill="#4391C2"/>
<path d="M85.4433 118.753H83.2469V124.348H85.4433V118.753Z" fill="#9BC4E9"/>
<path d="M81.159 118.753H78.9626V124.348H81.159V118.753Z" fill="#9BC4E9"/>
<path d="M68.4145 118.753H40.1779V124.348H68.4145V118.753Z" fill="#4BA3DB"/>
<path d="M68.4145 118.753H40.1779V120.382H68.4145V118.753Z" fill="#4391C2"/>
<path d="M63.1413 118.753H60.9432V124.348H63.1413V118.753Z" fill="#9BC4E9"/>
<path d="M58.8553 118.753H56.6588V124.348H58.8553V118.753Z" fill="#9BC4E9"/>
<path d="M90.7182 127.425H71.6015V133.018H90.7182V127.425Z" fill="#4BA3DB"/>
<path d="M90.7182 127.425H71.6015V129.056H90.7182V127.425Z" fill="#4391C2"/>
<path d="M85.4433 127.425H83.2469V133.018H85.4433V127.425Z" fill="#9BC4E9"/>
<path d="M81.159 127.425H78.9626V133.018H81.159V127.425Z" fill="#9BC4E9"/>
<path d="M68.4145 127.425H40.1779V133.018H68.4145V127.425Z" fill="#4BA3DB"/>
<path d="M68.4145 127.425H40.1779V129.056H68.4145V127.425Z" fill="#4391C2"/>
<path d="M63.1413 127.425H60.9432V133.018H63.1413V127.425Z" fill="#9BC4E9"/>
<path d="M58.8553 127.425H56.6588V133.018H58.8553V127.425Z" fill="#9BC4E9"/>
<path d="M90.7182 136.095H71.6015V141.692H90.7182V136.095Z" fill="#4BA3DB"/>
<path d="M90.7182 136.095H71.6015V137.726H90.7182V136.095Z" fill="#4391C2"/>
<path d="M85.4433 136.095H83.2469V141.692H85.4433V136.095Z" fill="#9BC4E9"/>
<path d="M81.159 136.095H78.9626V141.692H81.159V136.095Z" fill="#9BC4E9"/>
<path d="M68.4145 136.095H40.1779V141.692H68.4145V136.095Z" fill="#4BA3DB"/>
<path d="M68.4145 136.095H40.1779V137.726H68.4145V136.095Z" fill="#4391C2"/>
<path d="M63.1413 136.095H60.9432V141.692H63.1413V136.095Z" fill="#9BC4E9"/>
<path d="M58.8553 136.095H56.6588V141.692H58.8553V136.095Z" fill="#9BC4E9"/>
<path d="M157.827 78.0957H70.9977V84.9422H157.827V78.0957Z" fill="#CBB47A"/>
<path d="M157.827 88.3655H70.9977V187.386H157.827V88.3655Z" fill="#F6D892"/>
<path d="M157.827 88.3655H70.9977V92.018H157.827V88.3655Z" fill="#A69465"/>
<path d="M161.025 81.5208H67.8037V88.3655H161.025V81.5208Z" fill="#F6D892"/>
<path d="M157.827 96.7031H70.9977V179.052H157.827V96.7031Z" fill="#4BA3DB"/>
<path d="M74.883 96.7031H70.9977V179.052H74.883V96.7031Z" fill="#387BA5"/>
<path d="M91.4743 96.7031H87.5872V179.052H91.4743V96.7031Z" fill="#387BA5"/>
<path d="M108.062 96.7031H104.175V179.052H108.062V96.7031Z" fill="#387BA5"/>
<path d="M124.65 96.7031H120.765V179.052H124.65V96.7031Z" fill="#387BA5"/>
<path d="M141.241 96.7031H137.354V179.052H141.241V96.7031Z" fill="#387BA5"/>
<path d="M81.8258 96.7031H78.525V179.052H81.8258V96.7031Z" fill="#9BC4E9"/>
<path d="M98.9456 96.7031H95.6431V179.052H98.9456V96.7031Z" fill="#9BC4E9"/>
<path d="M116.062 96.7031H112.761V179.052H116.062V96.7031Z" fill="#9BC4E9"/>
<path d="M133.182 96.7031H129.883V179.052H133.182V96.7031Z" fill="#9BC4E9"/>
<g style="mix-blend-mode:multiply">
<path d="M157.827 106.639H70.9977V109.826H157.827V106.639Z" fill="#A69465"/>
</g>
<path d="M157.827 105.043H70.9977V108.231H157.827V105.043Z" fill="#F6D892"/>
<g style="mix-blend-mode:multiply">
<path d="M157.827 119.087H70.9977V122.276H157.827V119.087Z" fill="#A69465"/>
</g>
<path d="M157.827 117.495H70.9977V120.683H157.827V117.495Z" fill="#F6D892"/>
<g style="mix-blend-mode:multiply">
<path d="M157.827 131.541H70.9977V134.73H157.827V131.541Z" fill="#A69465"/>
</g>
<path d="M157.827 129.947H70.9977V133.134H157.827V129.947Z" fill="#F6D892"/>
<path d="M157.827 142.401H70.9977V145.588H157.827V142.401Z" fill="#F6D892"/>
</g>
<defs>
<clipPath id="clip0_2184_7873">
<rect width="140" height="143.307" rx="6.46154" fill="white"/>
</clipPath>
</defs>
</svg>
