<svg width="21" height="20" viewBox="0 0 21 20" fill="none" xmlns="http://www.w3.org/2000/svg">
<path d="M20.5 7.67C20.4368 7.48709 20.322 7.32643 20.1693 7.2075C20.0167 7.08858 19.8328 7.0165 19.64 7L13.95 6.17L11.4 1C11.3181 0.830929 11.1903 0.688342 11.0311 0.588574C10.8719 0.488805 10.6879 0.43589 10.5 0.43589C10.3121 0.43589 10.1281 0.488805 9.96891 0.588574C9.80974 0.688342 9.68188 0.830929 9.6 1L7.05 6.16L1.36 7C1.17492 7.02631 1.00092 7.10396 0.857751 7.22416C0.714577 7.34435 0.60796 7.50227 0.55 7.68C0.496945 7.85367 0.492184 8.03852 0.536228 8.21469C0.580272 8.39087 0.671458 8.55173 0.8 8.68L4.93 12.68L3.93 18.36C3.8943 18.5475 3.91299 18.7413 3.98387 18.9185C4.05475 19.0956 4.17485 19.2489 4.33 19.36C4.48122 19.4681 4.65957 19.5319 4.84505 19.5443C5.03052 19.5567 5.21577 19.5171 5.38 19.43L10.5 16.76L15.6 19.44C15.7403 19.5192 15.8989 19.5605 16.06 19.56C16.2718 19.5608 16.4784 19.4942 16.65 19.37C16.8051 19.2589 16.9252 19.1056 16.9961 18.9285C17.067 18.7513 17.0857 18.5575 17.05 18.37L16.05 12.69L20.18 8.69C20.3244 8.56768 20.4311 8.4069 20.4877 8.22635C20.5444 8.04579 20.5486 7.85287 20.5 7.67ZM14.35 11.67C14.2327 11.7834 14.145 11.9238 14.0944 12.079C14.0439 12.2341 14.0321 12.3993 14.06 12.56L14.78 16.75L11.02 14.75C10.8753 14.673 10.7139 14.6327 10.55 14.6327C10.3861 14.6327 10.2247 14.673 10.08 14.75L6.32 16.75L7.04 12.56C7.06794 12.3993 7.05611 12.2341 7.00557 12.079C6.95502 11.9238 6.86728 11.7834 6.75 11.67L3.75 8.67L7.96 8.06C8.122 8.03747 8.276 7.97554 8.4085 7.87965C8.541 7.78376 8.64796 7.65684 8.72 7.51L10.5 3.7L12.38 7.52C12.452 7.66684 12.559 7.79376 12.6915 7.88965C12.824 7.98554 12.978 8.04747 13.14 8.07L17.35 8.68L14.35 11.67Z" fill="#141414"/>
</svg>
