<svg width="9" height="14" viewBox="0 0 9 14" fill="none" xmlns="http://www.w3.org/2000/svg">
<path d="M8.04001 6.29001L2.38001 0.640006C2.28705 0.546278 2.17645 0.471884 2.05459 0.421115C1.93273 0.370346 1.80202 0.344208 1.67001 0.344208C1.538 0.344208 1.40729 0.370346 1.28544 0.421115C1.16358 0.471884 1.05298 0.546278 0.960012 0.640006C0.773761 0.827368 0.66922 1.08082 0.66922 1.34501C0.66922 1.60919 0.773761 1.86264 0.960012 2.05001L5.91001 7.05001L0.960012 12C0.773761 12.1874 0.66922 12.4408 0.66922 12.705C0.66922 12.9692 0.773761 13.2226 0.960012 13.41C1.05263 13.5045 1.16307 13.5797 1.28495 13.6312C1.40682 13.6827 1.53771 13.7095 1.67001 13.71C1.80232 13.7095 1.9332 13.6827 2.05508 13.6312C2.17695 13.5797 2.2874 13.5045 2.38001 13.41L8.04001 7.76001C8.14152 7.66636 8.22253 7.55271 8.27793 7.42621C8.33334 7.29971 8.36195 7.16311 8.36195 7.02501C8.36195 6.8869 8.33334 6.7503 8.27793 6.6238C8.22253 6.4973 8.14152 6.38365 8.04001 6.29001Z" fill="black"/>
</svg>
