<svg width="21" height="18" viewBox="0 0 21 18" fill="none" xmlns="http://www.w3.org/2000/svg">
<path d="M15.5 8H14.5C14.2348 8 13.9804 8.10536 13.7929 8.29289C13.6054 8.48043 13.5 8.73478 13.5 9C13.5 9.26522 13.6054 9.51957 13.7929 9.70711C13.9804 9.89464 14.2348 10 14.5 10H15.5C15.7652 10 16.0196 9.89464 16.2071 9.70711C16.3946 9.51957 16.5 9.26522 16.5 9C16.5 8.73478 16.3946 8.48043 16.2071 8.29289C16.0196 8.10536 15.7652 8 15.5 8ZM15.5 12H14.5C14.2348 12 13.9804 12.1054 13.7929 12.2929C13.6054 12.4804 13.5 12.7348 13.5 13C13.5 13.2652 13.6054 13.5196 13.7929 13.7071C13.9804 13.8946 14.2348 14 14.5 14H15.5C15.7652 14 16.0196 13.8946 16.2071 13.7071C16.3946 13.5196 16.5 13.2652 16.5 13C16.5 12.7348 16.3946 12.4804 16.2071 12.2929C16.0196 12.1054 15.7652 12 15.5 12ZM9.5 6H15.5C15.7652 6 16.0196 5.89464 16.2071 5.70711C16.3946 5.51957 16.5 5.26522 16.5 5C16.5 4.73478 16.3946 4.48043 16.2071 4.29289C16.0196 4.10536 15.7652 4 15.5 4H9.5C9.23478 4 8.98043 4.10536 8.79289 4.29289C8.60536 4.48043 8.5 4.73478 8.5 5C8.5 5.26522 8.60536 5.51957 8.79289 5.70711C8.98043 5.89464 9.23478 6 9.5 6ZM19.5 0H5.5C5.23478 0 4.98043 0.105357 4.79289 0.292893C4.60536 0.48043 4.5 0.734784 4.5 1V4H1.5C1.23478 4 0.98043 4.10536 0.792893 4.29289C0.605357 4.48043 0.5 4.73478 0.5 5V15C0.5 15.7956 0.816071 16.5587 1.37868 17.1213C1.94129 17.6839 2.70435 18 3.5 18H16.5C17.5609 18 18.5783 17.5786 19.3284 16.8284C20.0786 16.0783 20.5 15.0609 20.5 14V1C20.5 0.734784 20.3946 0.48043 20.2071 0.292893C20.0196 0.105357 19.7652 0 19.5 0ZM4.5 15C4.5 15.2652 4.39464 15.5196 4.20711 15.7071C4.01957 15.8946 3.76522 16 3.5 16C3.23478 16 2.98043 15.8946 2.79289 15.7071C2.60536 15.5196 2.5 15.2652 2.5 15V6H4.5V15ZM18.5 14C18.5 14.5304 18.2893 15.0391 17.9142 15.4142C17.5391 15.7893 17.0304 16 16.5 16H6.32C6.43642 15.6793 6.4973 15.3411 6.5 15V2H18.5V14ZM9.5 10H10.5C10.7652 10 11.0196 9.89464 11.2071 9.70711C11.3946 9.51957 11.5 9.26522 11.5 9C11.5 8.73478 11.3946 8.48043 11.2071 8.29289C11.0196 8.10536 10.7652 8 10.5 8H9.5C9.23478 8 8.98043 8.10536 8.79289 8.29289C8.60536 8.48043 8.5 8.73478 8.5 9C8.5 9.26522 8.60536 9.51957 8.79289 9.70711C8.98043 9.89464 9.23478 10 9.5 10ZM9.5 14H10.5C10.7652 14 11.0196 13.8946 11.2071 13.7071C11.3946 13.5196 11.5 13.2652 11.5 13C11.5 12.7348 11.3946 12.4804 11.2071 12.2929C11.0196 12.1054 10.7652 12 10.5 12H9.5C9.23478 12 8.98043 12.1054 8.79289 12.2929C8.60536 12.4804 8.5 12.7348 8.5 13C8.5 13.2652 8.60536 13.5196 8.79289 13.7071C8.98043 13.8946 9.23478 14 9.5 14Z" fill="black"/>
</svg>
