<svg width="17" height="20" viewBox="0 0 17 20" fill="none" xmlns="http://www.w3.org/2000/svg">
<path d="M0.5 10.0002C0.5 10.2654 0.605357 10.5198 0.792893 10.7073C0.98043 10.8949 1.23478 11.0002 1.5 11.0002H9.09L6.79 13.2902C6.69627 13.3832 6.62188 13.4938 6.57111 13.6156C6.52034 13.7375 6.4942 13.8682 6.4942 14.0002C6.4942 14.1322 6.52034 14.2629 6.57111 14.3848C6.62188 14.5066 6.69627 14.6172 6.79 14.7102C6.88296 14.8039 6.99356 14.8783 7.11542 14.9291C7.23728 14.9799 7.36799 15.006 7.5 15.006C7.63201 15.006 7.76272 14.9799 7.88458 14.9291C8.00644 14.8783 8.11704 14.8039 8.21 14.7102L12.21 10.7102C12.301 10.6151 12.3724 10.503 12.42 10.3802C12.52 10.1368 12.52 9.86368 12.42 9.62021C12.3724 9.49746 12.301 9.38532 12.21 9.29021L8.21 5.29021C8.11676 5.19698 8.00607 5.12301 7.88425 5.07255C7.76243 5.02209 7.63186 4.99612 7.5 4.99612C7.36814 4.99612 7.23757 5.02209 7.11575 5.07255C6.99393 5.12301 6.88324 5.19698 6.79 5.29021C6.69676 5.38345 6.6228 5.49414 6.57234 5.61596C6.52188 5.73779 6.49591 5.86835 6.49591 6.00021C6.49591 6.13207 6.52188 6.26264 6.57234 6.38446C6.6228 6.50629 6.69676 6.61698 6.79 6.71021L9.09 9.00021H1.5C1.23478 9.00021 0.98043 9.10557 0.792893 9.29311C0.605357 9.48064 0.5 9.735 0.5 10.0002ZM13.5 0.000213623H3.5C2.70435 0.000213623 1.94129 0.316284 1.37868 0.878893C0.816071 1.4415 0.5 2.20456 0.5 3.00021V6.00021C0.5 6.26543 0.605357 6.51978 0.792893 6.70732C0.98043 6.89486 1.23478 7.00021 1.5 7.00021C1.76522 7.00021 2.01957 6.89486 2.20711 6.70732C2.39464 6.51978 2.5 6.26543 2.5 6.00021V3.00021C2.5 2.735 2.60536 2.48064 2.79289 2.29311C2.98043 2.10557 3.23478 2.00021 3.5 2.00021H13.5C13.7652 2.00021 14.0196 2.10557 14.2071 2.29311C14.3946 2.48064 14.5 2.735 14.5 3.00021V17.0002C14.5 17.2654 14.3946 17.5198 14.2071 17.7073C14.0196 17.8949 13.7652 18.0002 13.5 18.0002H3.5C3.23478 18.0002 2.98043 17.8949 2.79289 17.7073C2.60536 17.5198 2.5 17.2654 2.5 17.0002V14.0002C2.5 13.735 2.39464 13.4806 2.20711 13.2931C2.01957 13.1056 1.76522 13.0002 1.5 13.0002C1.23478 13.0002 0.98043 13.1056 0.792893 13.2931C0.605357 13.4806 0.5 13.735 0.5 14.0002V17.0002C0.5 17.7959 0.816071 18.5589 1.37868 19.1215C1.94129 19.6841 2.70435 20.0002 3.5 20.0002H13.5C14.2956 20.0002 15.0587 19.6841 15.6213 19.1215C16.1839 18.5589 16.5 17.7959 16.5 17.0002V3.00021C16.5 2.20456 16.1839 1.4415 15.6213 0.878893C15.0587 0.316284 14.2956 0.000213623 13.5 0.000213623Z" fill="#141414"/>
</svg>
