<svg width="153" height="152" viewBox="0 0 153 152" fill="none" xmlns="http://www.w3.org/2000/svg">
<g clip-path="url(#clip0_396_25163)">
<path d="M102.104 8.8495C102.104 8.8495 76.8751 -0.617635 52.4038 13.6322C27.9293 27.8851 15.8462 56.6381 5.45144 79.6646C-4.94643 102.691 1.49289 126.326 20.4461 137.31C39.3962 148.291 51.9981 132.619 78.3906 132.185C104.783 131.751 111.93 135.707 133.647 120.707C155.367 105.706 158.882 69.6749 141.271 42.7557C123.661 15.8366 102.104 8.85267 102.104 8.85267V8.8495Z" fill="#F99F1B"/>
<path opacity="0.7" d="M102.104 8.8495C102.104 8.8495 76.8751 -0.617635 52.4038 13.6322C27.9293 27.8851 15.8462 56.6381 5.45144 79.6646C-4.94643 102.691 1.49289 126.326 20.4461 137.31C39.3962 148.291 51.9981 132.619 78.3906 132.185C104.783 131.751 111.93 135.707 133.647 120.707C155.367 105.706 158.882 69.6749 141.271 42.7557C123.661 15.8366 102.104 8.85267 102.104 8.85267V8.8495Z" fill="white"/>
<g opacity="0.3">
<path d="M124.698 83.602L120.405 87.9268L124.698 92.2515L128.992 87.9268L124.698 83.602Z" stroke="black" stroke-width="0.687783" stroke-linecap="round" stroke-linejoin="round"/>
<path d="M32.0988 7.16078L27.8057 11.4855L32.0988 15.8103L36.392 11.4855L32.0988 7.16078Z" stroke="black" stroke-width="0.687783" stroke-linecap="round" stroke-linejoin="round"/>
<path d="M24.2933 97.3457L21.6387 100.02L24.2933 102.694L26.9479 100.02L24.2933 97.3457Z" stroke="black" stroke-width="0.687783" stroke-linecap="round" stroke-linejoin="round"/>
<path d="M9.29034 53.9433L6.63574 56.6174L9.29034 59.2916L11.9449 56.6174L9.29034 53.9433Z" stroke="black" stroke-width="0.687783" stroke-linecap="round" stroke-linejoin="round"/>
<path d="M117.83 22.9916L115.176 25.6658L117.83 28.3399L120.485 25.6658L117.83 22.9916Z" stroke="black" stroke-width="0.687783" stroke-linecap="round" stroke-linejoin="round"/>
<path d="M30.2507 100.319L26.4756 104.122L30.2507 107.925L34.0259 104.122L30.2507 100.319Z" stroke="black" stroke-width="0.687783" stroke-linecap="round" stroke-linejoin="round"/>
<path d="M105.538 96.2646L102.884 98.9387L105.538 101.613L108.193 98.9387L105.538 96.2646Z" stroke="black" stroke-width="0.687783" stroke-linecap="round" stroke-linejoin="round"/>
<path d="M125.901 17.5297L120.82 22.6473L125.901 27.7648L130.981 22.6473L125.901 17.5297Z" stroke="black" stroke-width="0.687783" stroke-linecap="round" stroke-linejoin="round"/>
<path d="M71.4554 138.372L68.8008 141.046L71.4554 143.72L74.11 141.046L71.4554 138.372Z" stroke="black" stroke-width="0.687783" stroke-linecap="round" stroke-linejoin="round"/>
<path d="M18.5923 57.696C20.723 57.696 22.4502 55.9561 22.4502 53.8097C22.4502 51.6634 20.723 49.9234 18.5923 49.9234C16.4616 49.9234 14.7344 51.6634 14.7344 53.8097C14.7344 55.9561 16.4616 57.696 18.5923 57.696Z" stroke="black" stroke-width="0.687783" stroke-linecap="round" stroke-linejoin="round"/>
<path d="M130.486 69.5735C132.499 69.5735 134.13 67.93 134.13 65.9026C134.13 63.8752 132.499 62.2317 130.486 62.2317C128.473 62.2317 126.842 63.8752 126.842 65.9026C126.842 67.93 128.473 69.5735 130.486 69.5735Z" stroke="black" stroke-width="0.687783" stroke-linecap="round" stroke-linejoin="round"/>
<path d="M143.561 42.7969C144.746 42.7969 145.706 41.8298 145.706 40.6368C145.706 39.4438 144.746 38.4767 143.561 38.4767C142.377 38.4767 141.417 39.4438 141.417 40.6368C141.417 41.8298 142.377 42.7969 143.561 42.7969Z" stroke="black" stroke-width="0.687783" stroke-linecap="round" stroke-linejoin="round"/>
<path d="M100.691 12.3526C100.691 11.6367 100.116 11.0571 99.4051 11.0571C98.6945 11.0571 98.1191 11.6367 98.1191 12.3526C98.1191 13.0684 98.6945 13.648 99.4051 13.648C100.116 13.648 100.691 13.0684 100.691 12.3526Z" stroke="black" stroke-width="0.687783" stroke-linecap="round" stroke-linejoin="round"/>
<path d="M46.6727 87.4943C47.3829 87.4943 47.9587 86.9143 47.9587 86.1988C47.9587 85.4834 47.3829 84.9034 46.6727 84.9034C45.9625 84.9034 45.3867 85.4834 45.3867 86.1988C45.3867 86.9143 45.9625 87.4943 46.6727 87.4943Z" stroke="black" stroke-width="0.687783" stroke-linecap="round" stroke-linejoin="round"/>
<path d="M16.2342 122.908C17.3005 122.908 18.1648 122.037 18.1648 120.963C18.1648 119.889 17.3005 119.019 16.2342 119.019C15.168 119.019 14.3037 119.889 14.3037 120.963C14.3037 122.037 15.168 122.908 16.2342 122.908Z" stroke="black" stroke-width="0.687783" stroke-linecap="round" stroke-linejoin="round"/>
<path d="M133.058 117.726C133.058 116.773 132.291 116 131.344 116C130.398 116 129.631 116.773 129.631 117.726C129.631 118.68 130.398 119.453 131.344 119.453C132.291 119.453 133.058 118.68 133.058 117.726Z" stroke="black" stroke-width="0.687783" stroke-linecap="round" stroke-linejoin="round"/>
<path d="M119.338 6.09077C119.338 5.13741 118.571 4.36458 117.625 4.36458C116.678 4.36458 115.911 5.13741 115.911 6.09077C115.911 7.04414 116.678 7.81696 117.625 7.81696C118.571 7.81696 119.338 7.04414 119.338 6.09077Z" stroke="black" stroke-width="0.687783" stroke-linecap="round" stroke-linejoin="round"/>
</g>
<path d="M50.7447 72.3797L38.5264 79.0755" stroke="#263238" stroke-width="2.06335" stroke-linecap="round" stroke-linejoin="round"/>
<path d="M27.5938 35.889L40.6705 41.0707" stroke="#263238" stroke-width="2.06335" stroke-linecap="round" stroke-linejoin="round"/>
<path d="M43.2432 6.52153L51.6036 20.1252" stroke="#263238" stroke-width="2.06335" stroke-linecap="round" stroke-linejoin="round"/>
<path d="M71.7509 0.475113L71.3232 11.2725" stroke="#263238" stroke-width="2.06335" stroke-linecap="round" stroke-linejoin="round"/>
<path d="M96.1875 26.1716L107.12 15.1588" stroke="#263238" stroke-width="2.06335" stroke-linecap="round" stroke-linejoin="round"/>
<path d="M111.406 48.4126L120.839 45.1724" stroke="#263238" stroke-width="2.06335" stroke-linecap="round" stroke-linejoin="round"/>
<path d="M102.404 72.5951L110.337 77.1307" stroke="#263238" stroke-width="2.06335" stroke-linecap="round" stroke-linejoin="round"/>
<path d="M40.457 25.9563L46.8869 30.9226" stroke="#263238" stroke-width="2.06335" stroke-linecap="round" stroke-linejoin="round"/>
<path d="M109.693 35.2397L102.832 38.4799" stroke="#263238" stroke-width="2.06335" stroke-linecap="round" stroke-linejoin="round"/>
<path d="M42.8146 58.7761L35.5264 60.9362" stroke="#263238" stroke-width="2.06335" stroke-linecap="round" stroke-linejoin="round"/>
<path d="M105.407 61.5823L108.834 62.447" stroke="#263238" stroke-width="2.06335" stroke-linecap="round" stroke-linejoin="round"/>
<path opacity="0.2" d="M74.4301 86.9627C74.4301 86.9627 72.7525 107.264 75.1746 112.183C77.5968 117.103 78.8173 150.754 77.7287 154.986C77.7287 154.986 85.5419 156.956 88.6379 154.157C91.7292 151.357 96.484 154.048 104.316 151.31C112.148 148.572 106.498 88.1267 106.498 88.1267L106.738 66.134L93.8168 54.6263L74.4301 86.9533V86.9627Z" fill="black"/>
<path d="M84.8448 96.7268C84.7741 96.9059 84.6987 97.0378 84.6139 97.1179C82.9457 98.6966 75.8253 100.45 69.7086 101.713C64.6428 102.763 60.265 103.475 60.265 103.475C60.265 103.475 56.9098 75.5918 56.9098 72.6607C56.9098 69.7296 51.5 22.2759 51.5 22.2759L64.4685 21.7151L81.7017 20.9706C81.7017 20.9706 81.8053 22.2382 81.9797 24.453C83.0824 38.5807 87.0078 91.1615 84.8448 96.7268Z" fill="#92E3A9"/>
<mask id="mask0_396_25163" style="mask-type:luminance" maskUnits="userSpaceOnUse" x="51" y="20" width="35" height="84">
<path d="M84.8448 96.7268C84.7741 96.9059 84.6987 97.0378 84.6139 97.1179C82.9457 98.6966 75.8253 100.45 69.7086 101.713C64.6428 102.763 60.265 103.475 60.265 103.475C60.265 103.475 56.9098 75.5918 56.9098 72.6607C56.9098 69.7296 51.5 22.2759 51.5 22.2759L64.4685 21.7151L81.7017 20.9706C81.7017 20.9706 81.8053 22.2382 81.9797 24.453C83.0824 38.5807 87.0078 91.1615 84.8448 96.7268Z" fill="white"/>
</mask>
<g mask="url(#mask0_396_25163)">
<path opacity="0.2" d="M84.8449 96.7266L69.7087 99.8415L63.9926 101.015C62.4422 99.4928 61.2594 99.4645 61.2594 99.4645L60.807 95.1998L60.0672 88.2207L53.5547 26.8184C54.9778 25.8429 55.6658 23.7082 55.6658 23.7082L64.3837 23.3925L79.4869 22.8412L81.9798 24.4528C83.0825 38.5805 87.0079 91.1613 84.8449 96.7266Z" fill="black"/>
<path d="M84.8449 96.7266L69.7087 99.8415L63.9926 101.015C62.4422 99.4928 61.2594 99.4645 61.2594 99.4645L60.807 95.1998L60.0672 88.2207L53.5547 26.8184C54.9778 25.8429 55.6658 23.7082 55.6658 23.7082L64.3837 23.3925L79.4869 22.8412L81.9798 24.4528C83.0825 38.5805 87.0079 91.1613 84.8449 96.7266Z" stroke="#263238" stroke-width="0.471238" stroke-linecap="round" stroke-linejoin="round"/>
<path d="M62.0605 78.645L67.1122 78.6403L67.1169 80.219L65.7126 80.7185L62.4752 81.0719L62.0605 78.645Z" fill="#92E3A9" stroke="#263238" stroke-width="0.471238" stroke-linecap="round" stroke-linejoin="round"/>
<path d="M62.3711 81.9013L66.0845 81.774L67.0364 82.2264L66.9845 84.3187L62.6538 84.3705L62.3711 81.9013Z" fill="#92E3A9" stroke="#263238" stroke-width="0.471238" stroke-linecap="round" stroke-linejoin="round"/>
<path d="M62.965 85.247L67.2061 84.9454L67.159 86.5335L65.1091 87.2592L62.9414 87.1367L62.965 85.247Z" fill="#92E3A9" stroke="#263238" stroke-width="0.471238" stroke-linecap="round" stroke-linejoin="round"/>
<path d="M63.2196 87.9284L66.6455 88.098L66.9566 88.9793L66.457 89.9453L63.394 90.1385L62.8662 88.6447L63.2196 87.9284Z" fill="#92E3A9" stroke="#263238" stroke-width="0.471238" stroke-linecap="round" stroke-linejoin="round"/>
<path d="M67.1682 90.9915C67.3332 91.4486 67.4934 91.9057 67.6583 92.3628C67.7667 92.6691 67.8704 93.0319 67.6819 93.2958C67.5264 93.5126 67.2295 93.5738 66.9656 93.5503C66.7017 93.5267 66.4425 93.4372 66.1786 93.423C65.3823 93.3853 64.6518 94.0451 63.8696 93.9037C63.5633 93.0555 62.7952 91.8161 63.8366 91.4297C63.9968 91.3732 67.2861 91.3072 67.1777 90.9962L67.1682 90.9915Z" fill="#92E3A9" stroke="#263238" stroke-width="0.471238" stroke-linecap="round" stroke-linejoin="round"/>
<path d="M67.1547 94.8557C67.2301 95.1809 67.2866 95.5107 67.3149 95.8453C67.3526 96.2741 67.3196 96.7831 66.9662 97.0281C66.7777 97.1554 66.5421 97.1836 66.3112 97.2025C65.4017 97.2826 64.4969 97.3674 63.5874 97.4475C63.5638 97.4475 63.5261 96.0479 63.5638 95.9019C63.7241 95.2893 63.611 95.3411 64.1906 95.0913C65.1095 94.7002 66.2122 95.3222 67.1547 94.8557Z" fill="#92E3A9" stroke="#263238" stroke-width="0.471238" stroke-linecap="round" stroke-linejoin="round"/>
<path d="M57.249 28.2038C57.249 28.2038 58.2763 38.1375 58.3234 40.0979" stroke="#263238" stroke-width="0.471238" stroke-linecap="round" stroke-linejoin="round"/>
<path d="M59.4639 28.3027L59.9445 33.7738" stroke="#263238" stroke-width="0.471238" stroke-linecap="round" stroke-linejoin="round"/>
<path d="M67.1406 26.2339L67.7627 32.6475L68.6344 32.7276L68.347 26.2952L67.1406 26.2339Z" fill="#92E3A9" stroke="#263238" stroke-width="0.471238" stroke-linecap="round" stroke-linejoin="round"/>
<path opacity="0.2" d="M84.8448 96.7265C84.7741 96.9056 84.6987 97.0375 84.6138 97.1176C82.9457 98.6963 75.8253 100.449 69.7086 101.712V97.4805L60.8069 95.1997L59.4639 94.8557L60.0671 88.2206L62.3714 62.8586L64.3836 23.3924L64.4684 21.7148L81.7016 20.9702C81.7016 20.9702 81.8053 22.2379 81.9796 24.4527C83.0823 38.5804 87.0077 91.1612 84.8448 96.7265Z" fill="black"/>
</g>
<path d="M84.8448 96.7268C84.7741 96.9059 84.6987 97.0378 84.6139 97.1179C82.9457 98.6966 75.8253 100.45 69.7086 101.713C64.6428 102.763 60.265 103.475 60.265 103.475C60.265 103.475 56.9098 75.5918 56.9098 72.6607C56.9098 69.7296 51.5 22.2759 51.5 22.2759L64.4685 21.7151L81.7017 20.9706C81.7017 20.9706 81.8053 22.2382 81.9797 24.453C83.0824 38.5807 87.0078 91.1615 84.8448 96.7268Z" stroke="#263238" stroke-width="0.471238" stroke-linecap="round" stroke-linejoin="round"/>
<path d="M93.9724 160C94.0808 159.006 92.5163 144.741 92.488 143.191C92.4126 138.94 91.2109 133.384 91.2109 133.384C89.5333 129.096 88.228 119.214 83.7512 112.876C79.2792 106.538 79.2792 99.0829 78.5346 92.7448C77.7854 86.4066 77.9739 86.9627 78.1623 81.3455C78.3461 75.7237 77.9739 72.425 77.6016 68.6975C77.2293 64.9653 76.4847 58.4009 77.6016 55.3426C78.7184 52.289 81.6401 51.5821 84.8398 54.6357C88.0395 57.6941 89.3448 70.2573 89.3448 71.8077C89.3448 73.358 89.3448 78.2024 90.4664 80.0685C90.4664 80.0685 96.8045 76.8263 96.8045 75.931C96.8045 75.0356 96.616 67.1236 97.5491 66.6994L93.8216 54.6357L100.904 52.124C100.904 52.124 102.61 53.5236 104.316 56.2238C105.018 57.3359 105.725 58.6743 106.309 60.2246C109.292 68.1367 114.085 73.6549 115.074 75.931C116.064 78.2024 115.074 96.2838 115.074 99.6437C115.074 103.004 112.907 118.507 112.963 121.099C113.006 122.97 114.278 129.996 115.546 135.373C116.036 137.446 118.877 152.469 119.292 153.662L93.9724 160Z" fill="white"/>
<path opacity="0.4" d="M99.5519 65.9267C99.5047 66.9399 100.716 75.0169 100.716 75.0169C101.555 77.0291 96.9742 83.8903 96.9742 83.8903C95.9846 84.4511 95.5558 87.9006 95.5558 87.9006C92.455 87.2126 85.3534 80.0733 85.3534 80.0733C85.3534 80.0733 84.5005 82.9997 83.5675 90.2426C82.6344 97.4808 88.6003 114.69 91.145 126.57C93.6896 138.45 92.488 143.196 92.488 143.196C92.4126 138.945 91.2109 133.389 91.2109 133.389C89.5333 129.101 88.228 119.219 83.7512 112.881C79.2792 106.543 79.2792 99.0878 78.5346 92.7496C77.7854 86.4114 77.9739 86.9675 78.1623 81.3504C78.3461 75.7285 77.9739 72.4298 77.6016 68.7023C77.2293 64.9701 76.4847 58.4058 77.6016 55.3474C78.7184 52.2938 81.6401 51.5869 84.8398 54.6406C88.0395 57.6989 89.3448 70.2621 89.3448 71.8125C89.3448 73.3629 89.3448 78.2072 90.4664 80.0733C90.4664 80.0733 96.8045 76.8312 96.8045 75.9358C96.8045 75.0405 96.616 67.1284 97.5491 66.7043L93.8216 54.6406L100.904 52.1289C100.904 52.1289 102.61 53.5285 104.316 56.2286C102.016 60.8232 99.5801 65.3 99.5519 65.9314V65.9267Z" fill="#92E3A9"/>
<path opacity="0.4" d="M111.437 122.372C111.748 119.549 112.676 112.824 113.265 108.63C112.544 111.905 111.39 113.564 111.39 113.564C111.39 113.564 113.397 89.5168 113.595 88.0654C113.793 86.6093 115.819 80.0119 115.075 75.931C116.064 78.2024 115.075 96.2838 115.075 99.6437C115.075 103.004 112.907 118.507 112.964 121.099C113.006 122.97 115.028 134.996 116.295 140.373C113.562 136.414 111.126 125.213 111.437 122.372Z" fill="#92E3A9"/>
<path d="M119.292 153.662C117.803 149.374 113.02 123.691 112.964 121.099C112.907 118.507 115.075 102.999 115.075 99.6391C115.075 96.2792 116.064 78.2025 115.075 75.9264C114.085 73.655 109.297 68.1321 106.314 60.22C104.316 54.9233 100.909 52.1194 100.909 52.1194L93.8267 54.6359L97.5541 66.6948C96.6211 67.119 96.8096 75.031 96.8096 75.9264C96.8096 76.8218 90.4714 80.0639 90.4714 80.0639C89.3546 78.1978 89.3546 73.3534 89.3546 71.8031C89.3546 70.2527 88.0493 57.6942 84.8496 54.6359C81.6499 51.5775 78.7282 52.2891 77.6113 55.3427C76.4945 58.3963 77.2391 64.9654 77.6113 68.6929C77.9836 72.4204 78.3559 75.7191 78.1721 81.3409C77.9836 86.9628 77.7998 86.402 78.5444 92.7402C79.289 99.0783 79.289 106.533 83.7657 112.876C88.2378 119.214 89.5431 129.096 91.2207 133.384C91.2207 133.384 94.3921 156.273 93.9822 160" stroke="#263238" stroke-width="0.471238" stroke-linecap="round" stroke-linejoin="round"/>
<path d="M90.4619 80.0638C90.4619 80.0638 91.5787 85.2851 94.0952 87.8958" stroke="#263238" stroke-width="0.471238" stroke-linecap="round" stroke-linejoin="round"/>
<path d="M91.1455 82.4483C91.1455 82.4483 95.872 83.8855 97.8277 83.9798" stroke="#263238" stroke-width="0.471238" stroke-linecap="round" stroke-linejoin="round"/>
<path d="M96.7998 75.9265C96.7998 75.9265 100.155 74.3761 102.299 75.3091" stroke="#263238" stroke-width="0.471238" stroke-linecap="round" stroke-linejoin="round"/>
<path d="M97.5498 66.6948C97.5498 66.6948 100.16 66.4545 100.721 65.1491" stroke="#263238" stroke-width="0.471238" stroke-linecap="round" stroke-linejoin="round"/>
<path d="M84.6143 114.205C84.6143 114.205 89.6235 120.425 91.1173 123.597" stroke="#263238" stroke-width="0.471238" stroke-linecap="round" stroke-linejoin="round"/>
<path d="M113.764 86.9628C112.926 91.9013 111.809 105.416 111.437 107.843" stroke="#263238" stroke-width="0.471238" stroke-linecap="round" stroke-linejoin="round"/>
<path d="M115.372 77.6418C115.513 82.1185 114.42 84.4465 114.42 84.4465" stroke="#263238" stroke-width="0.471238" stroke-linecap="round" stroke-linejoin="round"/>
<path d="M76.8291 15.0047L111.39 24.109C111.39 24.109 99.2365 60.9646 96.753 65.5403L92.6344 97.6646C92.6344 97.6646 70.5616 96.6939 60.4111 93.6261C60.4111 93.6261 66.8247 60.1635 67.1734 55.7056C67.5174 51.2524 76.8291 15 76.8291 15V15.0047Z" fill="#92E3A9"/>
<mask id="mask1_396_25163" style="mask-type:luminance" maskUnits="userSpaceOnUse" x="60" y="15" width="52" height="83">
<path d="M76.8291 15.0047L111.39 24.109C111.39 24.109 99.2365 60.9646 96.753 65.5403L92.6344 97.6646C92.6344 97.6646 70.5616 96.6939 60.4111 93.6261C60.4111 93.6261 66.8247 60.1635 67.1734 55.7056C67.5174 51.2524 76.8291 15 76.8291 15V15.0047Z" fill="white"/>
</mask>
<g mask="url(#mask1_396_25163)">
<path opacity="0.2" d="M69.3973 53.7311L77.0126 21.1732C77.0126 21.1732 80.2877 19.5474 81.5553 18.063L106.309 25.0986C106.309 25.0986 106.385 27.5255 107.799 29.0806L95.306 65.0785L92.276 91.6139C92.276 91.6139 88.2469 91.9391 87.8605 94.922C87.8605 94.922 74.7977 95.6289 66.0374 93.3151C66.0374 93.3151 65.0054 90.0965 63.4268 88.0608L69.3926 53.7264L69.3973 53.7311Z" fill="black"/>
<path d="M69.3973 53.7311L77.0126 21.1732C77.0126 21.1732 80.2877 19.5474 81.5553 18.063L106.309 25.0986C106.309 25.0986 106.385 27.5255 107.799 29.0806L95.306 65.0785L92.276 91.6139C92.276 91.6139 88.2469 91.9391 87.8605 94.922C87.8605 94.922 74.7977 95.6289 66.0374 93.3151C66.0374 93.3151 65.0054 90.0965 63.4268 88.0608L69.3926 53.7264L69.3973 53.7311Z" stroke="#263238" stroke-width="0.471238" stroke-linecap="round" stroke-linejoin="round"/>
<path d="M75.7356 55.4182C75.7356 55.4182 77.9834 46.9312 85.9002 48.4627C93.817 49.9942 89.345 60.4321 89.345 60.4321C89.345 60.4321 89.3921 68.8673 82.9691 67.7033C77.4038 66.6949 74.4303 63.6413 75.7356 55.4182Z" fill="#92E3A9" stroke="#263238" stroke-width="0.471238" stroke-linecap="round" stroke-linejoin="round"/>
<path d="M80.0237 24.2693C80.0237 24.2693 77.6298 33.9627 77.0078 35.8288" stroke="#263238" stroke-width="0.471238" stroke-linecap="round" stroke-linejoin="round"/>
<path d="M82.0734 25.1082L80.6738 30.4191" stroke="#263238" stroke-width="0.471238" stroke-linecap="round" stroke-linejoin="round"/>
<path d="M99.5512 28.8356L104.315 30.5132L103.792 32.0023H102.299L99.1318 31.2577L99.5512 28.8356Z" fill="#92E3A9" stroke="#263238" stroke-width="0.471238" stroke-linecap="round" stroke-linejoin="round"/>
<path d="M98.76 32.0024L102.299 33.1239L103.048 33.8685L102.299 35.8241L98.1992 34.4292L98.76 32.0024Z" fill="#92E3A9" stroke="#263238" stroke-width="0.471238" stroke-linecap="round" stroke-linejoin="round"/>
<path d="M98.1991 35.3622L102.299 36.4885L101.724 37.9682H99.5516L97.5488 37.1294L98.1991 35.3622Z" fill="#92E3A9" stroke="#263238" stroke-width="0.471238" stroke-linecap="round" stroke-linejoin="round"/>
<path d="M97.5485 37.9683L100.715 39.2737V40.2067L99.9236 40.9513L96.9736 40.1125V38.5291L97.5485 37.9683Z" fill="#92E3A9" stroke="#263238" stroke-width="0.471238" stroke-linecap="round" stroke-linejoin="round"/>
<path d="M100.244 42.1764C100.244 42.6618 100.244 43.1472 100.244 43.6326C100.244 43.9577 100.221 44.33 99.9567 44.5185C99.74 44.6693 99.4384 44.6269 99.1933 44.5185C98.953 44.4101 98.7409 44.2358 98.4912 44.1368C97.7561 43.8399 96.8419 44.2122 96.1538 43.8164C96.1491 42.9163 95.8381 41.4884 96.9502 41.4743C97.1199 41.4743 100.244 42.511 100.244 42.1764Z" fill="#92E3A9" stroke="#263238" stroke-width="0.471238" stroke-linecap="round" stroke-linejoin="round"/>
<path d="M98.9438 45.8144C98.9061 46.149 98.8495 46.4741 98.7647 46.7993C98.661 47.2187 98.4584 47.6852 98.039 47.7983C97.8175 47.8596 97.5866 47.7983 97.3651 47.7465C96.4839 47.5203 95.598 47.2941 94.7167 47.0679C94.6932 47.0632 95.1267 45.7249 95.2068 45.6024C95.5603 45.0793 95.4377 45.0887 96.0692 45.051C97.0682 44.9897 97.8976 45.9417 98.9438 45.8191V45.8144Z" fill="#92E3A9" stroke="#263238" stroke-width="0.471238" stroke-linecap="round" stroke-linejoin="round"/>
<path d="M89.9955 25.7585L88.4121 32.0024L89.2038 32.3794L91.117 26.225L89.9955 25.7585Z" fill="#92E3A9" stroke="#263238" stroke-width="0.471238" stroke-linecap="round" stroke-linejoin="round"/>
<path d="M70.0998 67.6938L74.9912 68.9567L74.5954 70.4883L73.111 70.6155L69.8877 70.1443L70.0998 67.6938Z" fill="#92E3A9" stroke="#263238" stroke-width="0.471238" stroke-linecap="round" stroke-linejoin="round"/>
<path d="M69.5811 70.9219L73.205 71.7324L74.0108 72.411L73.4359 74.4232L69.2324 73.3817L69.5811 70.9219Z" fill="#92E3A9" stroke="#263238" stroke-width="0.471238" stroke-linecap="round" stroke-linejoin="round"/>
<path d="M69.312 74.31L73.4919 75.0876L73.0442 76.6097L70.8812 76.7982L68.8125 76.1337L69.312 74.31Z" fill="#92E3A9" stroke="#263238" stroke-width="0.471238" stroke-linecap="round" stroke-linejoin="round"/>
<path d="M68.8834 76.9679L72.1538 77.9952L72.2339 78.9235L71.5082 79.7341L68.497 79.1544L68.3604 77.5758L68.8834 76.9679Z" fill="#92E3A9" stroke="#263238" stroke-width="0.471238" stroke-linecap="round" stroke-linejoin="round"/>
<path d="M71.9326 80.9309C71.975 81.4115 72.0175 81.8969 72.0599 82.3776C72.0881 82.698 72.0976 83.075 71.8478 83.2824C71.6452 83.452 71.3389 83.4379 71.0891 83.3483C70.8394 83.2588 70.6132 83.108 70.3587 83.0279C69.6 82.7923 68.7235 83.2447 68.0025 82.9101C67.9177 82.0147 67.4889 80.6152 68.5916 80.5115C68.7612 80.4926 71.9609 81.2607 71.9326 80.9309Z" fill="#92E3A9" stroke="#263238" stroke-width="0.471238" stroke-linecap="round" stroke-linejoin="round"/>
<path d="M70.9477 84.6632C70.9383 84.9978 70.91 85.3323 70.8535 85.6622C70.7828 86.0863 70.6225 86.5717 70.2173 86.7178C70.0052 86.7979 69.7649 86.7602 69.5434 86.7178C68.6433 86.567 67.7433 86.4209 66.8479 86.2701C66.8244 86.2701 67.1401 84.8988 67.2108 84.7716C67.5218 84.2202 67.3993 84.2391 68.0213 84.1448C69.0109 83.994 69.9204 84.8752 70.9524 84.6632H70.9477Z" fill="#92E3A9" stroke="#263238" stroke-width="0.471238" stroke-linecap="round" stroke-linejoin="round"/>
<path d="M90.4619 89.239C90.4619 89.239 91.5787 76.7134 91.5787 75.4741" stroke="#263238" stroke-width="0.471238" stroke-linecap="round" stroke-linejoin="round"/>
<path d="M88.2275 88.6781C88.2275 88.6781 88.6941 82.1703 88.7883 81.044" stroke="#263238" stroke-width="0.471238" stroke-linecap="round" stroke-linejoin="round"/>
<path d="M79.4863 83.9799L77.9736 91.3783H79.4863L80.5843 83.9799H79.4863Z" fill="#92E3A9" stroke="#263238" stroke-width="0.471238" stroke-linecap="round" stroke-linejoin="round"/>
<path opacity="0.2" d="M96.8517 65.3566C93.5813 64.6733 90.6644 63.6696 88.5061 62.2229C88.5061 62.2229 90.0706 66.7185 95.6171 74.3808L92.6341 97.6694C92.6341 97.6694 78.2284 97.038 67.3428 95.1766C70.6886 85.7518 76.7581 67.8919 76.0465 64.3529C75.0711 59.4944 78.5158 53.7595 78.5158 53.7595C89.4061 51.7991 99.9666 43.5666 107.214 36.6064C103.524 47.5297 98.4869 62.1334 96.8517 65.3566Z" fill="black"/>
</g>
<path d="M76.8291 15.0047L111.39 24.109C111.39 24.109 99.2365 60.9646 96.753 65.5403L92.6344 97.6646C92.6344 97.6646 70.5616 96.6939 60.4111 93.6261C60.4111 93.6261 66.8247 60.1635 67.1734 55.7056C67.5174 51.2524 76.8291 15 76.8291 15V15.0047Z" stroke="#263238" stroke-width="0.471238" stroke-linecap="round" stroke-linejoin="round"/>
<path d="M95.9846 88.367L91.1167 123.597C90.0328 121.292 87.0782 117.362 85.5514 115.397C84.9859 114.662 84.6136 114.205 84.6136 114.205L83.7512 112.876C79.2792 106.538 79.2792 99.083 78.5346 92.7449C77.7854 86.4067 77.9739 86.9628 78.1623 81.3456C78.3461 75.7237 77.9739 72.4251 77.6016 68.6976C77.2293 64.9654 76.4847 58.401 77.6016 55.3427C78.1482 53.8441 79.1331 52.9111 80.3677 52.7132C81.6495 52.5011 83.2093 53.0807 84.8398 54.6358C88.0395 57.6941 89.3448 70.2574 89.3448 71.8077C89.3448 73.3581 89.3448 78.2024 90.4664 80.0685C90.4664 80.0685 93.4682 85.7564 95.9846 88.367Z" fill="white"/>
<path opacity="0.4" d="M83.379 110.364C84.3968 111.665 85.0896 113.541 85.5514 115.397C84.9859 114.662 84.6136 114.205 84.6136 114.205L83.7512 112.876C79.2792 106.538 79.2792 99.0829 78.5346 92.7448C77.7854 86.4066 77.9739 86.9627 78.1623 81.3455C78.3461 75.7237 77.9739 72.425 77.6016 68.6975C77.2293 64.9653 76.4847 58.4009 77.6016 55.3426C78.1482 53.8441 79.1331 52.911 80.3677 52.7131C82.7428 53.3822 85.0707 55.7809 85.9001 59.8853C87.2949 66.7748 80.9379 61.2095 79.463 67.0482C77.9927 72.8821 80.1321 74.4607 81.0133 75.931C81.8898 77.4013 80.7683 80.6387 79.463 84.9976C78.1624 89.3613 80.5845 106.788 83.379 110.364Z" fill="#92E3A9"/>
<path d="M95.9848 88.367C93.4683 85.7563 90.4666 80.0638 90.4666 80.0638C89.3497 78.1977 89.3497 73.3533 89.3497 71.803C89.3497 70.2526 88.0444 57.6941 84.8447 54.6358C81.645 51.5774 78.7233 52.289 77.6065 55.3426C76.4896 58.3962 77.2342 64.9653 77.6065 68.6928C77.9787 72.4203 78.351 75.719 78.1672 81.3408C77.9787 86.9627 77.795 86.4019 78.5395 92.7401C79.2841 99.0782 79.2841 106.533 83.7608 112.876L84.6232 114.205C84.6232 114.205 89.6325 120.425 91.1263 123.597" stroke="#263238" stroke-width="0.471238" stroke-linecap="round" stroke-linejoin="round"/>
<path d="M79.4873 73.4571C79.4873 73.4571 83.7661 71.247 85.9056 71.4355" stroke="#263238" stroke-width="0.471238" stroke-linecap="round" stroke-linejoin="round"/>
<ellipse cx="125" cy="51" rx="16.5" ry="14" fill="white"/>
<path d="M114.65 38.1958L109.367 36L112.951 41.1573C110.476 43.507 108.857 46.514 108.5 49.7692" stroke="#263238" stroke-width="1.46" stroke-linecap="round" stroke-linejoin="round"/>
<path d="M121.462 36.7345C119.517 37.1575 117.717 37.8708 116.108 38.8044" stroke="#263238" stroke-width="1.46" stroke-linecap="round" stroke-linejoin="round"/>
<path d="M141.5 48.8917C140.643 41.0105 132.563 35.4196 123.451 36.4091" stroke="#263238" stroke-width="1.46" stroke-linecap="round" stroke-linejoin="round"/>
<path d="M139.354 57.4826C139.763 56.8602 140.119 56.2134 140.42 55.542" stroke="#263238" stroke-width="1.46" stroke-linecap="round" stroke-linejoin="round"/>
<path d="M108.5 52.4756C109.357 60.3603 117.437 65.9477 126.549 64.9582C130.955 64.4791 134.79 62.5526 137.486 59.8008" stroke="#263238" stroke-width="1.46" stroke-linecap="round" stroke-linejoin="round"/>
<path d="M128.838 57.3054C132.878 55.1428 134.4 50.1145 132.237 46.0745C130.075 42.0345 125.047 40.5126 121.006 42.6752C116.966 44.8378 115.445 49.866 117.607 53.906C119.77 57.946 124.798 59.468 128.838 57.3054Z" stroke="#263238" stroke-width="1.46" stroke-linecap="round" stroke-linejoin="round"/>
<path d="M121.772 51.0351L124.251 53.3778L128.395 46.2484" stroke="#263238" stroke-width="1.46" stroke-linecap="round" stroke-linejoin="round"/>
</g>
<defs>
<clipPath id="clip0_396_25163">
<rect width="152" height="152" fill="white" transform="translate(0.5)"/>
</clipPath>
</defs>
</svg>
