<svg width="16" height="16" viewBox="0 0 16 16" fill="none" xmlns="http://www.w3.org/2000/svg">
<path d="M9.5 5H10.25C10.4489 5 10.6397 4.92098 10.7803 4.78033C10.921 4.63968 11 4.44891 11 4.25C11 4.05109 10.921 3.86032 10.7803 3.71967C10.6397 3.57902 10.4489 3.5 10.25 3.5H9.5C9.30109 3.5 9.11032 3.57902 8.96967 3.71967C8.82902 3.86032 8.75 4.05109 8.75 4.25C8.75 4.44891 8.82902 4.63968 8.96967 4.78033C9.11032 4.92098 9.30109 5 9.5 5ZM9.5 8H10.25C10.4489 8 10.6397 7.92098 10.7803 7.78033C10.921 7.63968 11 7.44891 11 7.25C11 7.05109 10.921 6.86032 10.7803 6.71967C10.6397 6.57902 10.4489 6.5 10.25 6.5H9.5C9.30109 6.5 9.11032 6.57902 8.96967 6.71967C8.82902 6.86032 8.75 7.05109 8.75 7.25C8.75 7.44891 8.82902 7.63968 8.96967 7.78033C9.11032 7.92098 9.30109 8 9.5 8ZM5.75 5H6.5C6.69891 5 6.88968 4.92098 7.03033 4.78033C7.17098 4.63968 7.25 4.44891 7.25 4.25C7.25 4.05109 7.17098 3.86032 7.03033 3.71967C6.88968 3.57902 6.69891 3.5 6.5 3.5H5.75C5.55109 3.5 5.36032 3.57902 5.21967 3.71967C5.07902 3.86032 5 4.05109 5 4.25C5 4.44891 5.07902 4.63968 5.21967 4.78033C5.36032 4.92098 5.55109 5 5.75 5ZM5.75 8H6.5C6.69891 8 6.88968 7.92098 7.03033 7.78033C7.17098 7.63968 7.25 7.44891 7.25 7.25C7.25 7.05109 7.17098 6.86032 7.03033 6.71967C6.88968 6.57902 6.69891 6.5 6.5 6.5H5.75C5.55109 6.5 5.36032 6.57902 5.21967 6.71967C5.07902 6.86032 5 7.05109 5 7.25C5 7.44891 5.07902 7.63968 5.21967 7.78033C5.36032 7.92098 5.55109 8 5.75 8ZM14.75 14H14V1.25C14 1.05109 13.921 0.860322 13.7803 0.71967C13.6397 0.579018 13.4489 0.5 13.25 0.5H2.75C2.55109 0.5 2.36032 0.579018 2.21967 0.71967C2.07902 0.860322 2 1.05109 2 1.25V14H1.25C1.05109 14 0.860322 14.079 0.71967 14.2197C0.579018 14.3603 0.5 14.5511 0.5 14.75C0.5 14.9489 0.579018 15.1397 0.71967 15.2803C0.860322 15.421 1.05109 15.5 1.25 15.5H14.75C14.9489 15.5 15.1397 15.421 15.2803 15.2803C15.421 15.1397 15.5 14.9489 15.5 14.75C15.5 14.5511 15.421 14.3603 15.2803 14.2197C15.1397 14.079 14.9489 14 14.75 14ZM8.75 14H7.25V11H8.75V14ZM12.5 14H10.25V10.25C10.25 10.0511 10.171 9.86032 10.0303 9.71967C9.88968 9.57902 9.69891 9.5 9.5 9.5H6.5C6.30109 9.5 6.11032 9.57902 5.96967 9.71967C5.82902 9.86032 5.75 10.0511 5.75 10.25V14H3.5V2H12.5V14Z" fill="#F99F1B"/>
</svg>
