<svg width="21" height="20" viewBox="0 0 21 20" fill="none" xmlns="http://www.w3.org/2000/svg">
<path d="M13.31 10.28C13.943 9.60024 14.2996 8.70877 14.31 7.78C14.31 6.77748 13.9118 5.81602 13.2029 5.10714C12.494 4.39825 11.5325 4 10.53 4C9.52748 4 8.56602 4.39825 7.85714 5.10714C7.14825 5.81602 6.75 6.77748 6.75 7.78C6.76044 8.70877 7.11702 9.60024 7.75 10.28C6.86865 10.7189 6.11022 11.3699 5.54292 12.1746C4.97561 12.9793 4.61723 13.9124 4.5 14.89C4.47083 15.1552 4.5482 15.4212 4.71511 15.6293C4.88202 15.8375 5.12478 15.9708 5.39 16C5.65522 16.0292 5.92116 15.9518 6.12932 15.7849C6.33749 15.618 6.47083 15.3752 6.5 15.11C6.61933 14.1411 7.08885 13.2494 7.82009 12.6027C8.55133 11.956 9.49382 11.599 10.47 11.599C11.4462 11.599 12.3887 11.956 13.1199 12.6027C13.8512 13.2494 14.3207 14.1411 14.44 15.11C14.4678 15.3664 14.5936 15.6022 14.7911 15.768C14.9887 15.9339 15.2426 16.017 15.5 16H15.61C15.8721 15.9698 16.1117 15.8373 16.2766 15.6313C16.4414 15.4252 16.5181 15.1624 16.49 14.9C16.3815 13.9276 16.0344 12.997 15.4796 12.191C14.9248 11.3851 14.1796 10.7286 13.31 10.28ZM10.5 9.56C10.1479 9.56 9.8038 9.4556 9.51108 9.26002C9.21836 9.06443 8.99022 8.78643 8.85549 8.46118C8.72077 8.13592 8.68552 7.77803 8.7542 7.43274C8.82288 7.08745 8.99241 6.77029 9.24135 6.52135C9.49029 6.27241 9.80745 6.10288 10.1527 6.0342C10.498 5.96552 10.8559 6.00077 11.1812 6.13549C11.5064 6.27022 11.7844 6.49837 11.98 6.79109C12.1756 7.0838 12.28 7.42795 12.28 7.78C12.28 8.25208 12.0925 8.70484 11.7586 9.03865C11.4248 9.37247 10.9721 9.56 10.5 9.56ZM17.5 0H3.5C2.70435 0 1.94129 0.316071 1.37868 0.87868C0.816071 1.44129 0.5 2.20435 0.5 3V17C0.5 17.7956 0.816071 18.5587 1.37868 19.1213C1.94129 19.6839 2.70435 20 3.5 20H17.5C18.2956 20 19.0587 19.6839 19.6213 19.1213C20.1839 18.5587 20.5 17.7956 20.5 17V3C20.5 2.20435 20.1839 1.44129 19.6213 0.87868C19.0587 0.316071 18.2956 0 17.5 0ZM18.5 17C18.5 17.2652 18.3946 17.5196 18.2071 17.7071C18.0196 17.8946 17.7652 18 17.5 18H3.5C3.23478 18 2.98043 17.8946 2.79289 17.7071C2.60536 17.5196 2.5 17.2652 2.5 17V3C2.5 2.73478 2.60536 2.48043 2.79289 2.29289C2.98043 2.10536 3.23478 2 3.5 2H17.5C17.7652 2 18.0196 2.10536 18.2071 2.29289C18.3946 2.48043 18.5 2.73478 18.5 3V17Z" fill="#141414"/>
</svg>
