<svg width="140" height="144" viewBox="0 0 140 144" fill="none" xmlns="http://www.w3.org/2000/svg">
<g clip-path="url(#clip0_2184_8728)">
<rect y="0.307068" width="140" height="143.307" rx="6.46154" fill="white"/>
<g clip-path="url(#clip1_2184_8728)">
<path d="M143 133.957H-3V143.583H143V133.957Z" fill="#A63125"/>
<path d="M128.783 43.0342H11.2174L-3 60.7556H143L128.783 43.0342Z" fill="#CD7A00"/>
<path d="M128.783 43.0342H82.8479L68.6305 60.7556H143L128.783 43.0342Z" fill="#F99F1B"/>
<path d="M143 133.957H68.248V143.583H143V133.957Z" fill="#E74C3C"/>
<path d="M139.597 60.7557H0.403198V133.957H139.597V60.7557Z" fill="#BAB08A"/>
<path d="M139.597 66.3742H0.403198V133.957H139.597V66.3742Z" fill="#E0D6AF"/>
<path d="M139.617 60.7557H71.6313V133.957H139.617V60.7557Z" fill="#E3D8B1"/>
<path d="M139.617 66.3742H71.6313V133.957H139.617V66.3742Z" fill="#FFF4C7"/>
<g style="mix-blend-mode:multiply">
<path d="M30.1873 98.2526V95.6146H8.4383V98.2526H30.1873Z" fill="#95A5A6"/>
</g>
<path d="M29.3215 96.299V93.6609H7.57251V96.299H29.3215Z" fill="#ECF0F1"/>
<path d="M28.0528 94.9701V70.9456H8.80092V94.9701H28.0528Z" fill="#ECF0F1"/>
<path d="M26.3007 73.3419H10.5729V92.5534H26.3007V73.3419Z" fill="#2980B9"/>
<path d="M26.3007 74.2279V73.3419H10.5729V91.5465C15.3054 84.901 20.6218 79.2221 26.3007 74.2279Z" fill="#3498DB"/>
<g style="mix-blend-mode:multiply">
<path d="M61.1393 98.2526V95.6146H39.3903V98.2526H61.1393Z" fill="#95A5A6"/>
</g>
<path d="M60.2735 96.299V93.6609H38.5245V96.299H60.2735Z" fill="#ECF0F1"/>
<path d="M59.0249 94.9701V70.9456H39.7731V94.9701H59.0249Z" fill="#ECF0F1"/>
<path d="M57.2527 73.3419H41.5249V92.5534H57.2527V73.3419Z" fill="#2980B9"/>
<path d="M57.2728 74.2279V73.3419H41.5451V91.5465C46.2775 84.901 51.5939 79.2221 57.2728 74.2279Z" fill="#3498DB"/>
<g style="mix-blend-mode:multiply" opacity="0.5">
<path d="M101.898 98.2526V95.6146H80.1494V98.2526H101.898Z" fill="#95A5A6"/>
</g>
<path d="M101.033 96.299V93.6609H79.2837V96.299H101.033Z" fill="#ECF0F1"/>
<path d="M99.7841 94.9701V70.9456H80.5322V94.9701H99.7841Z" fill="#ECF0F1"/>
<path d="M98.0118 73.3419H82.2841V92.5534H98.0118V73.3419Z" fill="#2980B9"/>
<path d="M98.0118 74.2279V73.3419H82.2841V91.5465C87.0165 84.901 92.3329 79.2221 98.0118 74.2279Z" fill="#3498DB"/>
<g style="mix-blend-mode:multiply" opacity="0.5">
<path d="M132.871 98.2526V95.6146H111.122V98.2526H132.871Z" fill="#95A5A6"/>
</g>
<path d="M132.005 96.299V93.6609H110.256V96.299H132.005Z" fill="#ECF0F1"/>
<path d="M130.736 94.9701V70.9456H111.484V94.9701H130.736Z" fill="#ECF0F1"/>
<path d="M128.984 73.3419H113.256V92.5534H128.984V73.3419Z" fill="#2980B9"/>
<path d="M128.984 74.2279V73.3419H113.256V91.5465C117.989 84.901 123.305 79.2221 128.984 74.2279Z" fill="#3498DB"/>
<g style="mix-blend-mode:multiply">
<path d="M30.1671 129.93V127.291H8.41815V129.93H30.1671Z" fill="#95A5A6"/>
</g>
<path d="M29.3215 127.976V125.338H7.5725V127.976H29.3215Z" fill="#ECF0F1"/>
<path d="M28.0528 126.627V102.622H8.80092V126.627H28.0528Z" fill="#ECF0F1"/>
<path d="M26.3007 105.019H10.5729V124.23H26.3007V105.019Z" fill="#2980B9"/>
<path d="M26.3007 105.905V105.019H10.5729V123.223C15.3054 116.578 20.6218 110.899 26.3007 105.905Z" fill="#3498DB"/>
<g style="mix-blend-mode:multiply">
<path d="M61.1191 129.93V127.291H39.3701V129.93H61.1191Z" fill="#95A5A6"/>
</g>
<path d="M60.2735 127.976V125.338H38.5245V127.976H60.2735Z" fill="#ECF0F1"/>
<path d="M59.0249 126.627V102.622H39.7731V126.627H59.0249Z" fill="#ECF0F1"/>
<path d="M57.2527 105.019H41.5249V124.23H57.2527V105.019Z" fill="#2980B9"/>
<path d="M57.2728 105.905V105.019H41.5451V123.223C46.2775 116.578 51.5939 110.899 57.2728 105.905Z" fill="#3498DB"/>
<path d="M15.5873 143.563C16.3123 142.355 16.7553 140.945 16.7553 139.435C16.7553 134.944 13.1305 131.319 8.63973 131.319C4.14897 131.319 0.524139 134.944 0.524139 139.435C0.524139 140.945 0.967174 142.355 1.69214 143.563H15.6074H15.5873Z" fill="#27AE60"/>
<path d="M54.7355 143.563C55.2591 142.677 55.6015 141.63 55.6015 140.522C55.6015 137.219 52.9231 134.541 49.6205 134.541C46.3179 134.541 43.6395 137.219 43.6395 140.522C43.6395 141.63 43.9617 142.677 44.5055 143.563H54.7557H54.7355Z" fill="#27AE60"/>
<path d="M46.2774 143.563C47.1635 142.052 47.7072 140.341 47.7072 138.448C47.7072 132.91 43.2165 128.399 37.6584 128.399C32.1003 128.399 27.6096 132.89 27.6096 138.448C27.6096 140.321 28.1533 142.052 29.0394 143.563H46.2573H46.2774Z" fill="#27AE60"/>
<path d="M34.2351 143.563C35.3225 141.75 35.9669 139.656 35.9669 137.38C35.9669 130.675 30.5297 125.217 23.8036 125.217C17.0776 125.217 11.6403 130.654 11.6403 137.38C11.6403 139.636 12.3049 141.75 13.3722 143.563H34.2149H34.2351Z" fill="#27AE60"/>
<path d="M134.3 103.831H108.786V143.563H134.3V103.831Z" fill="#F1C40F"/>
<path d="M131.481 106.187H111.605V143.563H131.481V106.187Z" fill="#2980B9"/>
<path d="M131.481 112.168V106.187H111.605V128.782C117.203 122.76 124.111 117.243 131.481 112.168Z" fill="#3498DB"/>
<path d="M125.077 125.62C125.077 127.896 125.863 129.728 126.829 129.728C127.796 129.728 128.581 127.896 128.581 125.62C128.581 123.344 127.796 121.512 126.829 121.512C125.863 121.512 125.077 123.344 125.077 125.62Z" fill="#F1C40F"/>
<g style="mix-blend-mode:multiply" opacity="0.5">
<path d="M98.0924 107.335H85.7075C84.7844 107.335 84.0361 108.083 84.0361 109.006V124.875C84.0361 125.798 84.7844 126.546 85.7075 126.546H98.0924C99.0155 126.546 99.7638 125.798 99.7638 124.875V109.006C99.7638 108.083 99.0155 107.335 98.0924 107.335Z" fill="#95A5A6"/>
</g>
<path d="M83.9555 103.831H96.3404C97.2667 103.831 98.0118 104.576 98.0118 105.502V121.351C98.0118 122.277 97.2667 123.022 96.3404 123.022H83.9555C83.0292 123.022 82.2841 122.277 82.2841 121.351V105.502C82.2841 104.576 83.0292 103.831 83.9555 103.831Z" fill="#F1C40F"/>
<path d="M98.0119 107.335V107.214C96.7029 108.563 95.4141 109.912 94.2259 111.201C90.7823 114.866 87.7617 118.813 85.1034 123.042H85.6069C87.8623 119.901 90.2588 116.84 92.635 113.799C94.3669 111.604 96.1592 109.449 98.0119 107.335Z" fill="#FFD42B"/>
<path d="M82.9688 122.68C85.8082 118.068 89.0706 113.759 92.8162 109.771C94.3467 108.14 95.998 106.348 97.7299 104.636C97.4278 104.173 96.9445 103.851 96.3404 103.851H83.9555C83.0292 103.851 82.2841 104.596 82.2841 105.522V121.371C82.2841 121.915 82.566 122.378 82.9688 122.68Z" fill="#FFD42B"/>
<path d="M97.005 109.872V109.268C97.005 108.612 96.4731 108.08 95.8169 108.08H84.4792C83.8231 108.08 83.2911 108.612 83.2911 109.268V109.872C83.2911 110.528 83.8231 111.06 84.4792 111.06H95.8169C96.4731 111.06 97.005 110.528 97.005 109.872Z" fill="#2C3E50"/>
<path d="M97.0049 109.63V109.288C97.0049 108.624 96.4612 108.1 95.8168 108.1H84.4993C83.8347 108.1 83.3111 108.644 83.3111 109.288V109.63H97.0251H97.0049Z" fill="#FFE375"/>
<path d="M95.2731 116.517H93.6419V118.672H95.2731V116.517Z" fill="#F1C40F"/>
</g>
</g>
<defs>
<clipPath id="clip0_2184_8728">
<rect y="0.307068" width="140" height="143.307" rx="6.46154" fill="white"/>
</clipPath>
<clipPath id="clip1_2184_8728">
<rect width="146" height="103" fill="white" transform="translate(-3 40.6929)"/>
</clipPath>
</defs>
</svg>
